<svg id="acdd795d-0e06-4d9d-9b4a-2b4cf19097b1" data-name="Capa 1" xmlns="http://www.w3.org/2000/svg" viewBox="0 0 1802.12 399"><path d="M54.69,144.94a140.87,140.87,0,0,0-5,36.64v2.57a188.46,188.46,0,0,1-5,44.45c-6.9-2.45-14-7.41-20.78-16C6.07,190,12,153.76,34,145.23c8.32-3.22,15.28-2.54,20.72-.43Z" transform="translate(-0.25)" fill="#a16552"/><path d="M54.69,144.94a140.87,140.87,0,0,0-5,36.64v2.57a188.46,188.46,0,0,1-5,44.45c-6.9-2.45-14-7.41-20.78-16C6.07,190,12,153.76,34,145.23c8.32-3.22,15.28-2.54,20.72-.43Z" transform="translate(-0.25)" fill="#f5dcb4"/><path d="M383.4,212.61c-6.77,8.57-13.88,13.53-20.78,16a188.84,188.84,0,0,1-5-44.44V181.6a140.22,140.22,0,0,0-5.05-36.78c5.44-2.11,12.4-2.79,20.72.43C395.29,153.76,401.23,190,383.4,212.61Z" transform="translate(-0.25)" fill="#a16552"/><path d="M383.4,212.61c-6.77,8.57-13.88,13.53-20.78,16a188.84,188.84,0,0,1-5-44.44V181.6a140.22,140.22,0,0,0-5.05-36.78c5.44-2.11,12.4-2.79,20.72.43C395.29,153.76,401.23,190,383.4,212.61Z" transform="translate(-0.25)" fill="#f5dcb4"/><path d="M314.85,229.06a39.82,39.82,0,0,0-4.38,34.18c2.93,8.62,5.55,18.38,5.55,25.64C316,342,265.71,385,203.65,385S91.27,342,91.27,288.88c0-7.26,2.62-17,5.55-25.64a39.83,39.83,0,0,0-4.37-34.17,61.78,61.78,0,0,1-9.72-33.14c0-35.25,30-63.84,67.05-63.84a69.33,69.33,0,0,1,34.15,8.9,39.86,39.86,0,0,0,39.44,0,69.29,69.29,0,0,1,34.14-8.89c37,0,67.06,28.59,67.06,63.84A60.86,60.86,0,0,1,319,221.45,61.61,61.61,0,0,1,314.85,229.06Z" transform="translate(-0.25)" fill="#a16552"/><path d="M314.85,229.06a39.82,39.82,0,0,0-4.38,34.18c2.93,8.62,5.55,18.38,5.55,25.64C316,342,265.71,385,203.65,385S91.27,342,91.27,288.88c0-7.26,2.62-17,5.55-25.64a39.83,39.83,0,0,0-4.37-34.17,61.78,61.78,0,0,1-9.72-33.14c0-35.25,30-63.84,67.05-63.84a69.33,69.33,0,0,1,34.15,8.9,39.86,39.86,0,0,0,39.44,0,69.29,69.29,0,0,1,34.14-8.89c37,0,67.06,28.59,67.06,63.84A60.86,60.86,0,0,1,319,221.45,61.61,61.61,0,0,1,314.85,229.06Z" transform="translate(-0.25)" fill="#f5dcb4"/><path d="M146.41,300.76A6.44,6.44,0,0,0,140,307.2a4.85,4.85,0,0,0,.05.85c4,28.45,31,50.45,63.65,50.45s59.67-22,63.65-50.45a6.46,6.46,0,0,0-5.56-7.24,7.89,7.89,0,0,0-.84-.05Z" transform="translate(-0.25)" fill="#4e3f3f"/><path d="M166.68,347.91a69.83,69.83,0,0,0,73.94,0c-4.64-16.06-19.47-12.36-37-12.36S171.32,331.85,166.68,347.91Z" transform="translate(-0.25)" fill="#e6646e"/><path d="M380.9,133.36c-13.3-5.16-23.85-2.44-31.27,1.83a164.22,164.22,0,0,0-6.25-15.69q-2.58-5.62-5.57-11.09C317.46,71.18,283.24,40.28,244,27.22l-.8-21.14L217.78,21.34,214.72,21c-1.88-.17-3.74-.3-5.64-.38l-3.71-16L204.28,0a32.52,32.52,0,0,0-3.72.14c-23.65,1.92-35.42,23.41-37.26,27.09-39.3,13.06-73.46,44-93.81,81.18q-3,5.46-5.57,11.09a167,167,0,0,0-6.26,15.69l-.95-.53c-7.36-3.95-17.58-6.23-30.31-1.3C-1.55,144.2-9.09,190.26,13.56,219c9.24,11.68,19,18.08,28.32,20.93-.12.52-.24,1-.35,1.58A109.79,109.79,0,0,0,39,265c0,54.83,40.44,102,98.38,122.73a191.6,191.6,0,0,0,42.06,9.87,202.81,202.81,0,0,0,22.44,1.4h1.78c90.93,0,164.64-60,164.64-134a110,110,0,0,0-2.53-23.51c-.12-.53-.23-1.06-.36-1.58,9.37-2.85,19.09-9.25,28.32-20.94C416.39,190.26,408.84,144.19,380.9,133.36ZM54.69,144.94a140.87,140.87,0,0,0-5,36.64v2.57a188.46,188.46,0,0,1-5,44.45c-6.9-2.45-14-7.41-20.78-16C6.07,190,12,153.76,34,145.23c8.32-3.22,15.28-2.54,20.72-.43ZM319,221.45a61.61,61.61,0,0,1-4.15,7.61,39.82,39.82,0,0,0-4.38,34.18c2.93,8.62,5.55,18.38,5.55,25.64C316,342,265.71,385,203.65,385S91.27,342,91.27,288.88c0-7.26,2.62-17,5.55-25.64a39.83,39.83,0,0,0-4.37-34.17,61.78,61.78,0,0,1-9.72-33.14c0-35.25,30-63.84,67.05-63.84a69.33,69.33,0,0,1,34.15,8.9,39.86,39.86,0,0,0,39.44,0,69.29,69.29,0,0,1,34.14-8.89c37,0,67.06,28.59,67.06,63.84A60.86,60.86,0,0,1,319,221.45Zm64.4-8.84c-6.77,8.57-13.88,13.53-20.78,16a188.84,188.84,0,0,1-5-44.44V181.6a140.22,140.22,0,0,0-5.05-36.78c5.44-2.11,12.4-2.79,20.72.43C395.29,153.76,401.23,190,383.4,212.61Z" transform="translate(-0.25)" fill="#a16552"/><rect x="181.42" y="245.7" width="10.8" height="24.52" rx="5.24" transform="translate(-125.69 320.72) rotate(-65.45)" fill="#4e3f3f"/><rect x="208.21" y="252.58" width="24.52" height="10.8" rx="5.24" transform="translate(-87.5 114.93) rotate(-24.55)" fill="#4e3f3f"/><path d="M145.91,221.43h0c-10.63,0-19.25-8.16-19.25-18.24v-6.08c0-10.07,8.62-18.24,19.25-18.24h0c10.63,0,19.24,8.17,19.24,18.24v6.08C165.15,213.27,156.54,221.43,145.91,221.43Z" transform="translate(-0.25)" fill="#4e3f3f"/><path d="M145.91,178.87v21.28a9.63,9.63,0,0,0,19.24,0v-3C165.15,187,156.54,178.87,145.91,178.87Z" transform="translate(-0.25)" fill="#5d5360"/><ellipse cx="145.66" cy="191.03" rx="6.42" ry="6.08" fill="#fff"/><path d="M261.39,221.43h0c-10.63,0-19.24-8.16-19.24-18.24v-6.08c0-10.07,8.61-18.24,19.24-18.24h0c10.63,0,19.25,8.17,19.25,18.24v6.08C280.64,213.27,272,221.43,261.39,221.43Z" transform="translate(-0.25)" fill="#4e3f3f"/><path d="M261.39,178.87v21.28a9.64,9.64,0,0,0,19.25,0v-3C280.64,187,272,178.87,261.39,178.87Z" transform="translate(-0.25)" fill="#5d5360"/><ellipse cx="261.14" cy="191.03" rx="6.42" ry="6.08" fill="#fff"/><path d="M205.37,4.66c-4.31-.42-13.74,6.35-25,18.1-2.81,2.93-5.75,6.18-8.75,9.7C149.47,58.41,123.82,99.33,115,141.32c-14.74,70.5-20.73,152.3,5.29,197.67,22,38.44,59.11,58.59,59.11,58.59a191.6,191.6,0,0,1-42.06-9.87C79.43,367,39,319.81,39,265a109.92,109.92,0,0,1,2.54-23.51c.11-.53.23-1.06.35-1.58C32.52,237,22.8,230.64,13.56,219-9.09,190.3-1.55,144.24,26.4,133.4c12.73-4.93,23-2.65,30.31,1.3l.95.53a167,167,0,0,1,6.26-15.69q2.58-5.62,5.57-11.09C89.84,71.2,124,40.29,163.3,27.23c1.84-3.68,13.61-25.17,37.26-27.09A32.43,32.43,0,0,1,204.28,0Z" transform="translate(-0.25)" fill="#4e3f3f" opacity="0.35" style="isolation:isolate"/><path d="M555,302.24q-7.46,2.88-26.78,2.87T496,301.58q-12.93-3.52-12.93-9,0-6.27,23.25-80.07t26.65-85q1.31-3.39,21-5.62a378.57,378.57,0,0,1,42.32-2.22q22.61,0,25,7.84,49.38,164.07,49.38,166.68t-3.13,5.22q-7.32,5.76-29,5.75-46.24,0-47.29-11l-1.83-17H564.3L563,291.79Q562.46,299.36,555,302.24Zm28.86-74.72-3.91-47H574.2l-4.44,47Z" transform="translate(-0.25)" fill="#a16552"/><path d="M687.61,336.72V170.56q0-5.48,14.63-11.23a85.83,85.83,0,0,1,31.61-5.75c5.23,0,9.32.62,12.28,1.83s4.79,2.44,5.49,3.66,2,6.44,3.92,15.67h2.09q.51-2.34,4.7-7.31a48.61,48.61,0,0,1,8.49-8.1q4.3-3.14,12.41-5.62a65.2,65.2,0,0,1,18.94-2.48,40.5,40.5,0,0,1,19.72,4.84q8.88,4.83,13.2,11.23a51.84,51.84,0,0,1,6.79,16.2,93.54,93.54,0,0,1,2.87,15.67q.4,5.88.4,17t-.79,22a197.53,197.53,0,0,1-2.87,22.08,77,77,0,0,1-6,19.33,59.88,59.88,0,0,1-9.93,14.63q-12,13.06-35.27,13.06a40.79,40.79,0,0,1-14.76-2.48q-6.4-2.48-9.53-5.88-6.54-7-7.58-12.54l-.26-2.61h-2.09l3.66,23.51v29.52q0,2.88-15,4.57a271.18,271.18,0,0,1-30.82,1.7q-15.81,0-21-1.43C689.35,340.6,687.61,339,687.61,336.72ZM772,197.47q-2.36-8.88-7.06-8.88t-6.79,5.23v68.44q0,6.81,7.05,6.8,9.15,0,9.15-40.5Q774.35,206.36,772,197.47Z" transform="translate(-0.25)" fill="#a16552"/><path d="M934.75,246.07q0,17,16.2,17,9.4,0,24.56-6.4t15.94-6.4q4.95,0,13.06,14.89t8.1,21.94q0,10.2-20.9,15.42a168.34,168.34,0,0,1-40.89,5.22q-20,0-33.44-3.13t-21.94-8A63.5,63.5,0,0,1,871,271.28,67.06,67.06,0,0,1,866,257a106.75,106.75,0,0,1-2.61-23.77q0-47.55,24.82-65.58a75,75,0,0,1,27.43-12.8q15.15-3.66,35.8-3.66,66.09,0,66.09,46,0,48.85-74.19,48.86Zm-.52-38.15v17.25a15.19,15.19,0,0,0,12.41-6,22.6,22.6,0,0,0,4.84-14.63q0-15.67-8.1-15.68-9.15,0-9.15,19.06Z" transform="translate(-0.25)" fill="#a16552"/><path d="M1172.76,294.14q-7.85,5.75-21.82,9.53t-36,3.79A231.3,231.3,0,0,1,1073,303.8q-19.86-3.65-28.48-8.09t-8.62-8.63a119,119,0,0,1,4.18-30.43q4.17-15.81,9.93-15.81,1,0,21.68,7.06t31.09,7q10.46,0,13.59-2.22a7.34,7.34,0,0,0,3.13-6.4q0-4.18-5.75-7.45a66.35,66.35,0,0,0-14.37-5.74,128.71,128.71,0,0,1-18.67-7.19A140.61,140.61,0,0,1,1062,215.5a44.75,44.75,0,0,1-14.37-16.33,49.7,49.7,0,0,1-5.75-24.16q0-58,69.23-58,25.86,0,44.68,3.26t26.51,7.32q7.71,4,7.71,8,0,13.57-6.4,29.26t-12.41,15.67q-1,0-6.79-2.35-17.25-7.57-28.61-7.58t-15.41,2.09a6.79,6.79,0,0,0-4.05,6.41q0,4.31,5.74,7a79.94,79.94,0,0,0,14.24,5,116.73,116.73,0,0,1,18.55,6.8,113,113,0,0,1,18.68,10.71q8.63,6.14,14.37,17.37t5.75,26.13a52.16,52.16,0,0,1-8.1,28.47A49.82,49.82,0,0,1,1172.76,294.14Z" transform="translate(-0.25)" fill="#a16552"/><path d="M1412.85,298.84q-3.4,6.27-35.4,6.27t-33.31-6.27l-8.88-47.55h-3.66l-8.36,47.55q-.79,6.27-45.72,6.27-12.54,0-16.59-1.44a9.17,9.17,0,0,1-5.62-4.83q-48.58-119.38-48.59-125.66t18.94-12.93a109.47,109.47,0,0,1,36.44-6.67q22.47,0,23.26,12l8.88,71.58h3.13l3.14-57.73q.26-6.52,13.32-11.5a74,74,0,0,1,26.39-5q13.32,0,20,3.26t6.92,8l2.87,63h2.88L1381.5,170q.78-6.27,17.63-11.36t29.65-5.1q12.81,0,20.12,3.66,12,5.75,12,13.59,0,.78-23.64,63.74T1412.85,298.84Z" transform="translate(-0.25)" fill="#a16552"/><path d="M1515.78,307.46q-23.77,0-37.36-11.23-5.49-4.71-9.54-13.85a52.38,52.38,0,0,1-4.05-21.38,38.67,38.67,0,0,1,5.88-21.42A43.06,43.06,0,0,1,1485,225.43a80.85,80.85,0,0,1,19.59-8.1,147.47,147.47,0,0,1,37.36-4.44h8.63q0-10.71-7.32-15.15-3.13-1.83-9.54-1.83t-15.41,3.39a97.49,97.49,0,0,0-15,6.93c-4,2.35-6.7,3.53-8.1,3.52q-4.71,0-12.8-12.41t-8.1-22.6q0-3.39,9.67-8.88t27.3-10.06a136.88,136.88,0,0,1,34.35-4.57A133.28,133.28,0,0,1,1574.5,154a86.31,86.31,0,0,1,19.86,6.67,40.38,40.38,0,0,1,13.06,10.45,71.74,71.74,0,0,1,8.1,11.75,44.6,44.6,0,0,1,4,13.59,131.45,131.45,0,0,1,1.83,23.77v78.64q0,2.88-14,4.57a226.81,226.81,0,0,1-27.69,1.7q-13.73,0-17.77-.78c-2.7-.53-4.31-1.13-4.83-1.83a9.58,9.58,0,0,1-1.31-3.66L1553.66,284h-2.09Q1545,307.46,1515.78,307.46Zm35-43.37V233.53a13,13,0,0,0-11,5.74,21.76,21.76,0,0,0-4.18,13.07q0,17.23,7.84,17.24a7.88,7.88,0,0,0,5.36-1.7,5,5,0,0,0,2-3.79Z" transform="translate(-0.25)" fill="#a16552"/><path d="M1644.83,336.72V170.56q0-5.48,14.63-11.23a85.85,85.85,0,0,1,31.62-5.75c5.22,0,9.31.62,12.28,1.83s4.78,2.44,5.48,3.66,2,6.44,3.92,15.67h2.09q.53-2.34,4.7-7.31a49.33,49.33,0,0,1,8.49-8.1q4.32-3.14,12.41-5.62a65.2,65.2,0,0,1,18.94-2.48,40.53,40.53,0,0,1,19.73,4.84q8.88,4.83,13.19,11.23a51.37,51.37,0,0,1,6.79,16.2,92.56,92.56,0,0,1,2.88,15.67q.39,5.88.39,17t-.78,22a199.92,199.92,0,0,1-2.88,22.08,76.21,76.21,0,0,1-6,19.33,60.12,60.12,0,0,1-9.92,14.63q-12,13.06-35.27,13.06a40.79,40.79,0,0,1-14.76-2.48q-6.4-2.48-9.54-5.88-6.53-7-7.58-12.54l-.26-2.61h-2.09l3.66,23.51v29.52q0,2.88-15,4.57a271.48,271.48,0,0,1-30.83,1.7q-15.81,0-21-1.43C1646.57,340.6,1644.83,339,1644.83,336.72Zm84.39-139.25q-2.35-8.88-7-8.88t-6.8,5.23v68.44q0,6.81,7.06,6.8,9.13,0,9.14-40.5Q1731.57,206.36,1729.22,197.47Z" transform="translate(-0.25)" fill="#a16552"/></svg>