<svg id="b96628ed-98e3-4d25-a91c-79799b530646" data-name="Capa 1" xmlns="http://www.w3.org/2000/svg" viewBox="0 0 53.53 48.69"><path d="M1001.69,626.25c-1.25-1.26-3,.42-7.38-.66a26,26,0,0,1-9.6-4.73c-3-2.33-6.23-4.47-9.36-6.68-.56-.39-1.19-.69-1.89-1.1-1.82,3.17-3.54,6.13-5.3,9.2l1.71,1.44c-1.91,2.82-3.74,5.72-5.77,8.47-4.64,6.32-9.43,12.54-14,18.88q.16.34.33.72c.42.92.79,1.83,1.11,2.71a1.86,1.86,0,0,0,1,0c2-.6,1.6-4.72,3-8.49,1-2.48,1.46-1.8,4.88-6.5s6.64-9.39,9.93-14.11c.6-.86,1.12-1.44,2-.33l-4.83,6.65.15.08c1.55-1.76,3.18-3.46,4.63-5.31,1.24-1.56,2.3-1,3.63,0-.26.45-.45.85-.7,1.2-3,4.15-5.87,8.37-9,12.43-3.55,4.64-6.68,9.68-11.81,12.93-1,.67-1.68,2-2.49,3v0a10.55,10.55,0,0,0,2.23-2c.69-.69,1.49-1.28,2.25-1.92-1.32,2-2.59,3.93-3.86,5.9.14.42.27.84.41,1.25.08.24.18.48.26.71,5-7.47,10.68-14.48,16.08-21.67,2.5-3.32,4.87-6.73,7.2-10.17a2.12,2.12,0,0,1,2.77-.67c1.82,1,3.73,1.82,5.53,2.84,2.56,1.46,3.18,3.22,1.67,5.76a21.82,21.82,0,0,1-4.58,5.83c-3.14,2.56-3.76,6.2-5.19,9.62,3.93-.34,12.35-1.7,18.68-8.33C1000.72,637.62,1004.17,628.74,1001.69,626.25Zm-22.9,23.41c3.3-2,6.63-3.47,9.24-5.74s4.68-5.48,7-8.27l-.4-.33c-3.47,5.44-7.71,9.93-14.44,11.39a4.43,4.43,0,0,1,1.2-2.22c1-.81,2.48-1.17,3.16-2.13a38.81,38.81,0,0,0,4.42-7.52c1-2.4,0-4.36-2.32-5.65-3-1.66-6-3.17-9-4.72a8,8,0,0,0-1.22-.27,18.32,18.32,0,0,1-4.74-1.64c-.35-.23.48-2.36.84-3.6a3.09,3.09,0,0,1,.67-.93c2-2.46,3.48-2.42,5.4.14,4.39,5.85,10.8,8.17,17.81,10.35l-.95-1.15,6.13.4C1000.47,638.85,990.23,648.79,978.79,649.66Z" transform="translate(-949.48 -612.4)" fill="#fff" stroke="#fff" stroke-miterlimit="10"/></svg>