<svg id="b7021401-b53c-4366-996c-3f95c9511f8e" data-name="Capa 1" xmlns="http://www.w3.org/2000/svg" viewBox="0 0 97.55 98.5"><path d="M1001.69,626.25c-1.25-1.26-3,.42-7.38-.66a26,26,0,0,1-9.6-4.73c-3-2.33-6.23-4.47-9.36-6.68-.56-.39-1.19-.69-1.89-1.1-1.82,3.17-3.54,6.13-5.3,9.2l1.71,1.44c-1.91,2.82-3.74,5.72-5.77,8.47-5.14,7-10.48,13.87-15.54,20.94a157.47,157.47,0,0,0-9.09,14.3,2.11,2.11,0,0,0,0,1.78,11.2,11.2,0,0,0,4.08,6.85c-.62-1.21-2.88-6-1-11.22a12.74,12.74,0,0,1,2.12-3.68l.42.23c-.08.58-.17,1.15-.26,1.8,1.41-2.88,2.47-5.91,4.21-8.45,3.58-5.21,7.59-10.12,11.32-15.23,3.39-4.65,6.64-9.39,9.93-14.11.6-.86,1.12-1.44,2-.33l-4.83,6.65.15.08c1.55-1.76,3.18-3.46,4.63-5.31,1.24-1.56,2.3-1,3.63,0-.26.45-.45.85-.7,1.2-3,4.15-5.87,8.37-9,12.43-3.55,4.64-6.68,9.68-11.81,12.93-1.06.68-1.7,2-2.53,3.07a10.37,10.37,0,0,0,2.27-2c.69-.69,1.49-1.28,2.25-1.92A209.25,209.25,0,0,0,943,674.51l1,1.41q2.46-4.84,5.23-9.56c5.84-10,13.18-18.85,20.09-28,2.5-3.32,4.87-6.73,7.2-10.17a2.12,2.12,0,0,1,2.77-.67c1.82,1,3.73,1.82,5.53,2.84,2.56,1.46,3.18,3.22,1.67,5.76a21.82,21.82,0,0,1-4.58,5.83c-3.14,2.56-3.76,6.2-5.19,9.62,3.93-.34,12.35-1.7,18.68-8.33C1000.72,637.62,1004.17,628.74,1001.69,626.25Zm-22.9,23.41c3.3-2,6.63-3.47,9.24-5.74s4.68-5.48,7-8.27l-.4-.33c-3.47,5.44-7.71,9.93-14.44,11.39a4.43,4.43,0,0,1,1.2-2.22c1-.81,2.48-1.17,3.16-2.13a38.81,38.81,0,0,0,4.42-7.52c1-2.4,0-4.36-2.32-5.65-3-1.66-6-3.17-9-4.72a8,8,0,0,0-1.22-.27,18.32,18.32,0,0,1-4.74-1.64c-.35-.23.48-2.36.84-3.6a3.09,3.09,0,0,1,.67-.93c2-2.46,3.48-2.41,5.4.14,4.39,5.85,10.8,8.17,17.81,10.35l-.95-1.15,6.13.4C1000.47,638.85,990.23,648.79,978.79,649.66Z" transform="translate(-920.23 -595.75)" fill="#fff"/><g opacity="0.99"><polyline points="47.73 5.2 48.45 4.61 49.2 3.9 49.91 4.21 50.61 4.73 51.32 4.79 51.99 5.32 52.86 3.97 53.45 5.11 54.17 5.18 54.88 5.27 55.79 4.24 56.33 5.31 56.94 5.93 57.95 4.67 58.61 5.08 59.38 5.04 59.94 5.77 60.73 5.64 61.11 6.89 61.96 6.59 62.73 6.58 63.12 7.64 63.75 7.98 64.65 7.67 65.53 7.42 65.79 8.64 66.73 8.33 67.09 9.24 67.59 9.84 68.37 9.89 69.62 9.09 69.52 10.75 70.79 10 71.2 10.73 72.01 10.8 72.48 11.42 73.25 11.59 73.23 12.88 74.42 12.46 74.27 13.88 75.69 13.21 75.56 14.54 76.16 14.94 77.2 14.82 78.03 14.98 78.36 15.72 78.24 16.9 78.65 17.51 79.35 17.82 79.8 18.38 80.29 18.9 81.43 18.83 80.91 20.26 82.56 19.78 82.02 21.18 82.31 21.86 83.31 21.98 84.28 22.15 83.67 23.5 84.08 24.07 85.31 24.1 86.24 24.36 85.77 25.53 85.91 26.28 87.24 26.33 87.43 27.07 87.36 27.93 88.2 28.31 88.27 29.09 87.73 30.16 88.62 30.53 89.63 30.88 89.4 31.77 89.64 32.45 89.54 33.27 90.26 33.77 91.02 34.27 90 35.38 90.54 35.96 90.96 36.59 91.04 37.31 92.07 37.79 90.66 38.89 92.41 39.22 92.39 39.97 91.78 40.83 92.12 41.51 91.68 42.31 92.19 42.95 92.94 43.59 92.3 44.39 93.07 45.04 92.02 45.85 93.07 46.5 93.4 47.22 93.41 47.95 92.92 48.69 92.86 49.42 92.81 50.14 92.47 50.85 93.59 51.63 92.88 52.32 91.89 52.97 92.4 53.73 92.41 54.46 91.8 55.11 93.12 56.02 91.61 56.52 92.61 57.42 92.57 58.16 92.69 58.93 91.31 59.37 90.95 60.02 91.43 60.88 91.16 61.56 91.26 62.34 90.77 62.95 90.21 63.53 90.78 64.49 89.3 64.72 89.48 65.56 88.85 66.07 90.01 67.34 89.59 67.95 87.97 68.02 87.85 68.75 88.77 70.01 86.94 69.88 86.74 70.58 86.5 71.26 85.89 71.73 85.53 72.34 85.92 73.42 86.19 74.47 85.27 74.73 84.03 74.75 84.3 75.82 84.43 76.82 82.95 76.61 83 77.56 82.9 78.41 82.36 78.91 81.79 79.38 81.17 79.8 81.01 80.64 80.73 81.39 79.11 80.81 79.71 82.45 78.2 81.92 78.34 83.13 77.48 83.26 76.98 83.79 76.78 84.69 76.06 84.96 75.49 85.41 74.49 85.28 74.19 86.09 73.86 86.89 72.71 86.48 72.59 87.62 72.08 88.18 70.65 87.24 70.6 88.54 70.25 89.41 69.42 89.41 68.2 88.65 67.54 88.92 67.03 89.49 66.35 89.72 66.19 91.11 65.45 91.24 64.49 90.81 64.24 92.14 63.31 91.74 62.9 92.76 61.74 91.59 61.41 92.91 60.32 91.81 59.95 93.14 58.97 92.26 58.53 93.45 57.69 93.01 57.25 94.4 56.27 93.21 55.75 94.39 54.95 94.01 54.32 94.75 53.45 93.66 52.77 94.04 52.06 94.24 51.33 94.07 50.66 94.95 49.9 94.24 49.18 94.34 48.46 94.22 47.73 94.46 47.01 94.78 46.3 94.04 45.6 93.75 44.81 94.91 44.09 94.69 43.35 94.78 42.7 94.08 42.04 93.53 41.19 94.44 40.59 93.57 39.88 93.47 39.05 94 38.33 93.85 37.67 93.48 37.05 92.96 36.34 92.86 35.74 92.33 35.1 91.95 34.16 92.57 33.43 92.47 32.95 91.64 32.07 91.96 31.66 91.02 31.08 90.53 30.49 90.11 29.45 90.71 28.8 90.39 28.06 90.26 27.66 89.42 26.65 89.81 26.14 89.21 25.82 88.31 25.38 87.64 24.33 88 23.56 87.87 22.91 87.53 22.22 87.25 21.52 86.97 21.02 86.42 20.94 85.31 20.12 85.19 19.27 85.09 19.54 83.61 18.43 83.83 18.22 82.97 17.44 82.76 16.5 82.71 16.01 82.16 15.25 81.89 14.87 81.23 14.89 80.21 13.72 80.29 13.96 79.11 12.73 79.21 12.53 78.42 12.33 77.64 12.05 76.94 10.93 76.87 11.72 75.4 10.67 75.27 10.34 74.61 10.04 73.95 10.01 73.11 9.65 72.5 9.13 71.98 8.81 71.33 8.33 70.78 7.58 70.36 7.88 69.4 7.63 68.73 6.61 68.41 7.11 67.4 6.53 66.87 6.44 66.13 5.65 65.67 4.59 65.3 5.19 64.3 4.57 63.75 5.48 62.7 4.91 62.13 4.07 61.62 3.62 60.99 3.49 60.27 4.29 59.34 3.52 58.77 3.17 58.1 4.09 57.2 2.71 56.7 2.95 55.93 3.55 55.12 3.18 54.45 2.59 53.78 2 53.09 2.01 52.36 2.92 51.58 2.68 50.87 2.8 50.14 2.68 49.42 2.3 48.69 2.07 47.95 2.07 47.22 2.34 46.5 3.6 45.87 3.39 45.13 2.82 44.35 3.49 43.71 2.63 42.86 2.51 42.1 3.58 41.54 3.98 40.89 3.59 40.08 4.3 39.5 3.8 38.64 3.93 37.92 4.38 37.3 5.11 36.76 5.33 36.08 4.46 35.04 6 34.81 4.7 33.57 5.28 33.01 6.3 32.63 6.47 31.93 6.07 30.96 6.37 30.3 6.89 29.74 6.99 28.97 7.5 28.42 8.69 28.23 8.18 27.13 9.32 26.95 9.07 25.96 9.18 25.18 9.78 24.7 9.98 23.96 10.79 23.63 11.11 22.98 12.07 22.79 11.44 21.4 13.12 21.8 13.43 21.14 12.74 19.61 14.52 20.2 14.75 19.45 14.42 18.16 15.21 17.9 15.87 17.54 16.55 17.2 16.48 16.07 17.52 16.13 17.48 15 18.42 14.97 18.52 13.95 19.37 13.84 20.65 14.3 20.74 13.23 21.58 13.16 22.33 12.98 22.63 12.16 23.2 11.72 23.48 10.8 24 10.26 25.3 11.02 25.35 9.67 26.56 10.37 27.3 10.24 27.36 8.79 28.43 9.32 29.08 9.03 29.24 7.64 29.84 7.16 30.48 6.79 31.66 7.81 32.45 7.89 32.63 6.25 33.69 7.12 34.45 7.14 34.85 6 35.51 5.66 36.43 6.32 37.02 5.72 37.58 4.95 38.42 5.37 39.07 4.94 39.97 5.84 40.5 4.72 41.24 4.72 41.99 4.9 42.58 3.75 43.32 3.75 44.08 4.02 44.8 3.73 45.57 4.59 46.27 4.02 47 3.55 47.73 4.86" fill="none" stroke="#fff" stroke-miterlimit="10" stroke-width="4"/></g></svg>