<svg id="a6540bb5-ae09-415d-9193-2fa28beb86ae" data-name="Layer 1" xmlns="http://www.w3.org/2000/svg" viewBox="0 0 795.58 215.79"><path id="b5caa126-1c79-4797-adef-02f11e39b0c9" data-name="Shape" d="M324.2,418.15h36.59c9.3,0,16.12,2.48,20.46,6.82a17.58,17.58,0,0,1,6.2,13.64h0a21.09,21.09,0,0,1-.62,6.2,26,26,0,0,1-5.58,8.68,13,13,0,0,1-3.72,2.48,26,26,0,0,1,11.16,6.82c2.48,3.1,3.72,6.83,3.72,12.41h0a22.65,22.65,0,0,1-1.86,9.3,21.45,21.45,0,0,1-6.2,6.82,62.57,62.57,0,0,1-9.3,4.34c-3.72,1.24-8.06,1.24-12.4,1.24H324.82V418.15Zm33.49,32.24a24.88,24.88,0,0,0,9.3-1.86,6.82,6.82,0,0,0,3.72-6.2h0a7.63,7.63,0,0,0-3.1-6.2,10.76,10.76,0,0,0-8.68-1.86H341.57V451h16.12ZM362,482a24.88,24.88,0,0,0,9.3-1.86,5.88,5.88,0,0,0,3.1-6.82h0a7.63,7.63,0,0,0-3.1-6.2,19.1,19.1,0,0,0-9.92-2.49H341V482Z" transform="translate(-102.21 -392.1)" fill="#f3ba2c"/><polygon id="a408b620-62f2-463d-88e6-d6f6ea1aacec" data-name="Path" points="311.91 26.04 329.27 26.04 329.27 105.42 311.91 105.42 311.91 26.04" fill="#f3ba2c"/><polygon id="a2c88de9-1d06-4b9f-8d64-f8689885ed75" data-name="Path" points="355.93 26.04 372.06 26.04 409.26 75.03 409.26 26.04 426.62 26.04 426.62 105.42 411.74 105.42 372.68 55.19 372.68 105.42 355.93 105.42 355.93 26.04" fill="#f3ba2c"/><path id="b4f9f3ac-cee9-48d0-9830-dbcee2ad51d1" data-name="Shape" d="M581.54,417.53h16.12l34.11,80h-18l-7.44-18H572.86l-7.44,18h-18Zm18.61,47.12-10.55-26-10.54,26Z" transform="translate(-102.21 -392.1)" fill="#f3ba2c"/><polygon id="a05c4d2c-7972-4f7f-9878-5b2924380786" data-name="Path" points="548.16 26.04 564.28 26.04 601.49 75.03 601.49 26.04 618.85 26.04 618.85 105.42 603.97 105.42 565.52 55.19 565.52 105.42 548.16 105.42 548.16 26.04" fill="#f3ba2c"/><path id="fffc8ddb-2e56-4218-8fdd-3ff2d743f978" data-name="Path" d="M784.31,498.76a46.57,46.57,0,0,1-16.12-3.1,41.26,41.26,0,0,1-21.7-21.7,46.63,46.63,0,0,1-3.1-16.13h0a43.53,43.53,0,0,1,11.78-29.14,36.93,36.93,0,0,1,13-8.68,40.06,40.06,0,0,1,16.74-3.1,53.33,53.33,0,0,1,9.92.62,30.77,30.77,0,0,1,8.07,2.48,67.63,67.63,0,0,1,6.82,3.72,43.44,43.44,0,0,1,6.2,5l-10.54,13a87.78,87.78,0,0,0-9.31-6.82,20.38,20.38,0,0,0-10.54-2.48,24.88,24.88,0,0,0-9.3,1.86,16.93,16.93,0,0,0-7.44,5.58,35.15,35.15,0,0,0-5,8.06,24.88,24.88,0,0,0-1.86,9.3h0a28.18,28.18,0,0,0,1.86,9.93,21.88,21.88,0,0,0,5,8.06,22.14,22.14,0,0,0,16.74,7.44,26.87,26.87,0,0,0,11.78-2.48,51,51,0,0,0,9.31-6.82L817.8,484.5l-6.2,6.2a46.24,46.24,0,0,1-7.44,4.34,35.78,35.78,0,0,1-8.69,3.1,75.23,75.23,0,0,1-11.16.62Z" transform="translate(-102.21 -392.1)" fill="#f3ba2c"/><polygon id="b6d12dc0-01a8-4e7d-9493-4f0bad7cef9b" data-name="Path" points="735.43 26.04 794.96 26.04 794.96 41.55 752.17 41.55 752.17 57.67 790 57.67 790 73.17 752.17 73.17 752.17 89.91 795.58 89.91 795.58 105.42 735.43 105.42 735.43 26.04" fill="#f3ba2c"/><path id="fa131fbb-12d0-4ea6-ac4a-3e9733f72e48" data-name="Path" d="M346.53,575.65a27.83,27.83,0,0,1-12.41-2.48c-3.72-1.24-7.44-3.72-11.16-6.82l6.2-6.82c2.48,2.48,5,3.72,8.07,5.58a24.88,24.88,0,0,0,9.3,1.86,16.51,16.51,0,0,0,7.44-1.86,5.64,5.64,0,0,0,2.48-5h0a3.73,3.73,0,0,0-.62-2.48c-.62-.62-1.24-1.86-1.86-2.48l-3.72-1.86c-1.86-.62-4.34-1.24-6.2-1.86A40.1,40.1,0,0,1,336,549a16.21,16.21,0,0,1-5.59-3.1,27,27,0,0,1-3.72-4.34,14.54,14.54,0,0,1-1.24-6.82h0a26.36,26.36,0,0,1,1.24-6.83c.62-1.86,2.48-3.72,3.72-5a19.34,19.34,0,0,1,6.21-3.1,31.12,31.12,0,0,1,7.44-1.24,35.11,35.11,0,0,1,11.16,1.86,67.76,67.76,0,0,1,9.3,5l-5,7.44a46.24,46.24,0,0,0-7.44-4.34c-2.48-1.24-5-1.24-7.44-1.24a12.5,12.5,0,0,0-6.82,1.86,7.65,7.65,0,0,0-2.48,5h0a5.59,5.59,0,0,0,.62,3.1c.62.62,1.24,1.86,1.86,2.48a30.23,30.23,0,0,0,4.34,1.86,50.3,50.3,0,0,0,6.82,1.86,57.58,57.58,0,0,1,8.06,2.48,25.13,25.13,0,0,1,5.58,3.1,18.84,18.84,0,0,1,3.1,4.34,18.34,18.34,0,0,1,1.24,6.2h0a22.29,22.29,0,0,1-1.24,6.82,34.07,34.07,0,0,1-4.34,5.58,19.39,19.39,0,0,1-6.2,3.1C352.11,575,349,575.65,346.53,575.65Z" transform="translate(-102.21 -392.1)" fill="#f3ba2c"/><polygon id="e4541051-f12e-4dcf-8992-a41519c69119" data-name="Path" points="275.32 127.12 285.86 127.12 302.61 153.16 319.97 127.12 330.51 127.12 330.51 182.93 320.59 182.93 320.59 142.62 303.23 168.66 302.61 168.66 285.24 142.62 285.24 182.93 275.32 182.93 275.32 127.12" fill="#f3ba2c"/><path id="b6e413d2-cb75-43cf-aad1-042711329d1e" data-name="Shape" d="M466.2,518.6h9.31l24.18,55.81H489.15l-5.58-13.64H457.52l-5.58,13.64H442Zm14.27,34.11-9.92-22.33-9.31,22.33Z" transform="translate(-102.21 -392.1)" fill="#f3ba2c"/><path id="bb88d5fb-f8ce-4358-8ea3-501e5e51fb47" data-name="Shape" d="M509.61,519.22h24.81a47.86,47.86,0,0,1,9.3,1.24,16.05,16.05,0,0,1,6.82,4.34,21.64,21.64,0,0,1,3.72,5.58,22.36,22.36,0,0,1,1.24,6.83h0a22,22,0,0,1-1.24,6.2c-.62,1.86-1.86,3.1-2.48,5a27,27,0,0,1-4.34,3.72,22,22,0,0,1-5.58,2.48l14.88,21.08H545l-13.65-19.22h-12.4v19.22H509Zm24.19,27.29c3.1,0,6.2-.62,8.06-2.48a10,10,0,0,0,3.1-6.82h0a10,10,0,0,0-3.1-6.83,14.23,14.23,0,0,0-8.68-2.48H518.91v18.61Z" transform="translate(-102.21 -392.1)" fill="#f3ba2c"/><polygon id="b72ec57c-04e5-472c-94e9-209ba4c50642" data-name="Path" points="478.71 135.8 460.73 135.8 460.73 127.12 506 127.12 506 135.8 488.01 135.8 488.01 182.93 478.09 182.93 478.71 135.8" fill="#f3ba2c"/><path id="a997e186-ab04-456a-8661-27b030fe54ec" data-name="Path" d="M668.36,575.65a24.33,24.33,0,0,1-11.17-2.48c-6.82-3.1-12.4-8.06-14.88-14.88-1.24-3.72-2.48-7.44-1.86-11.16h0A35.11,35.11,0,0,1,642.31,536a28,28,0,0,1,14.88-15.51c3.72-1.24,7.44-2.48,11.79-2.48a23.25,23.25,0,0,1,6.82.62l5.58,1.86c1.86.62,3.1,1.86,5,2.48,1.24,1.24,3.1,2.48,4.34,3.72l-6.2,7.45a27.31,27.31,0,0,0-6.82-5,19.8,19.8,0,0,0-8.68-1.86,31.2,31.2,0,0,0-7.45,1.24,22.09,22.09,0,0,0-6.2,4.35,12.86,12.86,0,0,0-3.72,6.2,31.12,31.12,0,0,0-1.24,7.44h0a31.12,31.12,0,0,0,1.24,7.44,12.86,12.86,0,0,0,3.72,6.2,22.27,22.27,0,0,0,6.2,4.34,10.7,10.7,0,0,0,7.45,1.24,19.8,19.8,0,0,0,8.68-1.86,29.15,29.15,0,0,0,7.44-5.58l6.2,6.2L687,568.83c-1.86,1.24-3.1,2.48-5,3.1s-3.72,1.86-6.2,1.86c-2.48,1.86-5,1.86-7.44,1.86Z" transform="translate(-102.21 -392.1)" fill="#f3ba2c"/><polygon id="ac124803-aa9a-4480-a030-3d2b557cdae9" data-name="Path" points="599.01 127.12 608.31 127.12 608.31 150.06 634.98 150.06 634.98 127.12 644.9 127.12 644.9 182.93 634.98 182.93 634.98 159.36 608.31 159.36 608.31 182.93 599.01 182.93 599.01 127.12" fill="#f3ba2c"/><path id="a0382be4-1d14-4326-9fa1-acbc4d3a8fa3" data-name="Shape" d="M781.21,518.6h9.3l24.19,55.81H804.16l-5.58-13.64H772.53L767,574.41H757Zm13.64,34.11-9.3-22.33-9.3,22.33Z" transform="translate(-102.21 -392.1)" fill="#f3ba2c"/><polygon id="e70c9300-c8a7-4ac6-945b-aa3ce0918f62" data-name="Path" points="722.41 127.12 732.33 127.12 732.33 182.93 722.41 182.93 722.41 127.12" fill="#f3ba2c"/><polygon id="bae5888c-7193-49a3-8ca7-8fb7b3524bd4" data-name="Path" points="747.21 127.12 755.89 127.12 785.66 165.56 785.66 127.12 795.58 127.12 795.58 182.93 787.52 182.93 757.13 143.24 757.13 182.93 747.21 182.93 747.21 127.12" fill="#f3ba2c"/><path id="a897bc18-4280-4a92-a7d8-0be00e5d2727" data-name="binancedex" d="M215.07,571.31v24.18L194,607.9l-20.46-12.41V571.31L194,583.71ZM102.21,487.6,122.67,500v41.55L158,562.63v24.18L102.21,554Zm183.55,0V554l-56.43,32.86V562.63l35.34-21.08V500Zm-56.43-32.87,21.08,12.41h0v24.18L215.07,512.4v42.17L194.6,567l-20.46-12.4V512.4l-36.58-21.08V467.14l21.08-12.41L194,475.82Zm-91.77,53.95L158,521.08v24.19l-20.46-12.41Zm112.85,0v24.18L230,545.27V521.08Zm-127.74-75,21.09,12.4-21.09,12.4v24.19l-20.46-12.4V446.05Zm142.62,0,21.09,12.4v24.19l-21.09,12.4V458.45l-20.46-12.4Zm-71.31,0,21.09,12.4L194,458.45l-20.46-12.4Zm0-41.55L250.41,425,230,437.37,194.6,416.29l-36,21.08L138.18,425Z" transform="translate(-102.21 -392.1)" fill="#f3ba2c"/></svg>