<svg id="f70256a1-c719-4157-9587-1cb05d1ec0d2" data-name="Layer 1" xmlns="http://www.w3.org/2000/svg" viewBox="0 0 215.16 57.23"><path d="M130.69,166h5.83s0,0,0,0V141.51s0,0,0,0h-5.83s0,0,0,0V166s0,0,0,0Z" transform="translate(-32.42 -121.38)" fill="#344e8d" fill-rule="evenodd"/><path d="M176.7,146.13c-3.67,0-5.7,1.07-8.29,3.21,0,0,0,0,0,0,0-.19.09-1.49-.17-1.49-1.6,0-4-.06-5.72,0v18.07c2.23,0,5.89,0,5.89,0,0-3.5,0-7.44,0-11.16.23-1.58,1.8-3.95,5.86-3.95,2.88-.23,3.56,2,3.56,4.57v10.54h5.86c0-1.58.62-11.11-.22-14.72-1-4.51-5.47-5-6.77-5.07Z" transform="translate(-32.42 -121.38)" fill="#344e8d" fill-rule="evenodd"/><path d="M105.65,139.84l6,1.64v6.76a12.25,12.25,0,0,1,6.57-1.89c6.12,0,11.11,4.46,11.11,9.9s-5,9.9-11.11,9.9a12.23,12.23,0,0,1-6.57-1.86V166h-6V139.84Zm11.7,11.08a5.47,5.47,0,1,1-5.64,5.47,5.57,5.57,0,0,1,5.64-5.47Z" transform="translate(-32.42 -121.38)" fill="#344e8d" fill-rule="evenodd"/><path d="M208.76,139.84l-6.09,1.64,0,6.79a12.11,12.11,0,0,0-6.54-1.92c-6.12,0-11.11,4.46-11.11,9.9s5,9.9,11.11,9.9a12.15,12.15,0,0,0,6.48-1.84l0,1.64h6.21V139.84ZM197,150.92a5.47,5.47,0,1,0,5.69,5.47,5.55,5.55,0,0,0-5.69-5.47Z" transform="translate(-32.42 -121.38)" fill="#344e8d" fill-rule="evenodd"/><path d="M232.78,157.49c-.06-7-2.79-11.81-12-11.47-7.28.17-11,3.92-10.86,10.77.59,6.71,4.31,8.68,10.49,9.58,5.33.2,9.08-1.63,10.35-4.17-1.38-1-3.1-1.86-4.46-2.82-1.49,2.09-2.82,3.19-5.07,2.85-3.95-.59-4.6-2.48-4.74-4.71l16.3,0Zm-16.05-3.86c.34-2,1.47-3.72,4.68-3.95,2.88,0,4.68,1.75,4.68,3.95Z" transform="translate(-32.42 -121.38)" fill="#344e8d" fill-rule="evenodd"/><path d="M160.88,157.49c0-7-2.79-11.81-12-11.47-7.27.17-11,3.92-10.85,10.77.59,6.71,4.31,8.68,10.49,9.58,5.32.2,9.07-1.63,10.34-4.17-1.44-.93-3-1.92-4.45-2.82-1.5,2.09-2.82,3.19-5.08,2.85-3.94-.59-4.59-2.48-4.73-4.71l16.29,0Zm-16-3.86c.34-2,1.47-3.72,4.68-3.95,2.88,0,4.68,1.75,4.68,3.95Z" transform="translate(-32.42 -121.38)" fill="#344e8d" fill-rule="evenodd"/><path d="M235,166h5.58c.11,0,.17,0,.17-.06V154.81c1.32-2.62,3.55-3.18,6.85-3l0-5.05c-3.86.14-5,.48-6.82,2.48v-1.35c0-.06-.06-.06-.17-.06H235c-.12,0-.17,0-.17.06v18c0,.06.05.06.17.06Z" transform="translate(-32.42 -121.38)" fill="#344e8d" fill-rule="evenodd"/><path d="M74.72,134.26H46.05c-5.16.39-4.34,7.27-.54,7.22,3.53-.06,9.45,0,13.65,0-6,5.69-19.51,14.32-25.4,19.93-2.29,2.17-2.15,8.49,4.48,7,2.51-1.38,13.84-10.63,15.39-12.21.79,19.65,22.9,28.87,39.5,17.34,8.83-6.14,11.87-21.71,5-29.38-5.44-6.09-15.36-12.18-27.23-22.07-1.89-1.55-7.56-.76-5.64,3.86a97.82,97.82,0,0,0,9.5,8.29Zm2.91,6.91c8.17,0,14.88,6,14.88,13.36s-6.71,13.36-14.88,13.36-14.89-6-14.89-13.36,6.65-13.36,14.89-13.36Z" transform="translate(-32.42 -121.38)" fill="#f19333" fill-rule="evenodd"/><path d="M78.15,145.48a8.72,8.72,0,1,1-9.24,8.7,9,9,0,0,1,9.24-8.7Z" transform="translate(-32.42 -121.38)" fill="#315392" fill-rule="evenodd"/></svg>