<svg xmlns="http://www.w3.org/2000/svg" data-name="Capa 1" viewBox="0 0 268.59 108.77"><path fill="#fff" d="M262.09 60.92l-2.59.48-1.38-.79-1.64-.26-1.43-1.17 1.35-1.36 1.12.7 1.46-2.45.65 2.12 2.41-1.21-.63 4.37 3.2-2.56.5 1.16 2.62-1.57.86-1.74-6.02-1.73.4-1.74.37-1.73 1.35-1.74 2.66-1.73-4.62-1.74 2.34-1.74.13-1.74 1.56-1.74 1.46-1.88-2.84 2.06-3.15-1.21 1.94-3.16-2.65-3.86 3.86-1.41-2.74 2.67 4.78-1.49-.41-1.66-3.98-1.66 3.73-1.66-3.57-1.65 1.09-1.66 2.73-1.67.76-2.58-3.62.28-.12-1.64-1.12-1.31-.2-1.18-1.44-2.35 2.31.49-1.35-1.6 1.21-1.84.77-.81 2.87-1.48 1.51-1.86-3.61-1.87 2.27-3.34-3.32.97-1.73-.08-1.72 2.35-1.73-3.07-1.73-1.62-1.72 1.03-1.72 1.26-1.72-1.38-1.73 2.43-1.72-1.26-1.73-.13-1.72.15-1.73.31-1.72-1.31-1.73.56-1.73 1.74-1.73-3.21-1.72.72-1.73.17-1.73 1.72-1.73 2.78-1.73.05-1.73-1.46-1.73-3.22-1.72 4.58-1.73-2.57-1.73.76-1.73-1.68-1.73-.16-1.73 4.14-1.73-3.37-1.74.74-1.39.45-1.63 1.35 2.49 1.22 2.37 2.29-2.34 1.78-2.2 1.99.12-5.89-3.23 1.56-2.72.31-.16-2.55-.71-1.78-1.3-1.61-1.87-.48-1.77 1.59-1.77 2.27-1.77-2.19-1.77 1-1.77-1.55-1.77 2.13-1.77-1.89-1.77-1.49-1.78-.72-1.77 1.74-1.77-1.46-1.78.99-2.1-.46-.43 2.74.9 2.8-3.86.32.11.13-.01.42-.16 1.03-.62-.38-3.61 1.83-.65-.2-.67-2.87-2.2 2.29-1.01-2.98-2.06-.42.65-2.37-.88-1.65-1.78-.06-1.69-2.7-1.69-.12-1.7 2.27-1.69 2.2-1.69-.45-1.69.13-1.69 1.73-1.69-1.83-1.68 1.01-1.69-4.78-1.69-.21-1.69 3.78-1.69 1.65-1.69-2.04-1.69 1.58-1.69-3.8-1.7.1-1.69 2.47-1.69-2.57-1.69.93-1.7.89-1.69 2.5-1.69.1-1.7-4.9-1.69 1.11-1.7-.96-1.69.63-1.69 1.67L109.12.4l-1.7 2.66-1.69-2.13-1.7 4.52-1.7-5.24-1.7 4.41L98.18.77l.6 4.03-.15 1.7 3.83.21-2.08 2.59-1.11 1.65-2.68 1.74-.03-4.6-2.66 1.6-.8-1.87-.81-1.5-4.22 1.22.8-2.62-.25-.32-1.4.12-1.76-1.62-1.75-.94-1.75 1.3-1.75.52L78.46.67l-1.75 5.05-1.76-3.01-1.75 3.6-1.75-4.75-1.76-.04-1.75 4.65-1.75-2.59L64.44 0l-1.75 2.77-1.76-.84-1.76 1.58-1.75-1.89-1.76 2.49-1.17 1.36-.79-.5.64 2.69-3.35-.47-1.56-.76.3-1.35-1.24.55.86-.1-.16-1.27-.76-3.89-1.86 5.71-1.75-3.36-1.75-.41-1.75-.72-1.76 3.32-1.75.47L36.06.5 34.3 3.71l-1.75-.61-1.76 1.15L29.03.21l-1.64 3.66-2.28 1.18 3.59.51-3.06 1.18-.23.96 1.39 3.17-1.32 1.8-2.57-3.62-2.17 4.14.31-3.79-1.75-.53-1.18-1.24-2.13-.72 3.49-3.67-3.35.33L14.6 1.6l-1.63 1.31-1.64.96L9.7.36 8.07.5 6.43 5.6 4.79 3.31l-1.17.3L2 4.85.4 6.54l3.83 1.7-1.69 1.69.9 1.7 2.78 1.69-6.11 1.7 2.81 1.7 3.3 1.7-.67 1.07 1.03-.66-.25 3.62 1.65 1.14.6 1.95.11 2.6-2.66.15-1.28-1.47L4.29 25l-.86 1.22-.47 1.67-1.67 1.68 4.38 1.67-5.39 1.68 3.1 1.68-3.05 2.6 4.57-.35 1.98-.11.95 2.65-.69 1.34 1.66-.09-.89.01-.72 1.8-2.22.01-.88-.74-1.49 1.33-2.03 1.74 4.56 1.74-4.59 1.74.88 1.75 1.42 1.74L.5 53.5l4.01 1.74-2.48 1.74 1.14 1.75-3 1.74L6 62.21l-.21 1.74L0 65.69l.22 1.75 2.01 1.74 2.71 1.74.87 1.75-.6 1.75-2.37 1.81.4 2.71 4.84-2.61.01 1.65.3 2.25 1.43.95 2.81-.77-.84 3.31.82 1.46 3.52-1.5-1.33 4.8.64-4.67 1.85 1.56.76 2.8 1.07.17-2.3.75 4.72 1.58-4.41.63 4.24-.46 2.37.26-.53 5.65 1.21-3.42 2.11.02 2.03 1.51-1.8 1.95.57 1.01-.24 2.26 2.99-.28 2.08.59.76 1.78-.2 2.46 1.93-2.18 2.45.64-.58 3.99 2.13-1.35 1.71-.28 1.71 1.39 1.71 1.74 1.71-5.54 1.71 3.66 1.71 1.61 1.7-2.52 1.71 2.56 1.71-5.7 1.7.61 1.71 1.93 1.71 1.95 1.71-2.56 1.7-1.08 1.71 2.59 1.71 1.33 1.71-4.52 1.71 3.69 1.71 2.18 1.72-.38 1.71-5.17 1.72 1.99 1.71-.5 1.71.26 1.71-1.52 1.72.97 1.71 1.95 1.71.03 1.71-.41 1.71-1.5 1.71.11 1.7 1.5 1.72-3.65 1.7 3.07 1.72.95 1.71 1.6 1.71-2.49 1.71-1.35 1.72-.57 1.71-1.09 1.72.03 1.71 4.8 1.71-2.52 1.72-2.08 1.71 3.41 1.71.66 1.71 1.15 1.71-4.72 1.71 4.18 1.72-3.24 1.71 3.01 1.71-3.48 1.72 3.17 1.71-2.38 1.72 1.82 1.71-2.78 1.72.84 1.71-.7 1.71 2.43 1.71-3.73 1.72.75 1.71.26 1.72 3.71 1.72.59 1.71-3.79 1.71 4.11 1.72.27 1.71-.13 1.72-1.54 1.71-.76 1.72-1.02 1.72-1.9 1.71 5.2 1.71-4.58 1.72.17 1.72 3.93 1.71-.61 1.72.71 1.71-4.81 1.72 2.96 1.72-1.77 1.71-.21 1.71.16 1.71-1.25 1.71.38 1.72 1.29 1.71-.45 1.72-.84 1.72 3.96 1.71-.86 1.72-2.43 1.71 2.95 1.72.83 1.71-1.84 1.72-.07 1.72-3.06 1.72 5.11 1.72-.34 1.71-2.96 1.72-.41 1.72 2.08 1.72 2.22 1.72-.08 1.71-4.15 1.72 3.1 1.72-4.33 1.72 2.73 1.73 2.67 1.72-2.94 1.28-2.65.01-.61 2.55.53 3.16 1.31 1.6-.74 1.89-.37 1.08-1.42-1.59-4.87 3.99 2.33 1.4-.97-.19-3.12 2.3.17-.37-3.39 3.06 1.16.4-2.35.91-1.68 2.73.32-2.94-1.13.38 4.78-3.69-2.79 1.58 3.74-2.37-3.89 2.91.17-.05-2.39-.53-2.87 1.54-.99 4.53 1.81 1.6-.9-2.75-5.03 4.91 2.24 1.11-1.36-1.52-3.91.55-1.93 5.23 2.63 1.3-4.23-1.62-1.17-3.01-.81 1.38-1.3 2.85.47-.9-3.22 2.49.27-.48 1.41-.59 1.74-.87 1.53 1.17-1.08 2.27 1.61-.68-3.29 2.22.36-1.22-2.03-.11-2.42-.35 2.56 1.7.25-1.07-6.19 2.02.85 1.3.77-1.81-3.61-1.88 1.33-1.87.42-.27-.58z"/></svg>