<svg id="a0d7a2da-daab-41ec-a6a6-d1b5767964e2" data-name="Capa 1" xmlns="http://www.w3.org/2000/svg" viewBox="0 0 212.92 176.02"><path d="M940.82,477.57c-.16-.61-.26-1-.39-1.45-.65-2-1.21-4.13-2-6.12a4.1,4.1,0,0,0-4.51-2.78c-1.12.06-2.24.21-3.36.36-12.53,1.69-24.51,5.05-35.5,11.48-4.71,2.76-9,5.93-11.44,11-1.52,3.18-3.17,6.3-4.54,9.54a237.22,237.22,0,0,0-14.74,50.77,186.92,186.92,0,0,0-3.07,32.1,7.52,7.52,0,0,0,1.17,4.11,61.48,61.48,0,0,0,6.67,8.14c5.1,5.06,11.29,8.55,17.85,11.37a93.17,93.17,0,0,0,28.26,7.47,5.41,5.41,0,0,0,5.35-2.56c2.95-4.21,6-8.34,9-12.53a1.78,1.78,0,0,1,2.15-.88,133.11,133.11,0,0,0,57.37,0,1.47,1.47,0,0,1,1.8.72c2.89,4.07,6,8,8.71,12.17a6.4,6.4,0,0,0,6.85,3.06,92,92,0,0,0,37.09-12.61,42.13,42.13,0,0,0,14.89-14.71,7,7,0,0,0,.92-3.45c-.1-4.55-.25-9.1-.64-13.63a230.87,230.87,0,0,0-8.35-44.2,186.4,186.4,0,0,0-12.45-33c-1.6-3.19-3.3-6.37-6.24-8.6-13.35-10.13-28.83-14.34-45.17-16.07a3.94,3.94,0,0,0-4.29,2.66c-.79,2.05-1.39,4.17-2.07,6.26l-.44,1.4A112,112,0,0,0,940.82,477.57Z" transform="translate(-854.21 -444.98)" fill="#fff"/><path d="M940.78,477.18l6.88-10.08,8.56,4.42,7.64,11.65,7.87-5.66L979.45,467l-2.59,7.13,11.34-2.87L987,461.65l4.94,14.81,8-6.54,4.67,8.34,7.53-2.21,12.09-9.8,4.49,7.72,1.39,10.48,10.56,5.08,2.73,7.09,5.22,6.23,3.35,6.66-1.68,7.4-6.4,8,1.82,6.75,10.38,5.54-11.79,8.69,9.82,5.41.77,6.39-1.15,4.19,9.66,5.89.29,7-2.78,7-6.11,1.34,3,10.83L1044.42,590l-1.79,8.53L1039,608.61l-8.87.28-8.62-.78-8.94-5-7.28.41-3.67,4.56-1.07-8.64-7.15-4-4.15,1.94-7.42-.32-6.17,9.6-8.14-8.61-7.15-3.66-7.67,13.48-6.49-11.36-7.88,4.19-7-2.42-2-1-6.39,4.89-1.41,8.46-6.41,3.13-5.46-11.48L902.4,604l-10.84,10.16L884,611.89l-7.89-1.67-5.36-6.67,2.09-13.61-11-3.9,4.07-4.52-7.25-8.24-.73-8.31,13.75-6.4L869,550.24l-1.12-7.83L869,535l6.51-6,.93-7.41L871,511.84l9.71-4.5-2.4-9-2.07-12.74,13.8-1.13,1.42-12.55,11.67,5.73,4.19-9.68,7-4,7.66-2,9.72,13.17,1.69-17.65,14.19,7.93-3.27,8.52Zm57.71,116.68,10.72-.21-.65,7.48-.24,10.59,6.77-7.45,3.88-13.08,8.56,3.38,11.21,5.5-.48-12.74,14.2,6.33L1051.09,583l8-3.62-4.76-6-14.2-5,3.88-7,6.85-7.79-6.8-5.7-1.64-6.5-5.18-5.6-3.73-5.8.84-7.11,5-8.7-3.25-6.55-11.45-2.83,8.48-12-10.43.43-3.14-3.24-4.45-4.86-6.6-.33-5.85-2-5.48-4.38-5.52-6.82,1.48,5.72-5,8.72,8.88-3.67,9.94-4,6.07,6.37,5.2,6.87-4.6.68,5.71-2.12-9.53,2.16-4.73-6.67-7.82.8-8.42,1.72-7-3.34-8.59,7.41-6.43-9.9-7.67-4-6.84,14-8.49-9.9-6.48,6.47-6.53.47-6.84-.08-7.08.12-4.46,6.18-5.61,3.24,1.06-7.14L905,495.6l.61-15.13,7.46-4.06,7.37-4.68,8.87.48,7.6,3.24-6.49.88-8.58-4-4.8,8.85-5.66,3.24L900,475.32l-4.57,7-5.4,8.92L886.62,499l-7.39,5.15-1.6,7.59,5.38,9.65-9.39,5,3.54,8.65,5.53,8.78L871,549l8.14,8.79-11.35,6,6.67,8.06,1.34,7.3.31.23L869.72,594l15.8-9.57,5.57,2.14,3.12,7.84,5.84,3.11,7.72-4.17,5.92,2.74,6.91,9.18,5-.66,1-7.58-6.14-1.3.2-6.23-5.15-4.52-6.18-1.66-3.23-6.71-7.11-.32-1.61.4,8.13-8.77,3.25,7.48,1.16,12.93,9.8-4.56,5.16,6.85,7.38,0,8.81-10.07,6.25,1.72,5.6,15.71,7.28-3,6.65-9,6.71.31,8.26,12.39,4.91-10,6.18-1.86,4-11.06,7-.76,10,3.69,10.43,1-3-9.77,5,5.65-3,2.61-3.93,8.89-7.2,3.93-6.66,1.81Z" transform="translate(-854.21 -444.98)" fill="#ccc"/><path d="M940.78,477.18l6.88-10.08,8.56,4.42,7.64,11.65,7.87-5.66L979.45,467l-2.59,7.13,11.34-2.87L987,461.65l4.94,14.81,8-6.54,4.67,8.34,7.53-2.21,12.09-9.8,4.49,7.72,1.39,10.48,10.56,5.08,2.73,7.09,5.22,6.23,3.35,6.66-1.68,7.4-6.4,8,1.82,6.75,10.38,5.54-11.79,8.69,9.82,5.41.77,6.39-1.15,4.19,9.66,5.89.29,7-2.78,7-6.11,1.34,3,10.83L1044.42,590l-1.79,8.53L1039,608.61l-8.87.28-8.62-.78-8.94-5-7.28.41-3.67,4.56-1.07-8.64-7.15-4-4.15,1.94-7.42-.32-6.17,9.6-8.14-8.61-7.15-3.66-7.67,13.48-6.49-11.36-7.88,4.19-7-2.42-2-1-6.39,4.89-1.41,8.46-6.41,3.13-5.46-11.48L902.4,604l-10.84,10.16L884,611.89l-7.89-1.67-5.36-6.67,2.09-13.61-11-3.9,4.07-4.52-7.25-8.24-.73-8.31,13.75-6.4L869,550.24l-1.12-7.83L869,535l6.51-6,.93-7.41L871,511.84l9.71-4.5-2.4-9-2.07-12.74,13.8-1.13,1.42-12.55,11.67,5.73,4.19-9.68,7-4,7.66-2,9.72,13.17,1.69-17.65,14.19,7.93-3.27,8.52Zm57.71,116.68,10.72-.21-.65,7.48-.24,10.59,6.77-7.45,3.88-13.08,8.56,3.38,11.21,5.5-.48-12.74,14.2,6.33L1051.09,583l8-3.62-4.76-6-14.2-5,3.88-7,6.85-7.79-6.8-5.7-1.64-6.5-5.18-5.6-3.73-5.8.84-7.11,5-8.7-3.25-6.55-11.45-2.83,8.48-12-10.43.43-3.14-3.24-4.45-4.86-6.6-.33-5.85-2-5.48-4.38-5.52-6.82,1.48,5.72-5,8.72,8.88-3.67,9.94-4,6.07,6.37,5.2,6.87-4.6.68,5.71-2.12-9.53,2.16-4.73-6.67-7.82.8-8.42,1.72-7-3.34-8.59,7.41-6.43-9.9-7.67-4-6.84,14-8.49-9.9-6.48,6.47-6.53.47-6.84-.08-7.08.12-4.46,6.18-5.61,3.24,1.06-7.14L905,495.6l.61-15.13,7.46-4.06,7.37-4.68,8.87.48,7.6,3.24-6.49.88-8.58-4-4.8,8.85-5.66,3.24L900,475.32l-4.57,7-5.4,8.92L886.62,499l-7.39,5.15-1.6,7.59,5.38,9.65-9.39,5,3.54,8.65,5.53,8.78L871,549l8.14,8.79-11.35,6,6.67,8.06,1.34,7.3.31.23L869.72,594l15.8-9.57,5.57,2.14,3.12,7.84,5.84,3.11,7.72-4.17,5.92,2.74,6.91,9.18,5-.66,1-7.58-6.14-1.3.2-6.23-5.15-4.52-6.18-1.66-3.23-6.71-7.11-.32-1.61.4,8.13-8.77,3.25,7.48,1.16,12.93,9.8-4.56,5.16,6.85,7.38,0,8.81-10.07,6.25,1.72,5.6,15.71,7.28-3,6.65-9,6.71.31,8.26,12.39,4.91-10,6.18-1.86,4-11.06,7-.76,10,3.69,10.43,1-3-9.77,5,5.65-3,2.61-3.93,8.89-7.2,3.93-6.66,1.81Z" transform="translate(-854.21 -444.98)" fill="none" stroke="#fff" stroke-miterlimit="10" stroke-width="7"/><path d="M999.07,590.09c4.22-1.74,8.38-3.12,12.22-5.13,4.75-2.48,9.28-5.41,13.8-8.31a4,4,0,0,0,1.54-5.3,4.17,4.17,0,0,0-4.68-2.49,4.89,4.89,0,0,0-2.1.95c-8,6.33-17.25,10.08-27,12.93A105.17,105.17,0,0,1,974,586.4a128.22,128.22,0,0,1-41.16-2.32,87,87,0,0,1-25.72-9.92,68,68,0,0,1-6.16-4.24c-2.15-1.62-4.89-1.53-6.44.38s-1.21,4.7,1,6.43a82.69,82.69,0,0,0,23.86,12.4c.6.21,1.19.43,1.79.66.07,0,.12.14.29.34L918,594.91c-.81,1.1-1.72,2.14-2.42,3.32a2.53,2.53,0,0,1-3,1.27c-11.45-1.81-22.27-5.26-31.94-11.83A39.74,39.74,0,0,1,871.3,579a6,6,0,0,1-1.31-4.05,203.53,203.53,0,0,1,4.69-36.79,214.31,214.31,0,0,1,13.4-42.47c1.14-2.54,2.59-4.94,3.88-7.41a15.62,15.62,0,0,1,6-5.89,74,74,0,0,1,24.84-9.44c2.49-.51,5-.83,7.51-1.31,1.54-.3,1.32.94,1.6,1.71.36,1-.43,1-1,1.15a100.34,100.34,0,0,0-29.1,11.87c-2.46,1.52-3.24,4-1.85,6.21s3.91,2.57,6.28,1.1c9.44-5.84,19.78-9.3,30.57-11.63,20.16-4.36,40-2.95,59.53,3.32a80.06,80.06,0,0,1,18.22,8.4,4.27,4.27,0,0,0,6.15-1.2c1.34-2.17.59-4.72-1.74-6.15A101,101,0,0,0,990,474.51c-.42-.1-.84-.23-1.24-.35-.13-2.32.24-2.75,2.31-2.44,10.87,1.61,21.31,4.5,30.88,10.17a21.16,21.16,0,0,1,8,8.53,128.93,128.93,0,0,1,8.38,20,233.5,233.5,0,0,1,11.54,52.94c.38,4.09.54,8.21.69,12.31a4.42,4.42,0,0,1-.74,2.43c-3.62,5.35-8.6,9.22-14.17,12.3a78.05,78.05,0,0,1-28.33,9.11,1.81,1.81,0,0,1-1.42-.32C1003.57,596.23,1001.36,593.19,999.07,590.09Zm-47.41-45.65a22.92,22.92,0,0,0-4.79-14.59c-6.78-8.71-18.49-9.86-26.67-2.63-9.38,8.27-9.76,24-.79,32.88a17.77,17.77,0,0,0,24.47,1.14A21.62,21.62,0,0,0,951.66,544.44Zm17.23.06a22.25,22.25,0,0,0,6,15,18,18,0,0,0,27.18-.36,23.27,23.27,0,0,0,2.15-27.46c-6.91-11.16-21.43-12.42-29.9-2.55C970.63,533.4,969,538.42,968.89,544.5Z" transform="translate(-854.21 -444.98)" fill="#999"/><path d="M951.66,544.44a21.62,21.62,0,0,1-7.78,16.8,17.77,17.77,0,0,1-24.47-1.14c-9-8.9-8.59-24.61.79-32.88,8.18-7.23,19.89-6.08,26.67,2.63A22.92,22.92,0,0,1,951.66,544.44Zm-30.48-.71.37.1a14.63,14.63,0,0,0,1.91,7.59c3.88,6.86,12.31,7.37,17,1a15,15,0,0,0,.76-15.71c-2-3.38-4.87-5.69-9-5.59-4.35.1-7.34,2.55-9.1,6.36A45.87,45.87,0,0,0,921.18,543.73Z" transform="translate(-854.21 -444.98)" fill="#999" stroke="#999" stroke-miterlimit="10"/><path d="M968.89,544.5c.06-6.08,1.74-11.1,5.39-15.35,8.47-9.87,23-8.61,29.9,2.55a23.27,23.27,0,0,1-2.15,27.46,18,18,0,0,1-27.18.36A22.25,22.25,0,0,1,968.89,544.5ZM999,544a13.44,13.44,0,0,0-3.18-9.22,9.44,9.44,0,0,0-13.7-1.37c-5.62,4.64-6.19,14.45-1.17,20,4.2,4.63,10.44,4.65,14.66,0A13.44,13.44,0,0,0,999,544Z" transform="translate(-854.21 -444.98)" fill="#999" stroke="#999" stroke-miterlimit="10"/><path d="M921.18,543.73a45.87,45.87,0,0,1,1.9-6.23c1.76-3.81,4.75-6.26,9.1-6.36,4.14-.1,7,2.21,9,5.59a15,15,0,0,1-.76,15.71c-4.66,6.35-13.09,5.84-17-1a14.63,14.63,0,0,1-1.91-7.59Z" transform="translate(-854.21 -444.98)" fill="#fff" stroke="#fff" stroke-miterlimit="10"/><path d="M999,544a13.44,13.44,0,0,1-3.39,9.43c-4.22,4.62-10.46,4.6-14.66,0-5-5.54-4.45-15.35,1.17-20a9.44,9.44,0,0,1,13.7,1.37A13.44,13.44,0,0,1,999,544Z" transform="translate(-854.21 -444.98)" fill="#fff" stroke="#fff" stroke-miterlimit="10"/></svg>