<svg id="b643522b-6c8f-42e4-a096-7c89690e27a3" data-name="Capa 1" xmlns="http://www.w3.org/2000/svg" viewBox="0 0 105.17 106.57"><path d="M992,706.51v-7.85c-4.51-.08-9.17-1.47-11.9-3.42L982,690a20.69,20.69,0,0,0,11.19,3.35c5.52,0,9.26-3.19,9.26-7.62,0-4.28-3-6.92-8.79-9.25-7.93-3.11-12.83-6.69-12.83-13.45,0-6.45,4.59-11.35,11.74-12.52v-7.85h4.82v7.54a20.82,20.82,0,0,1,10.11,2.72l-1.94,5.13a18.85,18.85,0,0,0-9.8-2.64c-6,0-8.24,3.57-8.24,6.68,0,4,2.88,6.07,9.64,8.87,8,3.26,12.05,7.31,12.05,14.22,0,6.15-4.28,11.9-12.28,13.22v8.08Z" transform="translate(-943.3 -621.72)" fill="#fff" stroke="#fff" stroke-width="1.08"/><path d="M997.7,642v64.78h-5.23V642Z" transform="translate(-943.3 -621.72)" fill="#fff" stroke="#fff" stroke-miterlimit="10" stroke-width="1.01"/><g opacity="0.99"><polyline points="50.92 9.17 51.64 8.58 52.38 7.87 53.1 8.18 53.8 8.7 54.51 8.76 55.18 9.29 56.05 7.94 56.64 9.08 57.36 9.15 58.07 9.24 58.98 8.21 59.52 9.28 60.13 9.9 61.14 8.64 61.8 9.05 62.57 9.01 63.13 9.74 63.92 9.62 64.3 10.87 65.15 10.56 65.92 10.55 66.31 11.62 66.94 11.95 67.84 11.64 68.72 11.39 68.98 12.61 69.92 12.3 70.28 13.21 70.78 13.81 71.56 13.86 72.81 13.06 72.71 14.72 73.98 13.97 74.39 14.71 75.2 14.78 75.67 15.39 76.44 15.56 76.42 16.85 77.61 16.43 77.46 17.86 78.88 17.18 78.75 18.51 79.35 18.91 80.39 18.79 81.22 18.96 81.55 19.69 81.43 20.87 81.84 21.48 82.54 21.79 82.99 22.35 83.48 22.87 84.62 22.8 84.1 24.23 85.75 23.75 85.21 25.15 85.5 25.83 86.5 25.95 87.47 26.12 86.86 27.47 87.27 28.05 88.5 28.07 89.43 28.33 88.96 29.5 89.1 30.25 90.43 30.3 90.62 31.04 90.55 31.91 91.39 32.28 91.46 33.07 90.92 34.13 91.81 34.5 92.81 34.85 92.59 35.74 92.83 36.42 92.73 37.24 93.45 37.74 94.21 38.24 93.19 39.36 93.73 39.94 94.15 40.56 94.23 41.29 95.26 41.76 93.85 42.86 95.6 43.19 95.58 43.94 94.97 44.81 95.31 45.48 94.87 46.28 95.38 46.93 96.13 47.56 95.49 48.36 96.26 49.01 95.21 49.83 96.26 50.48 96.59 51.19 96.59 51.92 96.11 52.66 96.05 53.39 96 54.11 95.66 54.83 96.78 55.6 96.07 56.29 95.08 56.94 95.59 57.7 95.6 58.43 94.99 59.08 96.31 59.99 94.8 60.49 95.8 61.39 95.76 62.13 95.88 62.9 94.5 63.34 94.14 63.99 94.62 64.86 94.35 65.53 94.45 66.32 93.96 66.92 93.4 67.5 93.97 68.46 92.49 68.69 92.67 69.53 92.04 70.05 93.2 71.31 92.78 71.93 91.16 71.99 91.04 72.72 91.96 73.98 90.13 73.85 89.93 74.55 89.69 75.23 89.08 75.7 88.72 76.31 89.11 77.4 89.38 78.44 88.46 78.7 87.22 78.72 87.49 79.79 87.62 80.79 86.14 80.58 86.19 81.53 86.09 82.38 85.56 82.89 84.98 83.35 84.36 83.77 84.2 84.62 83.92 85.36 82.3 84.78 82.9 86.42 81.39 85.89 81.53 87.1 80.67 87.23 80.17 87.76 79.97 88.66 79.25 88.93 78.68 89.38 77.68 89.25 77.38 90.06 77.05 90.86 75.9 90.45 75.78 91.59 75.27 92.15 73.84 91.21 73.79 92.51 73.44 93.38 72.61 93.38 71.39 92.63 70.73 92.89 70.22 93.47 69.54 93.69 69.38 95.08 68.64 95.21 67.68 94.78 67.43 96.11 66.5 95.71 66.09 96.73 64.93 95.57 64.59 96.88 63.51 95.79 63.14 97.11 62.16 96.24 61.72 97.43 60.88 96.98 60.44 98.37 59.46 97.18 58.94 98.36 58.14 97.98 57.51 98.72 56.63 97.63 55.96 98.01 55.26 98.22 54.52 98.04 53.85 98.93 53.09 98.21 52.37 98.31 51.65 98.19 50.92 98.43 50.2 98.75 49.49 98.01 48.79 97.72 48 98.88 47.28 98.66 46.54 98.75 45.89 98.06 45.23 97.5 44.38 98.42 43.78 97.55 43.07 97.44 42.24 97.97 41.52 97.82 40.86 97.46 40.24 96.93 39.52 96.83 38.93 96.3 38.29 95.92 37.35 96.54 36.62 96.44 36.14 95.61 35.26 95.93 34.84 94.99 34.27 94.5 33.68 94.08 32.64 94.68 31.99 94.36 31.25 94.23 30.85 93.39 29.84 93.78 29.33 93.18 29.01 92.28 28.57 91.61 27.52 91.97 26.75 91.84 26.1 91.5 25.41 91.23 24.71 90.94 24.21 90.39 24.13 89.28 23.31 89.16 22.46 89.06 22.73 87.58 21.61 87.8 21.41 86.94 20.63 86.73 19.68 86.68 19.2 86.13 18.44 85.86 18.06 85.2 18.08 84.18 16.91 84.26 17.15 83.08 15.92 83.18 15.72 82.39 15.52 81.61 15.24 80.91 14.12 80.84 14.91 79.37 13.86 79.24 13.53 78.58 13.23 77.92 13.2 77.08 12.84 76.47 12.32 75.95 12 75.3 11.52 74.75 10.77 74.33 11.07 73.37 10.82 72.7 9.8 72.38 10.3 71.37 9.72 70.84 9.63 70.11 8.84 69.64 7.78 69.27 8.38 68.28 7.76 67.72 8.67 66.67 8.1 66.1 7.26 65.59 6.81 64.96 6.68 64.24 7.48 63.31 6.71 62.74 6.36 62.07 7.28 61.17 5.9 60.67 6.14 59.9 6.74 59.09 6.37 58.42 5.78 57.75 5.2 57.07 5.2 56.33 6.11 55.55 5.87 54.84 5.99 54.11 5.87 53.39 5.49 52.66 5.26 51.92 5.26 51.19 5.53 50.47 6.79 49.84 6.58 49.11 6.01 48.32 6.68 47.68 5.82 46.83 5.7 46.07 6.77 45.52 7.17 44.86 6.78 44.05 7.49 43.47 6.99 42.61 7.12 41.9 7.57 41.27 8.3 40.73 8.52 40.05 7.65 39.01 9.19 38.78 7.89 37.54 8.47 36.98 9.49 36.61 9.66 35.9 9.26 34.94 9.56 34.27 10.08 33.71 10.18 32.95 10.69 32.39 11.88 32.2 11.37 31.1 12.51 30.93 12.26 29.94 12.37 29.15 12.97 28.67 13.18 27.93 13.98 27.6 14.3 26.95 15.27 26.76 14.63 25.37 16.31 25.77 16.62 25.11 15.93 23.58 17.71 24.17 17.94 23.42 17.61 22.13 18.4 21.88 19.06 21.51 19.74 21.17 19.66 20.04 20.71 20.1 20.68 18.98 21.61 18.94 21.71 17.92 22.56 17.81 23.84 18.27 23.93 17.2 24.77 17.13 25.52 16.96 25.82 16.13 26.39 15.69 26.67 14.77 27.19 14.23 28.49 14.99 28.54 13.64 29.75 14.34 30.49 14.21 30.55 12.76 31.62 13.29 32.27 13.01 32.43 11.61 33.03 11.13 33.67 10.77 34.85 11.78 35.64 11.86 35.82 10.22 36.88 11.09 37.63 11.11 38.04 9.97 38.7 9.63 39.62 10.29 40.21 9.69 40.77 8.92 41.61 9.34 42.26 8.91 43.16 9.81 43.69 8.7 44.43 8.7 45.18 8.88 45.77 7.72 46.51 7.72 47.27 7.99 47.99 7.7 48.76 8.56 49.47 7.99 50.19 7.52 50.92 8.83" fill="none" stroke="#fff" stroke-miterlimit="10" stroke-width="8"/></g></svg>