<svg id="b8a2229d-eb6d-43e1-8f7a-69a3e0e4c52b" data-name="Capa 1" xmlns="http://www.w3.org/2000/svg" viewBox="0 0 193.35 206.73"><path d="M973.43,606.29l-1.35,3.05,4.17,1.31,0,3.4,3-.76,2.37.82,3.33,1,1.68-4.18,3,0,2.42-1.65,4,1.77,3-.69,3.18-.48,2-2.5,2-2.48.71-4.13,3.78.25,2.51-1.58-.4-5,3.71-.16,1.54-2.56,5,.7-1.76-5.53,6.22,1.41-.3-4,.83-3,1-2.8,4.09-.87-1.37-4.2.14-3.15,1.62-2.35,6.3-.34-.51-3.45,1-2.8-2.15-3.78,4.37-1.74.44-3-3-3.65,4.77-2.06,1.09-2.86L1043.5,541l-2.61-3.1,5.75-2.62-2-3-.6-2.88,2.18-3-4.29-2.55,3.67-3.32-1.67-2.71-3.73-2.22,3-3.57-4.58-1.79-1-2.61,3.83-4.26-4.23-1.53,1.45-3.68-1.19-2.67-4.3-1.1,2.53-4.58-3-1.66-1.44-2.51-4-.79,2.83-5.55-6.43,1.26,1.31-4.75-4.68.3,1.24-5.09-2.93-1.21-.67-3.57-5.39,1.75.7-5.41-3.19-.67-2.15-2-4.29,1.26-.62-4.46-2.49-1.56L998,453.65l-3.15-.21L992.31,452l-2.74-1-3.34.73-1.89-3.48-2.72-1.19-3.75,3-2.52-1.76-2.28-3.73-2.87-1-3.08.79-2.93-.3-3.05,3.3-2.84,1.1-2.83-.45-2.93-1.39-2.89.06L946.49,445l-2.11,5.12-3-.46-3.13-.86-3.76-2.68-1.44,5.37-2.83.53-3.94-2.19-.72,5.78-2.64,1-4.17-1.93-2.5,1.54-1.78,2.7L911.83,460l-4.34-1.15.41,5.54-5-1.69-.43,4.09-4-.11-.35,3.91-.8,3.24-3.61.61-3.53.89-1.94,2.28-1.36,2.72,1.84,4.82-2.77,1.62-4.11,1-.22,3.26-2.89,1.87.29,3.42,2.24,4.09-4.28,1.42-.74,2.86-2.73,2.25,2.12,3.63-.72,2.8,1.25,3.18-4.33,2.21,2.57,3.28-2.84,2.64.83,3-1.05,2.9.4,2.94-.18,3,3.76,2.66-3.13,3.23,4.21,2.35-1,3.06,1.57,2.6-1,3.2L878,556l-2.59,3.86,3.48,1.89-1,3.51.33,3.1.83,2.93,2,2.33,5.55.22-1.88,4.52,1.87,2.31,3.28,1.25.06,3.61,2.68,1.61-.55,4.4,5.2-.78,2.12,2,.33,3.9,1.91,2.33,4.77-1.2.86,3.61,4-.56,2,2.19,2.66,1.12,1.87,2.49,2.66,1.12,3.32-.32,1.19,4.38,1.94,3.15,4-2.46,3,.16,3-.14,2.38,5.72.6-6.34,3.32.66,4.19-1.47-4.8-3.17,1.38-3.18-2.5-2.67-1.31-2.81.45-3.09,4.77-3.81-1.4-2.81-3.66-2.44L938,584.36l4.57-3.72-4.35-2.41,2.48-3.35,2-3.22L937,569.22l5.18-3.41-3.54-2.7,1.13-2.49,3.17-1.46-.75-3.36L947,555l1.25-2.8-4-1.46-2.57-2.51L939,549.37l-.09,5.18-3.37-.14-2.15,1.86-3.54-.65-2.16,2.08,0-3.9-3.85.07L921,551.18l2.21-3,2.91-3,.52-3-4-3-2.48-3,4.2-2.55,2.46-1.13-2.86-3.79-.14-2.48,1.86-3.23-2.35-3.27,4.51.64.75-3,2.6,1.91,4.64-2.34,2,2.48,1.41,3.31,2.11,2.14-.43,1,5-2.71,1.56-2.7-3.06-3.09,1.16-2.74L943,511.31l1.39-2.7L947.3,506l-1.52-3-2-3.54,7.18-.56-3.25-4.44,2.45-1.93-.47-4,6.09,1.7-1.1-5.42,4.82,1.87,0-5.68,2.52-1.92,4.95,5.4,2.12-2.13,2.23-3,3,1.39,2.65-3.58,2.8,4.32,2.65,1.34,3.18-5.53,2.73,1,2.53,1.52,3.26,1.37,1.64,3,1.38,3,.42,2.84.71,2.83-2.42,2.84-2,2.84,3.38,3-2.83,1.3-3.72,1.48.11.33-3,1.92-2.18,3.31-3.23-.76-1.72,3.12-5-3.07,0,5.41-3,.71-2.95,1.34-1,3,.59,3,.71,2.34,3-.19,2.43,3.93,4.58-4.73L979,529l2.42-.46,1.8.33,1.68-1.05,2.13,3.31,1.78,2.87,2.83-1.45,3,1-1.7,3.54,4.46,2.6-5.09,2,4.35,3.49-2,2.49-4.63,2.09,3.81,3.4-3.22,3.56L986.69,552l-2.61,2.49-2.68,2.4-2.83.81-4.82-3.61,1.76,5.39-5.83,1.07,2.21,3.77-1,2.77-.93,2.75.88,4.58.28.07-3.78,3.25,3.43,2-3.49,2.64,3.13,2.67-3,3.51,1.94,2.57v3.17l1.68,2.1-.06,2.39.16,2.07,4.06,2.9Z" transform="translate(-862.33 -436.13)" fill="#b3b3b3"/><path d="M973.43,606.29l-1.35,3.05,4.17,1.31,0,3.4,3-.76,2.37.82,3.33,1,1.68-4.18,3,0,2.42-1.65,4,1.77,3-.69,3.18-.48,2-2.5,2-2.48.71-4.13,3.78.25,2.51-1.58-.4-5,3.71-.16,1.54-2.56,5,.7-1.76-5.53,6.22,1.41-.3-4,.83-3,1-2.8,4.09-.87-1.37-4.2.14-3.15,1.62-2.35,6.3-.34-.51-3.45,1-2.8-2.15-3.78,4.37-1.74.44-3-3-3.65,4.77-2.06,1.09-2.86L1043.5,541l-2.61-3.1,5.75-2.62-2-3-.6-2.88,2.18-3-4.29-2.55,3.67-3.32-1.67-2.71-3.73-2.22,3-3.57-4.58-1.79-1-2.61,3.83-4.26-4.23-1.53,1.45-3.68-1.19-2.67-4.3-1.1,2.53-4.58-3-1.66-1.44-2.51-4-.79,2.83-5.55-6.43,1.26,1.31-4.75-4.68.3,1.24-5.09-2.93-1.21-.67-3.57-5.39,1.75.7-5.41-3.19-.67-2.15-2-4.29,1.26-.62-4.46-2.49-1.56L998,453.65l-3.15-.21L992.31,452l-2.74-1-3.34.73-1.89-3.48-2.72-1.19-3.75,3-2.52-1.76-2.28-3.73-2.87-1-3.08.79-2.93-.3-3.05,3.3-2.84,1.1-2.83-.45-2.93-1.39-2.89.06L946.49,445l-2.11,5.12-3-.46-3.13-.86-3.76-2.68-1.44,5.37-2.83.53-3.94-2.19-.72,5.78-2.64,1-4.17-1.93-2.5,1.54-1.78,2.7L911.83,460l-4.34-1.15.41,5.54-5-1.69-.43,4.09-4-.11-.35,3.91-.8,3.24-3.61.61-3.53.89-1.94,2.28-1.36,2.72,1.84,4.82-2.77,1.62-4.11,1-.22,3.26-2.89,1.87.29,3.42,2.24,4.09-4.28,1.42-.74,2.86-2.73,2.25,2.12,3.63-.72,2.8,1.25,3.18-4.33,2.21,2.57,3.28-2.84,2.64.83,3-1.05,2.9.4,2.94-.18,3,3.76,2.66-3.13,3.23,4.21,2.35-1,3.06,1.57,2.6-1,3.2L878,556l-2.59,3.86,3.48,1.89-1,3.51.33,3.1.83,2.93,2,2.33,5.55.22-1.88,4.52,1.87,2.31,3.28,1.25.06,3.61,2.68,1.61-.55,4.4,5.2-.78,2.12,2,.33,3.9,1.91,2.33,4.77-1.2.86,3.61,4-.56,2,2.19,2.66,1.12,1.87,2.49,2.66,1.12,3.32-.32,1.19,4.38,1.94,3.15,4-2.46,3,.16,3-.14,2.38,5.72.6-6.34,3.32.66,4.19-1.47-4.8-3.17,1.38-3.18-2.5-2.67-1.31-2.81.45-3.09,4.77-3.81-1.4-2.81-3.66-2.44L938,584.36l4.57-3.72-4.35-2.41,2.48-3.35,2-3.22L937,569.22l5.18-3.41-3.54-2.7,1.13-2.49,3.17-1.46-.75-3.36L947,555l1.25-2.8-4-1.46-2.57-2.51L939,549.37l-.09,5.18-3.37-.14-2.15,1.86-3.54-.65-2.16,2.08,0-3.9-3.85.07L921,551.18l2.21-3,2.91-3,.52-3-4-3-2.48-3,4.2-2.55,2.46-1.13-2.86-3.79-.14-2.48,1.86-3.23-2.35-3.27,4.51.64.75-3,2.6,1.91,4.64-2.34,2,2.48,1.41,3.31,2.11,2.14-.43,1,5-2.71,1.56-2.7-3.06-3.09,1.16-2.74L943,511.31l1.39-2.7L947.3,506l-1.52-3-2-3.54,7.18-.56-3.25-4.44,2.45-1.93-.47-4,6.09,1.7-1.1-5.42,4.82,1.87,0-5.68,2.52-1.92,4.95,5.4,2.12-2.13,2.23-3,3,1.39,2.65-3.58,2.8,4.32,2.65,1.34,3.18-5.53,2.73,1,2.53,1.52,3.26,1.37,1.64,3,1.38,3,.42,2.84.71,2.83-2.42,2.84-2,2.84,3.38,3-2.83,1.3-3.72,1.48.11.33-3,1.92-2.18,3.31-3.23-.76-1.72,3.12-5-3.07,0,5.41-3,.71-2.95,1.34-1,3,.59,3,.71,2.34,3-.19,2.43,3.93,4.58-4.73L979,529l2.42-.46,1.8.33,1.68-1.05,2.13,3.31,1.78,2.87,2.83-1.45,3,1-1.7,3.54,4.46,2.6-5.09,2,4.35,3.49-2,2.49-4.63,2.09,3.81,3.4-3.22,3.56L986.69,552l-2.61,2.49-2.68,2.4-2.83.81-4.82-3.61,1.76,5.39-5.83,1.07,2.21,3.77-1,2.77-.93,2.75.88,4.58.28.07-3.78,3.25,3.43,2-3.49,2.64,3.13,2.67-3,3.51,1.94,2.57v3.17l1.68,2.1-.06,2.39.16,2.07,4.06,2.9Z" transform="translate(-862.33 -436.13)" fill="none" stroke="#fff" stroke-miterlimit="10" stroke-width="12.08"/><path d="M972.07,613.51V553.64H992c1.29-8.33,2.56-16.5,3.86-24.9H972.19a8.45,8.45,0,0,1-.23-1.31c0-5-.08-10.07,0-15.1.15-8.17,5-13,13.14-13.12,3.81-.08,7.63,0,11.59,0V477.9c-2.85-.34-5.75-.74-8.65-1-6.49-.61-13-1.07-19.44.38-12.83,2.9-21.55,12.27-22.78,25.41-.74,7.79-.44,15.68-.6,23.52,0,.73,0,1.46,0,2.44H923.54v24.93h21.57v59.9c-32.26-3.67-69.88-33.46-72.28-80.28a86.11,86.11,0,0,1,85.46-90.54c47.94-.21,88,39.81,86.14,89.32C1042.76,577.88,1006.49,609.36,972.07,613.51Z" transform="translate(-862.33 -436.13)" fill="#999"/></svg>