<svg id="e86b4185-f925-4459-bc99-22ad0da26a0f" data-name="Capa 1" xmlns="http://www.w3.org/2000/svg" viewBox="0 0 614.06 586.8"><defs><style>.a4194c9d-d5ce-4f3f-a695-19bbe1dfd3b4{fill:#fff;}</style></defs><path class="a4194c9d-d5ce-4f3f-a695-19bbe1dfd3b4" d="M1084.47,527.52c-2.08-7,12.06-9,5.21-18.75,8.29-6.23,8.31-6.54.1-17.17L1099,493c.33-3.6.62-6.8.91-10,12.48-1.25,8.83-13.81,13.95-20.42,5,15.17,13.37,16.32,30.28,5,.47,5.28.49,11.06,1.74,16.57.47,2.1,3.76,3.56,5.77,5.3l10.14,8.69c-3,3.36-6,6.76-9.17,10a12.23,12.23,0,0,1-2.76,1.74c3.3,14.84-4.26,21.5-18.95,16.93-1.89-.59-3.73-1.36-5.62-2-4.57-1.51-7.11-.05-7.37,5-.93,18.52,1,36,13.08,51.52,20.1,26,32.33,55.25,33,88.63.9,47.43-19.53,77.71-63.66,95.3-34,13.54-69.62,18-105.72,20.38-54.37,3.62-108.35-1.45-162.34-6.92A17.59,17.59,0,0,0,821,782c-17.3,12.81-34.24,26.1-53,40.52-2.31-7.29-4.78-13.23-5.82-19.41-.35-2.1,2.49-5.36,4.65-7.15,8.87-7.33,18-14.3,28.09-22.19-7.45-3.33-11.36-2.9-16.53,2.64-6,6.46-14.57,10.62-22.14,15.62-12.28,8.1-24.65,16.07-38.62,25.16-2-7.31-4.13-13.33-5-19.54-.28-1.87,2.36-4.87,4.4-6.28,10-6.94,20.35-13.49,30.53-20.23,2.51-1.67,4.9-3.51,7.94-5.7-7.94-5.28-13.7-5.15-18.72,2.37a20.34,20.34,0,0,1-7,6c-17.89,9.87-35.9,19.54-53.9,29.22-1.19.64-2.59.89-5.56,1.87-.86-7.48-2.09-14.29-2.12-21.12,0-1.88,3.24-4.31,5.5-5.59,12.11-6.84,24.38-13.39,36.58-20.07,2.42-1.33,4.76-2.8,7.32-4.32-9.31-7.89-11.3-7.41-19.35-.65A109.16,109.16,0,0,1,677.18,767c-14.21,7.11-28.85,13.34-43.34,19.87-3,1.35-6.13,2.4-10.54,4.1-1-6.67-2.31-12.14-2.4-17.63,0-2,2.37-5.06,4.42-6,20.55-9.6,41.25-18.87,61.84-28.19-9.2-10.49-14.25-11.11-27-.28-25.37,21.48-57.73,25.32-87.93,40.57-.92-8-2-14-2-20,0-1.67,2.75-4.13,4.76-4.92,20.6-8.11,41.18-16.28,62.06-23.62,5.06-1.78,11.21-.27,16.82-.75,4.84-.41,9.62-1.5,14.43-2.28.45-1.07.89-2.13,1.34-3.19-4-3.44-7.82-7-11.93-10.25-1.13-.9-3.26-1.61-4.47-1.16-7.17,2.66-15.78,4-21,8.92-15.42,14.55-35.32,18.8-53.89,26.17-8.08,3.21-16.33,6-25.8,9.39-.9-6.88-1.63-12.37-2.55-19.4,19-7.12,37.78-14.3,56.67-21.11,3.88-1.39,8.43-2.42,12.38-1.78,11.81,1.89,21.47-3.26,29.69-7-2.75-13.67-5.76-26.39-7.7-39.27-.85-5.66.32-11.67.94-17.49.13-1.24,1.82-2.32,2.79-3.47l2.48,1.33q-1.53-4.69-3.07-9.41l1.54-1.08,11.1,8.63,1.48-1.59c-1-1.31-1.82-3.27-3.18-3.83C645.85,638.46,646.69,632,649,624c4.06-14.1,7.69-28.35,10.51-42.74.73-3.74-1.52-8.59-3.6-12.25-4.38-7.71-6-15.46-1.75-23.44,4.88-9.13,17.25-9.54,25.45-1.14,2.07,2.12,3.88,4.5,7.07,8.23,0-19.32.89-36.8-.17-54.17-3.34-54.73-15.65-107.26-42.05-155.74-8-14.67-17.73-28.38-27-42.29-1.3-1.94-4.95-2.14-7-3.79-2.53-2-4.5-4.75-6.71-7.17,2.94-1.91,6-5.63,8.82-5.45,16.7,1.07,33.4,2.7,50,4.78,55.76,7,111.49,14.21,167.24,21.29a52.57,52.57,0,0,0,7,0V256.06l-47.13,8.72c4-5.45,3.79-11.39,12-8.62,2.72.92,7.7-4.83,14-9.17l-27.52-4.37c3.39-5.87,8.92-6.9,15-6.9,12.66,0,25.33,0,39.19,0,4.78,17.18,11.84,35.75,11.8,56.36-.06,22.07.93,21.7,22.86,25.3,35.29,5.79,70.49,12.1,105.72,18.24a9.85,9.85,0,0,1,6.32,3.53c-115.5-22-231.7-38-348.94-46.3,22,3,44.09,5.73,66.09,8.88q110,15.72,219.95,31.73c17.68,2.59,35.27,5.87,52.81,9.31,4.14.81,7.79,3.83,11.87,5.28a23.58,23.58,0,0,0,9.18,1.53c3.29-.21,6.5-1.63,9.82-2.53l-5.07-4.66c1.37-.66,2.13-1.37,2.72-1.25,11.12,2.21,22.24,4.46,33.33,6.82,4.53,1,9.77,2.14,8.46,8.32-1.26,5.89-6.28,5.58-11,4.61-1.6-.32-3.21-.58-6.4-1.16,4,8.71,7.78,16.13,10.87,23.84C1063.65,436.12,1068,491.09,1064,546.8c-2,27.38-7,54.55-11,81.76-1.6,10.77-6.28,13.25-16.72,10.35-49.85-13.83-100.81-19.26-152.39-20.11-6.56-.11-9.57,1.65-8.37,8.66a88.85,88.85,0,0,1,.75,11.9c.18,5.29,1.23,9.8,6.39,12.93,2.43,1.48,3.64,4.91,5.47,7.4,1.58,2.15,3.25,4.23,4.88,6.34,1.7-2.32,3.53-4.58,5.08-7,1.22-1.9,1.92-4.14,3.19-6,4.17-6.12,9.31-10.93,17.43-10.11,7.77.79,13.5,6.18,14.33,12.8,2,15.61,11.92,16,23.45,14.57,19.66-2.41,39.65-3.46,58.84-7.94,33.76-7.88,54.91-30.8,63-63.78,5.25-21.32,6.35-43.66,9-65.58C1087.57,531.31,1085.49,529.35,1084.47,527.52ZM792.78,709.61c-1,.32-2,1-3,.9-8.14-.56-11.29-6.39-13.87-13s-5-7.1-9.12-1.93c-10.16,12.68-18.34,11.21-25.26-4-1.11-2.44-5.21-3.5-7.92-5.2-2,3.41-8,5.45-3.82,11-9.27.68-18.41,1-24.93-10-1,5.09-1.51,7.75-2,10.41l-1.15-2-35,13.95c12.26,13,12.29,13.08,26.32,7.54,9.74-3.86,19.56-7.56,29-12.08,3.1-1.48,5.07-5.32,7.55-8.08,2.2.5,4.73.51,6.5,1.67,1.56,1,3.39,3.53,3.12,5-.36,2.06-2.22,4.81-4.09,5.5-13.16,4.84-26.5,9.19-39.74,13.8a50.66,50.66,0,0,0-6.15,3.11L689,729c7.18,2.61,16,9.21,21.25,7.11,19.79-7.87,38.4-18.67,57.57-28.15,2.2-1.09,5.49-1.67,7.53-.79,1.52.66,3.13,4.82,2.4,6.1-1.14,2-4.11,3.2-6.54,4.09s-5.08.93-7.64,1.35c21.91,7.77,27.15,7,39.49-4.1l-10.31-5,25.88,2c-2-3.63-4.13-7.2-6-10.91-3.19-6.32-4.81-6.29-9.18-.94C800.45,703.49,796.39,706.36,792.78,709.61Zm161-325.4c2.28-.85,4.95-2.93,6.78-2.36,13.22,4.14,26.39,8.5,39.32,13.46,6,2.29,11.43,6.07,17.12,9.17l1.74-1.84c-17.77-5.9-26-19.38-30.48-35.75-.3-1.08-1.05-2-1.34-3.12a9.43,9.43,0,0,1-.24-3.18c.6-6.35-5.21-9.3-7.52-14.11-.18-.37-2.22-.43-2.32-.19-3.23,7.84-8.62,2.36-12.74,1.73-8.7-1.35-17.25-3.64-27.12-5.83,3.42,8.05,5.93,14.32,8.74,20.44,3.1,6.78,2,11.42-5.35,12.58l13.55,8.89-6.3.46c.72.38,1.43.77,2.14,1.16-1.75,3.38-3.33,9.44-5.3,9.57-3.48.23-7.21-3.15-10.69-4.94,0,.1-.26,2.35-.61,5.58-16.34-6.59-31.9-12.59-47.17-19.25-3.2-1.39-6.08-4.83-7.83-8C871.71,357,865.93,345,859.7,333.23c-1.15-2.16-3.05-5.11-5-5.47-13.36-2.45-26.82-4.31-40.11-6.34,8.17,19.48,16.6,37.14,23,55.51S849.15,414,850.42,434.8c-17.39-5.73-33.36-11.67-49.72-16.15-13.1-3.59-21.44-10.1-22.16-24.45-.15-3-1.59-6-2.48-9-7.12-24.06-15.86-47.37-31.47-67.46-1.72-2.21-3.68-5.44-5.93-5.82-13.68-2.3-27.47-3.92-43.6-6.08,17.43,25.56,28.54,50.69,36.86,79.2l-13.26-7.89a11.54,11.54,0,0,0,5.08,6c20.3,11.21,40,23.85,61.21,33,23.62,10.21,48.62,17.24,73,25.6,4.42,1.52,9.2,2.6,4.87,9.87l-9.08-6.37-3.34,15.31,2-.43c5.35,43.58,12.28,87,7.36,131.82,13.24,0,24.57-.11,35.9,0,4.32.06,6-1.55,6.12-5.93.54-27.51,1.12-55,2-82.53.22-7.14-2.57-11.49-8.73-14.93-7.31-4.07-14.07-9.12-21.07-13.75a11.62,11.62,0,0,1,8.29.48c4.42,1.87,8.84,3.84,13.09,6.08,31.78,16.78,62.45,35.16,84.92,64.14,4.71,6.06,7.5,13.61,11.17,20.48l-1.54.63q-10.17-11.28-20.33-22.58l-3.76,1.34c0,15.26-.1,30.53.15,45.79,0,1.71,1.87,4.71,3.18,4.89,12.52,1.72,25.1,3,37.48,4.33,4.71-19.24,3.65-36.41-8.47-51.75-6.86-8.67-13.39-17.59-20.3-26.21-2.52-3.14-5.72-5.72-9.51-9.44-.66,4.66-1.06,7.5-1.15,8.14-20.5-12.8-41.14-25.58-61.62-38.62-2.09-1.33-4.6-4.27-4.51-6.35.4-8.78-5.34-11.36-11.9-14.19-3.66-1.58-6.59-4.85-9.84-7.35L879,455c3.79-7.62,8.41-1.59,12.07-.25C927.2,468,960.61,485.62,987.34,514c7.3,7.76,14.52,15.58,21.78,23.37l2.77-.54c-1.51-27.29-3-54.59-4.62-81.88-.09-1.54-.95-3.64-2.15-4.41-14.43-9.29-29-18.37-43.52-27.51.42,22.83,6.17,43.58,4.32,63.69-21.67-11.1-42.93-21.74-63.87-33-2.78-1.5-4.93-5.9-5.61-9.31-2.54-12.65-3.73-25.59-6.64-38.14-2.14-9.26-6.17-18.08-8.46-24.58l139.85,55.85c-2.49-1.4-4.07-2.46-5.79-3.23-9.9-4.42-14.18-12.16-13.95-22.83.17-7.59-4-11.52-11.12-13.86C978,393.6,965.89,388.76,953.73,384.21Zm-61.07,369,.12,1.07c-14.46,0-28.92.24-43.37-.1-7.19-.17-11.17,3.4-15.42,10.62,24.16,2.08,46.93,4.59,69.76,5.86,23.23,1.3,46.54,2.16,69.79,1.75,22.6-.4,45.17-2.66,67-4.06l-6.87,2.46c40.15,1.22,75.94-19.34,93.45-51.76s13.26-64.92.21-97.38c5.73,22.64,4.79,44.91-3.93,66.7-8.63,21.57-29,44.41-44.91,49.19,1.11-1.65,2.87-2.61,4.4-3.87a47.79,47.79,0,0,0,4.21-4.21c25.17-26.21,39.73-56.93,36.16-93.79-1.63-16.84-3-34.11-12.35-49.58-8-13.27-10-28.17-5.47-43.9.77,22.76,2.74,28.43,14.73,47.45,5.28,8.38,10.74,16.86,14.49,26,12.06,29.27,17,59.38,6.74,92.26l5.9-6.36c-1.42,6.11-2.42,10.43-3.43,14.75,3-2.82,5.46-6.1,6-9.67,1.94-12.28,4.5-24.66,4.5-37,0-33.37-11.63-63.33-29.8-90.92-7-10.7-11.79-22.26-11.12-35.13.48-9.06-1-16-10.68-18.74-.34-.1-.49-.88.09.25l10.06-10.59c-.43-2.35-.92-5.05-1.66-9.13,9.42,9,15.16,22,32.68,18-4.36-3.65-7-7.19-10.48-8.46-5.29-1.93-7.51-5.08-6.63-10.17.34-2,3.23-5.33,3.82-5.1,3.37,1.31,6.39,3.5,9.09,5.12,3.49,0,7.46.54,11.17-.22,1.89-.4,4.95-4.1,4.63-4.65a23.12,23.12,0,0,0-5.9-6.07c-2.81-2.2-7.13-3.41-8.61-6.2-5.07-9.52-15.35-12.28-26.2-5.14l12.38,6.53-1.12,2.74-17.22-7.64c-1.84,3-3.82,5.18-4.68,7.76-7.81,23.46-14.7,47-15.29,72.15a233.61,233.61,0,0,1-4,39.7c-6.26,31.61-25.84,53.27-55.66,63.51-26.46,9.08-54,15.23-81.34,21.44-8.56,1.94-14.42,4-18.93,12.41-7.41,13.88-22.31,13.32-30.29,0-4.58-7.68-7.58-7.63-12.11.27-4,6.92-8.72,12.81-17.64,12.67-12.7-.2-20.39,9.77-32.74,13.92,19.83,7.38,37.31.74,46.69-15.61,1.21-2.11,4.62-3.75,7.16-4,1.29-.12,4.31,3.58,4.06,5.17-.33,2.15-2.76,4.35-4.8,5.8-4.86,3.46-10,6.49-15.07,9.69,2.2,2.25,3.48,2.6,4.78,2.78s2.72.18,4.08.26C868,730.5,860,740.9,851.39,751.4Zm-72.74-209.1c-1.14-1.08-2.1-2.7-3.45-3.16-15.93-5.41-17-17.71-18.35-32.44-2.5-27.29-8.12-54.3-12.88-81.35-.46-2.65-3.53-5.51-6.13-7-10.06-5.78-20.46-11-30.65-16.54-3.77-2.06-7.31-4.55-11-6.84L735.63,398c14.5,38.29,12.24,78.27,14.59,118.34l-12.55-.84C765.93,522.69,794.27,529.12,819.92,544.12ZM752.6,524.81V621.3c12.1-1.94,22.67-3.61,33.24-5.34,10.21-1.66,11-3,8.23-13.85l-15.36.8c4.23-2,8.73-2.71,12.9-4.29,1.88-.72,4.3-3.06,4.44-4.82q1.86-23.74,2.79-47.54c.08-2.06-1.48-5.48-3.11-6.1C781.52,534.79,767.12,529.9,752.6,524.81Zm2.47,106.08-.14,3.63q32.28,9,64.55,17.88a5.52,5.52,0,0,0,3.34,0c7.71-3.34,13.72-1.6,20.08,4.09,2.93,2.62,9.62,3.43,13.34,1.94,2.39-1,3.27-7.6,3.44-11.75.27-6.77-.83-13.58-.91-20.38-.07-5.62-2.43-7.28-7.91-6.71-17.76,1.81-35.6,2.92-53.34,5C783.31,626.19,769.22,628.75,755.07,630.89Zm-63.79-14C710,512.51,702.4,412.37,643.86,320.43,695.07,413.6,701.46,513.9,691.28,616.87Zm207.78,69.6-1.3.3a69.18,69.18,0,0,0,1.65,7.21c2.28,6.63,5.3,13.07,13.28,13.79s12.34-5.11,15.48-11.29c6.66-13.09,7.37-26.93,1.3-40.17-2-4.38-7.81-9.11-12.35-9.65-4.18-.5-9,4.42-13.57,7,6.73-.79,13.26-3.46,17.83-1.53,4.23,1.79,6.37,8.52,9.43,13.07l-2.06,1.28c-1-2-1.93-4.08-3.12-6-5.17-8.35-12-8.76-17.14-.46a36.73,36.73,0,0,0-5.12,14.19c-.86,6.62-.21,13.43-.21,20.58Zm-42.94,5.91c0,8.35,3.24,15.54,9.07,16.93,3.82.91,9.36.21,12.38-2.07,13-9.83,15.06-39.45,4.2-51.5-6-6.7-13.1-5.89-18.09,2.07,13.68-5.44,22.37,1.42,21.48,17.2-.83-2.35-1.06-4.93-2.44-6.52-3-3.41-6.5-8.75-9.79-8.74-3.45,0-9,4.84-9.9,8.48-2.09,8.51-1.94,17.58-2.7,26.42-.06.74-.14,1.48-.32,3.26Zm-15.24-24c-3.13-2.18-7.92-7.76-10.69-6.89-4.15,1.3-8.66,6.65-9.85,11.12-2.16,8.14-2,16.89-2.74,24.82-1-2.3-2.34-5.58-3.73-8.87.69,6.2,2.1,12.33,5.28,17.34,3.8,6,9.69,6.37,15.46,1.94,12.22-9.4,14.44-39.83,3.75-50.94-5.43-5.64-11.05-4.92-14.91,1.9C834.76,655.46,839.31,658.44,840.88,668.38ZM802,667.24c-2.9-2.09-7.79-7.58-9.82-6.67-4,1.77-7.55,6.7-9,11.09-1.86,5.44-1.49,11.65-2,17.53-.13,1.66,1,4.12.23,4.9-5.61,5.65,0,9.42,3,11.32,2.73,1.69,8.6,1.54,11.24-.36,12.07-8.66,13.94-38.62,3.68-49.08-4.42-4.51-8.24-4.1-12.25,1.29C797.25,655.9,800.31,658.22,802,667.24Zm-59.91,16.87c1.64,4.91,2.2,7.41,3.27,9.66,4.62,9.7,13.52,10.68,18.44,1.06,3.72-7.26,4.94-16,6.44-24.15.82-4.48-1.38-7.69-5.44-11.27-7.16-6.31-11.42-6.95-14.6,2.5-2.78,8.25-3.26,17.26-4.67,25.42Zm-6-16.38-2.27-.59c2.47-6.81-2.54-10-6-14.15-4.18-5-8.84-5.62-11.19.31-3,7.66-3.91,16.18-5.51,24.38-.3,1.56,1.2,4.09.48,4.86-5.54,5.9.31,9.43,3.5,11,2.74,1.3,9.33,0,10.66-2.26C730,683.92,732.74,675.64,736.06,667.73Zm-19.59,73.93,21.4,7.49.72-1.7-3-3.41c9.68,4.8,17.92,2.72,25.32-4.91l-6-4.24c12.7,2.31,18,.59,25.81-7.72-14.68-6.4-21.86-6.71-32.8-1.29C738.24,730.69,728.58,735.59,716.47,741.66Zm-14.05-69.32,2.26-2.48c-1.79-1.72-3.35-3.84-5.43-5.1-8.47-5.09-18.17-8.72-25.33-15.2-6.07-5.48-12.17-13.81-13-21.46-1.15-10.47,2.2-21.59,4.47-32.25,2.64-12.41,5.88-24.63,3.15-34.77-3.64,15-8.19,32-11.72,49.27-1.56,7.6-3.47,16.47-1.06,23.3C663.48,655.6,682.94,664.33,702.42,672.34ZM855.9,735.21c-16.22-5.85-31.71-1.86-42.16,10.86C832.69,753.22,843.64,750.4,855.9,735.21Zm-78.26,4.15c20.41,7.51,28.73,6.1,40-6.86C803.21,728.85,789.42,726.05,777.64,739.36ZM799.78,725c20.15,6.49,32.46,3.64,39.16-7.71C825.09,712.44,813.73,719.43,799.78,725Zm-40,24.38c17.65,7.46,30.4,8.54,35.82-2.32C783.31,745.58,771.21,735.84,759.8,749.34Zm74.73,5.53c-19.34-8-30.42-6.83-37.32,3.17C809.83,763.3,821.13,757.69,834.53,754.87Zm-180.32-87c5.93,11.2,14.91,19.38,25.35,25.92,1.86,1.17,5.09.17,7.69.17l0-2.16Zm181.63,44.47,23.84-1.25c-1.89-3.33-3.87-7-6-10.58-2.74-4.57-6.2-4.58-9.34-.67C841.39,703.48,839,707.59,835.84,712.33ZM703.61,686.47l2.45-2.31c-1.19-2.51-1.71-6.27-3.68-7.33-11.25-6.08-22.84-11.51-34.32-17.15L667,661.14ZM660.1,662.11l-1.62,1.79c9.81,8,19.5,16.17,29.55,23.87,1.54,1.17,4.75.16,7.19.16l.21-2.6c-6-3.6-12.23-7-18.1-10.86S665.83,666.25,660.1,662.11Zm238.95-52.74.15-3.17c-11.92-1.13-23.84-2.39-35.78-3.22-1.41-.1-3,2.19-4.49,3.38,1.38,1,2.75,2.85,4.16,2.88C875.07,609.47,887.06,609.37,899.05,609.37ZM843.44,279.6c-2.87,18.31-1.81,28.24,3.61,32.72C845.75,300.61,844.6,290.11,843.44,279.6ZM675,698.47l1.39-2.23L653.25,679.5C659.71,686.91,664.68,696.25,675,698.47Z" transform="translate(-549.94 -235.71)"/><path d="M892.66,753.22l-41.27-1.82C860,740.9,868,730.5,883.08,732c-1.36-.08-2.73-.08-4.08-.26s-2.58-.53-4.78-2.78c5-3.2,10.21-6.23,15.07-9.69,2-1.45,4.47-3.65,4.8-5.8.25-1.59-2.77-5.29-4.06-5.17-2.54.23-5.95,1.87-7.16,4-9.38,16.35-26.86,23-46.69,15.61,12.35-4.15,20-14.12,32.74-13.92,8.92.14,13.68-5.75,17.64-12.67,4.53-7.9,7.53-8,12.11-.27,8,13.36,22.88,13.92,30.29,0,4.51-8.43,10.37-10.47,18.93-12.41,27.34-6.21,54.88-12.36,81.34-21.44,29.82-10.24,49.4-31.9,55.66-63.51a233.61,233.61,0,0,0,4-39.7c.59-25.1,7.48-48.69,15.29-72.15.86-2.58,2.84-4.78,4.68-7.76l17.22,7.64,1.12-2.74-12.38-6.53c10.85-7.14,21.13-4.38,26.2,5.14,1.48,2.79,5.8,4,8.61,6.2a23.12,23.12,0,0,1,5.9,6.07c.32.55-2.74,4.25-4.63,4.65-3.71.76-7.68.22-11.17.22-2.7-1.62-5.72-3.81-9.09-5.12-.59-.23-3.48,3.14-3.82,5.1-.88,5.09,1.34,8.24,6.63,10.17,3.48,1.27,6.12,4.81,10.48,8.46-17.52,4-23.26-9-32.68-18,.74,4.08,1.23,6.78,1.66,9.13l-10.06,10.59c-.58-1.13-.43-.35-.09-.25,9.71,2.78,11.16,9.68,10.68,18.74-.67,12.87,4.08,24.43,11.12,35.13,18.17,27.59,29.78,57.55,29.8,90.92,0,12.34-2.56,24.72-4.5,37-.56,3.57-3,6.85-6,9.67,1-4.32,2-8.64,3.43-14.75l-5.9,6.36c10.26-32.88,5.32-63-6.74-92.26-3.75-9.1-9.21-17.58-14.49-26-12-19-14-24.69-14.73-47.45-4.5,15.73-2.55,30.63,5.47,43.9,9.35,15.47,10.72,32.74,12.35,49.58,3.57,36.86-11,67.58-36.16,93.79a47.79,47.79,0,0,1-4.21,4.21c-1.53,1.26-3.29,2.22-4.4,3.87,15.88-4.78,36.28-27.62,44.91-49.19,8.72-21.79,9.66-44.06,3.93-66.7,13,32.46,17.38,64.81-.21,97.38s-53.3,53-93.45,51.76l6.87-2.46c-21.78,1.4-44.35,3.66-67,4.06-23.25.41-46.56-.45-69.79-1.75-22.83-1.27-45.6-3.78-69.76-5.86,4.25-7.22,8.23-10.79,15.42-10.62,14.45.34,28.91.1,43.37.1Zm212.73-150.15c-2.92,35.58-21.79,62-50,81.31-19,13-40.29,23.09-61.28,32.94-16.45,7.72-34,13.07-51.1,19.47,34.76-6.5,68.51-15.86,99.26-33.85,18.59-10.87,35-24.22,47.19-42.23C1101.22,643.34,1107.63,624.4,1105.39,603.07ZM922.1,715.68l.09,1.86c15.56-2.95,31.25-5.4,46.68-9,34.92-8.09,67.94-20.53,94.92-45.3,16.6-15.25,26.87-34,29.76-56.61-9.91,29.69-28.76,52.43-56.16,66.57-21.81,11.26-45,20.09-68,28.71C954.07,707.69,937.9,711.18,922.1,715.68Zm101.15,27.79a157.16,157.16,0,0,0,59.32-38.12c22.69-23.32,35.94-50.71,33.38-84.15-.39-5.06-1.71-10.06-2.6-15.08C1116,673.83,1072.54,710.46,1023.25,743.47Zm72.82-161.72,1.54-.32V544.11l-1.54,0Z" transform="translate(-549.94 -235.71)"/><path d="M879.38,454.71c3.25,2.5,6.18,5.77,9.84,7.35,6.56,2.83,12.3,5.41,11.9,14.19-.09,2.08,2.42,5,4.51,6.35,20.48,13,41.12,25.82,61.62,38.62.09-.64.49-3.48,1.15-8.14,3.79,3.72,7,6.3,9.51,9.44,6.91,8.62,13.44,17.54,20.3,26.21,12.12,15.34,13.18,32.51,8.47,51.75-12.38-1.36-25-2.61-37.48-4.33-1.31-.18-3.15-3.18-3.18-4.89-.25-15.26-.15-30.53-.15-45.79l3.76-1.34Q979.8,555.42,990,566.71l1.54-.63c-3.67-6.87-6.46-14.42-11.17-20.48-22.47-29-53.14-47.36-84.92-64.14-4.25-2.24-8.67-4.21-13.09-6.08a11.62,11.62,0,0,0-8.29-.48c7,4.63,13.76,9.68,21.07,13.75,6.16,3.44,8.95,7.79,8.73,14.93-.87,27.5-1.45,55-2,82.53-.08,4.38-1.8,6-6.12,5.93-11.33-.16-22.66,0-35.9,0,4.92-44.8-2-88.24-7.36-131.82l-2,.43,3.34-15.31,9.08,6.37c4.33-7.27-.45-8.35-4.87-9.87-24.42-8.36-49.42-15.39-73-25.6-21.2-9.16-40.91-21.8-61.21-33a11.54,11.54,0,0,1-5.08-6L731.92,385c-8.32-28.51-19.43-53.64-36.86-79.2,16.13,2.16,29.92,3.78,43.6,6.08,2.25.38,4.21,3.61,5.93,5.82,15.61,20.09,24.35,43.4,31.47,67.46.89,3,2.33,6,2.48,9,.72,14.35,9.06,20.86,22.16,24.45,16.36,4.48,32.33,10.42,49.72,16.15-1.27-20.79-6.47-39.6-12.84-57.87s-14.83-36-23-55.51c13.29,2,26.75,3.89,40.11,6.34,2,.36,3.86,3.31,5,5.47,6.23,11.76,12,23.77,18.41,35.43,1.75,3.19,4.63,6.63,7.83,8,15.27,6.66,30.83,12.66,47.17,19.25.35-3.23.6-5.48.61-5.58,3.48,1.79,7.21,5.17,10.69,4.94,2-.13,3.55-6.19,5.3-9.57-.71-.39-1.42-.78-2.14-1.16l6.3-.46-.18.15c12.2,4.51,24.29,9.35,36.64,13.42,7.1,2.34,11.29,6.27,11.12,13.86-.23,10.67,4,18.41,13.95,22.83,1.72.77,3.3,1.83,5.79,3.23L881.34,381.74c2.29,6.5,6.32,15.32,8.46,24.58,2.91,12.55,4.1,25.49,6.64,38.14.68,3.41,2.83,7.81,5.61,9.31,20.94,11.25,42.2,21.89,63.87,33,1.85-20.11-3.9-40.86-4.32-63.69,14.53,9.14,29.09,18.22,43.52,27.51,1.2.77,2.06,2.87,2.15,4.41,1.63,27.29,3.11,54.59,4.62,81.88l-2.77.54c-7.26-7.79-14.48-15.61-21.78-23.37-26.73-28.42-60.14-46.07-96.23-59.25-3.66-1.34-8.28-7.37-12.07.25,2-7.24-4.4-6.12-7.86-7.67-1.06-.47-2.77.53-4.17.85.59,1.62.84,4.34,1.85,4.66C872.22,454,875.85,454.17,879.38,454.71Z" transform="translate(-549.94 -235.71)"/><path d="M819.92,544.12c-25.65-15-54-21.43-82.25-28.6l12.55.84c-2.35-40.07-.09-80.05-14.59-118.34l1.88-1.23c3.64,2.29,7.18,4.78,11,6.84,10.19,5.56,20.59,10.76,30.65,16.54,2.6,1.49,5.67,4.35,6.13,7,4.76,27.05,10.38,54.06,12.88,81.35,1.35,14.73,2.42,27,18.35,32.44C817.82,541.42,818.78,543,819.92,544.12Z" transform="translate(-549.94 -235.71)"/><path d="M752.6,524.81c14.52,5.09,28.92,10,43.13,15.35,1.63.62,3.19,4,3.11,6.1q-1,23.79-2.79,47.54c-.14,1.76-2.56,4.1-4.44,4.82-4.17,1.58-8.67,2.29-12.9,4.29l15.36-.8c2.79,10.89,2,12.19-8.23,13.85-10.57,1.73-21.14,3.4-33.24,5.34Z" transform="translate(-549.94 -235.71)"/><path d="M755.07,630.89c14.15-2.14,28.24-4.7,42.45-6.32,17.74-2,35.58-3.14,53.34-5,5.48-.57,7.84,1.09,7.91,6.71.08,6.8,1.18,13.61.91,20.38-.17,4.15-1,10.78-3.44,11.75-3.72,1.49-10.41.68-13.34-1.94-6.36-5.69-12.37-7.43-20.08-4.09a5.52,5.52,0,0,1-3.34,0q-32.28-8.89-64.55-17.88Z" transform="translate(-549.94 -235.71)"/><path d="M729.77,697.38c-4.18-5.56,1.78-7.6,3.81-11,2.71,1.7,6.81,2.76,7.92,5.2,6.92,15.18,15.1,16.65,25.26,4,4.13-5.17,6.53-4.77,9.12,1.93s5.73,12.48,13.87,13c1,.07,2-.58,3-.9h0l10.33,5c-12.34,11.15-17.58,11.87-39.49,4.1,2.56-.42,5.25-.48,7.64-1.35s5.4-2.11,6.54-4.09c.73-1.28-.88-5.44-2.4-6.1-2-.88-5.33-.3-7.53.79-19.17,9.48-37.78,20.28-57.57,28.15-5.3,2.1-14.07-4.5-21.25-7.11l.16-2.76a50.66,50.66,0,0,1,6.15-3.11c13.24-4.61,26.58-9,39.74-13.8,1.87-.69,3.73-3.44,4.09-5.5.27-1.5-1.56-4-3.12-5-1.77-1.16-4.3-1.17-6.5-1.67Z" transform="translate(-549.94 -235.71)"/><path d="M953.87,384.1l-13.55-8.89c7.3-1.16,8.45-5.8,5.35-12.58-2.81-6.12-5.32-12.39-8.74-20.44,9.87,2.19,18.42,4.48,27.12,5.83,4.12.63,9.51,6.11,12.74-1.73.1-.24,2.14-.18,2.32.19,2.31,4.81,8.12,7.76,7.52,14.11a9.43,9.43,0,0,0,.24,3.18c.29,1.08,1,2,1.34,3.12,4.53,16.37,12.71,29.85,30.48,35.75l-1.74,1.84c-5.69-3.1-11.12-6.88-17.12-9.17-12.93-5-26.1-9.32-39.32-13.46-1.83-.57-4.5,1.51-6.8,2.38Z" transform="translate(-549.94 -235.71)"/><path d="M691.28,616.87c10.18-103,3.79-203.27-47.42-296.44C702.4,412.37,710,512.51,691.28,616.87Z" transform="translate(-549.94 -235.71)"/><path d="M899.06,686.47l4.1,8.3c0-7.15-.65-14,.21-20.58A36.73,36.73,0,0,1,908.49,660c5.15-8.3,12-7.89,17.14.46,1.19,1.91,2.09,4,3.12,6l2.06-1.28c-3.06-4.55-5.2-11.28-9.43-13.07-4.57-1.93-11.1.74-17.83,1.53,4.57-2.55,9.39-7.47,13.57-7,4.54.54,10.34,5.27,12.35,9.65,6.07,13.24,5.36,27.08-1.3,40.17-3.14,6.18-7.46,12-15.48,11.29s-11-7.16-13.28-13.79a69.18,69.18,0,0,1-1.65-7.21Zm16.74-1c2.05-4.7,3.8-7,3.82-9.34,0-1.54-2.45-3.1-3.8-4.65-1.28,2.15-3.17,4.19-3.6,6.5C911.93,679.55,913.76,681.47,915.8,685.52Z" transform="translate(-549.94 -235.71)"/><path d="M856.12,692.38l3.89,5.53c.18-1.78.26-2.52.32-3.26.76-8.84.61-17.91,2.7-26.42.9-3.64,6.45-8.48,9.9-8.48,3.29,0,6.84,5.33,9.79,8.74,1.38,1.59,1.61,4.17,2.44,6.52.89-15.78-7.8-22.64-21.48-17.2,5-8,12.05-8.77,18.09-2.07,10.86,12,8.82,41.67-4.2,51.5-3,2.28-8.56,3-12.38,2.07C859.36,707.92,856.15,700.73,856.12,692.38Z" transform="translate(-549.94 -235.71)"/><path d="M840.88,668.38c-1.57-9.94-6.12-12.92-17.43-9.58,3.86-6.82,9.48-7.54,14.91-1.9,10.69,11.11,8.47,41.54-3.75,50.94-5.77,4.43-11.66,4.06-15.46-1.94-3.18-5-4.59-11.14-5.28-17.34,1.39,3.29,2.77,6.57,3.73,8.87.75-7.93.58-16.68,2.74-24.82,1.19-4.47,5.7-9.82,9.85-11.12C833,660.62,837.75,666.2,840.88,668.38Z" transform="translate(-549.94 -235.71)"/><path d="M802,667.24c-1.67-9-4.73-11.34-14.88-10,4-5.39,7.83-5.8,12.25-1.29,10.26,10.46,8.39,40.42-3.68,49.08-2.64,1.9-8.51,2.05-11.24.36-3-1.9-8.65-5.67-3-11.32.77-.78-.36-3.24-.23-4.9.46-5.88.09-12.09,2-17.53,1.5-4.39,5.08-9.32,9-11.09C794.19,659.66,799.08,665.15,802,667.24Z" transform="translate(-549.94 -235.71)"/><path d="M742.07,684.11l3.44,3.22c1.41-8.16,1.89-17.17,4.67-25.42,3.18-9.45,7.44-8.81,14.6-2.5,4.06,3.58,6.26,6.79,5.44,11.27-1.5,8.2-2.72,16.89-6.44,24.15-4.92,9.62-13.82,8.64-18.44-1.06C744.27,691.52,743.71,689,742.07,684.11Z" transform="translate(-549.94 -235.71)"/><path d="M736.06,667.73c-3.32,7.91-6,16.19-10.36,23.5-1.33,2.25-7.92,3.56-10.66,2.26-3.19-1.52-9-5-3.5-11,.72-.77-.78-3.3-.48-4.86,1.6-8.2,2.48-16.72,5.51-24.38,2.35-5.93,7-5.28,11.19-.31,3.49,4.15,8.5,7.34,6,14.15Z" transform="translate(-549.94 -235.71)"/><path d="M729.55,697.15c-2.48,2.76-4.45,6.6-7.55,8.08-9.43,4.52-19.25,8.22-29,12.08-14,5.54-14.06,5.48-26.32-7.54l35-13.95,1.15,2c.52-2.66,1-5.32,2-10.41,6.52,10.94,15.66,10.66,24.93,10Z" transform="translate(-549.94 -235.71)"/><path d="M716.47,741.66c12.11-6.07,21.77-11,31.47-15.78,10.94-5.42,18.12-5.11,32.8,1.29-7.84,8.31-13.11,10-25.81,7.72l6,4.24c-7.4,7.63-15.64,9.71-25.32,4.91l3,3.41-.72,1.7Z" transform="translate(-549.94 -235.71)"/><path d="M702.42,672.34c-19.48-8-38.94-16.74-46.67-38.69-2.41-6.83-.5-15.7,1.06-23.3,3.53-17.22,8.08-34.23,11.72-49.27,2.73,10.14-.51,22.36-3.15,34.77-2.27,10.66-5.62,21.78-4.47,32.25.84,7.65,6.94,16,13,21.46,7.16,6.48,16.86,10.11,25.33,15.2,2.08,1.26,3.64,3.38,5.43,5.1Z" transform="translate(-549.94 -235.71)"/><path d="M855.9,735.21c-12.26,15.19-23.21,18-42.16,10.86C824.19,733.35,839.68,729.36,855.9,735.21Z" transform="translate(-549.94 -235.71)"/><path d="M777.64,739.36c11.78-13.31,25.57-10.51,40-6.86C806.37,745.46,798.05,746.87,777.64,739.36Z" transform="translate(-549.94 -235.71)"/><path d="M799.78,725c14-5.53,25.31-12.52,39.16-7.71C832.24,728.6,819.93,731.45,799.78,725Z" transform="translate(-549.94 -235.71)"/><path d="M759.8,749.34c11.41-13.5,23.51-3.76,35.82-2.32C790.2,757.88,777.45,756.8,759.8,749.34Z" transform="translate(-549.94 -235.71)"/><path d="M834.53,754.87c-13.4,2.82-24.7,8.43-37.32,3.17C804.11,748,815.19,746.86,834.53,754.87Z" transform="translate(-549.94 -235.71)"/><path d="M654.21,667.86l33,23.93,0,2.16c-2.6,0-5.83,1-7.69-.17C669.12,687.24,660.14,679.06,654.21,667.86Z" transform="translate(-549.94 -235.71)"/><path d="M835.84,712.33c3.18-4.74,5.55-8.85,8.49-12.5,3.14-3.91,6.6-3.9,9.34.67,2.14,3.58,4.12,7.25,6,10.58Z" transform="translate(-549.94 -235.71)"/><path d="M703.61,686.47,667,661.14l1.06-1.46c11.48,5.64,23.07,11.07,34.32,17.15,2,1.06,2.49,4.82,3.68,7.33Z" transform="translate(-549.94 -235.71)"/><path d="M792.78,709.61c3.61-3.25,7.67-6.12,10.71-9.83,4.37-5.35,6-5.38,9.18.94,1.86,3.71,4,7.28,6,10.91l-25.89-2Z" transform="translate(-549.94 -235.71)"/><path d="M660.1,662.11c5.73,4.14,11.33,8.48,17.23,12.36s12,7.26,18.1,10.86l-.21,2.6c-2.44,0-5.65,1-7.19-.16-10-7.7-19.74-15.86-29.55-23.87Z" transform="translate(-549.94 -235.71)"/><path d="M899.05,609.37c-12,0-24,.1-36-.13-1.41,0-2.78-1.88-4.16-2.88,1.5-1.19,3.08-3.48,4.49-3.38,11.94.83,23.86,2.09,35.78,3.22Z" transform="translate(-549.94 -235.71)"/><path d="M843.44,279.6c1.16,10.51,2.31,21,3.61,32.72C841.63,307.84,840.57,297.91,843.44,279.6Z" transform="translate(-549.94 -235.71)"/><path d="M675,698.47c-10.35-2.22-15.32-11.56-21.78-19l23.17,16.74Z" transform="translate(-549.94 -235.71)"/><path class="a4194c9d-d5ce-4f3f-a695-19bbe1dfd3b4" d="M879.38,454.71c-3.53-.54-7.16-.75-10.52-1.83-1-.32-1.26-3-1.85-4.66,1.4-.32,3.11-1.32,4.17-.85,3.46,1.55,9.89.43,7.86,7.67Z" transform="translate(-549.94 -235.71)"/><path class="a4194c9d-d5ce-4f3f-a695-19bbe1dfd3b4" d="M1105.39,603.07c2.24,21.33-4.17,40.27-15.89,57.64-12.15,18-28.6,31.36-47.19,42.23-30.75,18-64.5,27.35-99.26,33.85,17.08-6.4,34.65-11.75,51.1-19.47,21-9.85,42.23-19.92,61.28-32.94C1083.6,665.12,1102.47,638.65,1105.39,603.07Z" transform="translate(-549.94 -235.71)"/><path class="a4194c9d-d5ce-4f3f-a695-19bbe1dfd3b4" d="M922.1,715.68c15.8-4.5,32-8,47.3-13.74,23-8.62,46.18-17.45,68-28.71,27.4-14.14,46.25-36.88,56.16-66.57-2.89,22.62-13.16,41.36-29.76,56.61-27,24.77-60,37.21-94.92,45.3-15.43,3.57-31.12,6-46.68,9Z" transform="translate(-549.94 -235.71)"/><path class="a4194c9d-d5ce-4f3f-a695-19bbe1dfd3b4" d="M1023.25,743.47c49.29-33,92.77-69.64,90.1-137.35.89,5,2.21,10,2.6,15.08,2.56,33.44-10.69,60.83-33.38,84.15A157.16,157.16,0,0,1,1023.25,743.47Z" transform="translate(-549.94 -235.71)"/><path class="a4194c9d-d5ce-4f3f-a695-19bbe1dfd3b4" d="M1096.07,581.75V544.13l1.54,0v37.32Z" transform="translate(-549.94 -235.71)"/><path d="M915.8,685.52c-2-4-3.87-6-3.58-7.49.43-2.31,2.32-4.35,3.6-6.5,1.35,1.55,3.82,3.11,3.8,4.65C919.6,678.51,917.85,680.82,915.8,685.52Z" transform="translate(-549.94 -235.71)"/></svg>