<svg id="fc9b4b52-731d-4bce-804e-66617e6f40a1" data-name="Capa 1" xmlns="http://www.w3.org/2000/svg" viewBox="0 0 500.47 408.38"><defs><style>.b8d2f73e-815d-4640-84b3-bb48aa94f830{fill:#fff;}</style></defs><path d="M646.84,686.16,632.7,675.63c-9.51,22.29-19.07,44.26-28.25,66.44-5.51,13.3-25.72,16.86-34.05,5.25-1.19-1.66.68-6,1.13-9.09-.13,6,2.76,9.73,7.3,5.82,7.55-6.5,15.49-13.54,20.5-22.28,9.48-16.53,17.13-34.35,25.18-51.85,1.12-2.44.15-6,.15-9.12l-3.14-.36-46.81,71.37c7.89-14.69,15.51-29.57,23.74-44,6.11-10.73,17-20.32,18.39-31.52,1.28-10.68-7.15-22.74-11.13-34.27-20.51-59.35-5.83-129.88,36.2-174.24,2.66-2.8,5.3-5.62,8.59-9.11-4.26-4.18-8-7.95-11.86-11.63-9.1-8.73-16.69-8.68-22.63,3.22-10,20-18.23,41-26.83,61.76-2.91,7-4.63,14.66-7,22-4,12.72-9.09,16.21-19.89,10-13.68-7.91-26.59-17.6-39.32-27.34-7.85-6-14.9-13.35-22-20.43-9.65-9.56-8.36-16.44,3.27-23,27.87-15.78,55.84-31.38,83.27-48.07,14.43-8.78,12.35-10.82,7.37-27.27-2.21-7.3,4.28-19.38,9.36-27.32,4.06-6.36,11.72-5.93,17.59.48,4.43,4.83,8.66,8.26,16.2,7.65,9.18-.74,20.88,19.88,20.8,30.88,0,4.26,4.1,8.69,6.64,12.81,8,12.94,16.38,15.42,31.13,9.07,34-14.63,69.08-13.05,103,2.54,7.57,3.48,12.86,3.86,17.86-4.14,2.7-4.32,6.75-7.59,9.88-11.62,1.6-2.05,3.52-4.72,3.57-7.16.4-19.54,8.15-28.74,26.53-32.34,3.53-.69,6.6-4.74,9.71-7.49,9-7.92,17.08-5.78,22.25,5.78,4.25,9.51,11.79,18.46.85,29.09-1.24,1.21,1.77,10.94,5,13.85A135.93,135.93,0,0,0,919.39,417c21.94,12.53,44.16,24.45,66.29,36.55,10.79,5.9,12.61,13.23,3.38,21.3-18.77,16.42-37.84,32.6-57.93,46.93-13.85,9.88-19.44,6.1-25.25-10.94-6.9-20.27-14-40.48-21.58-60.43A110.88,110.88,0,0,0,873,429.37c-6.8-10.3-13.57-10.84-22.11-2.65-3.91,3.74-7.76,7.56-11.65,11.36,7.93,9.74,16.44,18.43,23,28.62,36.41,56.15,40.35,115.51,12.09,177-3.85,8.36-3.16,13.29,1.36,20.53,13.65,21.88,26.46,44.41,39.59,66.69-2.92-3.52-6.18-6.76-8.69-10.6-13.17-20.11-26.15-40.37-39.2-60.58l-3.38,1c.36,3.52-.28,7.71,1.23,10.45,13.28,24.06,20.46,52.54,42.43,70.37,5.67,4.61,8.71,6.33,10.13-3,.65,2.77,2,7.91,1.83,8-7.55,2.85-15.22,6.82-23,7-3.8.1-9.25-6-11.4-10.78-9.93-21.85-18.95-44.2-29-68.08-6.49,6.37-11.23,11.15-16.1,15.76-52.56,49.81-131.12,51.87-185.63,4.76-3-2.63-5.38-6.3-8-9.49,2.74,1.73,5.71,3.13,8.19,5.25,26.67,22.87,56.71,34.65,90.59,34.51,78.6-.32,143.55-71.15,144-157.25.5-89.21-62.81-161.64-142.42-162.91-58.09-.93-111.21,36.87-134.86,96-23.48,58.64-12.64,126.92,27.62,174.6C642.29,679.07,644.45,682.74,646.84,686.16ZM860.49,392.78l-26.12-6.67a16.82,16.82,0,0,0,10.08,7.46c10.36,2.4,17.08,8,18.62,20.39.24,1.94,4.1,3.33,6.29,5l16.47-13.58,11.42,4.09L884.59,392.8c-5.08-.41-9.05-.79-13-1-16.89-1-5.72-22.67-18.5-29,2.62,11.09,4.9,20.73,7.17,30.36ZM602.19,405l12.54,18.62c3.63-2.79,10.8-5.47,11.25-9.15,1.72-14.13,9.81-18.66,20.52-21.47,3.1-.82,5.82-3.36,8.71-5.11l-1.07-1.72L628.66,393,636,364.36l-3.83-1.2c-1.37,5.41-2.89,10.78-4.08,16.24C625.54,391.1,615.82,396,609,395.86l-17.44,14.93Zm-38.26,85.39c8.44,3.46,17.49,2.64,22.15-5.25,5.25-8.89,11.34-19.51,3.88-31.58l-2,6.07-18.11-7.06c2.45-16.29,2.37-16.38-15.19-18.59-1.17,4.73-2.13,8.6-3.79,15.37l16.44-8,2,1.55-14.74,21.73c-2.5-6.32-3.79-9.63-5.1-12.93-4.28-10.74-10.78-12.23-18.71-4.29-9.75,9.77-7.34,21.31,6.59,31.55l-6.47,10.17L503.4,458.51c-3,1.24-9.67,4.69-1.28,12.32,17,15.43,34.54,30.11,52.46,44.15,5,4,12.2,4.67,18.39,6.87l.85-3.15L560,510.57l7.4-5.11C565.93,499.13,564.93,494.78,563.93,490.43Zm370.68-56.8c-17.61,2.81-17.61,2.81-15.36,18.92l-18.42,7.35c-1.19-9.9-2.53-19.89-16-18.16,1.45,2.2,2.69,5.66,3.89,5.65,10.57-.16,10.22,5.82,7.08,13.95a7,7,0,0,0-.07,4.4c3.88,10.56,4.49,24,18.39,26,1.23.18,3.42,2.09,3.29,2.56-2.62,9.53,6.68,11,10.22,17.27l-13.58,7.73c15.1,3.6,66.59-34.46,77.18-56.44l-8.88-6.61c-2.15,18-16.27,22-24.93,32-4.47-6.58-3.77-9.93,1-15.18,3.57-3.9,5.55-13.25,3.83-18.35-1.78-5.26-8.41-10.22-13.79-11.89-7.95-2.47-7.21,7.68-10.3,12.28-1.23,1.83-1.56,4.41-2.49,7.23-8.79-4.81-13.35-11.44-14.45-20.14L938,448C936.48,441.54,935.6,437.82,934.61,433.63ZM625.44,361.81c-4.92-5.9-9-13.05-17.2-8-1.57,1-2.6,7-1.46,8.7C612.68,371.54,618.89,367.21,625.44,361.81Zm238.32-3.89.85,4.6c6,5.25,12.25,8.51,17.79,0,1.13-1.74-.93-6-1.52-9.12Zm-29.7,77.6,11.78-18.2-3.24-3.83-19,12.3Zm-168.29-9.81-19.7-12.2q-1.5,2-3,4l12.21,17.67Zm145.79-5.45c12.59,1.45,21.76-9.43,21.63-20.36C827,405.71,820.24,412.1,811.56,420.26Zm-134.18,1.09c-8.07-9.36-14.21-16.47-21.13-24.51C655.67,410.15,663.18,419.37,677.38,421.35Z" transform="translate(-494.53 -345.94)"/><path class="b8d2f73e-815d-4640-84b3-bb48aa94f830" d="M917.8,738.58c-1.42,9.3-4.46,7.58-10.13,3-22-17.83-29.15-46.31-42.43-70.37-1.51-2.74-.87-6.93-1.23-10.45l3.38-1c13.05,20.21,26,40.47,39.2,60.58,2.51,3.84,5.77,7.08,8.69,10.6Z" transform="translate(-494.53 -345.94)"/><path class="b8d2f73e-815d-4640-84b3-bb48aa94f830" d="M574.71,731.81l46.81-71.37,3.14.36c0,3.07,1,6.68-.15,9.12-8,17.5-15.7,35.32-25.18,51.85-5,8.74-13,15.78-20.5,22.28-4.54,3.91-7.43.16-7.3-5.82Z" transform="translate(-494.53 -345.94)"/><path class="b8d2f73e-815d-4640-84b3-bb48aa94f830" d="M646.84,686.16c-2.39-3.42-4.55-7.09-7.21-10.24-40.26-47.68-51.1-116-27.62-174.6,23.65-59.1,76.77-96.9,134.86-96,79.61,1.27,142.92,73.7,142.42,162.91-.48,86.1-65.43,156.93-144,157.25-33.88.14-63.92-11.64-90.59-34.51-2.48-2.12-5.45-3.52-8.19-5.25Zm-43.2-120.27c.19,86,63.2,155.83,140.68,155.82,76.83,0,141.24-69.72,141.16-152.79-.08-90.12-62.13-159.85-141.75-159.31C665.86,410.14,603.46,479.75,603.64,565.89Z" transform="translate(-494.53 -345.94)"/><path class="b8d2f73e-815d-4640-84b3-bb48aa94f830" d="M934.61,433.63c1,4.19,1.87,7.91,3.38,14.32l-16.7-5.72c1.1,8.7,5.66,15.33,14.45,20.14.93-2.82,1.26-5.4,2.49-7.23,3.09-4.6,2.35-14.75,10.3-12.28,5.38,1.67,12,6.63,13.79,11.89,1.72,5.1-.26,14.45-3.83,18.35-4.81,5.25-5.51,8.6-1,15.18,8.66-10,22.78-14,24.93-32l8.88,6.61c-10.59,22-62.08,60-77.18,56.44l13.58-7.73c-3.54-6.23-12.84-7.74-10.22-17.27.13-.47-2.06-2.38-3.29-2.56-13.9-2-14.51-15.45-18.39-26a7,7,0,0,1,.07-4.4c3.14-8.13,3.49-14.11-7.08-13.95-1.2,0-2.44-3.45-3.89-5.65,13.44-1.73,14.78,8.26,16,18.16l18.42-7.35C917,436.44,917,436.44,934.61,433.63Zm18.54,28.44,1.73,1.54c-1.13,2.41-2.26,4.83-4.35,9.27,9.53-2.7,12-8.59,9.64-15.16-1.45-4.12-7.74-10.19-9.49-9.35a21.88,21.88,0,0,0-10.24,12c-1,3.12,2.84,8.18,5.38,14.51Zm-30.86,3.07c-1,6.82-1.8,12.61-2.88,20.16,9.82-4,12-11.09,8.79-17.87-1.71-3.68-8.34-4.69-12.88-6.55-.74-.31-2.1,1.22-5.51,3.36ZM942,502.91l.37-4.8-13.6-5.63q-.34,6.18-.71,12.38Zm-6.47-35.19c-2.47,8.6-4.08,14.19-5.62,19.57L943.34,489Z" transform="translate(-494.53 -345.94)"/><path class="b8d2f73e-815d-4640-84b3-bb48aa94f830" d="M537.36,479c-13.93-10.24-16.34-21.78-6.59-31.55,7.93-7.94,14.43-6.45,18.71,4.29,1.31,3.3,2.6,6.61,5.1,12.93l14.74-21.73-2-1.55-16.44,8c1.66-6.77,2.62-10.64,3.79-15.37,17.56,2.21,17.64,2.3,15.19,18.59L588,459.67l2-6.07c7.46,12.07,1.37,22.69-3.88,31.58-4.66,7.89-13.71,8.71-22.15,5.25l-2.2-1.66-8.36-18.27c-2.38,4.41-4.7,8.72-7,13Zm4.11-7.23c7.33-1.21,10.36-6.22,7.24-12.81-2.13-4.53-7.28-7.33-11.07-10.91-3.1,4.44-7.62,8.49-8.76,13.47-.66,2.93,4,7.35,6.33,11.1l2.87-2.45-3.63-6.88,1.82-1C538,465.36,539.68,468.48,541.47,471.75Zm35.14-7.39c-6.54-5.38-12.68-6.32-15.71,2.27-2.6,7.39-1.38,14.24,8.59,18.54-.84-7.63-1.49-13.49-2.18-19.77Z" transform="translate(-494.53 -345.94)"/><path class="b8d2f73e-815d-4640-84b3-bb48aa94f830" d="M537.36,479l9,4.54c1.26,1.7,2.33,4.57,3.82,4.87,3.76.75,7.7.33,11.57.38l2.2,1.66c1,4.35,2,8.7,3.45,15l-7.4,5.11,13.84,8.13-.85,3.15c-6.19-2.2-13.34-2.9-18.39-6.87-17.92-14-35.49-28.72-52.46-44.15-8.39-7.63-1.72-11.08,1.28-12.32l27.49,30.64Zm19,32.89c3.17-6.41,6-9.53,5.69-12.17-.39-3.11-3.51-5.82-5.45-8.7-1.6,1.83-4.62,3.77-4.51,5.45C552.35,500.41,554.1,504.25,556.36,511.87Z" transform="translate(-494.53 -345.94)"/><path d="M885.83,405.36l-16.47,13.58-8.87-26.16-.27.3c6,1.85,12.17,3.27,18,5.71C881.08,400,883.31,403.11,885.83,405.36Z" transform="translate(-494.53 -345.94)"/><path class="b8d2f73e-815d-4640-84b3-bb48aa94f830" d="M602.19,405l-10.62,5.75L609,395.86c6.81.18,16.53-4.76,19.07-16.46,1.19-5.46,2.71-10.83,4.08-16.24l3.83,1.2L628.66,393l.34-.27c-4.08,1.63-8.24,3-12.22,4.94-5,2.37-9.89,5.13-14.83,7.72Z" transform="translate(-494.53 -345.94)"/><path class="b8d2f73e-815d-4640-84b3-bb48aa94f830" d="M628.66,393l25.48-6.78,1.07,1.72c-2.89,1.75-5.61,4.29-8.71,5.11-10.71,2.81-18.8,7.34-20.52,21.47-.45,3.68-7.62,6.36-11.25,9.15L602.19,405l-.24.34,17.53,12.38,9.52-25Z" transform="translate(-494.53 -345.94)"/><path class="b8d2f73e-815d-4640-84b3-bb48aa94f830" d="M885.83,405.36c-2.52-2.25-4.75-5.35-7.63-6.57-5.81-2.44-12-3.86-18-5.71-2.27-9.63-4.55-19.27-7.17-30.36,12.78,6.38,1.61,28,18.5,29,4,.24,8,.62,13,1l12.66,16.65Z" transform="translate(-494.53 -345.94)"/><path class="b8d2f73e-815d-4640-84b3-bb48aa94f830" d="M625.44,361.81c-6.55,5.4-12.76,9.73-18.66.71-1.14-1.74-.11-7.73,1.46-8.7C616.43,348.76,620.52,355.91,625.44,361.81Z" transform="translate(-494.53 -345.94)"/><path class="b8d2f73e-815d-4640-84b3-bb48aa94f830" d="M863.76,357.92l17.12-4.52c.59,3.11,2.65,7.38,1.52,9.12-5.54,8.51-11.83,5.25-17.79,0Z" transform="translate(-494.53 -345.94)"/><path class="b8d2f73e-815d-4640-84b3-bb48aa94f830" d="M860.49,392.78l8.87,26.16c-2.19-1.65-6.05-3-6.29-5-1.54-12.35-8.26-18-18.62-20.39a16.82,16.82,0,0,1-10.08-7.46Z" transform="translate(-494.53 -345.94)"/><path class="b8d2f73e-815d-4640-84b3-bb48aa94f830" d="M834.06,435.52l-10.42-9.73,19-12.3,3.24,3.83Z" transform="translate(-494.53 -345.94)"/><path class="b8d2f73e-815d-4640-84b3-bb48aa94f830" d="M665.77,425.71l-10.48,9.48-12.21-17.67q1.49-2,3-4Z" transform="translate(-494.53 -345.94)"/><path class="b8d2f73e-815d-4640-84b3-bb48aa94f830" d="M811.56,420.26c8.68-8.16,15.46-14.55,21.63-20.36C833.32,410.83,824.15,421.71,811.56,420.26Z" transform="translate(-494.53 -345.94)"/><path class="b8d2f73e-815d-4640-84b3-bb48aa94f830" d="M677.38,421.35c-14.2-2-21.71-11.2-21.13-24.51C663.17,404.88,669.31,412,677.38,421.35Z" transform="translate(-494.53 -345.94)"/><path d="M603.64,565.89c-.18-86.14,62.22-155.75,140.09-156.28,79.62-.54,141.67,69.19,141.75,159.31.08,83.07-64.33,152.78-141.16,152.79C666.84,721.72,603.83,651.92,603.64,565.89Zm43.42,75.17c-.85-18.45-1.69-36.91-2.55-55.69H623.39c2.07,19.86,8.41,37,17.64,52.89,1,1.65,4.17,1.69,6.34,2.48,3,21.85,19.89,29,34.4,41.91.52-11.18.92-19.66,1.36-29.06,4.57,31.58,4.57,31.58,10.79,33.31V585.15h-33.4c-1.59,7-3.09,13.66-4.6,20.31l-1.74-.51Q653,595,651.85,585.06l-4.76.36Q647.09,613.23,647.06,641.06Zm-.18-145.6c-.91-2-1.82-4.1-3.21-7.26-11.89,19.52-19,39.32-20.82,61.86h22.53c0-5.11-.14-9.51,0-13.89.5-13.72,1.11-27.44,1.67-41.16v46.22L675,508.1l1.79,1.92c-8.69,12.84-17.39,25.68-27.59,40.76h48c.55,2.37,1.08,4.71,2,8.47,5.17-24.53,19.68-41.36,37.73-43.24,33.56-3.51,50,16.51,56,50.86-.34-5.39-.67-10.78-1-16.54h15.12V519.47l1.56,0c.87,10.09,1.75,20.19,2.65,30.47h30.28c0-22.08,0-43.31-.07-64.54a10.3,10.3,0,0,0-1.62-5.65c-11.84-16-26-28.7-45.19-38.08V543.57c-1.78-.84-2.1-1.63-2.1-2.41q-.06-35.65-.08-71.31c0-34.12,0-34.12-30.77-38.78-.95-.14-2,.28-3.9.59V512.6H733.06c-2.17-27.16-4.27-53.41-6.69-83.81-16.46,7.33-30.22,13.12-43.63,19.81-1.93,1-2.78,6.17-3,9.5-.42,7.8-.14,15.64-.14,26.83-2-8.08-3.21-12.76-5.19-20.66-.81,10.15-1.33,16.73-2.14,26.89-.66-13.15-1.14-22.67-1.7-33.71C658.26,468.5,646.25,477.16,646.88,495.46ZM814.18,634l-1.78-1c6.29-15.47,12.57-30.93,19.3-47.47H818.37L817.64,602l4.06-5.59-11.26-7.26c-1,10.84-1.47,16.72-2,22.59l-1.44-.08V585.58H795.82V688l2.8,2.19c12.24-11,24.93-21.42,36.44-33.28,3.71-3.83,5.46-11.25,6-17.27,1-10.2.27-20.59.27-30.9h3v31.75l4.27,1c6.34-18.09,12.69-36.17,19.9-56.73-8.2,0-12.54.15-16.88,0-8.82-.35-15.3,1.93-19.33,12.36C827.35,609.91,820.31,621.75,814.18,634ZM792.34,598.3c-10.5,7.66-20.48,14.78-30.26,22.22-1.81,1.38-4,4.05-4,6.14-.28,24.43-.17,48.86-.17,74.69,8-2,14.41-3.88,20.91-5.18,10.32-2.08,15.12-7.63,13.74-20.12-1.17-10.5-.22-21.28-.21-31.93Zm-61,27.09C718.48,615,708,606.61,696.85,597.62c0,27,.54,54.25-.23,81.46-.37,13.09,5.44,16.09,16.6,16.3V654.15h2.5v32.09l1.16-.05c1.34-4.94,2.68-9.88,4.41-16.23,1.09,29.09,1.09,29.09,9.38,29.84a57.41,57.41,0,0,0,.61-6C731.33,670.13,731.31,646.44,731.31,625.39Zm-11.12-60c.11,16,10.85,29.14,23.41,28.6,14.38-.61,27.33-13.95,27.48-28.3.14-13.7-14.54-29.33-27.05-28.79C730.8,537.5,720.07,550.33,720.19,565.43Zm146.56-16.21c-3.14-21.65-8.78-41.64-22.14-61.61v63.2c6.34,0,11.83.09,17.32-.06C863.29,550.71,864.64,549.91,866.75,549.22ZM731.08,706.15C667.21,692.86,629.55,650.45,617,580.2,614.62,641,681.91,715,731.08,706.15Zm27.59.12c51.17,6.2,126.18-77.62,112.63-127.74C859.76,650.51,822.22,692.31,758.67,706.27Zm-.45-281c29.12,5.41,54.8,18.24,75.72,41.48s32.48,51.46,37.48,83.52C874.57,489.34,812.63,421.2,758.22,425.29ZM617.3,549.92c12.6-70.14,50.6-111.51,113.82-125.07C681.38,421.53,617,481.53,617.3,549.92Z" transform="translate(-494.53 -345.94)"/><path d="M953.15,462.07l-7.33,12.77c-2.54-6.33-6.4-11.39-5.38-14.51a21.88,21.88,0,0,1,10.24-12c1.75-.84,8,5.23,9.49,9.35,2.32,6.57-.11,12.46-9.64,15.16,2.09-4.44,3.22-6.86,4.35-9.27Z" transform="translate(-494.53 -345.94)"/><path d="M922.29,465.14l-12.48-.9c3.41-2.14,4.77-3.67,5.51-3.36,4.54,1.86,11.17,2.87,12.88,6.55,3.16,6.78,1,13.9-8.79,17.87C920.49,477.75,921.31,472,922.29,465.14Z" transform="translate(-494.53 -345.94)"/><path d="M942,502.91l-13.94,1.95q.36-6.19.71-12.38l13.6,5.63Z" transform="translate(-494.53 -345.94)"/><path d="M935.57,467.72,943.34,489,930,487.29C931.49,481.91,933.1,476.32,935.57,467.72Z" transform="translate(-494.53 -345.94)"/><path d="M541.47,471.75c-1.79-3.27-3.5-6.39-5.2-9.51l-1.82,1,3.63,6.88-2.87,2.45c-2.29-3.75-7-8.17-6.33-11.1,1.14-5,5.66-9,8.76-13.47,3.79,3.58,8.94,6.38,11.07,10.91C551.83,465.53,548.8,470.54,541.47,471.75Z" transform="translate(-494.53 -345.94)"/><path d="M576.61,464.36l-9.3,1c.69,6.28,1.34,12.14,2.18,19.77-10-4.3-11.19-11.15-8.59-18.54C563.93,458,570.07,459,576.61,464.36Z" transform="translate(-494.53 -345.94)"/><path d="M561.73,488.77c-3.87,0-7.81.37-11.57-.38-1.49-.3-2.56-3.17-3.82-4.87,2.33-4.3,4.65-8.61,7-13Z" transform="translate(-494.53 -345.94)"/><path d="M556.36,511.87c-2.26-7.62-4-11.46-4.27-15.42-.11-1.68,2.91-3.62,4.51-5.45,1.94,2.88,5.06,5.59,5.45,8.7C562.38,502.34,559.53,505.46,556.36,511.87Z" transform="translate(-494.53 -345.94)"/><path d="M629,392.72l-9.52,25L602,405.38c4.94-2.59,9.81-5.35,14.83-7.72C620.76,395.77,624.92,394.35,629,392.72Z" transform="translate(-494.53 -345.94)"/><path class="b8d2f73e-815d-4640-84b3-bb48aa94f830" d="M646.91,495.4c-.66-18.24,11.35-26.9,23.7-37.95.56,11,1,20.56,1.7,33.71.81-10.16,1.33-16.74,2.14-26.89,2,7.9,3.16,12.58,5.19,20.66,0-11.19-.28-19,.14-26.83.18-3.33,1-8.54,3-9.5,13.41-6.69,27.17-12.48,43.63-19.81,2.42,30.4,4.52,56.65,6.69,83.81h24.59V431.66c1.93-.31,3-.73,3.9-.59,30.78,4.66,30.77,4.66,30.77,38.78q0,35.65.08,71.31c0,.78.32,1.57,2.1,2.41V441.7c19.22,9.38,33.35,22.09,45.19,38.08a10.3,10.3,0,0,1,1.62,5.65c.11,21.23.07,42.46.07,64.54H811.1c-.9-10.28-1.78-20.38-2.65-30.47l-1.56,0v30.86H791.77c.36,5.76.69,11.15,1,16.54-6-34.35-22.42-54.37-56-50.86-18.05,1.88-32.56,18.71-37.73,43.24-.87-3.76-1.4-6.1-2-8.47h-48c10.2-15.08,18.9-27.92,27.59-40.76L675,508.1l-27.91,33.13V495Zm51-41.72-3.77,0v87.62h3.77Z" transform="translate(-494.53 -345.94)"/><path class="b8d2f73e-815d-4640-84b3-bb48aa94f830" d="M814.18,634c6.13-12.27,13.17-24.11,18.12-36.93,4-10.43,10.51-12.71,19.33-12.36,4.34.18,8.68,0,16.88,0-7.21,20.56-13.56,38.64-19.9,56.73l-4.27-1V608.7h-3c0,10.31.69,20.7-.27,30.9-.56,6-2.31,13.44-6,17.27-11.51,11.86-24.2,22.29-36.44,33.28l-2.8-2.19V585.58H807v26.11l1.44.08c.52-5.87,1-11.75,2-22.59l11.26,7.26L817.64,602l.73-16.52H831.7c-6.73,16.54-13,32-19.3,47.47Z" transform="translate(-494.53 -345.94)"/><path class="b8d2f73e-815d-4640-84b3-bb48aa94f830" d="M647.09,641V585.42l4.76-.36Q653,595,654.18,605l1.74.51c1.51-6.65,3-13.3,4.6-20.31h33.4V686.9c-6.22-1.73-6.22-1.73-10.79-33.31-.44,9.4-.84,17.88-1.36,29.06-14.51-12.87-31.38-20.06-34.4-41.91Z" transform="translate(-494.53 -345.94)"/><path class="b8d2f73e-815d-4640-84b3-bb48aa94f830" d="M792.34,598.3v45.82c0,10.65-1,21.43.21,31.93,1.38,12.49-3.42,18-13.74,20.12-6.5,1.3-12.9,3.17-20.91,5.18,0-25.83-.11-50.26.17-74.69,0-2.09,2.2-4.76,4-6.14C771.86,613.08,781.84,606,792.34,598.3Z" transform="translate(-494.53 -345.94)"/><path class="b8d2f73e-815d-4640-84b3-bb48aa94f830" d="M731.31,625.39c0,21.05,0,44.74,0,68.42a57.41,57.41,0,0,1-.61,6c-8.29-.75-8.29-.75-9.38-29.84-1.73,6.35-3.07,11.29-4.41,16.23l-1.16.05V654.14h-2.5v41.23c-11.16-.21-17-3.21-16.6-16.3.77-27.21.23-54.46.23-81.46C708,606.61,718.48,615,731.31,625.39Z" transform="translate(-494.53 -345.94)"/><path d="M720.19,565.43c-.12-15.1,10.61-27.93,23.84-28.49,12.51-.54,27.19,15.09,27.05,28.79-.15,14.35-13.1,27.69-27.48,28.3C731,594.57,720.3,581.45,720.19,565.43Zm40.49-6.52c-5.19-12.2-14.23-16.36-23.95-11-9.22,5.06-12.21,14.85-7.86,25.78,4.42,11.12,12.31,14,23.18,8.5C759.14,576.32,764.12,569.52,760.68,558.91Z" transform="translate(-494.53 -345.94)"/><path class="b8d2f73e-815d-4640-84b3-bb48aa94f830" d="M647.07,495c-.56,13.72-1.17,27.44-1.67,41.16-.16,4.38,0,8.78,0,13.89H622.85c1.83-22.54,8.93-42.34,20.82-61.86,1.39,3.16,2.3,5.21,3.23,7.23Z" transform="translate(-494.53 -345.94)"/><path class="b8d2f73e-815d-4640-84b3-bb48aa94f830" d="M866.75,549.22c-2.11.69-3.46,1.49-4.82,1.53-5.49.15-11,.06-17.32.06v-63.2C858,507.58,863.61,527.57,866.75,549.22Z" transform="translate(-494.53 -345.94)"/><path class="b8d2f73e-815d-4640-84b3-bb48aa94f830" d="M731.08,706.15C681.91,715,614.62,641,617,580.2,629.55,650.45,667.21,692.86,731.08,706.15Z" transform="translate(-494.53 -345.94)"/><path class="b8d2f73e-815d-4640-84b3-bb48aa94f830" d="M758.67,706.27c63.55-14,101.09-55.76,112.63-127.74C884.85,628.65,809.84,712.47,758.67,706.27Z" transform="translate(-494.53 -345.94)"/><path class="b8d2f73e-815d-4640-84b3-bb48aa94f830" d="M647.37,640.74c-2.17-.79-5.39-.83-6.34-2.48-9.23-15.9-15.57-33-17.64-52.89h21.12c.86,18.78,1.7,37.24,2.57,55.68Z" transform="translate(-494.53 -345.94)"/><path class="b8d2f73e-815d-4640-84b3-bb48aa94f830" d="M758.22,425.29c54.41-4.09,116.35,64,113.2,125-5-32.06-16.64-60.37-37.48-83.52S787.34,430.7,758.22,425.29Z" transform="translate(-494.53 -345.94)"/><path class="b8d2f73e-815d-4640-84b3-bb48aa94f830" d="M617.3,549.92c-.28-68.39,64.08-128.39,113.82-125.07C667.9,438.41,629.9,479.78,617.3,549.92Z" transform="translate(-494.53 -345.94)"/><path d="M697.93,453.68v87.58h-3.77V453.65Z" transform="translate(-494.53 -345.94)"/><path class="b8d2f73e-815d-4640-84b3-bb48aa94f830" d="M752.05,582.16c-10.87,5.51-18.76,2.62-23.18-8.5-4.35-10.93-1.36-20.72,7.86-25.78,9.72-5.33,18.76-1.17,23.95,11l-28.07,15.81C736.56,582.78,744.36,582.32,752.05,582.16Z" transform="translate(-494.53 -345.94)"/><path d="M752.05,582.16c-7.69.16-15.49.62-19.44-7.44l28.07-15.81C764.12,569.52,759.14,576.32,752.05,582.16Z" transform="translate(-494.53 -345.94)"/></svg>