<svg id="a7b420fd-2658-4652-97af-2c08749c50d8" data-name="Capa 1" xmlns="http://www.w3.org/2000/svg" viewBox="0 0 555.48 763.56"><defs><style>.b1ce1fbf-b283-4fc1-b1c8-521e5b47f8e4{fill:#fff;}.b1ce1fbf-b283-4fc1-b1c8-521e5b47f8e4,.b7722f46-409c-4dc4-82ed-461cea7dbf91,.f13106b6-005b-4731-aec7-7fc368b19fae{stroke:#000;stroke-width:0.25px;}.b1ce1fbf-b283-4fc1-b1c8-521e5b47f8e4,.b7722f46-409c-4dc4-82ed-461cea7dbf91{stroke-miterlimit:10;}.f13106b6-005b-4731-aec7-7fc368b19fae{fill:none;stroke-linecap:round;stroke-linejoin:round;}</style></defs><path class="b1ce1fbf-b283-4fc1-b1c8-521e5b47f8e4" d="M946.7,709.36c.83-2,1.92-4,3.6-7.37l0,.07c-1.65,3.36-2.73,5.27-3.55,7.27-5.59,13.66-14.41,24.54-28.2,30.29a187.77,187.77,0,0,1-26.41,9.31,191,191,0,0,0,26.33-9.28C932.29,733.9,941.11,723,946.7,709.36Z" transform="translate(-683.36 -158.56)"/><path class="b1ce1fbf-b283-4fc1-b1c8-521e5b47f8e4" d="M986.26,737.19c.41,2,.82,4,1.38,6.77l-.1-.05c-.56-2.77-1-4.75-1.38-6.81Z" transform="translate(-683.36 -158.56)"/><path class="b1ce1fbf-b283-4fc1-b1c8-521e5b47f8e4" d="M864.22,756a36.66,36.66,0,0,0-13,9.52v0A36.41,36.41,0,0,1,864.22,756Z" transform="translate(-683.36 -158.56)"/><path class="b1ce1fbf-b283-4fc1-b1c8-521e5b47f8e4" d="M1056.84,771.21h0a57.24,57.24,0,0,1-28.89-8.76l.08-.07A57.29,57.29,0,0,0,1056.84,771.21Z" transform="translate(-683.36 -158.56)"/><path class="b1ce1fbf-b283-4fc1-b1c8-521e5b47f8e4" d="M1097.39,771.78c-14.86-1.33-28-7.61-40.36-16.75v-.12C1069.41,764.09,1082.54,770.4,1097.39,771.78Z" transform="translate(-683.36 -158.56)"/><path class="b1ce1fbf-b283-4fc1-b1c8-521e5b47f8e4" d="M1157,630.74l-.17,0-.87-3h.19Z" transform="translate(-683.36 -158.56)"/><path class="b1ce1fbf-b283-4fc1-b1c8-521e5b47f8e4" d="M1129,770.8a4.71,4.71,0,0,1,2.89,2.33c4.85,10.2,9.38,20.55,14.33,30.7,2.86,5.87,6.5,11.36,9.49,17.17,5.76,11.17,10.53,22.67,10.34,35.61-.14,9.83-.35,19.67,0,29.49.09,2.62,1.35,6,3.26,7.62,5.68,4.84,11.46,10,18.11,13.16,12,5.7,24.76,10,37.4,15l0,0c-12.69-5-25.46-9.35-37.57-15.07-6.65-3.14-12.43-8.32-18.11-13.16-1.91-1.63-3.17-5-3.26-7.62-.33-9.82-.12-19.66,0-29.49.19-12.94-4.58-24.44-10.34-35.61-3-5.81-6.63-11.3-9.49-17.17-5-10.15-9.48-20.5-14.33-30.7a4.71,4.71,0,0,0-2.89-2.33c-6.94-1.14-13.88-2.06-21-3.07h0C1115,768.7,1122,769.64,1129,770.8Z" transform="translate(-683.36 -158.56)"/><path class="b1ce1fbf-b283-4fc1-b1c8-521e5b47f8e4" d="M834.38,300.26a39.2,39.2,0,0,1,9-30.9,39.21,39.21,0,0,0-8.92,30.84A66.67,66.67,0,0,0,856,340.89c7.59,7,16.59,12.42,25.19,18.72l0,.06c-8.6-6.3-17.6-11.75-25.19-18.72A66.67,66.67,0,0,1,834.38,300.26Z" transform="translate(-683.36 -158.56)"/><path class="b1ce1fbf-b283-4fc1-b1c8-521e5b47f8e4" d="M873.21,249.23c-1.1,1.32-1.54,3.16-1.42,5.61a8.23,8.23,0,0,1-2.08,5.18,8.23,8.23,0,0,0,2-5.12C871.62,252.41,872.07,250.55,873.21,249.23Z" transform="translate(-683.36 -158.56)"/><path class="b1ce1fbf-b283-4fc1-b1c8-521e5b47f8e4" d="M939.52,186.44a77.26,77.26,0,0,0,4.51,7.11l0-.06a48.7,48.7,0,0,1,.89,5.2,19.57,19.57,0,0,1-.42,3.74h0v0c-1.08-.79-2.51-1.39-3.08-2.39-3.53-6.52-6.91-13.12-10.25-19.74-.9-1.79-1.14-3.29-.44-4.32.52-.79,1.6-1.3,3.35-1.44C935.83,178.52,937.53,182.54,939.52,186.44Z" transform="translate(-683.36 -158.56)"/><path class="b1ce1fbf-b283-4fc1-b1c8-521e5b47f8e4" d="M917.3,335.54A164.81,164.81,0,0,0,889.8,362a165.07,165.07,0,0,1,27.55-26.49,11.77,11.77,0,0,0,1.86-1.69A11.56,11.56,0,0,1,917.3,335.54Z" transform="translate(-683.36 -158.56)"/><path class="b1ce1fbf-b283-4fc1-b1c8-521e5b47f8e4" d="M914.33,684.69a67,67,0,0,0-10.22,2.71,66.91,66.91,0,0,1,10.3-2.74c4.7-.86,9.62-.49,14.42-.89a5.88,5.88,0,0,0,.85-.22,4.91,4.91,0,0,1-.93.25C924,684.2,919,683.8,914.33,684.69Z" transform="translate(-683.36 -158.56)"/><path class="b1ce1fbf-b283-4fc1-b1c8-521e5b47f8e4" d="M844.21,650.86c-1.25.63-2.5,1.2-3.74,1.71,1.24-.52,2.49-1.09,3.74-1.72Z" transform="translate(-683.36 -158.56)"/><path class="b1ce1fbf-b283-4fc1-b1c8-521e5b47f8e4" d="M837.31,487.46c.64-.68,1.29-1.36,1.92-2.06,5.93-6.52,11.15-13.36,16.48-20.17C850.34,472.1,845,479,839.18,485.46,838.57,486.14,837.94,486.8,837.31,487.46Z" transform="translate(-683.36 -158.56)"/><polygon class="b1ce1fbf-b283-4fc1-b1c8-521e5b47f8e4" points="183.91 517.03 160.93 525.76 160.93 525.76 183.91 517.03 183.91 517.03"/><path class="b1ce1fbf-b283-4fc1-b1c8-521e5b47f8e4" d="M720.83,600.44v0c4.34-.83,8-1.24,11.47-2.24,2.41-.69,4.75-1.49,7-2.38q-3.47,1.37-7.12,2.41C728.75,599.21,725.13,599.62,720.83,600.44Z" transform="translate(-683.36 -158.56)"/><path class="b1ce1fbf-b283-4fc1-b1c8-521e5b47f8e4" d="M684.35,287.84c.91-1.49,2.57-2.46,4.92-3.6q14.52-7.11,29-14.27L689.22,284.3C686.91,285.43,685.27,286.4,684.35,287.84Z" transform="translate(-683.36 -158.56)"/><path class="b1ce1fbf-b283-4fc1-b1c8-521e5b47f8e4" d="M905.29,184.86a54.8,54.8,0,0,0-3.46-6.16c-1.11-1.5-3-3.9-4.07-3.66A14.75,14.75,0,0,0,891.3,179l0,0a14.75,14.75,0,0,1,6.48-4c1-.24,3,2.16,4.07,3.66a54.8,54.8,0,0,1,3.46,6.16l4.54-2.73v0Z" transform="translate(-683.36 -158.56)"/><path class="b1ce1fbf-b283-4fc1-b1c8-521e5b47f8e4" d="M832.22,213.83,803.3,228.09l29-14.32c1.3-.63,2.75-1.11,3.49-2.06C835,212.71,833.54,213.19,832.22,213.83Z" transform="translate(-683.36 -158.56)"/><path class="b1ce1fbf-b283-4fc1-b1c8-521e5b47f8e4" d="M883.49,191.1c-.89-1.32-1.45-3-2.6-3.66-1.93-1-4.64-2.49-6.31-1.86-5.43,2-10.56,4.89-15.75,7.53a8,8,0,0,0-1.62,1.07,7.94,7.94,0,0,1,1.67-1.13c5.19-2.64,10.32-5.49,15.75-7.53,1.67-.63,4.38.81,6.31,1.86,1.15.63,1.71,2.34,2.6,3.66,2.34-.77,4.71-1.31,5.9-2.91C888.27,189.78,885.86,190.32,883.49,191.1Z" transform="translate(-683.36 -158.56)"/><path class="b1ce1fbf-b283-4fc1-b1c8-521e5b47f8e4" d="M1037.11,308.57A4.54,4.54,0,0,1,1036,308,4.9,4.9,0,0,0,1037.11,308.57Z" transform="translate(-683.36 -158.56)"/><path class="b1ce1fbf-b283-4fc1-b1c8-521e5b47f8e4" d="M851.35,207.41c-5.44-5.17-9.43-6.16-13.71-3.14a3.36,3.36,0,0,0-.42.36,4.32,4.32,0,0,1,.47-.42c4.28-3,8.27-2,13.71,3.14l6.23-3.27v0Z" transform="translate(-683.36 -158.56)"/><path class="b1ce1fbf-b283-4fc1-b1c8-521e5b47f8e4" d="M1037.44,308.69l-.17-.05Z" transform="translate(-683.36 -158.56)"/><path class="b1ce1fbf-b283-4fc1-b1c8-521e5b47f8e4" d="M856.37,464.38l0,.06Z" transform="translate(-683.36 -158.56)"/><path class="b1ce1fbf-b283-4fc1-b1c8-521e5b47f8e4" d="M816.84,507.48c2.91-2.84,5.87-5.63,8.81-8.43-2.95,2.81-5.91,5.61-8.81,8.44Z" transform="translate(-683.36 -158.56)"/><path class="b1ce1fbf-b283-4fc1-b1c8-521e5b47f8e4" d="M753.26,615.57c-3.78,1.09-7.8,1.64-11.61,2.79C745.46,617.2,749.48,616.65,753.26,615.57Z" transform="translate(-683.36 -158.56)"/><path class="b1ce1fbf-b283-4fc1-b1c8-521e5b47f8e4" d="M948.81,206.94c1.82,3.11,3.38,6.36,5.38,10.23l0,0c-2-3.88-3.56-7.14-5.39-10.25-.43-.71-1.76-.89-2.69-1.31v0C947,206,948.38,206.22,948.81,206.94Z" transform="translate(-683.36 -158.56)"/><path class="b1ce1fbf-b283-4fc1-b1c8-521e5b47f8e4" d="M923.46,164.92,906,173.19v0l17.5-8.3.88,1.29a8.47,8.47,0,0,1-.62,1,6.37,6.37,0,0,0,.57-.91Z" transform="translate(-683.36 -158.56)"/><path class="b1ce1fbf-b283-4fc1-b1c8-521e5b47f8e4" d="M945.77,317.4A178.27,178.27,0,0,1,1023,299.48a178.23,178.23,0,0,0-77.17,17.93Z" transform="translate(-683.36 -158.56)"/><path class="b1ce1fbf-b283-4fc1-b1c8-521e5b47f8e4" d="M928.42,219.36c.71,1.25,1.43,2.61,2.5,4.57h0c-1.08-2-1.77-3.29-2.51-4.58s-1.46-2.46-2.11-3.57h0C927,216.89,927.71,218.11,928.42,219.36Z" transform="translate(-683.36 -158.56)"/><path class="b1ce1fbf-b283-4fc1-b1c8-521e5b47f8e4" d="M1035.54,307.55a3.16,3.16,0,0,0,.43.38A3.16,3.16,0,0,1,1035.54,307.55Z" transform="translate(-683.36 -158.56)"/><path class="b1ce1fbf-b283-4fc1-b1c8-521e5b47f8e4" d="M914.68,232.9a8.68,8.68,0,0,0,5.41,2.16,8.7,8.7,0,0,1-5.44-2.16c-1.91-1.8-3.57-2.3-5.18-2C911.09,230.59,912.76,231.08,914.68,232.9Z" transform="translate(-683.36 -158.56)"/><path class="b1ce1fbf-b283-4fc1-b1c8-521e5b47f8e4" d="M1047.25,307.38a13.16,13.16,0,0,1-6.83,1.75,13.24,13.24,0,0,0,6.8-1.75c3.94-2.48,2.79-6.53-.14-11l.05,0C1050,300.92,1051.18,305,1047.25,307.38Z" transform="translate(-683.36 -158.56)"/><path class="b1ce1fbf-b283-4fc1-b1c8-521e5b47f8e4" d="M929.11,213.4c-6.38-12.91-12.54-25.39-18.71-37.9a.12.12,0,0,0,.05-.05c6.17,12.51,12.33,25,18.71,37.89l12-6v0Z" transform="translate(-683.36 -158.56)"/><path class="b1ce1fbf-b283-4fc1-b1c8-521e5b47f8e4" d="M931.64,171.67,925.06,174l4.46,9.23L925,174l6.58-2.36c-.78-1.71-1.54-3.43-2.35-5.13-1.12-2.33-2.28-4.65-3.86-7.85h0c1.58,3.2,2.74,5.52,3.86,7.84C930.1,168.24,930.86,170,931.64,171.67Z" transform="translate(-683.36 -158.56)"/><path class="b1ce1fbf-b283-4fc1-b1c8-521e5b47f8e4" d="M919.48,677.85c-7.07,3-14.09,6.32-21.3,8.91,7.19-2.59,14.19-5.88,21.24-8.89Z" transform="translate(-683.36 -158.56)"/><path class="b1ce1fbf-b283-4fc1-b1c8-521e5b47f8e4" d="M1096.55,523.51c13.42,9.65,28.12,14.21,45.62,11.65C1131.75,541.51,1101.91,533.59,1096.55,523.51Z" transform="translate(-683.36 -158.56)"/><path class="b1ce1fbf-b283-4fc1-b1c8-521e5b47f8e4" d="M1002,636.32a16.47,16.47,0,0,1,.13,2.27,9.42,9.42,0,0,1-.63,3.35c-1.2,3.1-4.2,5.32-9.57,7.26,0-.4-.07-.79-.08-1.18C991.68,642.26,995.92,637.41,1002,636.32Z" transform="translate(-683.36 -158.56)"/><path class="b1ce1fbf-b283-4fc1-b1c8-521e5b47f8e4" d="M957.28,688.94l.9.86c-5.71,5.18-8,6.71-11.06.38h0v0C952.3,685.24,953,684.92,957.28,688.94Z" transform="translate(-683.36 -158.56)"/><path class="b1ce1fbf-b283-4fc1-b1c8-521e5b47f8e4" d="M987.73,700.12c3.59-10.25,7.71-20.32,11.25-29.55a.27.27,0,0,0-.07.08,13.42,13.42,0,0,0-1.48,2c-7.94,14.06-14.65,28.64-19.06,44.24-.75,2.65-2.76,5-4.19,7.42-2.29-1.49-5.25-2.5-6.75-4.57l0-.06-.07-.08A162.91,162.91,0,0,1,957,703.18c-3.42-6.09-.18-11.43,7-12,9-.71,10.37-2.5,8.25-11.11,1.68-.92,3.38-2,5.16-2.82,5-2.41,8.4-6.17,9.4-11.59.67-3.55,2.51-5.74,5.67-7.55,8.16-4.67,13.45-11.29,13.06-21.38a4.45,4.45,0,0,1,2-3.43c9.94-5.14,13.1-14.28,13-24.22-.07-6.38,3.57-9.74,7.57-13.92,0,.08,0,.16,0,.24l.09-.1c.48,5.66,1,11.31,1.49,17.77,1.5-6,2.8-11.15,4.11-16.35l1.85,0,0,.14h.08c.82,4,2,7.94,2.38,12s.1,8.43.09,12.86h5.89a8.36,8.36,0,0,1-1,2c-9.81,9.79-16,21.56-19.55,34.89a9.08,9.08,0,0,1-3.12,4.23c-17.22,14-25.6,31.86-23.94,54.29.38,5.34-.38,10.77-.62,16.15l0,0h0l-1.65.54c-1.48-2-3.27-3.88-4.37-6.09C985.47,718.89,984.45,709.53,987.73,700.12Z" transform="translate(-683.36 -158.56)"/><path class="b1ce1fbf-b283-4fc1-b1c8-521e5b47f8e4" d="M1002.87,444.8h0a24,24,0,0,1-2.94,0c-21.28-2.85-42.67-5.09-63.81-8.76s-42.31-8.74-63.42-13.33c-2.65-.58-5.11-2-7.65-3v0h0l.28-1.63c2.13.1,4.37-.18,6.37.4,3.81,1.09,7.37,3.2,11.21,3.95,16.32,3.2,32.64,6.48,49.09,8.93,22.71,3.38,45.53,6.1,68.32,8.95,2.29.29,3.36.92,3.31,2.25A5.73,5.73,0,0,1,1002.87,444.8Z" transform="translate(-683.36 -158.56)"/><path class="b1ce1fbf-b283-4fc1-b1c8-521e5b47f8e4" d="M1053,308a5.62,5.62,0,0,1,4.15-2.06,13.11,13.11,0,0,1,6.27,1.39,5.77,5.77,0,0,1,2.75,4.07h0a84.9,84.9,0,0,1-1,10.92q-5.87,52.62-11.67,105.21c-1,8.71-1.74,17.44-2.74,26.7,43.18,3.3,85.76,7.39,129.11,4.42q4.33-.29,8.68-.69c-.43,4.38-.88,8.57-1.27,12.73-.11,1.14-.22,2.27-.32,3.4-.94,10.64-1.61,12.44-12.28,14.31a336.28,336.28,0,0,1-42.56,5c-38.69,1.77-77.25-1-115.69-5.14-20.48-2.22-40.89-4.88-61.15-8.41q-15.07-2.62-30-6l-.92-.2-.47-.11q-10.26-2.33-20.44-5.07c-12.1-3.25-24.58-5.56-35.1-12.91-2.71-1.9-6.55-4.81-6.63-7.35,0-.12,0-.25,0-.37-.22-7.88,1-15.83,1.69-23.64,47,14.33,94.63,19.1,142.31,25.43a1.89,1.89,0,0,1,0-.23c.38-2,.76-3.55.93-5.07,0,0,0-.08,0-.12,1.48-13.24,2.9-26.49,4.37-39.73.09-.8.18-1.6.26-2.4q5.13-46.69,10.45-93.37c.1-.84.19-1.68.29-2.52.15-1.33,2.23-3.44,3.4-3.43a9.58,9.58,0,0,0,1.45-.14c2.14-.36,4.57-1.05,5.53,2.1.07.25.14.53.2.83.87,4.79,4.21,7.43,9,8A10.89,10.89,0,0,0,1053,308Zm17.78,165.11a11,11,0,0,1-4.14,6.33c-3.86,2.83-7.84,1.15-12.35-4.44.17,5.69,3.43,9.54,8.66,10.25a10.5,10.5,0,0,0,11.35-7.05c1.75-4.92-.15-9.44-5.17-12.35C1069.78,468.26,1071.16,470.86,1070.81,473.12Zm74.62,5.64a6.17,6.17,0,0,1-3.65,3.41c-3.85,1.62-7.17.12-10.47-4.72.16,5.32,2.74,8.56,7.51,9.44a9.48,9.48,0,0,0,10.13-5.57c2-4.41.75-8.19-3.72-11.4C1146.16,473.9,1146.26,476.74,1145.43,478.76Zm-38-11.42c3.47,7.15,2.78,11.54-1.71,14.14s-8.18,1.16-12.4-4.57c-.12,5.31,2.93,9.26,7.89,10.23A10.5,10.5,0,0,0,1113,480.8C1115,475.75,1113.38,471.18,1107.42,467.34Zm-83.1,13.87a10.58,10.58,0,0,0,10.55-6.78c1.78-4.9,0-9.53-4.71-12.56.45,2.59,1.69,5.38,1.15,7.77a10.4,10.4,0,0,1-4.52,5.94c-4.1,2.49-7.9.58-12.22-5.82C1015.57,477.06,1018.89,480.76,1024.32,481.21Zm2.65-34.95a10.6,10.6,0,0,0,11.75-7.11c1.7-5.34-.53-10-7.11-13.5q.45.6.84,1.17c3.9,5.75,3.56,10.3-.43,13.2-4.56,3.31-9.19,1.71-13.43-4.65C1018.53,441.14,1021.77,445.37,1027,446.26Zm-4.83-45.06c1,6.46,4.22,9.78,9.22,10.22a10.22,10.22,0,0,0,10.9-6.91c1.78-4.94.1-9.2-5.1-12.69.67,2.52,2.11,5.06,1.72,7.29a11.09,11.09,0,0,1-4,6.37C1031.09,408.28,1027.26,406.82,1022.14,401.2Zm13.3-24.67a10.09,10.09,0,0,0,10.62-7.28c1.56-5.18-.29-9.32-5.5-12.3,3.09,7,2.49,11.28-1.92,13.82s-8.3,1.05-13.1-5.19C1026.86,373,1030,376.23,1035.44,376.53Zm1.8-35.09a10.5,10.5,0,0,0,12.25-6.15c2-5.05.31-9.59-5.58-13.54.22.45.42.89.61,1.31,2.79,6.38,2,10.35-2.08,12.84-4.38,2.66-8.59,1-12.77-4.79C1029.58,336.44,1032.42,340.32,1037.24,341.44Zm138.57,125.9c1.64,5.17,2.29,9.64-2.87,11.91-4,1.75-7.07-.17-9.6-3.32.41,4.63,2.86,7.19,7.21,7.65,4.07.44,7.28-1.17,8.87-5C1181.14,474.44,1180.23,470.81,1175.81,467.34Zm-266-5.24c4.2.84,7.83-1.62,9.77-6.29-2.21.84-4.44,2.41-6.61,2.32a8.54,8.54,0,0,1-5.84-3.05c-3.09-4-1.59-7.8,3.13-11.81-6.71,2.48-8.88,5.56-8.37,10.47S905.28,461.2,909.8,462.1Zm-30.86-9.85c4.57,1.05,8-1,10.88-7-.34.26-.67.51-1,.74-4.89,3.43-8.26,3.58-10.84.81-3.4-3.66-2.33-7.22.32-10.86-3.83.94-5.64,3.69-6,7.48A8.8,8.8,0,0,0,878.94,452.25Zm70.26,13.33a10.64,10.64,0,0,1-6.52-3.68c-2.87-3.49-1.65-7.48,3.58-12.57-6.68,2.19-9.58,6.05-9.18,11.16a10.63,10.63,0,0,0,9.14,9.72c4.82.59,8.66-1.9,10.5-6.76C954.23,464.23,951.63,465.8,949.2,465.58Zm32.39,3.47c-3.48-4.21-2.38-8.62,2.91-13.08-5.77.79-9.24,4.7-9.07,10.2a10.42,10.42,0,0,0,9.17,10.15c5.43.63,9.63-2.42,11-8.11C989.81,473,985.07,473.26,981.59,469.05Z" transform="translate(-683.36 -158.56)"/><path class="b1ce1fbf-b283-4fc1-b1c8-521e5b47f8e4" d="M1027.67,563.16l-.62-.34-1.2-.64c-1.2-5.8-1.74-11.83-3.79-17.35-1.92-5.17-.69-8.89,2.65-12.16.23-.22.46-.44.71-.66,1.61-1.44,4.41-3.41,5.72-2.86a9.14,9.14,0,0,1,4.73,5.66c1.41,6.75,1.21,13.65-2.15,19.92-1.59,3-4,5.64-6,8.43Z" transform="translate(-683.36 -158.56)"/><path class="b1ce1fbf-b283-4fc1-b1c8-521e5b47f8e4" d="M943.29,681.34a1.39,1.39,0,0,1,.34-.71,3.69,3.69,0,0,1,2.17-1.3c1.84-.17,2.86,2.7,4.47,5.11l-6.88,1.1C943.39,684.2,943,682.46,943.29,681.34Z" transform="translate(-683.36 -158.56)"/><path class="b1ce1fbf-b283-4fc1-b1c8-521e5b47f8e4" d="M1170.81,415.92h0v0h-34.65c10.63,1.29,21.27,2.67,31.95,3.24,2.8.16,4.42.95,5.34,2.3s1.17,3.22,1.18,5.59v0h0v0l-51.23-1.75c15.77,2.26,31.57,3.79,47.38,5.12a10.24,10.24,0,0,1,4.75,1.27c.12.08.23.17.34.26l.13.1c1.18,1.07,1.69,2.82,1.19,5.73l-66-2.42c11.42,1.78,22.82,2.87,34.33,4,2.84.29,5.69.56,8.54.83s5.9.55,8.84.84c4.31.42,8.62.85,12.92,1.33,1.24.14,2.32,1.65,3.47,2.53l0,0h0c-1,1-1.9,2.54-3.12,2.91a20.58,20.58,0,0,1-6.89.85c-27.94-1.17-55.87-2.35-83.8-3.73-8.61-.42-17.19-1.43-26.41-2.22,4.09-41.88,8.09-82.82,12.15-124.3,26.91,8.74,48.89,23.45,67.64,43.39l3.92-3.39-.08.11.08-.08a6.22,6.22,0,0,0-1.82,3.82c-.07,2,1.21,3.71,3,5.59a84.57,84.57,0,0,1,7.92,10.27c3.47,5.14,6.65,10.46,10.44,16.49h0l0,0h-12c14.32,2,14.79,2.33,16.13,10.46h0v0h-28c7.48.72,16,1.57,24.43,2.32C1169.32,408.1,1170.46,409.28,1170.81,415.92Z" transform="translate(-683.36 -158.56)"/><path class="b1ce1fbf-b283-4fc1-b1c8-521e5b47f8e4" d="M989,639.8c-1.34-4.08-2.65-7.8-3.75-11.58a74,74,0,0,1-2.64-10.6,55.75,55.75,0,0,1-.61-12.84,2.85,2.85,0,0,1,.06-.39c.35-1.92,1.92-4.45,3.43-5.11a2.08,2.08,0,0,1,.32-.12,5.07,5.07,0,0,1,1.28-.12c2.05.05,4.72,1.06,5.53,2.4l1.23,2c.83,1.33,1.64,2.68,2.41,4.05.39.69.77,1.38,1.13,2.07a39,39,0,0,1,3.39,8.59c2.29,9.31-3,18.14-11.78,21.67Z" transform="translate(-683.36 -158.56)"/><path class="b1ce1fbf-b283-4fc1-b1c8-521e5b47f8e4" d="M1018.23,311v.07h0c-1.47,13.47-2.53,25.92-4.47,38.24-.61,3.89,2.22,9.25-3.45,11.74.37.14.86.21,1,.47s.28.45.4.68a2.14,2.14,0,0,1,.1.22c.06.12.12.24.17.37a4.84,4.84,0,0,1,.18.49l0,.08a8.93,8.93,0,0,1,.25,1.05,6.68,6.68,0,0,1-5.56,7.53c2.18.58,3.5,1.21,4,2.3.75,1.41.19,3.58-1.46,7.39H997.86a33.14,33.14,0,0,0,8.47,1.68c2,.11,3.1.7,3.49,1.84a4.78,4.78,0,0,1,0,2.71c-.34,1.42-.58,2.86-.93,4.65l-26.52-1.79-2.06-.14c7.53,1.52,15.1,2.54,22.66,3.6,6.77.95,6.83,1.08,4.4,8.72h-.07l-36.48-2.38c.9.17,1.8.31,2.7.47q12.28,2.16,24.56,3.66,2.85.36,5.72.68c3.09.34,3.85,1.42,3.65,4.42-.13,2-.71,3-1.82,3.47a5.39,5.39,0,0,1-2.66.2c-6-.59-12-1-17.93-1.44-8-.54-16-1-23.94-1.54l2.76.49c12.21,2.12,24.46,3.73,36.71,5.26l2,.24c2.53.3,4,.95,3.71,3.95-.21,2.52-1.26,3.45-3.33,3.45a8.08,8.08,0,0,1-1-.05c-3.64-.36-7.31-.47-11-.72l-10.92-.74-28.32-1.92,5.64,1,.45.08.44.07c10.63,1.76,21.28,3.24,32,4.58q5.34.66,10.68,1.28c.45.06.86.13,1.24.21,2.59.55,3.5,1.87,2.73,4.87-.12.45-.21.91-.3,1.39-.15.89-.31,1.86-.55,3-1.39-.07-2.37,0-3.33-.11-22-2.77-44-5.17-65.88-8.46-18.1-2.71-36-6.34-54-9.88-3.34-.66-5.07-1.21-5.62-2.37s0-2.91,1.42-6c25-55.72,67.34-88.87,128-98.05C1008.94,311.36,1013.36,311.38,1018.23,311Z" transform="translate(-683.36 -158.56)"/><path class="b1ce1fbf-b283-4fc1-b1c8-521e5b47f8e4" d="M1017.87,529.3l0-.15-.05.1-2.74-13.42c-1,2.55-1.77,4.51-2.87,7.28l-.07-.08v0c-4.44-5.32-8.14-9.74-11.85-14.17l-1.44.78c4.35,6.76,8.61,13.61,13.1,20.29,5.33,7.93,8.8,16.39,8.47,26.12-.16,4.95-2.22,8.93-5.55,13l0-.1-.06.08c-.84-5.18-1.52-9.42-2.21-13.66l-1.92.18v20.24l-.08-.1v0c-21.73-29-22.07-29.53-20.8-35.91l.08.07v0c.84.73,1.56,1.37,2.31,2l.27.23,1.25,1,.53.39,1.55-.7c-14.23-12.86-9.54-31.18-15.85-48.18,12.87,4.32,25.7-1.39,37.41,4.95,4-3.94,12.84-3.81,19,.19h0l.08,0C1034.9,512.34,1022.58,518.2,1017.87,529.3Z" transform="translate(-683.36 -158.56)"/><path class="b1ce1fbf-b283-4fc1-b1c8-521e5b47f8e4" d="M937.38,690.7c-2.79-4.82-2.69-7.42-.35-9l14,17.69,0,0,0,0C947.53,700.92,941,697.09,937.38,690.7Z" transform="translate(-683.36 -158.56)"/><path class="b1ce1fbf-b283-4fc1-b1c8-521e5b47f8e4" d="M1136.23,533.13l-.7.62-.87.78c-1.56-2-4-3.73-4.46-5.91-.59-2.87.36-6.1.81-9.1l0,0h0c0-.32,1.33-.88,1.65-.68,2.34,1.45,4.58,3.07,6.86,4.63l0,0h0l-4.39,5-1.25-.56q1.15,2.64,2.33,5.22Z" transform="translate(-683.36 -158.56)"/><path class="b1ce1fbf-b283-4fc1-b1c8-521e5b47f8e4" d="M898.9,178h0c1.3,2.66,2.6,5.28,3.89,7.9,4.3,8.68,8.51,17.2,12.56,25.75.85,1.78,1.71,3.56,2.55,5.35a1.35,1.35,0,0,1,.07.64c-.07,1.2-1.37,2.95-2,4.36l-2.26-.52-20.18-41Z" transform="translate(-683.36 -158.56)"/><path class="b1ce1fbf-b283-4fc1-b1c8-521e5b47f8e4" d="M1146.56,780.87a22.68,22.68,0,0,1,11.29-9.57h0l-10.73,22.44h0a7.64,7.64,0,0,1-1.09-1.27C1143.8,789.28,1144.25,784.92,1146.56,780.87Z" transform="translate(-683.36 -158.56)"/><path class="b1ce1fbf-b283-4fc1-b1c8-521e5b47f8e4" d="M898,236.68a11.28,11.28,0,0,1,1.21,1.38l25.66,51.82a20.51,20.51,0,0,1,1.91,6.49c.09.75.16,1.52.18,2.29a26.07,26.07,0,0,1-8.27,19.23v0c-10.45-21.21-20.73-42.05-31.13-63.17l-5.16-10.47h0Z" transform="translate(-683.36 -158.56)"/><path class="b1ce1fbf-b283-4fc1-b1c8-521e5b47f8e4" d="M1148.36,795.59c3.91-8.76,7-18.44,13.48-26.43a3.42,3.42,0,0,1,1.49-.64,3.48,3.48,0,0,1,1.63.09c2.85,1.14,4.74,8.22,3.21,11-4.29,7.85-8.49,15.76-12.86,23.58-.73,1.3-2.14,2.22-3.23,3.31h0l0,0a22.64,22.64,0,0,1-3.11-3.59,5.34,5.34,0,0,1-.45-1c-.39-1.08-.61-2.4-1.1-4.18C1147.71,797,1148,796.32,1148.36,795.59Z" transform="translate(-683.36 -158.56)"/><path class="b1ce1fbf-b283-4fc1-b1c8-521e5b47f8e4" d="M876.66,359.59c-4.25,6-17.82,16.61-24.79,19.25a103.85,103.85,0,0,1-57,5.24c-29.11-5.47-52.36-20.53-70.7-43.55-2.18-2.83-4.73-5.38-7.11-8v0L710,320.4l7.1,12.11c.22.8.36,1.65.55,2.46v0c0,.21.1.41.16.61v0a5.34,5.34,0,0,0,.81,1.72c15,21.09,34.54,36.31,59,45,16.55,5.87,33.62,7.36,51.13,6l-.53.12.53,0c-8.43,1.86-16.92,3.79-25.44,3.95-34.89.63-63.73-13.09-87.1-38.56-14.67-16-24.1-34.83-29.05-55.94a34.37,34.37,0,0,1-1.14-6.08c-.13-3.1,1.62-3.91,7.23-6.49.91-.37,1.79-.61,2.91-1,.41,1,.77,1.76,1,2.52,2.35,7.79,4.39,15.69,7.12,23.36,1.29,3.63,3.81,6.82,5.8,10.21l0-.06.06.07a32.68,32.68,0,0,0-.75-4.16q-4.64-14.68-9.4-29.34a4.61,4.61,0,0,1,.15-4,7.05,7.05,0,0,1,3.24-2.61l130.94-64.42a33.84,33.84,0,0,1,4.15-1.42l.78,1.77-.08.05,0,0L733,272.36c.16.34.32.66.47,1l109.36-50.16,6.69,13.54c3.38,6.84,4.8,9.76,3.42,12.34-1,2-3.78,3.82-8.64,7.07A55.86,55.86,0,0,0,831,268.23c-5.86,7.61-9,16.75-8.76,27.8.72,28,25.83,57.71,52.83,62.62a6.82,6.82,0,0,1,1.65.86l-.06.08ZM833.83,242.51l-35.31,16.15,10.4,7.48,25.46-22.63ZM818.29,325a52.23,52.23,0,0,0-11.74-12c-8.57-6.32-17.57-12.08-26.63-17.69-3.54-2.19-4.92-4.77-3.9-8.59,1.06-4,1.89-8.15,3.72-11.78,2.21-4.41,6.41-6.12,11.39-5.38a12.38,12.38,0,0,1,10.25,9c1,4.07,0,6.4-4.33,9.47a29.78,29.78,0,0,0-.4-4.31c-.9-3.69-3.3-5.79-7.16-5.67-4.08.12-5.81,2.81-6.16,6.53a11,11,0,0,0,7,11.54c5.82,2.28,13.6.51,16.48-4.66a23.78,23.78,0,0,0,3-11.27c-.06-8.22-7-15.21-16.52-17.73-8.7-2.31-15.88-.14-20.19,7.69a49.57,49.57,0,0,0-5.61,17.31C766.09,298.65,766,310,765,321.29c-.18,2-1.94,4.77-3.68,5.5a45.19,45.19,0,0,1-13.34,3.6c-5.14.47-8.78-2.62-10.67-7.46a11.87,11.87,0,0,1,2.89-13.31c2.93-2.59,6.2-3.45,10-.94-.4.69-.44.89-.56.95-3.43,1.89-6.41,4.4-5,8.63.66,2,3.58,5,4.81,4.71,3.44-.81,7.5-2.34,9.56-5,5.19-6.63-.74-18.35-9.73-19a22.19,22.19,0,0,0-12.18,3c-7.36,4.37-9.71,14.37-6.66,24.16,2.58,8.31,8.39,12.89,17.67,12.36A50.49,50.49,0,0,0,765,334.61c10.39-4.45,20.42-9.76,30.51-14.9,2.58-1.31,4.71-1.5,6.75.6,3.33,3.42,7.11,6.56,9.74,10.47s1.7,8.37-1.37,12.05c-3.23,3.87-7.41,5.73-12.43,4.48-4.07-1-6.57-3.57-6.54-8.65a30.42,30.42,0,0,0,4.79,1.9c3.45.72,6.34-.3,7.94-3.63s.25-6.12-2.59-8.21a11.35,11.35,0,0,0-14.29.55c-4.85,4.36-6.66,12.16-3,17.21a24,24,0,0,0,9.36,7.72c7.73,3.4,17.55-.28,23.89-8C822.88,339.89,823.51,332.53,818.29,325Zm-108.18-4.44v0l-.11-.17Z" transform="translate(-683.36 -158.56)"/><path class="b1ce1fbf-b283-4fc1-b1c8-521e5b47f8e4" d="M775,302.21l0,0v0l15.7,10.47-17,8.3h0C774.14,314.21,774.51,308.75,775,302.21Z" transform="translate(-683.36 -158.56)"/><path class="b1ce1fbf-b283-4fc1-b1c8-521e5b47f8e4" d="M906.64,188.2a22.6,22.6,0,0,1,2.29-1.57,28.58,28.58,0,0,1,2.85-1h0l13.13,26.61-5.26,2.41h0C915.2,205.59,911,197,906.64,188.2Z" transform="translate(-683.36 -158.56)"/><path class="b1ce1fbf-b283-4fc1-b1c8-521e5b47f8e4" d="M852.21,211.18h0v0l40.36-20,17.2,35h0l0,0-40.38,19.91C863.55,234.2,858,223,852.21,211.18Zm26.09,19.24h.35c7.62,0,13.81-5.93,13.66-13a12,12,0,0,0-12.18-11.81H880c-7.31.12-13.37,5.92-13.39,12.83A11.86,11.86,0,0,0,878.3,230.42Z" transform="translate(-683.36 -158.56)"/><path class="b1ce1fbf-b283-4fc1-b1c8-521e5b47f8e4" d="M876.56,191.89q-7.89,4.25-16,8c-.79.35-2.16-.57-3.27-.91a.59.59,0,0,1,0-.08l-.07,0c.5-1,.7-2.53,1.5-3,5.24-2.79,10.63-5.36,16-8,.59-.28,1.17-.48,2.17-.84.43.47,1.3,1.1,1.36,1.43a.27.27,0,0,1,0,.19C878,189.86,877.48,191.4,876.56,191.89Z" transform="translate(-683.36 -158.56)"/><path class="b1ce1fbf-b283-4fc1-b1c8-521e5b47f8e4" d="M1040.24,741.3a41.12,41.12,0,0,0,2.12-4.66,42.41,42.41,0,0,0,1.92-21.42c-.39-2.72.62-5.75,1.65-8.45l.18-.49.37-.94c3.12-8,6.92-15.81,9.46-24,.17-.54.35-1.06.53-1.53,1.27-3.27,3-4.92,6.74-5.74a24.78,24.78,0,0,0,10-4.4c7.33-5.82,14.2-12.22,20.71-17.92l13.83,26.15,12.14-5.41c.55,3.72,1,6.48,1.48,10.06,2.5-4.17,4.13-7.59,6.41-10.5a84.77,84.77,0,0,1,10.31-11.28c1.37-1.22,5.31-1.7,6.22-.75,1.34,1.4,1.37,4.41,1.28,6.71a4.91,4.91,0,0,1-.08.67c-.26,1.52-1.21,3-1.77,4.54a16.86,16.86,0,0,0-1,4.33c-.33,4,1.48,7.07,5.79,9.67a93.81,93.81,0,0,0,10.6,5.57c8.85,4,14.78,10.7,19.43,20l-.06,0,0,.09-12.14-5.09-1,1c3.8,10.44,15.39,17.16,15.21,30.28h0v.07c-19.8-5.21-35.2-14.86-41.23-35.55,2.85,20,16.41,31.12,33.5,39.35l-.13,0,.12.05c-11.55,1.47-20.78-3.37-29.09-9.53-14.44-10.71-28.36-22.13-43.69-34.21,2.8,3.56,4.5,6.54,7,8.58,4.22,3.49,9.06,6.19,13.42,9.52,3.58,2.73,6.83,5.88,11.24,9.74l-.07,0,.06,0-7,1.38c8.18,2.91,12.54,8.5,16.25,14.49,2.59,4.18,4.88,8.56,7.94,12.35-8.75,6.16-13.46-1.22-19.73-4.34l6.29,7.13-.06,0,0,0c-13.41,2.88-31.38-5.15-33.74-14.87h0a.43.43,0,0,1,0-.05h7.85c-6.46-9.89-11.38-20.34-21.6-27l10.39,17.53-.06,0,0,0-1.17.71-10-3a4.49,4.49,0,0,0,1.23,3.09c5.71,6.17,7.44,13.58,6.83,21.73a10.51,10.51,0,0,1-.25,1.68c-.59,2.57-2.17,3.08-4.78,1.31-12.71-8.55-21.55-19.72-21-35.78.34-9,2.26-17.92,3.34-25.85-.53,1.28-1,2.56-1.51,3.84-7.2,19.35-8,38.79,8.74,56.63l-.14,0,.11.12c-11.89-3.09-20.4-10.62-27.4-19.32-1.56,4.57-2.7,8.92-4.56,12.91-.14.32-.29.64-.44,1-.76,1.54-4.34,3.23-5.52,2.64-1.77-.88-3.33-3.65-3.54-5.76a9.38,9.38,0,0,1,.47-3.65A18.55,18.55,0,0,1,1040.24,741.3Z" transform="translate(-683.36 -158.56)"/><path class="b7722f46-409c-4dc4-82ed-461cea7dbf91" d="M684.35,287.84c.92-1.44,2.56-2.41,4.87-3.54L718.3,270q42.51-20.93,85-41.88l28.92-14.26c1.32-.64,2.82-1.12,3.54-2.12.57-.78.67-1.86-.12-3.58-.35-.75.6-2.54,1.58-3.5a3.36,3.36,0,0,1,.42-.36c4.28-3,8.27-2,13.71,3.14l6.29-3.3v0c-.89-3.69-3.43-7.24-.42-9.9a8,8,0,0,1,1.62-1.07c5.19-2.64,10.32-5.53,15.75-7.53,1.67-.63,4.38.86,6.31,1.86,1.15.66,1.71,2.34,2.6,3.66,2.37-.78,4.78-1.32,6-3,.7-1,1-2.38.51-4.46a5.86,5.86,0,0,1,1.33-4.68h0a14.75,14.75,0,0,1,6.46-3.94c1.07-.24,3,2.16,4.07,3.66a54.8,54.8,0,0,1,3.46,6.16l4.6-2.77v0L906,173.22l.06,0,17.44-8.27.88,1.29a6.37,6.37,0,0,1-.57.91c-3.12,4.33-9.66,4.23-13.32,8.33a.12.12,0,0,1-.05.05c6.17,12.51,12.33,25,18.71,37.9l12.08-6v0l-11.66-24.12L925.06,174l6.58-2.36c-.78-1.71-1.54-3.43-2.35-5.13-1.12-2.32-2.28-4.64-3.86-7.84h0l67.94,3.09L954.2,217.19v0c-2-3.87-3.56-7.12-5.38-10.23-.43-.72-1.79-.9-2.72-1.33v0c-.21,1-.8,2.09-.52,2.9a68.92,68.92,0,0,0,3,6.81l-17.64,8.6h0c-1.07-2-1.79-3.32-2.5-4.57s-1.46-2.47-2.11-3.58h0c-4.22.63-5.3,2.43-3.22,5.84.77,1.26,1.34,2.65,2,4,2.7,5.57,1.8,8.17-4.2,9.35a3.79,3.79,0,0,1-.77.08,8.68,8.68,0,0,1-5.41-2.16c-1.92-1.82-3.59-2.31-5.21-2a11.5,11.5,0,0,0-4.84,3l41.14,83.5h0A178.23,178.23,0,0,1,1023,299.48c3.82,0,7.64.09,11.47.32-.41,2.82-.65,5.94,1.12,7.75a3.16,3.16,0,0,0,.43.38l0,0a4.54,4.54,0,0,0,1.11.61l.16.07.17.05a5.61,5.61,0,0,0,.62.18,12.54,12.54,0,0,0,2.36.26,13.16,13.16,0,0,0,6.83-1.75c3.93-2.43,2.79-6.46-.12-11l0,0c3.72,2.52,6.14,5.31,9,5.88,23.1,4.61,44.1,13.73,63.92,26.52a182.11,182.11,0,0,1,29,23.43c1,1,1.1,2.86,1.7,4.56a12.51,12.51,0,0,1,3.32,2.19c4.58,5.32,9.57,10.45,13.36,16.32,20.19,31.37,29.4,65.28,23.4,102.77-1.06,6.71-3.67,10.91-9.92,12.71-3.52,1-4.16,2.8-3.59,6.22.85,5.08.47,10.52-4.07,13.62-3.39,2.28-3.63,4.83-3.09,8a49.13,49.13,0,0,0,2.25,9.19c5.13,13.51,7.91,28,16.6,40,2.36,3.3,1.77,6.68-.23,10.3-4.32,7.84-10.4,12.4-19.61,12.18a18.06,18.06,0,0,0-3.17.59c.53,1.08.81,1.83,1.23,2.49,4.91,7.91,8.63,15.9,1.57,24.55-3.47,4.21-7,8.35-10.47,12.49-.25.29-.87.27-1.33.4l0,0-.85-3h-.19l-1.37-.08c-.28,1.61-1,3.32-.74,4.8,1.48,7-.34,11.2-6.16,15.32-2.64,1.86-4.51,4.78-7,7.52,7.56,3.27,8.83,5.07,8.15,12.37-.78,8.42,2.15,14.48,9.77,18.48,5.44,2.84,10.75,6,16,9.21,9.75,6,14.81,15.12,16.64,26.12.56,3.34-.88,7-.65,10.43.8,12.27-.93,14.91-12.87,17.71-3.56.84-7.21,1.24-10.81,1.9-1.16.19-2.33.57-4,1,6.13,12.67,12,24.76,17.82,36.91.88,1.89,2.14,4.63,1.41,6-1.65,3-.46,5.13,1,7.32,2.23,3.32,4.57,6.55,7,9.73,12.09,15.81,27.27,28.2,43.48,39.51,2,1.43,4.11,4.17,4.43,6.54,2.93,22.14-4,42.38-13,63.38l-.17-.06c-12.64-5-25.35-9.31-37.4-15-6.65-3.16-12.43-8.32-18.11-13.16-1.91-1.62-3.17-5-3.26-7.62-.35-9.82-.14-19.66,0-29.49.19-12.94-4.58-24.44-10.34-35.61-3-5.81-6.63-11.3-9.49-17.17-5-10.15-9.48-20.5-14.33-30.7a4.71,4.71,0,0,0-2.89-2.33c-7-1.16-14-2.1-21.23-3.1h0c.06,1.21.14,2.72.22,4.2a67.2,67.2,0,0,1-10.64-.13c-14.85-1.38-28-7.69-40.36-16.87v16.3h-.19a57.29,57.29,0,0,1-28.81-8.83l-.08.07L1004,781.51c-.61-10.09-1.09-19.46-1.87-28.81a6.91,6.91,0,0,0-2-4.29c-4.39-3.83-9.08-7.39-13.9-11.22l-.1-.09c.4,2.06.82,4,1.38,6.81l0,.08c-18.17-8.82-28.75-23.51-37.23-41.93l0-.07c-1.68,3.37-2.77,5.37-3.6,7.37-5.59,13.66-14.41,24.54-28.2,30.29a191,191,0,0,1-26.33,9.28c-1.28.32-2.56.62-3.84.89-8.15,1.75-16.48,2.81-24.11,6.2a36.41,36.41,0,0,0-13,9.47l-.08.08c-.59-10.23,2.71-17.79,8.12-25.1l-7.47-.84,30.65-34.85-5.07.32c8.06-8.37,16.85-14.21,26.7-17.7a67,67,0,0,1,10.22-2.71c4.7-.89,9.62-.49,14.42-.89a4.91,4.91,0,0,0,.93-.25,5.87,5.87,0,0,0,2.24-1.44c.34-.31.15-1.66-.25-2.24-1.77-2.54-9.15-3.28-12.19-2l-.06,0c-7,3-14,6.3-21.24,8.89-2.28.81-4.57,1.57-6.89,2.21-9.68,2.7-19.93,3.14-30.93,1.86,2.38-5.24,4.49-9.91,6.91-15.23h0l-23,8.73-.08,0V650.86h0c-1.25.63-2.5,1.2-3.74,1.72-19,7.82-38,2.68-57.93-.72L807.36,634l-.73-1.24a71.06,71.06,0,0,1-7.78,1.34c-8.92.63-18.19,2.84-26.69,1.19-13.21-2.58-25.9-7.84-39.42-12.15a21.92,21.92,0,0,1,8.91-4.79c3.81-1.15,7.83-1.7,11.61-2.79a21.55,21.55,0,0,0,8.67-4.42c-14.78.46-29.11,0-41.19-10.7h.09c4.3-.82,7.92-1.23,11.38-2.23q3.66-1.05,7.12-2.41c16.13-6.29,29.3-17.17,42.22-28.81,19.26-17.34,33.3-38.93,49.73-58.57.22-.27.13-.81.13-.91l-14.16,1.61c-.15-.53-.31-1.05-.46-1.58l.05-.05c2.9-2.83,5.86-5.63,8.81-8.44,4-3.82,8-7.65,11.66-11.59.63-.66,1.26-1.32,1.87-2,5.86-6.42,11.16-13.36,16.53-20.23l.61-.79,0-.06,2.3-2.92c2.18-2.75,3.47-5.57.05-8.57a5.48,5.48,0,0,1-1.51-4.07c.95-10.43.63-21.29,3.5-31.2A155,155,0,0,1,889.8,362a164.81,164.81,0,0,1,27.5-26.43,11.56,11.56,0,0,0,1.91-1.75c1.37-1.65,1.31-3.26,0-5.91-12.92-25.76-25.61-51.64-38.4-77.47-.64-1.3-1.47-2.5-2.12-3.61-2.56.34-4.35,1.12-5.47,2.43s-1.59,3.18-1.47,5.67a8.23,8.23,0,0,1-2,5.12,7.23,7.23,0,0,1-.61.63c-4.18,3.68-7.51,2-9.51-2.66a39.26,39.26,0,0,0-25.21,42.27A66.67,66.67,0,0,0,855.94,341c7.59,7,16.59,12.42,25.19,18.72h0c-.32.36-1.34,1.63-2.48,2.78-34.84,35.17-87.88,43.3-131.18,19.47-34.69-19.09-55.59-48.44-63.59-87.36C683.21,291.33,683.4,289.33,684.35,287.84ZM930.66,176c-.7,1-.46,2.53.44,4.32,3.34,6.62,6.72,13.22,10.25,19.74.57,1,2,1.6,3.08,2.39v0h0a19.57,19.57,0,0,0,.42-3.74,48.7,48.7,0,0,0-.89-5.2l0,.06a77.26,77.26,0,0,1-4.51-7.11c-2-3.9-3.69-7.92-5.51-11.88C932.26,174.7,931.18,175.21,930.66,176Zm20.84,26.88c3.53-1.36,6.28-4,8.88-7l1-1.24c7.36-8.78,15-17.37,22.43-26.06.8-1,1.48-2,2.8-3.85L932,162.22v0h0c.75,4.37,1.42,8.32,2.09,12.28l-.09-.05,0-.06v0h0l.13.08h0c1.22.69,2.93,1.16,3.4,2.21,2.38,5.53,4.41,11.22,6.56,16.86h0C946.53,196.66,949,199.74,951.5,202.88Zm-108,3.48h0c-1.31.53-2.09.79-2.83,1.15a22.24,22.24,0,0,0-1.87,1.3,15.7,15.7,0,0,0,.82,2.71c5.72,11.67,11.4,23.35,17.32,34.91a5.81,5.81,0,0,0,3.62,2.61,1.32,1.32,0,0,0,.49,0c3.14-.68,2.13-3,1.1-5.08C856,231.59,849.84,219.21,843.48,206.36Zm33.45-19.28c-1,.36-1.58.56-2.17.84-5.37,2.64-10.76,5.21-16,8-.8.42-1,1.94-1.5,3l.07,0a.59.59,0,0,0,0,.08c1.11.34,2.48,1.26,3.27.91q8.12-3.75,16-8c.92-.49,1.41-2,1.76-3.19a.27.27,0,0,0,0-.19C878.23,188.18,877.36,187.55,876.93,187.08Zm42.74,27.51,5.26-2.41L911.8,185.57h0a28.58,28.58,0,0,0-2.85,1,22.6,22.6,0,0,0-2.29,1.57c4.32,8.76,8.56,17.39,13,26.39h0Zm-5.9,6.86L916,222c.59-1.41,1.89-3.16,2-4.36a1.35,1.35,0,0,0-.07-.64c-.84-1.79-1.7-3.57-2.55-5.35-4-8.55-8.26-17.07-12.56-25.75-1.29-2.62-2.59-5.24-3.89-7.9h0l-5.31,2.48Zm-31.38,22.82,5.16,10.47c10.4,21.12,20.68,42,31.13,63.17v0A26.07,26.07,0,0,0,927,298.66c0-.77-.09-1.54-.18-2.29a20.51,20.51,0,0,0-1.91-6.49L899.2,238.06a11.28,11.28,0,0,0-1.21-1.38l-15.6,7.58Zm159.29,69.34c-4.79-.57-8.13-3.21-9-8-.06-.3-.13-.58-.2-.83-1-3.15-3.39-2.46-5.53-2.1a9.58,9.58,0,0,1-1.45.14c-1.17,0-3.25,2.1-3.4,3.43-.1.84-.19,1.68-.29,2.52q-5.4,46.67-10.45,93.37c-.08.8-.17,1.6-.26,2.4-1.47,13.24-2.89,26.49-4.37,39.73,0,0,0,.08,0,.12-.17,1.52-.55,3-.93,5.07a1.89,1.89,0,0,0,0,.23c-47.68-6.33-95.31-11.1-142.31-25.43-.68,7.81-1.91,15.76-1.69,23.64,0,.12,0,.25,0,.37.08,2.54,3.92,5.45,6.63,7.35,10.52,7.35,23,9.66,35.1,12.91q10.18,2.76,20.44,5.07l.47.11.92.2q14.94,3.36,30,6c20.26,3.53,40.67,6.19,61.15,8.41,38.44,4.18,77,6.91,115.69,5.14a336.28,336.28,0,0,0,42.56-5c10.67-1.87,11.34-3.67,12.28-14.31.1-1.13.21-2.26.32-3.4.39-4.16.84-8.35,1.27-12.73q-4.35.4-8.68.69c-43.35,3-85.93-1.12-129.11-4.42,1-9.26,1.78-18,2.74-26.7q5.81-52.59,11.67-105.21a84.9,84.9,0,0,0,1-10.92h0a5.77,5.77,0,0,0-2.75-4.07,13.11,13.11,0,0,0-6.27-1.39A5.62,5.62,0,0,0,1053,308,10.89,10.89,0,0,1,1041.68,313.61Zm-41.36,126.65c-22.79-2.85-45.61-5.57-68.32-8.95-16.45-2.45-32.77-5.73-49.09-8.93-3.84-.75-7.4-2.86-11.21-3.95-2-.58-4.24-.3-6.37-.4l-.28,1.63h0v0c2.54,1,5,2.42,7.65,3,21.11,4.59,42.28,9.66,63.42,13.33s42.53,5.91,63.81,8.76a24,24,0,0,0,2.94,0h0a5.73,5.73,0,0,0,.76-2.29C1003.68,441.18,1002.61,440.55,1000.32,440.26ZM983.59,667a13.68,13.68,0,0,0,.54-6.12h0v-.06c-11.3,4.2-11.53,4.49-9.72,12.18C979.47,672.14,982.4,670.26,983.59,667Zm-9.92-5.77c8.65-1.81,13-6.66,12.56-14.74v-.16a79,79,0,0,0-2.61-14.71c-.48-1.85-2.38-3.33-3.63-5-1.72,1.35-4,2.37-5.06,4.13C970.63,638,970.23,650.9,973.67,661.22Zm18.21-12c5.37-1.94,8.37-4.16,9.57-7.26a9.42,9.42,0,0,0,.63-3.35,16.47,16.47,0,0,0-.13-2.27c-6,1.09-10.27,5.94-10.15,11.7C991.81,648.41,991.83,648.8,991.88,649.2Zm36.65-71.28c.27,3.06,1.76,6,3,9.77l4.21-3.89c2.24,8.57,4.32,16.48,6.67,25.48,11.55-10.09,24.52-15.61,39.13-20.61l-29.16,17.47v0h0c.25.75.49,1.5.73,2.26,2.14,0,4.4.52,6.4-.09,11.06-3.49,22.06-7.19,33.06-11,6.29-2.15,12.5-4.52,18.74-6.81a8,8,0,0,0,2.71-1.24l1.31-1.24,1.3-1.29,3.39-3.41h0l0,0-7-2.43c5.36-6.13,10.77-13.12,17.12-19.12,2.1-2,6.59-1.74,10-1.85.85,0,1.7,0,2.55,0s1.67.1,2.51.17c2,.2,4.07.48,6.1.64l-.11,1.44c-2.51-.15-5-.28-7.53-.46-6.25-.45-11.35,2.34-16,5.94-2.62,2-3.84,10.3-2.12,14.3a4.86,4.86,0,0,0,.4.79,16.61,16.61,0,0,0,2.07,2.7,10.58,10.58,0,0,0,1.34,1.18,9.16,9.16,0,0,0,8.17,1.46c0-.06,0-.11,0-.17a5,5,0,0,1,1-3.36c1.41-1.58,4.06-1.3,6.57-1.17,9.47.52,18.92,1.28,28.4,1.64,5.8.22,12.24-4.46,14.16-9.93a11.7,11.7,0,0,0,.35-3.28c0-.37,0-.74-.1-1.12a7.18,7.18,0,0,0-.93-2.3c-1.93-4-4.43-7.57-6.64-11.38a39.26,39.26,0,0,1-4.58-10.75v0c0-.14,0-.29-.08-.43-.1-.44-.2-.88-.27-1.34-1.5-8.86-5.85-17.28-9.39-25.71a11,11,0,0,0-5.48-5.56c-3-1.12-4.73,2.27-7,3.67a11.13,11.13,0,0,0-3.94,4.18c-1.11,1.95-1.76,4.07-2.74,6a14,14,0,0,1-.73,1.31c-1.37,2.21-2.34,4.27-2.08,6.85a9.2,9.2,0,0,0,.4,2,1.55,1.55,0,0,1,.06.31c.11,1.54-2.12,3.78-4.06,5.24.2-1,.41-2.08.73-3.7h0v0c-3.47.26-6.74.93-9.91.65-13.43-1.2-26.3-3.93-36.89-13.38-1.66-1.46-5.21-.81-8.26-1.18,2.06-1.11,4.21-2.42,6.48-3.48,14.31-6.66,29.37-6.53,44.62-4.88a62.27,62.27,0,0,0,9.46.36c1.08-.05,2.78-1,3.08-1.91a3.85,3.85,0,0,0,0-.48,3.78,3.78,0,0,0-1.38-2.88c-6.93-4.26-13.91-8.54-22.52-8.2-5.66.22-11.33.24-17,.78a54.65,54.65,0,0,0-11.1,2.32c-3.71,1.17-7.24,2.92-11.23,3.6l12.3-6.31h0l-.32-1.44c-4.36.33-8.73.57-13.07,1-3.28.35-6.71,2.64-9.51-1.18-.27-.37-1.26-.28-1.92-.28q-13.24.07-26.48.18c-3,0-5.19,1.13-5.45,4.52a3,3,0,0,1-.31,1.46,14.56,14.56,0,0,0-3.17,9.66c.09,4.15,1.59,8.36,2.64,12.68a52.8,52.8,0,0,1,1.14,6.48c1.4,12.67-2.49,24.18-11.88,34.15a9.33,9.33,0,0,0-2,5.69A8.63,8.63,0,0,0,1028.53,577.92Zm144-79.23c-1,3.82-1.88,7.42-3,12,3.71-2.25,5.65-4.67,5.81-7C1175.48,501.94,1174.54,500.22,1172.54,498.69Zm-2.76,2.74h-26.9l-.27,1.79c5.65,3.5,11.29,7.15,18.17,7.87a8.81,8.81,0,0,0,1,.06c4.27,0,7-3,7.79-7.51A15.51,15.51,0,0,0,1169.78,501.43Zm-34.65,27,4.39-5h0l0,0c-2.28-1.56-4.52-3.18-6.86-4.63-.32-.2-1.65.36-1.65.68h0l0,0c-.45,3-1.4,6.23-.81,9.1.44,2.18,2.9,4,4.46,5.91l.87-.78.7-.62h0q-1.17-2.58-2.33-5.22Zm-38.58-5c5.36,10.08,35.2,18,45.62,11.65C1124.67,537.72,1110,533.16,1096.55,523.51Zm6.85,1.75a48.71,48.71,0,0,0,13.3,6.13,69.26,69.26,0,0,0,12.42,2.38c-1.2-4.1-2-7.63-3.34-11a4.63,4.63,0,0,0-3.13-2.62c-6.08-.37-12.18-.48-18.26-.34-1.13,0-2.57,1.44-3.15,2.58a.38.38,0,0,0,0,.24A6,6,0,0,0,1103.4,525.26Zm-69.68,29.47c3.36-6.27,3.56-13.17,2.15-19.92a9.14,9.14,0,0,0-4.73-5.66c-1.31-.55-4.11,1.42-5.72,2.86-.25.22-.48.44-.71.66-3.34,3.27-4.57,7-2.65,12.16,2,5.52,2.59,11.55,3.79,17.35l1.2.64.62.34h0C1029.74,560.37,1032.13,557.77,1033.72,554.73Zm2.57-55c-6.16-4-15-4.13-19-.19-11.71-6.34-24.54-.63-37.41-4.95,6.31,17,1.62,35.32,15.85,48.18l-1.55.7-.53-.39-1.25-1-.27-.23c-.75-.63-1.47-1.27-2.31-2v0l-.08-.07c-1.27,6.38-.93,6.95,20.8,35.91v0l.08.1V555.58l1.92-.18c.69,4.24,1.37,8.48,2.21,13.66l.06-.08,0,.1c3.33-4.07,5.39-8.05,5.55-13,.33-9.73-3.14-18.19-8.47-26.12-4.49-6.68-8.75-13.53-13.1-20.29l1.44-.78c3.71,4.43,7.41,8.85,11.85,14.17v0l.07.08c1.1-2.77,1.89-4.73,2.87-7.28l2.74,13.42.05-.1,0,.15c4.71-11.1,17-17,18.5-29.5l-.08,0Zm-11.75,77.44c-.68.19-1.32.38-1.93.57-9.1,2.92-10.48,7.25-6.69,18.69h0C1022.62,593.75,1026.65,584.73,1024.54,577.19Zm-7.41,29.48h0c-10.17,1-13.5,7.19-10.17,19.45h0C1015.59,622,1019,615.43,1017.13,606.67Zm-9.27-2.31c.33-.67.63-1.36.91-2.06,3-7.71,2.7-16.81-1.39-22.79-2.34-3.44-4.83-6.76-7.41-10a6.73,6.73,0,0,0-4-2.63,4.18,4.18,0,0,0-2,.13,6.11,6.11,0,0,0-3.62,4,22.44,22.44,0,0,0-1,3.72c-.12.68-.21,1.35-.27,2,0,.06,0,.12,0,.19a25.85,25.85,0,0,0,2.38,12.51c.61,1.37,1.25,2.73,1.9,4.08,2.87,5.94,6.11,11.78,9.31,18a22.53,22.53,0,0,0,2.93-3.31A25.17,25.17,0,0,0,1007.86,604.36Zm-7.12,13.77a39,39,0,0,0-3.39-8.59c-.36-.69-.74-1.38-1.13-2.07-.77-1.37-1.58-2.72-2.41-4.05l-1.23-2c-.81-1.34-3.48-2.35-5.53-2.4a5.07,5.07,0,0,0-1.28.12,2.08,2.08,0,0,0-.32.12c-1.51.66-3.08,3.19-3.43,5.11a2.85,2.85,0,0,0-.06.39,55.75,55.75,0,0,0,.61,12.84,74,74,0,0,0,2.64,10.6c1.1,3.78,2.41,7.5,3.75,11.58h0C997.77,636.27,1003,627.44,1000.74,618.13Zm-13.37-29.61c.37-1.62-.54-3.7-2.13-5.66-2.64-3.25-7.15-6.16-10.67-6-2.07.08-4.11.55-6.62.91,5.3-5,8.49-5,17.47-.36.71-4.48.56-9.16,2.25-13,3-7,1.39-12-2.87-18-3.64-5.11-5.16-11.79-7.34-17.87-2.11-5.91-3.85-12-5.76-17.93h0v0l-1.34.19a16.93,16.93,0,0,0-.38,2.91c.23,7.15.67,14.3.74,21.45.07,6.85,3.84,11.94,7.84,16.85l.34.43c2.58,3.29,4.53,6.68,5,10.65a17.15,17.15,0,0,1-.37,6.06c-2.37-6.11-4.09-9.76-6.46-11.64-3-2.42-7.1-1.91-15,.06,3.06-4.7,7.65-4.48,12.51-4.57a12.66,12.66,0,0,0-1.12-2.56c-4.73-5.75-6.14-12.4-5.67-19.65a23,23,0,0,0-.26-7.45,14.66,14.66,0,0,0-1.69-3.83h0l-.24-.34a1.93,1.93,0,0,0-.17-.21l-.08-.11a2.58,2.58,0,0,0-1.38-1,10.22,10.22,0,0,0-7.42,2.27c-2.08,1.85-2.85,5.1-4.52,7.52-.73,1.06-2.14,1.66-3.31,2.43,1.49-3.6,2.83-7.26,4.51-10.77,2.66-5.55,8-5.08,13.27-5-.06-2.81.28-5.66-.88-7.82-.07-.13-.15-.24-.23-.36a.87.87,0,0,0-.11-.18A5.77,5.77,0,0,0,963,504c-3.71-1.8-10.75.47-12.82,4.39-2.83,5.37-5.8,11-7.1,16.82-4.07,18.35-2.63,36.06,8.28,52.2,2.8,4.13,4.84,8.81,7.91,12.7a27.83,27.83,0,0,0,9,7.68C975.59,601.52,985.54,596.41,987.37,588.52Zm-41.19-79.31c2.42-6.63,8.27-8.61,14.9-8.55,6.17,0,10.53,3.08,12.76,8.67,2.38,6,4.38,12.2,6.38,18.34,1.3,3.88,2.44,7.81,3.65,11.72h.06l1.55-.25c-.15-2.49-.13-5-.48-7.48-.69-4.9-2.46-9.81-2.19-14.64.43-7.75-3.31-12.51-9-16.56-4.82-3.41-9.44-5.1-13.67-5.12-7,0-13,4.5-17.19,13.36-5,10.75-6.3,22.2-7.12,33.75-.16,2.83.65,5.73,1,8.6h.06l.78-.12c.39-5.88.09-11.9,1.33-17.6A181.47,181.47,0,0,1,946.18,509.21Zm220.29-104v0h0c-1.34-8.13-1.81-8.48-16.13-10.46h12l0,0h0c-3.79-6-7-11.35-10.44-16.49a84.57,84.57,0,0,0-7.92-10.27c-1.75-1.88-3-3.64-3-5.59a6.22,6.22,0,0,1,1.82-3.82l-.08.08.08-.11-3.92,3.39c-18.75-19.94-40.73-34.65-67.64-43.39-4.06,41.48-8.06,82.42-12.15,124.3,9.22.79,17.8,1.8,26.41,2.22,27.93,1.38,55.86,2.56,83.8,3.73a20.58,20.58,0,0,0,6.89-.85c1.22-.37,2.09-1.9,3.12-2.91h0l0,0c-1.15-.88-2.23-2.39-3.47-2.53-4.3-.48-8.61-.91-12.92-1.33q-4.41-.43-8.84-.84c-2.85-.27-5.7-.54-8.54-.83-11.51-1.09-22.91-2.18-34.33-4l66,2.42c.5-2.91,0-4.66-1.19-5.73l-.13-.1c-.11-.09-.22-.18-.34-.26a10.24,10.24,0,0,0-4.75-1.27c-15.81-1.33-31.61-2.86-47.38-5.12l51.23,1.75v0h0v0c0-2.37-.25-4.26-1.18-5.59s-2.54-2.14-5.34-2.3c-10.68-.57-21.32-1.95-31.95-3.24h34.65v0h0c-.35-6.64-1.49-7.82-7.91-8.39-8.48-.75-17-1.6-24.43-2.32Zm-111,45.5h0c30.29,2.1,60.49,5,90.72,5.09a393.52,393.52,0,0,0,41.28-1.83l.39-2.06c-1.6-.47-3.36-1.56-4.84-1.55a2.18,2.18,0,0,0-.63.06,86.86,86.86,0,0,1-21.58,2.32c-7.22,0-14.44-.57-21.63-.95-25.76-1.37-51.49-3.48-77.23-5.33-.55,0-1.08-.06-1.59,0C1058,446.43,1056.08,447.15,1055.45,450.71Zm107,166.21-2.86,7.82.09,0,0,.09c5.68-3,7.75-8.12,9-13.6,1.56-7.1.37-13.86-5.35-18.67a5.1,5.1,0,0,0-.82-.55c-2.08-1.16-5.21-1.16-7.79-1.39-1.85-.15-3.85,1.17-5.66.93-17.87-2.45-35.26-.73-52,6.06-12.51,5.07-20.35,15.23-27.18,26.23a14.23,14.23,0,0,1-1.43,2c-.15.17-.57.07-2.06.17l10.52-16.58h-.08l0,0c-13.57-1.66-36.74,16.15-45.88,35.25-8.24,17.22-8,23.57,2.67,59.13h0l0,0c3.29-1.33,4.15-3.68,3.84-7-.87-9.59-2.28-19.21-2-28.79.16-6.79,2.27-13.53,4.38-20.18a83.44,83.44,0,0,0,1.23,46.69l0-.05,0,.09c11.19-21.07,15.47-43.45,23.24-64.48l1.36.41-3.32,15.23.1-.13,0,.17,10.94-14.8L1062,659.4l1.74,1.09h0l0,0c8.51-3.24,15.44-8.8,21.44-16l1,1.34,0,0,0,.06h0c11.36-20.19,27.93-34.68,50.08-44.09l-10.67,11.82-.34-.2,1.9-3.86-.08,0,0-.05c-8.25,1-24.18,17.26-26,26.8h.07v0c9-2.44,17.53-5.3,24.81-11.15,5.19-4.16,10.81-7.58,17.94-8.68V627h.06v0C1151.41,625.32,1157.53,622.48,1162.44,616.92Zm-22.52,28.8a16,16,0,0,0,6.43-5.1c.89-1.21.76-4.23-.19-5.44-.81-1-3.44-.74-5.27-.83a9.31,9.31,0,0,0-2.63.8v-7.46c-12,11.24-25.6,16.56-41.35,17.28a20.36,20.36,0,0,0,.57,3.6c2,8,8.22,13.25,11.14,20.13l3.58-4.7.92,1.79c.68,1.36,1.2,2.39,1.74,3.4.06.11.11.22.17.32l6.86-1.69c0,.77.1,1.53.15,2.18,2.8-2.54,6-4.81,8.4-7.81,2-2.54,3.72-5.85,4-8.94.08-1.12-4.55-2.58-6.58-3.65A114.47,114.47,0,0,0,1139.92,645.72ZM1173.06,885a6,6,0,0,0,2.42,3.52q23.32,15,46.73,29.87a14,14,0,0,0,2.76.77c.4-4.57.76-8.52,1.11-12.37,1.26-14.44,2.66-28.87,3.6-43.33a8.84,8.84,0,0,0,0-1,10.19,10.19,0,0,0-2.63-6.45c-8-7.28-16.17-14.4-24.76-20.94-7.31-5.56-13.35-11.94-17.72-20a21.5,21.5,0,0,0-4.66-6.41c-1.06-.87-3.61-.52-5.17.09-.47.18-.81,1.85-.68,3.07a2.53,2.53,0,0,0,.27,1c6,10.39,11.79,20.73,22.79,27.18,7.86,4.6,14.94,10.58,22.16,16.21a5.31,5.31,0,0,1,1.46,3.48,8,8,0,0,1,0,1.28c-.19,3.41-1,6.79-1.64,11-3.65-6.29-6.94-11.93-10.21-17.6-2.64-4.58-6-7.9-11.84-7.67-6.94.28-12.46,3.28-15.31,9.43a11.39,11.39,0,0,0-.91,4.54,17,17,0,0,0,.77,5.55c2.06,6.61,5.06,12.92,7.95,20-4.24-2.14-8.17-3.91-11.81-6.16a1.68,1.68,0,0,1-.58-1.11,17.2,17.2,0,0,1-.14-3c.23-10.69.27-21.33.94-32a31.22,31.22,0,0,0,0-4c-.54-9-4.74-16.7-7.86-24.85h-1.82c-.72,4.81-1.8,9.6-2.09,14.44-.1,1.66-.14,3.32-.16,5C1165.85,851.68,1169.92,868.31,1173.06,885Zm-10.93-58.86c.64-3,1.12-5.34,1.65-7.65,2-8.8,4.75-17.23,10.46-24.46a6.11,6.11,0,0,0,1-3.68c0-3.27-1.35-7.26-3.46-8.37a4.19,4.19,0,0,0-3.83.73,21,21,0,0,0-4,5.63q-2.06,4.18-4,8.4l-1,2.07c-1.16,2.51-2.3,5-3.39,7.53C1153.1,812.18,1156,821.17,1162.13,826.16Zm-13.21-23.24a22.64,22.64,0,0,0,3.11,3.59l0,0h0c1.09-1.09,2.5-2,3.23-3.31,4.37-7.82,8.57-15.73,12.86-23.58,1.53-2.78-.36-9.86-3.21-11a3.48,3.48,0,0,0-1.63-.09,3.42,3.42,0,0,0-1.49.64c-6.52,8-9.57,17.67-13.48,26.43-.33.73-.65,1.45-1,2.15.49,1.78.71,3.1,1.1,4.18A5.34,5.34,0,0,0,1148.92,802.92Zm-1.8-9.18h0l10.73-22.44h0a22.68,22.68,0,0,0-11.29,9.57c-2.31,4-2.76,8.41-.53,11.6A7.64,7.64,0,0,0,1147.12,793.74Zm-108.85-45.27c.21,2.11,1.77,4.88,3.54,5.76,1.18.59,4.76-1.1,5.52-2.64.15-.31.3-.63.44-1,1.86-4,3-8.34,4.56-12.91,7,8.7,15.51,16.23,27.4,19.32l-.11-.12.14,0c-16.77-17.84-15.94-37.28-8.74-56.63.48-1.28,1-2.56,1.51-3.84-1.08,7.93-3,16.86-3.34,25.85-.55,16.06,8.29,27.23,21,35.78,2.61,1.77,4.19,1.26,4.78-1.31a10.51,10.51,0,0,0,.25-1.68c.61-8.15-1.12-15.56-6.83-21.73a4.49,4.49,0,0,1-1.23-3.09l10,3,1.17-.71,0,0,.06,0L1088,715c10.22,6.7,15.14,17.15,21.6,27h-7.85a.43.43,0,0,0,0,.05h0c2.36,9.72,20.33,17.75,33.74,14.87l0,0,.06,0-6.29-7.13c6.27,3.12,11,10.5,19.73,4.34-3.06-3.79-5.35-8.17-7.94-12.35-3.71-6-8.07-11.58-16.25-14.49l7-1.38-.06,0,.07,0c-4.41-3.86-7.66-7-11.24-9.74-4.36-3.33-9.2-6-13.42-9.52-2.47-2-4.17-5-7-8.58,15.33,12.08,29.25,23.5,43.69,34.21,8.31,6.16,17.54,11,29.09,9.53l-.12-.05.13,0c-17.09-8.23-30.65-19.36-33.5-39.35,6,20.69,21.43,30.34,41.23,35.55v-.07h0c.18-13.12-11.41-19.84-15.21-30.28l1-1,12.14,5.09,0-.09.06,0c-4.65-9.3-10.58-16-19.43-20a93.81,93.81,0,0,1-10.6-5.57c-4.31-2.6-6.12-5.64-5.79-9.67a16.86,16.86,0,0,1,1-4.33c.56-1.52,1.51-3,1.77-4.54a4.91,4.91,0,0,0,.08-.67c.09-2.3.06-5.31-1.28-6.71-.91-.95-4.85-.47-6.22.75a84.77,84.77,0,0,0-10.31,11.28c-2.28,2.91-3.91,6.33-6.41,10.5-.48-3.58-.93-6.34-1.48-10.06l-12.14,5.41-13.83-26.15c-6.51,5.7-13.38,12.1-20.71,17.92a24.78,24.78,0,0,1-10,4.4c-3.72.82-5.47,2.47-6.74,5.74-.18.47-.36,1-.53,1.53-2.54,8.17-6.34,15.94-9.46,24l-.37.94-.18.49c-1,2.7-2,5.73-1.65,8.45a42.41,42.41,0,0,1-1.92,21.42,41.12,41.12,0,0,1-2.12,4.66,18.55,18.55,0,0,0-1.5,3.52A9.38,9.38,0,0,0,1038.27,748.47ZM1005,727.3l5.24,18q2.2,7.54,4.44,15.24a50.52,50.52,0,0,0,22.85-26.07,10.36,10.36,0,0,0,.71-2.38c.42-3.36,1-7.29-3.19-8.2h-.2c-1.18.09-3.15,3.66-4.67,5.58a12.58,12.58,0,0,0-1,2.58c-3.48-18.68-4.24-37-10.8-54.23l0,0v0c-9.94,11.94-7.35,25.35-5.67,38.63-3.94-12.74-5.75-25.48-.06-38.31l-1.46-.93,0,0,0,0c-2.42,2.84-5.31,5.39-7.14,8.56-4.54,7.84-5.09,16.51-3.44,25.21C1001.52,716.48,1003.41,721.87,1005,727.3Zm-15.1.48c1.1,2.21,2.89,4.09,4.37,6.09l1.65-.54h0l0,0c.24-5.38,1-10.81.62-16.15-1.66-22.43,6.72-40.25,23.94-54.29a9.08,9.08,0,0,0,3.12-4.23c3.53-13.33,9.74-25.1,19.55-34.89a8.36,8.36,0,0,0,1-2h-5.89c0-4.43.31-8.68-.09-12.86s-1.56-8-2.38-12h-.08l0-.14-1.85,0c-1.31,5.2-2.61,10.4-4.11,16.35-.51-6.46-1-12.11-1.49-17.77l-.09.1c0-.08,0-.16,0-.24-4,4.18-7.64,7.54-7.57,13.92.1,9.94-3.06,19.08-13,24.22a4.45,4.45,0,0,0-2,3.43c.39,10.09-4.9,16.71-13.06,21.38-3.16,1.81-5,4-5.67,7.55-1,5.42-4.45,9.18-9.4,11.59-1.78.87-3.48,1.9-5.16,2.82,2.12,8.61.75,10.4-8.25,11.11-7.18.57-10.42,5.91-7,12a162.91,162.91,0,0,0,10.34,16.46l.07.08,0,.06c1.5,2.07,4.46,3.08,6.75,4.57,1.43-2.42,3.44-4.77,4.19-7.42,4.41-15.6,11.12-30.18,19.06-44.24a13.42,13.42,0,0,1,1.48-2,.27.27,0,0,1,.07-.08c-3.54,9.23-7.66,19.3-11.25,29.55C984.45,709.53,985.47,718.89,989.87,727.78ZM959.78,675.3c3.6,1.92,6.28-.35,8.28-2.66a17.07,17.07,0,0,0,2.66-5.24c.16-.39.32-.78.48-1.13-1.24-5.6-1.93-10.42-3.42-15-1.31-4-4.53-4.3-6.38-.57-1.71,3.47-2.32,7.52-3.25,11.35-.43,1.77-.3,3.67-.75,5.43a12.69,12.69,0,0,0-.48,3.38A4.84,4.84,0,0,0,959.78,675.3Zm-12.66,14.88c3.09,6.33,5.35,4.8,11.06-.38l-.9-.86c-4.27-4-5-3.7-10.16,1.2v0Zm3.15-5.74c-1.61-2.41-2.63-5.28-4.47-5.11a3.69,3.69,0,0,0-2.17,1.3,1.39,1.39,0,0,0-.34.71c-.29,1.12.1,2.86.1,4.2Zm-.85-7.09a91,91,0,0,0,12.42,9.71,10.88,10.88,0,0,0,1.78.92c2.32.9,3.79,0,6.9-2.38h0c-6.38-2.25-12.46-4.44-16.15-9.37a17.48,17.48,0,0,1-3.09-7.08h0C947.17,671.76,946,674.38,949.42,677.35Zm1.61,22,0,0,0,0-14-17.69c-2.34,1.62-2.44,4.22.35,9C941,697.09,947.53,700.92,951,699.39Zm-22.6-12.24c-15.25-1.33-28.33,3.84-40.34,12.5.2.51.4,1,.59,1.53h0l0,.08,17.1-7.56c-14,9.88-29.84,17.92-34.79,36.81,11,.32,21.89-.88,32.12-6,.2.44.39.89.59,1.33-4,2.11-8.07,4.32-12.17,6.31-4.48,2.19-9.2,3.93-13.54,6.35l-.45.28a88.25,88.25,0,0,0-11.15,7.73h.16l-.12.09c24.64-2.2,48-7.29,65.4-26.43,3.64-4,6.47-8.81,9.34-13.46.65-1-.2-3-.35-4.45h0s0-.06,0-.09c-1.4.58-3.17.81-4.12,1.81-1.76,1.86-3.06,4.13-5.38,5.8,1.64-3.36,3.35-6.69,4.91-10.09,1-2.26.31-5.28-1.29-7.78S930.88,687.39,928.43,687.15Zm-11.95-22.69c7.11,4.4,13.33,8.54,19.84,12.17,4.4,2.45,6,1,8.21-3.77a16.87,16.87,0,0,1,7-7c2.37-1.29,3.69-2.3,3.79-5,.32-8.81,4.71-15.37,11.42-20.75,1.36-1.12,2.23-3.09,3-4.82,1.27-2.89,1.59-6.45,3.5-8.75,6-7.23,5.88-15.46,5.06-24h0v0c-6.45-1.55-7.36-.88-10.34,5.06-4.34,8.78-9.1,17.35-14.09,26.73h0v0l8.35-3.93c-14.41,12.39-32.12,20.3-45.74,34l.05,0ZM828.23,501.1a7.78,7.78,0,0,0-2.13,4h0s0,0,0,0l16.23-5.9,1,.8-77.59,92.06.66.87h0l0,0c1.31-.54,2.65-.94,3.91-1.54a120.68,120.68,0,0,0,51.12-44.93,169.07,169.07,0,0,1,41.71-45,16.1,16.1,0,0,1-1.65,1.94,192.55,192.55,0,0,0-38.11,46,122.85,122.85,0,0,1-44.48,43.65c-1.15.66-2.29,1.35-3.39,2.09-.21.15-.22.58-.53,1.48h.12v0c16.55-2.22,30.6-8,40.81-21.55-2.64,4.08-5.11,8.28-8.12,12.09-3.51,4.41-7.58,8.37-11.49,12.46s-7.43,8.17-11.64,11.66-9,6.13-13.38,9.09a6.52,6.52,0,0,0,.68.1c6.44.71,21.76-4.94,34.06-12.65a95.49,95.49,0,0,0,27.21-26.19c7.16-10,13.81-20.49,21-30.56C846.2,566.29,838,581.38,826.8,594.6c-11.59,13.64-26.16,22.91-42.67,29.65,3.34.46,6.68.89,10,1.16,11.78,1,23.19,0,33.47-8.85-2,4.26-4,8.58-6.17,12.76s-4.77,8.36-7.88,13.75l.17-.09-.06.1a91.29,91.29,0,0,0,38.59-38.9c-6.05,16.37-16.59,29.26-30.7,39.64a15.66,15.66,0,0,0,3.57.78c8.45,1,18.67-3.92,23-11.06s9.22-14.1,13.77-21.18a18.64,18.64,0,0,0,2.33-4.94c4.34-16,14.8-27.08,29.27-36.06-3.62,6.37-9.63,11-8.09,19.74l.1,0a0,0,0,0,1,0,0l13.29-3.63c-3.68,3.86-6.15,7.15-9.28,9.55a100.91,100.91,0,0,1-12.68,8c-20.51,11.42-26.58,23.84-22.79,47a56.26,56.26,0,0,0,2.2,9.44c0-.06,0-.13,0-.2a1.72,1.72,0,0,1,.07.21c4.83-22.67,13.58-42.57,35.19-53.93-10.91,8-20.1,17.57-24.51,30.64a149.73,149.73,0,0,0-6,26.34l.12,0v0c25.14-8.88,44.45-23.78,55.49-48.55-1,4.17-2.08,8.36-3.32,13.38l.13-.08,0,.09,12.51-8,.68.87c-2.35,2.23-4.58,4.61-7.09,6.67a75.72,75.72,0,0,1-8.89,6.46c-13.46,8.11-21.08,20.38-25.34,35.79l.12,0v0c10.64-3.75,22.08-3.75,31.33-11.75,8.64-7.48,18.77-13.2,27.77-20.31,12.68-10,13.89-24.75,14.75-39.36.11-2.5-1.13-3.72-2.81-4.07a7.07,7.07,0,0,0-3.3.19c-3,.84-5.56,2.63-9.52,4.49.31-4.18.21-7.86.94-11.31,1.55-7.94-1.29-14.77-4.77-21.49a6.39,6.39,0,0,0-1.9-2.34c-1.55-1.14-3.45-.94-5.59.53s-4.12,3.09-5.83,4.39c.76-8.57,1.07-17.16,2.42-25.59,1.1-6.85,3.62-13.47,5.16-20.27.51-2.31.89-6-.34-7,0,0,0,0,0,0h0c-2.94-2.47-6.35-.77-8.88,1.7-3,2.87-5.64,5.93-8.76,8.69,3.34-6.87,7.82-12.78,15.2-15.88,5-2.08,9.28-4.34,12.11-9.54,3.28-6,9.2-9,16-10a27.76,27.76,0,0,0,7.36-1.6h-.1l.06,0C950.61,489,934.48,479.72,918,491l5.5-6,0,0h0c-7.31-4.89-20.08-7.35-28.64-4.68-.4-1.94-.78-3.87-.92-4.54h0v0c-4.88-1.64-9.1-3.1-13.36-4.47-6.26-2-12.52-4.07-18.84-5.89-.72-.21-2,.75-2.72,1.5Q843.5,483.92,828.23,501.1Zm48.39-91c-1.4,3.11-2,4.87-1.42,6s2.28,1.71,5.62,2.37c18,3.54,35.9,7.17,54,9.88,21.89,3.29,43.91,5.69,65.88,8.46,1,.06,1.94,0,3.33.11.24-1.19.4-2.16.55-3,.09-.48.18-.94.3-1.39.77-3-.14-4.32-2.73-4.87-.38-.08-.79-.15-1.24-.21q-5.34-.61-10.68-1.28c-10.67-1.34-21.32-2.82-32-4.58l-.44-.07-.45-.08-5.64-1,28.32,1.92,10.92.74c3.69.25,7.36.36,11,.72a8.08,8.08,0,0,0,1,.05c2.07,0,3.12-.93,3.33-3.45.29-3-1.18-3.65-3.71-3.95l-2-.24c-12.25-1.53-24.5-3.14-36.71-5.26l-2.76-.49c8,.55,16,1,23.94,1.54,5.93.44,11.93.85,17.93,1.44a5.39,5.39,0,0,0,2.66-.2c1.11-.44,1.69-1.5,1.82-3.47.2-3-.56-4.08-3.65-4.42q-2.87-.31-5.72-.68-12.28-1.51-24.56-3.66c-.9-.16-1.8-.3-2.7-.47l36.48,2.38h.07c2.43-7.64,2.37-7.77-4.4-8.72-7.56-1.06-15.13-2.08-22.66-3.6l2.06.14,26.52,1.79c.35-1.79.59-3.23.93-4.65a4.78,4.78,0,0,0,0-2.71c-.39-1.14-1.51-1.73-3.49-1.84a33.14,33.14,0,0,1-8.47-1.68h11.66c1.65-3.81,2.21-6,1.46-7.39-.54-1.09-1.86-1.72-4-2.3a6.68,6.68,0,0,0,5.56-7.53,8.93,8.93,0,0,0-.25-1.05l0-.08a4.84,4.84,0,0,0-.18-.49c0-.13-.11-.25-.17-.37a2.14,2.14,0,0,0-.1-.22c-.12-.23-.25-.45-.4-.68s-.66-.33-1-.47c5.67-2.49,2.84-7.85,3.45-11.74,1.94-12.32,3-24.77,4.47-38.24h0V311c-4.87.37-9.29.35-13.61,1C944,321.19,901.62,354.34,876.62,410.06Zm33.15-183.9,0,0h0l-17.2-35-40.36,20v0h0c5.79,11.77,11.34,23,17.18,34.89Zm-34.7,132.49C848.07,353.74,823,324,822.24,296c-.28-11,2.9-20.19,8.76-27.8a55.86,55.86,0,0,1,13.31-12.12c4.86-3.25,7.6-5,8.64-7.07,1.38-2.58,0-5.5-3.42-12.34l-6.69-13.54L733.48,273.32c-.15-.3-.31-.62-.47-1l106.13-56.05,0,0,.08-.05-.78-1.77a33.84,33.84,0,0,0-4.15,1.42L703.33,280.3a7.05,7.05,0,0,0-3.24,2.61,4.61,4.61,0,0,0-.15,4q4.77,14.65,9.4,29.34a32.68,32.68,0,0,1,.75,4.16l-.06-.07,0,.06c-2-3.39-4.51-6.58-5.8-10.21-2.73-7.67-4.77-15.57-7.12-23.36-.23-.76-.59-1.48-1-2.52-1.12.39-2,.63-2.91,1-5.61,2.58-7.36,3.39-7.23,6.49a34.37,34.37,0,0,0,1.14,6.08c5,21.11,14.38,39.94,29.05,55.94,23.37,25.47,52.21,39.19,87.1,38.56,8.52-.16,17-2.09,25.44-3.95l-.53,0,.53-.12c-17.51,1.36-34.58-.13-51.13-6-24.46-8.69-44-23.91-59-45a5.34,5.34,0,0,1-.81-1.72v0c-.06-.2-.11-.4-.16-.61v0c-.19-.81-.33-1.66-.55-2.46l0,.09,0-.09v0c2.38,2.66,4.93,5.21,7.11,8,18.34,23,41.59,38.08,70.7,43.55a103.85,103.85,0,0,0,57-5.24c7-2.64,20.54-13.25,24.79-19.25h0l.06-.08A6.82,6.82,0,0,0,875.07,358.65Z" transform="translate(-683.36 -158.56)"/><path class="b7722f46-409c-4dc4-82ed-461cea7dbf91" d="M710.11,320.53l-.12-.21.11.17Z" transform="translate(-683.36 -158.56)"/><path class="b1ce1fbf-b283-4fc1-b1c8-521e5b47f8e4" d="M861.61,465.41c6.32,1.82,12.58,3.89,18.84,5.89,4.26,1.37,8.48,2.83,13.36,4.47v0h0c.14.67.52,2.6.92,4.54,8.56-2.67,21.33-.21,28.64,4.68h0l0,0-5.5,6c16.53-11.29,32.66-2,48.75-.36l-.06,0h.1a27.76,27.76,0,0,1-7.36,1.6c-6.8.94-12.72,4-16,10-2.83,5.2-7.14,7.46-12.11,9.54-7.38,3.1-11.86,9-15.2,15.88,3.12-2.76,5.79-5.82,8.76-8.69,2.53-2.47,5.94-4.17,8.88-1.7h0s0,0,0,0c1.23,1,.85,4.69.34,7-1.54,6.8-4.06,13.42-5.16,20.27-1.35,8.43-1.66,17-2.42,25.59,1.71-1.3,3.72-2.92,5.83-4.39s4-1.67,5.59-.53a6.39,6.39,0,0,1,1.9,2.34c3.48,6.72,6.32,13.55,4.77,21.49-.73,3.45-.63,7.13-.94,11.31,4-1.86,6.52-3.65,9.52-4.49a7.07,7.07,0,0,1,3.3-.19c1.68.35,2.92,1.57,2.81,4.07-.86,14.61-2.07,29.35-14.75,39.36-9,7.11-19.13,12.83-27.77,20.31-9.25,8-20.69,8-31.33,11.75v0l-.12,0c4.26-15.41,11.88-27.68,25.34-35.79a75.72,75.72,0,0,0,8.89-6.46c2.51-2.06,4.74-4.44,7.09-6.67l-.68-.87-12.51,8,0-.09-.13.08c1.24-5,2.29-9.21,3.32-13.38-11,24.77-30.35,39.67-55.49,48.55v0l-.12,0a149.73,149.73,0,0,1,6-26.34c4.41-13.07,13.6-22.63,24.51-30.64-21.61,11.36-30.36,31.26-35.19,53.93a1.72,1.72,0,0,0-.07-.21c0,.07,0,.14,0,.2a56.26,56.26,0,0,1-2.2-9.44c-3.79-23.16,2.28-35.58,22.79-47a100.91,100.91,0,0,0,12.68-8c3.13-2.4,5.6-5.69,9.28-9.55l-13.29,3.63a0,0,0,0,0,0,0l-.1,0c-1.54-8.72,4.47-13.37,8.09-19.74-14.47,9-24.93,20-29.27,36.06a18.64,18.64,0,0,1-2.33,4.94c-4.55,7.08-9.38,14-13.77,21.18s-14.6,12-23,11.06a15.66,15.66,0,0,1-3.57-.78c14.11-10.38,24.65-23.27,30.7-39.64a91.29,91.29,0,0,1-38.59,38.9l.06-.1-.17.09c3.11-5.39,5.63-9.51,7.88-13.75s4.13-8.5,6.17-12.76c-10.28,8.86-21.69,9.84-33.47,8.85-3.3-.27-6.64-.7-10-1.16,16.51-6.74,31.08-16,42.67-29.65,11.24-13.22,19.4-28.31,27.48-43.47-7.21,10.07-13.86,20.53-21,30.56a95.49,95.49,0,0,1-27.21,26.19c-12.3,7.71-27.62,13.36-34.06,12.65a6.52,6.52,0,0,1-.68-.1c4.38-3,9.17-5.6,13.38-9.09s7.73-7.57,11.64-11.66,8-8,11.49-12.46c3-3.81,5.48-8,8.12-12.09-10.21,13.52-24.26,19.33-40.81,21.55v0H775c.31-.9.32-1.33.53-1.48,1.1-.74,2.24-1.43,3.39-2.09a122.85,122.85,0,0,0,44.48-43.65,192.55,192.55,0,0,1,38.11-46,16.1,16.1,0,0,0,1.65-1.94,169.07,169.07,0,0,0-41.71,45,120.68,120.68,0,0,1-51.12,44.93c-1.26.6-2.6,1-3.91,1.54l0,0h0l-.66-.87L843.33,500l-1-.8-16.23,5.9s0,0,0,0h0a7.78,7.78,0,0,1,2.13-4q15.27-17.19,30.66-34.19C859.61,466.16,860.89,465.2,861.61,465.41Z" transform="translate(-683.36 -158.56)"/><path class="b1ce1fbf-b283-4fc1-b1c8-521e5b47f8e4" d="M1030.53,571.35c9.39-10,13.28-21.48,11.88-34.15a52.8,52.8,0,0,0-1.14-6.48c-1-4.32-2.55-8.53-2.64-12.68a14.56,14.56,0,0,1,3.17-9.66,3,3,0,0,0,.31-1.46c.26-3.39,2.45-4.52,5.45-4.52q13.25-.11,26.48-.18c.66,0,1.65-.09,1.92.28,2.8,3.82,6.23,1.53,9.51,1.18,4.34-.43,8.71-.67,13.07-1l.32,1.44h0l-12.3,6.31c4-.68,7.52-2.43,11.23-3.6a54.65,54.65,0,0,1,11.1-2.32c5.67-.54,11.34-.56,17-.78,8.61-.34,15.59,3.94,22.52,8.2a3.78,3.78,0,0,1,1.38,2.88,3.85,3.85,0,0,1,0,.48c-.3.91-2,1.86-3.08,1.91a62.27,62.27,0,0,1-9.46-.36c-15.25-1.65-30.31-1.78-44.62,4.88-2.27,1.06-4.42,2.37-6.48,3.48,3,.37,6.6-.28,8.26,1.18,10.59,9.45,23.46,12.18,36.89,13.38,3.17.28,6.44-.39,9.91-.65v0h0c-.32,1.62-.53,2.66-.73,3.7,1.94-1.46,4.17-3.7,4.06-5.24a1.55,1.55,0,0,0-.06-.31,9.2,9.2,0,0,1-.4-2c-.26-2.58.71-4.64,2.08-6.85a14,14,0,0,0,.73-1.31c1-2,1.63-4.1,2.74-6a11.13,11.13,0,0,1,3.94-4.18c2.27-1.4,4-4.79,7-3.67a11,11,0,0,1,5.48,5.56c3.54,8.43,7.89,16.85,9.39,25.71.07.46.17.9.27,1.34,0,.14,0,.29.08.43v0a39.26,39.26,0,0,0,4.58,10.75c2.21,3.81,4.71,7.42,6.64,11.38a7.18,7.18,0,0,1,.93,2.3c0,.38.08.75.1,1.12a11.7,11.7,0,0,1-.35,3.28c-1.92,5.47-8.36,10.15-14.16,9.93-9.48-.36-18.93-1.12-28.4-1.64-2.51-.13-5.16-.41-6.57,1.17a5,5,0,0,0-1,3.36c0,.06,0,.11,0,.17a9.16,9.16,0,0,1-8.17-1.46,10.58,10.58,0,0,1-1.34-1.18,16.61,16.61,0,0,1-2.07-2.7,4.86,4.86,0,0,1-.4-.79c-1.72-4-.5-12.29,2.12-14.3,4.65-3.6,9.75-6.39,16-5.94,2.53.18,5,.31,7.53.46l.11-1.44c-2-.16-4.07-.44-6.1-.64-.84-.07-1.67-.14-2.51-.17s-1.7-.05-2.55,0c-3.41.11-7.9-.12-10,1.85-6.35,6-11.76,13-17.12,19.12l7,2.43,0,0h0l-3.39,3.41-1.3,1.29-1.31,1.24a8,8,0,0,1-2.71,1.24c-6.24,2.29-12.45,4.66-18.74,6.81-11,3.76-22,7.46-33.06,11-2,.61-4.26.09-6.4.09-.24-.76-.48-1.51-.73-2.26h0v0l29.16-17.47c-14.61,5-27.58,10.52-39.13,20.61-2.35-9-4.43-16.91-6.67-25.48l-4.21,3.89c-1.24-3.77-2.73-6.71-3-9.77a8.63,8.63,0,0,1,0-.88A9.33,9.33,0,0,1,1030.53,571.35Zm55.24-27.26c3.25,2.22,6.18,4.71,9.38,6.92a53.88,53.88,0,0,0-3.93-4.67,29.41,29.41,0,0,0-14.76-8.65c-.58-.14-1.17-.26-1.77-.38C1079,540,1082.52,541.87,1085.77,544.09Z" transform="translate(-683.36 -158.56)"/><path class="b1ce1fbf-b283-4fc1-b1c8-521e5b47f8e4" d="M1144,626.94H1144V616.56c-7.13,1.1-12.75,4.52-17.94,8.68-7.28,5.85-15.81,8.71-24.81,11.15v0h-.07c1.82-9.54,17.75-25.85,26-26.8l0,.05.08,0-1.9,3.86.34.2,10.67-11.82c-22.15,9.41-38.72,23.9-50.08,44.09l0-.06,0,0-1-1.34c-6,7.17-12.93,12.73-21.44,16l0,0h0L1062,659.4l11.48-28.48-10.94,14.8,0-.17-.1.13,3.32-15.23-1.36-.41c-7.77,21-12.05,43.41-23.24,64.48l0-.09,0,.05a83.44,83.44,0,0,1-1.23-46.69c-2.11,6.65-4.22,13.39-4.38,20.18-.28,9.58,1.13,19.2,2,28.79.31,3.32-.55,5.67-3.84,7l0,0h0c-10.63-35.56-10.91-41.91-2.67-59.13,9.14-19.1,32.31-36.91,45.88-35.25l0,0h.08L1066.35,626c1.49-.1,1.91,0,2.06-.17a14.23,14.23,0,0,0,1.43-2c6.83-11,14.67-21.16,27.18-26.23,16.74-6.79,34.13-8.51,52-6.06,1.81.24,3.81-1.08,5.66-.93,2.58.23,5.71.23,7.79,1.39a5.1,5.1,0,0,1,.82.55c5.72,4.81,6.91,11.57,5.35,18.67-1.25,5.48-3.32,10.6-9,13.6l0-.09-.09,0,2.86-7.82c-4.91,5.56-11,8.4-18.43,10.07Zm-70,2.72.12.15.18-.49c3.72-4.22,7.38-8.41,9.37-10.66-2.25,2-7.23,4.85-9.37,10.66Z" transform="translate(-683.36 -158.56)"/><path class="b1ce1fbf-b283-4fc1-b1c8-521e5b47f8e4" d="M1086.23,645.92Z" transform="translate(-683.36 -158.56)"/><path class="b1ce1fbf-b283-4fc1-b1c8-521e5b47f8e4" d="M1166.22,829.6c.29-4.84,1.37-9.63,2.09-14.44h1.82c3.12,8.15,7.32,15.89,7.86,24.85a31.22,31.22,0,0,1,0,4c-.67,10.67-.71,21.31-.94,32a17.2,17.2,0,0,0,.14,3,1.68,1.68,0,0,0,.58,1.11c3.64,2.25,7.57,4,11.81,6.16-2.89-7.07-5.89-13.38-7.95-20a17,17,0,0,1-.77-5.55,11.39,11.39,0,0,1,.91-4.54c2.85-6.15,8.37-9.15,15.31-9.43,5.84-.23,9.2,3.09,11.84,7.67,3.27,5.67,6.56,11.31,10.21,17.6.64-4.21,1.45-7.59,1.64-11a8,8,0,0,0,0-1.28,5.31,5.31,0,0,0-1.46-3.48c-7.22-5.63-14.3-11.61-22.16-16.21-11-6.45-16.82-16.79-22.79-27.18a2.53,2.53,0,0,1-.27-1c-.13-1.22.21-2.89.68-3.07,1.56-.61,4.11-1,5.17-.09a21.5,21.5,0,0,1,4.66,6.41c4.37,8.06,10.41,14.44,17.72,20,8.59,6.54,16.76,13.66,24.76,20.94a10.19,10.19,0,0,1,2.63,6.45,8.84,8.84,0,0,1,0,1c-.94,14.46-2.34,28.89-3.6,43.33-.35,3.85-.71,7.8-1.11,12.37a14,14,0,0,1-2.76-.77q-23.4-14.88-46.73-29.87a6,6,0,0,1-2.42-3.52c-3.14-16.71-7.21-33.34-7-50.45C1166.08,832.92,1166.12,831.26,1166.22,829.6Zm51.88,56.67c-4.38-8-8.81-16-13.38-23.94-2.17-3.75-5.88-5.56-9.75-3.67-2.72,1.34-4.56,4.47-6.55,6.54a66.11,66.11,0,0,0,2.53,6.38c4.15,7.58,8.34,15.14,12.63,22.64,3,5.27,7.61,6.78,12.05,4.2C1219.84,896,1220.87,891.34,1218.1,886.27Z" transform="translate(-683.36 -158.56)"/><path class="b1ce1fbf-b283-4fc1-b1c8-521e5b47f8e4" d="M968.22,597.79a27.83,27.83,0,0,1-9-7.68c-3.07-3.89-5.11-8.57-7.91-12.7-10.91-16.14-12.35-33.85-8.28-52.2,1.3-5.86,4.27-11.45,7.1-16.82,2.07-3.92,9.11-6.19,12.82-4.39a5.77,5.77,0,0,1,2.32,1.91.87.87,0,0,1,.11.18c.08.12.16.23.23.36,1.16,2.16.82,5,.88,7.82-5.27-.08-10.61-.55-13.27,5-1.68,3.51-3,7.17-4.51,10.77,1.17-.77,2.58-1.37,3.31-2.43,1.67-2.42,2.44-5.67,4.52-7.52a10.22,10.22,0,0,1,7.42-2.27,2.58,2.58,0,0,1,1.38,1l.08.11a1.93,1.93,0,0,1,.17.21l.24.34h0a14.66,14.66,0,0,1,1.69,3.83,23,23,0,0,1,.26,7.45c-.47,7.25.94,13.9,5.67,19.65a12.66,12.66,0,0,1,1.12,2.56c-4.86.09-9.45-.13-12.51,4.57,7.86-2,11.93-2.48,15-.06,2.37,1.88,4.09,5.53,6.46,11.64a17.15,17.15,0,0,0,.37-6.06c-.5-4-2.45-7.36-5-10.65l-.34-.43c-4-4.91-7.77-10-7.84-16.85-.07-7.15-.51-14.3-.74-21.45a16.93,16.93,0,0,1,.38-2.91l1.34-.19v0h0c1.91,6,3.65,12,5.76,17.93,2.18,6.08,3.7,12.76,7.34,17.87,4.26,6,5.87,11,2.87,18-1.69,3.84-1.54,8.52-2.25,13-9-4.61-12.17-4.61-17.47.36,2.51-.36,4.55-.83,6.62-.91,3.52-.13,8,2.78,10.67,6,1.59,2,2.5,4,2.13,5.66C985.54,596.41,975.59,601.52,968.22,597.79Zm-19.7-67.59a2.46,2.46,0,0,0,0,.28c-5.57,8.45-5,18.83,2.13,28.93a22.19,22.19,0,0,0-.94-3.82c-3-6-2.72-12.07-1.08-18.39.55-2.08.05-4.46-.11-6.72.05-.07.08-.14.13-.21Z" transform="translate(-683.36 -158.56)"/><path class="b1ce1fbf-b283-4fc1-b1c8-521e5b47f8e4" d="M934.94,691.91c1.6,2.5,2.33,5.52,1.29,7.78-1.56,3.4-3.27,6.73-4.91,10.09,2.32-1.67,3.62-3.94,5.38-5.8.95-1,2.72-1.23,4.12-1.81,0,0,0,.07,0,.09h0c.15,1.5,1,3.42.35,4.45-2.87,4.65-5.7,9.44-9.34,13.46-17.39,19.14-40.76,24.23-65.4,26.43l.12-.09h-.16a88.25,88.25,0,0,1,11.15-7.73l.45-.28c4.34-2.42,9.06-4.16,13.54-6.35,4.1-2,8.12-4.2,12.17-6.31-.2-.44-.39-.89-.59-1.33-10.23,5.12-21.12,6.32-32.12,6,5-18.89,20.79-26.93,34.79-36.81l-17.1,7.56,0-.08h0c-.19-.53-.39-1-.59-1.53,12-8.66,25.09-13.83,40.34-12.5C930.88,687.39,933.35,689.39,934.94,691.91Z" transform="translate(-683.36 -158.56)"/><path class="b1ce1fbf-b283-4fc1-b1c8-521e5b47f8e4" d="M1004,685.74c1.83-3.17,4.72-5.72,7.14-8.56l0,0,0,0,1.46.93c-5.69,12.83-3.88,25.57.06,38.31-1.68-13.28-4.27-26.69,5.67-38.63v0l0,0c6.56,17.2,7.32,35.55,10.8,54.23a12.58,12.58,0,0,1,1-2.58c1.52-1.92,3.49-5.49,4.67-5.58h.2c4.18.91,3.61,4.84,3.19,8.2a10.36,10.36,0,0,1-.71,2.38,50.52,50.52,0,0,1-22.85,26.07q-2.25-7.71-4.44-15.24l-5.24-18c-1.56-5.43-3.45-10.82-4.45-16.35C998.87,702.25,999.42,693.58,1004,685.74Z" transform="translate(-683.36 -158.56)"/><path class="b1ce1fbf-b283-4fc1-b1c8-521e5b47f8e4" d="M962.17,630.38l-8.35,3.93v0h0c5-9.38,9.75-17.95,14.09-26.73,3-5.94,3.89-6.61,10.34-5.06v0h0c.82,8.54.89,16.77-5.06,24-1.91,2.3-2.23,5.86-3.5,8.75-.77,1.73-1.64,3.7-3,4.82-6.71,5.38-11.1,11.94-11.42,20.75-.1,2.7-1.42,3.71-3.79,5a16.87,16.87,0,0,0-7,7c-2.21,4.72-3.81,6.22-8.21,3.77-6.51-3.63-12.73-7.77-19.84-12.17h0l-.05,0C930.05,650.68,947.76,642.77,962.17,630.38Z" transform="translate(-683.36 -158.56)"/><path class="b1ce1fbf-b283-4fc1-b1c8-521e5b47f8e4" d="M934,174.44h0v0l0,.06.09.05h0Z" transform="translate(-683.36 -158.56)"/><path class="b1ce1fbf-b283-4fc1-b1c8-521e5b47f8e4" d="M1134.39,653.25c-.23,3.09-2,6.4-4,8.94-2.35,3-5.6,5.27-8.4,7.81,0-.65-.1-1.41-.15-2.18l-6.86,1.69c-.06-.1-.11-.21-.17-.32-.54-1-1.06-2-1.74-3.4l-.92-1.79-3.58,4.7c-2.92-6.88-9.16-12.16-11.14-20.13a20.36,20.36,0,0,1-.57-3.6c15.75-.72,29.4-6,41.35-17.28v7.46a9.31,9.31,0,0,1,2.63-.8c1.83.09,4.46-.2,5.27.83.95,1.21,1.08,4.23.19,5.44a16,16,0,0,1-6.43,5.1,114.47,114.47,0,0,1-12.11,3.88C1129.84,650.67,1134.47,652.13,1134.39,653.25Z" transform="translate(-683.36 -158.56)"/><path class="b1ce1fbf-b283-4fc1-b1c8-521e5b47f8e4" d="M1002.63,611.51c-3.2-6.23-6.44-12.07-9.31-18-.65-1.35-1.29-2.71-1.9-4.08A25.85,25.85,0,0,1,989,576.91c0-.07,0-.13,0-.19.06-.68.15-1.35.27-2a22.44,22.44,0,0,1,1-3.72,6.11,6.11,0,0,1,3.62-4,4.18,4.18,0,0,1,2-.13,6.73,6.73,0,0,1,4,2.63c2.58,3.24,5.07,6.56,7.41,10,4.09,6,4.4,15.08,1.39,22.79-.28.7-.58,1.39-.91,2.06a25.17,25.17,0,0,1-2.3,3.84A22.53,22.53,0,0,1,1002.63,611.51Z" transform="translate(-683.36 -158.56)"/><path class="b1ce1fbf-b283-4fc1-b1c8-521e5b47f8e4" d="M1061.93,446.46c25.74,1.85,51.47,4,77.23,5.33,7.19.38,14.41.94,21.63.95a86.86,86.86,0,0,0,21.58-2.32,2.18,2.18,0,0,1,.63-.06c1.48,0,3.24,1.08,4.84,1.55l-.39,2.06a393.52,393.52,0,0,1-41.28,1.83c-30.23-.14-60.43-3-90.72-5.09h0c.63-3.56,2.52-4.28,4.89-4.3C1060.85,446.4,1061.38,446.43,1061.93,446.46Z" transform="translate(-683.36 -158.56)"/><path class="b1ce1fbf-b283-4fc1-b1c8-521e5b47f8e4" d="M937.67,550.93l-.78.12h-.06c-.35-2.87-1.16-5.77-1-8.6.82-11.55,2.1-23,7.12-33.75,4.14-8.86,10.14-13.41,17.19-13.36,4.23,0,8.85,1.71,13.67,5.12,5.69,4.05,9.43,8.81,9,16.56-.27,4.83,1.5,9.74,2.19,14.64.35,2.48.33,5,.48,7.48l-1.55.25h-.06c-1.21-3.91-2.35-7.84-3.65-11.72-2-6.14-4-12.33-6.38-18.34-2.23-5.59-6.59-8.62-12.76-8.67-6.63-.06-12.48,1.92-14.9,8.55A181.47,181.47,0,0,0,939,533.33C937.76,539,938.06,545.05,937.67,550.93Z" transform="translate(-683.36 -158.56)"/><path class="b1ce1fbf-b283-4fc1-b1c8-521e5b47f8e4" d="M1159,798.83l1-2.07q2-4.21,4-8.4a21,21,0,0,1,4-5.63,4.19,4.19,0,0,1,3.83-.73c2.11,1.11,3.5,5.1,3.46,8.37a6.11,6.11,0,0,1-1,3.68c-5.71,7.23-8.49,15.66-10.46,24.46-.53,2.31-1,4.67-1.65,7.65-6.17-5-9-14-6.57-19.8C1156.65,803.86,1157.79,801.34,1159,798.83Z" transform="translate(-683.36 -158.56)"/><path class="b1ce1fbf-b283-4fc1-b1c8-521e5b47f8e4" d="M974.93,630.74C976,629,978.27,628,980,626.61c1.25,1.67,3.15,3.15,3.63,5a79,79,0,0,1,2.61,14.71v.16c.43,8.08-3.91,12.93-12.56,14.74C970.23,650.9,970.63,638,974.93,630.74Z" transform="translate(-683.36 -158.56)"/><path class="b1ce1fbf-b283-4fc1-b1c8-521e5b47f8e4" d="M957.4,667.48c.45-1.76.32-3.66.75-5.43.93-3.83,1.54-7.88,3.25-11.35,1.85-3.73,5.07-3.43,6.38.57,1.49,4.58,2.18,9.4,3.42,15-.16.35-.32.74-.48,1.13a17.07,17.07,0,0,1-2.66,5.24c-2,2.31-4.68,4.58-8.28,2.66a4.84,4.84,0,0,1-2.86-4.44A12.69,12.69,0,0,1,957.4,667.48Z" transform="translate(-683.36 -158.56)"/><path class="b1ce1fbf-b283-4fc1-b1c8-521e5b47f8e4" d="M861,249a1.32,1.32,0,0,1-.49,0,5.81,5.81,0,0,1-3.62-2.61c-5.92-11.56-11.6-23.24-17.32-34.91a15.7,15.7,0,0,1-.82-2.71,22.24,22.24,0,0,1,1.87-1.3c.74-.36,1.52-.62,2.83-1.15h0C849.84,219.21,856,231.59,862.1,244,863.13,246,864.14,248.35,861,249Z" transform="translate(-683.36 -158.56)"/><path class="b1ce1fbf-b283-4fc1-b1c8-521e5b47f8e4" d="M1101.24,522.39c.58-1.14,2-2.58,3.15-2.58,6.08-.14,12.18,0,18.26.34a4.63,4.63,0,0,1,3.13,2.62c1.34,3.37,2.14,6.9,3.34,11a69.26,69.26,0,0,1-12.42-2.38,48.71,48.71,0,0,1-13.3-6.13,6,6,0,0,1-2.18-2.63A.38.38,0,0,1,1101.24,522.39Z" transform="translate(-683.36 -158.56)"/><path class="b1ce1fbf-b283-4fc1-b1c8-521e5b47f8e4" d="M1161.79,511.15a8.81,8.81,0,0,1-1-.06c-6.88-.72-12.52-4.37-18.17-7.87l.27-1.79h26.9a15.51,15.51,0,0,1-.2,2.21C1168.84,508.18,1166.06,511.16,1161.79,511.15Z" transform="translate(-683.36 -158.56)"/><path class="b1ce1fbf-b283-4fc1-b1c8-521e5b47f8e4" d="M1007,626.12h0c-3.33-12.26,0-18.43,10.17-19.45h0C1019,615.43,1015.59,622,1007,626.12Z" transform="translate(-683.36 -158.56)"/><path class="b1ce1fbf-b283-4fc1-b1c8-521e5b47f8e4" d="M1015.94,596.45h0c-3.79-11.44-2.41-15.77,6.69-18.69.61-.19,1.25-.38,1.93-.57C1026.65,584.73,1022.62,593.75,1015.94,596.45Z" transform="translate(-683.36 -158.56)"/><path class="b1ce1fbf-b283-4fc1-b1c8-521e5b47f8e4" d="M944.08,193.6h0c-2.15-5.64-4.18-11.33-6.56-16.86-.47-1.05-2.18-1.52-3.4-2.21h0c-.67-4-1.34-7.91-2.09-12.28h0v0l54.64,2.48c-1.32,1.83-2,2.9-2.8,3.85-7.48,8.69-15.07,17.28-22.43,26.06l-1,1.24c-2.6,3-5.35,5.67-8.88,7-2.5-3.14-5-6.22-7.42-9.28Z" transform="translate(-683.36 -158.56)"/><path class="b1ce1fbf-b283-4fc1-b1c8-521e5b47f8e4" d="M951.26,669.15h0a17.48,17.48,0,0,0,3.09,7.08c3.69,4.93,9.77,7.12,16.15,9.37h0c-3.11,2.4-4.58,3.28-6.9,2.38a10.88,10.88,0,0,1-1.78-.92,91,91,0,0,1-12.42-9.71C946,674.38,947.17,671.76,951.26,669.15Z" transform="translate(-683.36 -158.56)"/><path class="b1ce1fbf-b283-4fc1-b1c8-521e5b47f8e4" d="M984.11,660.82v.06h0a13.68,13.68,0,0,1-.54,6.12c-1.19,3.27-4.12,5.15-9.2,6C972.58,665.31,972.81,665,984.11,660.82Z" transform="translate(-683.36 -158.56)"/><path class="b1ce1fbf-b283-4fc1-b1c8-521e5b47f8e4" d="M1169.54,510.69c1.12-4.58,2-8.18,3-12,2,1.53,2.94,3.25,2.81,5C1175.19,506,1173.25,508.44,1169.54,510.69Z" transform="translate(-683.36 -158.56)"/><path class="b7722f46-409c-4dc4-82ed-461cea7dbf91" d="M1032,440c4-2.9,4.33-7.45.43-13.2q-.39-.57-.84-1.17c6.58,3.45,8.81,8.16,7.11,13.5a10.6,10.6,0,0,1-11.75,7.11c-5.2-.89-8.44-5.12-8.38-10.89C1022.83,441.73,1027.46,443.33,1032,440Z" transform="translate(-683.36 -158.56)"/><path class="b7722f46-409c-4dc4-82ed-461cea7dbf91" d="M984.6,476.32a10.42,10.42,0,0,1-9.17-10.15c-.17-5.5,3.3-9.41,9.07-10.2-5.29,4.46-6.39,8.87-2.91,13.08s8.22,3.92,14.06-.84C994.23,473.9,990,477,984.6,476.32Z" transform="translate(-683.36 -158.56)"/><path class="b7722f46-409c-4dc4-82ed-461cea7dbf91" d="M1026.79,475.58a10.4,10.4,0,0,0,4.52-5.94c.54-2.39-.7-5.18-1.15-7.77,4.71,3,6.49,7.66,4.71,12.56a10.58,10.58,0,0,1-10.55,6.78c-5.43-.45-8.75-4.15-9.75-11.45C1018.89,476.16,1022.69,478.07,1026.79,475.58Z" transform="translate(-683.36 -158.56)"/><path class="b7722f46-409c-4dc4-82ed-461cea7dbf91" d="M1038.64,370.77c4.41-2.54,5-6.82,1.92-13.82,5.21,3,7.06,7.12,5.5,12.3a10.09,10.09,0,0,1-10.62,7.28c-5.43-.3-8.58-3.55-9.9-10.95C1030.34,371.82,1034.23,373.31,1038.64,370.77Z" transform="translate(-683.36 -158.56)"/><path class="b7722f46-409c-4dc4-82ed-461cea7dbf91" d="M946.22,470.21a10.63,10.63,0,0,1-9.14-9.72c-.4-5.11,2.5-9,9.18-11.16-5.23,5.09-6.45,9.08-3.58,12.57a10.64,10.64,0,0,0,6.52,3.68c2.43.22,5-1.35,7.52-2.13C954.88,468.31,951,470.8,946.22,470.21Z" transform="translate(-683.36 -158.56)"/><path class="b7722f46-409c-4dc4-82ed-461cea7dbf91" d="M1101.2,487.14c-5-1-8-4.92-7.89-10.23,4.22,5.73,7.91,7.17,12.4,4.57s5.18-7,1.71-14.14c6,3.84,7.61,8.41,5.53,13.46A10.5,10.5,0,0,1,1101.2,487.14Z" transform="translate(-683.36 -158.56)"/><path class="b7722f46-409c-4dc4-82ed-461cea7dbf91" d="M1074.33,478.21a10.5,10.5,0,0,1-11.35,7.05c-5.23-.71-8.49-4.56-8.66-10.25,4.51,5.59,8.49,7.27,12.35,4.44a11,11,0,0,0,4.14-6.33c.35-2.26-1-4.86-1.65-7.26C1074.18,468.77,1076.08,473.29,1074.33,478.21Z" transform="translate(-683.36 -158.56)"/><path class="b7722f46-409c-4dc4-82ed-461cea7dbf91" d="M1042.44,335.9c4.11-2.49,4.87-6.46,2.08-12.84-.19-.42-.39-.86-.61-1.31,5.89,3.95,7.59,8.49,5.58,13.54a10.5,10.5,0,0,1-12.25,6.15c-4.82-1.12-7.66-5-7.57-10.33C1033.85,336.9,1038.06,338.56,1042.44,335.9Z" transform="translate(-683.36 -158.56)"/><path class="b7722f46-409c-4dc4-82ed-461cea7dbf91" d="M1034.88,405.48a11.09,11.09,0,0,0,4-6.37c.39-2.23-1.05-4.77-1.72-7.29,5.2,3.49,6.88,7.75,5.1,12.69a10.22,10.22,0,0,1-10.9,6.91c-5-.44-8.22-3.76-9.22-10.22C1027.26,406.82,1031.09,408.28,1034.88,405.48Z" transform="translate(-683.36 -158.56)"/><path class="b7722f46-409c-4dc4-82ed-461cea7dbf91" d="M1149,481.32a9.48,9.48,0,0,1-10.13,5.57c-4.77-.88-7.35-4.12-7.51-9.44,3.3,4.84,6.62,6.34,10.47,4.72a6.17,6.17,0,0,0,3.65-3.41c.83-2,.73-4.86-.2-8.84C1149.7,473.13,1150.94,476.91,1149,481.32Z" transform="translate(-683.36 -158.56)"/><path class="b7722f46-409c-4dc4-82ed-461cea7dbf91" d="M901.88,453.74c-.51-4.91,1.66-8,8.37-10.47-4.72,4-6.22,7.78-3.13,11.81a8.54,8.54,0,0,0,5.84,3.05c2.17.09,4.4-1.48,6.61-2.32-1.94,4.67-5.57,7.13-9.77,6.29C905.28,461.2,902.39,458.65,901.88,453.74Z" transform="translate(-683.36 -158.56)"/><path class="b7722f46-409c-4dc4-82ed-461cea7dbf91" d="M878.3,436c-2.65,3.64-3.72,7.2-.32,10.86,2.58,2.77,5.95,2.62,10.84-.81.33-.23.66-.48,1-.74-2.84,6-6.31,8-10.88,7a8.8,8.8,0,0,1-6.64-8.82C872.66,439.64,874.47,436.89,878.3,436Z" transform="translate(-683.36 -158.56)"/><path class="b7722f46-409c-4dc4-82ed-461cea7dbf91" d="M1170.55,483.58c-4.35-.46-6.8-3-7.21-7.65,2.53,3.15,5.61,5.07,9.6,3.32,5.16-2.27,4.51-6.74,2.87-11.91,4.42,3.47,5.33,7.1,3.61,11.24C1177.83,482.41,1174.62,484,1170.55,483.58Z" transform="translate(-683.36 -158.56)"/><path class="b7722f46-409c-4dc4-82ed-461cea7dbf91" d="M793.82,354.2a24,24,0,0,1-9.36-7.72c-3.66-5.05-1.85-12.85,3-17.21a11.35,11.35,0,0,1,14.29-.55c2.84,2.09,4.19,4.88,2.59,8.21s-4.49,4.35-7.94,3.63a30.42,30.42,0,0,1-4.79-1.9c0,5.08,2.47,7.65,6.54,8.65,5,1.25,9.2-.61,12.43-4.48,3.07-3.68,4-8.14,1.37-12.05s-6.41-7-9.74-10.47c-2-2.1-4.17-1.91-6.75-.6-10.09,5.14-20.12,10.45-30.51,14.9a50.49,50.49,0,0,1-16.81,3.88c-9.28.53-15.09-4.05-17.67-12.36-3.05-9.79-.7-19.79,6.66-24.16a22.19,22.19,0,0,1,12.18-3c9,.65,14.92,12.37,9.73,19-2.06,2.66-6.12,4.19-9.56,5-1.23.29-4.15-2.71-4.81-4.71-1.41-4.23,1.57-6.74,5-8.63.12-.06.16-.26.56-.95-3.82-2.51-7.09-1.65-10,.94a11.87,11.87,0,0,0-2.89,13.31c1.89,4.84,5.53,7.93,10.67,7.46a45.19,45.19,0,0,0,13.34-3.6c1.74-.73,3.5-3.5,3.68-5.5,1-11.27,1.08-22.64,2.48-33.86a49.57,49.57,0,0,1,5.61-17.31c4.31-7.83,11.49-10,20.19-7.69,9.52,2.52,16.46,9.51,16.52,17.73a23.78,23.78,0,0,1-3,11.27c-2.88,5.17-10.66,6.94-16.48,4.66a11,11,0,0,1-7-11.54c.35-3.72,2.08-6.41,6.16-6.53,3.86-.12,6.26,2,7.16,5.67a29.78,29.78,0,0,1,.4,4.31c4.33-3.07,5.33-5.4,4.33-9.47a12.38,12.38,0,0,0-10.25-9c-5-.74-9.18,1-11.39,5.38-1.83,3.63-2.66,7.78-3.72,11.78-1,3.82.36,6.4,3.9,8.59C789,300.89,798,306.65,806.55,313a52.23,52.23,0,0,1,11.74,12c5.22,7.56,4.59,14.92-.58,21.23C811.37,353.92,801.55,357.6,793.82,354.2ZM773.69,321l17-8.3L775,302.21v0l0,0c-.44,6.54-.81,12-1.26,18.77Z" transform="translate(-683.36 -158.56)"/><polygon class="b7722f46-409c-4dc4-82ed-461cea7dbf91" points="125.56 107.58 115.16 100.11 150.47 83.95 151.02 84.95 125.56 107.58"/><line class="f13106b6-005b-4731-aec7-7fc368b19fae" x1="26.61" y1="161.84" x2="33.71" y2="173.95"/><line class="f13106b6-005b-4731-aec7-7fc368b19fae" x1="33.76" y1="174.04" x2="33.71" y2="173.95"/><path class="b7722f46-409c-4dc4-82ed-461cea7dbf91" d="M1091.22,546.34a53.88,53.88,0,0,1,3.93,4.67c-3.2-2.21-6.13-4.7-9.38-6.92s-6.73-4.13-11.08-6.78c.6.12,1.19.24,1.77.38A29.41,29.41,0,0,1,1091.22,546.34Z" transform="translate(-683.36 -158.56)"/><path class="b7722f46-409c-4dc4-82ed-461cea7dbf91" d="M1074.15,629.81l-.12-.15.3-.34Z" transform="translate(-683.36 -158.56)"/><path class="b7722f46-409c-4dc4-82ed-461cea7dbf91" d="M1083.7,618.66c-2,2.25-5.65,6.44-9.37,10.66C1076.47,623.51,1081.45,620.7,1083.7,618.66Z" transform="translate(-683.36 -158.56)"/><path class="b7722f46-409c-4dc4-82ed-461cea7dbf91" d="M1215.63,898.42c-4.44,2.58-9.05,1.07-12.05-4.2-4.29-7.5-8.48-15.06-12.63-22.64a66.11,66.11,0,0,1-2.53-6.38c2-2.07,3.83-5.2,6.55-6.54,3.87-1.89,7.58-.08,9.75,3.67,4.57,7.94,9,15.94,13.38,23.94C1220.87,891.34,1219.84,896,1215.63,898.42Z" transform="translate(-683.36 -158.56)"/><path class="b7722f46-409c-4dc4-82ed-461cea7dbf91" d="M948.65,537.2c-1.64,6.32-1.92,12.39,1.08,18.39a22.19,22.19,0,0,1,.94,3.82c-7.16-10.1-7.7-20.48-2.13-28.93C948.7,532.74,949.2,535.12,948.65,537.2Z" transform="translate(-683.36 -158.56)"/><path class="b7722f46-409c-4dc4-82ed-461cea7dbf91" d="M948.54,530.48a2.46,2.46,0,0,1,0-.28l.15.07C948.62,530.34,948.59,530.41,948.54,530.48Z" transform="translate(-683.36 -158.56)"/><path class="b7722f46-409c-4dc4-82ed-461cea7dbf91" d="M866.58,218.43c0-6.91,6.08-12.71,13.39-12.83h.16a12,12,0,0,1,12.18,11.81c.15,7.07-6,13-13.66,13h-.35A11.86,11.86,0,0,1,866.58,218.43Z" transform="translate(-683.36 -158.56)"/></svg>