<svg id="a80794bc-3642-44ee-b356-6670d48a0e8f" data-name="Capa 1" xmlns="http://www.w3.org/2000/svg" viewBox="0 0 409.98 169.84"><path d="M635.63,345.52c-41.38,2-75.46,32-81.76,73.42-5.93,39.05,19.67,78.65,58,90.23,22.55,6.81,43.14,2.17,63.1-9.09,36-20.33,65.93-48.28,95.9-76.26,24.84-23.18,51-44.71,82-59.62,14.94-7.19,30.12-8.13,45.82-3.32,40,12.25,61.17,56.89,45.87,95.76-13,32.95-56.47,60.63-97.15,36.12-19.75-11.9-38-26.34-57.16-39.2-3-2-7.61-1.79-11.48-2.59,1.52,3.4,2.1,8.11,4.71,10,19.37,14,38.64,28.38,59,40.83A73.1,73.1,0,0,0,874,511.9c45.18,3.43,84.62-33.43,86-79,1.41-46.56-35.49-86.09-81.33-84.83-13,.36-27.9,4.17-38.42,11.47A1083.24,1083.24,0,0,0,753,426.71c-29.24,25-56.76,52.29-92.36,68.27a73.34,73.34,0,0,1-33.41,6.3c-28.35-1.84-53.16-23.44-60.65-51.18-8.1-30-.26-56.09,23.72-75.82,23.31-19.19,49.62-22.87,76-6.81,19.7,12,37.94,26.37,57.08,39.32,2.84,1.92,7.05,1.8,10.63,2.62-1.24-3.4-1.44-8.24-3.87-10-20.06-14.5-40-29.29-61.11-42.15C659.19,351.26,646.85,349.31,635.63,345.52Z" transform="translate(-551.52 -344.01)" fill="#fff" stroke="#fff" stroke-miterlimit="10" stroke-width="3"/><path d="M635.63,345.52c11.22,3.79,23.56,5.74,33.43,11.75,21.1,12.86,41.05,27.65,61.11,42.15,2.43,1.75,2.63,6.59,3.87,10-3.58-.82-7.79-.7-10.63-2.62-19.14-13-37.38-27.34-57.08-39.32-26.4-16.06-52.71-12.38-76,6.81-24,19.73-31.82,45.78-23.72,75.82,7.49,27.74,32.3,49.34,60.65,51.18a73.34,73.34,0,0,0,33.41-6.3c35.6-16,63.12-43.23,92.36-68.27a1083.24,1083.24,0,0,1,87.2-67.16c10.52-7.3,25.39-11.11,38.42-11.47,45.84-1.26,82.74,38.27,81.33,84.83-1.37,45.56-40.81,82.42-86,79a73.1,73.1,0,0,1-31.45-10.1c-20.4-12.45-39.67-26.78-59-40.83-2.61-1.89-3.19-6.6-4.71-10,3.87.8,8.44.55,11.48,2.59,19.2,12.86,37.41,27.3,57.16,39.2,40.68,24.51,84.18-3.17,97.15-36.12,15.3-38.87-5.9-83.51-45.87-95.76-15.7-4.81-30.88-3.87-45.82,3.32-31,14.91-57.12,36.44-82,59.62-30,28-59.85,55.93-95.9,76.26-20,11.26-40.55,15.9-63.1,9.09-38.37-11.58-64-51.18-58-90.23C560.17,377.47,594.25,347.47,635.63,345.52Z" transform="translate(-551.52 -344.01)" fill="#fff" stroke="#fff" stroke-miterlimit="10" stroke-width="3"/></svg>