<svg id="ec0ecfe0-e48e-45e2-986c-6515836c531a" data-name="Capa 1" xmlns="http://www.w3.org/2000/svg" viewBox="0 0 228.59 226.92"><path d="M1060.42,539.67,1048.3,548l1.26,8.31,6.17,8.3.56,8.31,4.1,8.32,5.17,9.41-16.47,5.32-.17,8-7.89,4.27,7.24,15-11,1.4-5.64,6.07-10.21-2.12-6.9,2.34-5.15,12.49-8.9-10.4-7.6,10.55L985.13,635l-7.71-1-7.7-2.45L962,635l-7.7,2.47-7.7,9.27-7.7-9.12-7.71,5.78-7.69-10.08-7.72,8.24-8.6,1.2-10,3.66-3.87-14.34L882,635.56l.24-13.95-9.66-1.21.43-10-9-3.76,1.7-9-5.2-6.68,1.37-7.59-2-7.61L857.66,568l-6.67-7.8,14.79-7.84-3.8-7.81,1.56-7.81-6.5-7.82,8.16-7.81-7.5-7.82,1.86-7.82L858,497.64l10.5-6.78-11.64-10.3,9.4-5.31-6.5-13,17.54,2.47,6.53-3.35,2.33-8.58,6.67-3.4L897,437.92l9.73,5.3,7.2-12.2,8.25,3.29,7.7,6.12,7.68,1.58,7.68-.84,7.68,8.1,7.68-3.34,7.67,1.46,7.68.54,7.68-.47,7.67-1.58L999,446l8-5.34,10.41-7.08,2.89,16,13.8-8L1032,458.17l2.89,7,20.25-5.09.23,10.35L1050.83,481l10.37,6.13-12.37,9.41-.41,8.19,2.76,8.69-3.25,8.72,7.87,8.75-9.36,8.72Zm-28.17-.55,12.16,0-1.26-7.86-6.17-7.85-.55-7.84-4.12-7.83-5.81-7.8L1041,488.47l-4.94-8.18-.26-10.87L1019.33,473l-2.53-10-8.27-1.57-8.11-7.85-7.87-.43L984.64,464l-7.84-11.27-7.89,10.43-7.86-8.55-7.87-1-7.88-2.45-7.87,3.47-7.87,2.49-7.83,9.29-7.91-9.08-7.27,6.59-11.26-6.69-2.93,11.56-4,6.61,1.41,8.61L876,487.25l7.56,8.7-11.4,7.73,5.93,7.79-6.4,7.76,6,7.77-4.83,7.77,3.54,7.77-2.05,7.77,1.88,7.77,2.22,7.77,6.66,7.76-14.8,7.78,4.43,9.09L876,600l10,4.63.32,12.23,11.81-1.23,7.46,4.56,8.7-.64,8.22,10.05,8.28-13.51,8.25,7.1,8.25-11.8,8.25,15.74,8.26,2.4,8.25-5.34,8.26.37,8.23-9.19,9.2,7.47,7.65-12.12,7.5,1.32,9.87,1.4,7.48-4.94,4.09-7.94L1045.1,594,1043,583.57l1.5-7.42.55-7.43-.48-7.41-1.61-7.4.14-7.39Z" transform="translate(-844.7 -426.04)" fill="#999"/><path d="M1060.42,539.67,1048.3,548l1.26,8.31,6.17,8.3.56,8.31,4.1,8.32,5.17,9.41-16.47,5.32-.17,8-7.89,4.27,7.24,15-11,1.4-5.64,6.07-10.21-2.12-6.9,2.34-5.15,12.49-8.9-10.4-7.6,10.55L985.13,635l-7.71-1-7.7-2.45L962,635l-7.7,2.47-7.7,9.27-7.7-9.12-7.71,5.78-7.69-10.08-7.72,8.24-8.6,1.2-10,3.66-3.87-14.34L882,635.56l.24-13.95-9.66-1.21.43-10-9-3.76,1.7-9-5.2-6.68,1.37-7.59-2-7.61L857.66,568l-6.67-7.8,14.79-7.84-3.8-7.81,1.56-7.81-6.5-7.82,8.16-7.81-7.5-7.82,1.86-7.82L858,497.64l10.5-6.78-11.64-10.3,9.4-5.31-6.5-13,17.54,2.47,6.53-3.35,2.33-8.58,6.67-3.4L897,437.92l9.73,5.3,7.2-12.2,8.25,3.29,7.7,6.12,7.68,1.58,7.68-.84,7.68,8.1,7.68-3.34,7.67,1.46,7.68.54,7.68-.47,7.67-1.58L999,446l8-5.34,10.41-7.08,2.89,16,13.8-8L1032,458.17l2.89,7,20.25-5.09.23,10.35L1050.83,481l10.37,6.13-12.37,9.41-.41,8.19,2.76,8.69-3.25,8.72,7.87,8.75-9.36,8.72Zm-28.17-.55,12.16,0-1.26-7.86-6.17-7.85-.55-7.84-4.12-7.83-5.81-7.8L1041,488.47l-4.94-8.18-.26-10.87L1019.33,473l-2.53-10-8.27-1.57-8.11-7.85-7.87-.43L984.64,464l-7.84-11.27-7.89,10.43-7.86-8.55-7.87-1-7.88-2.45-7.87,3.47-7.87,2.49-7.83,9.29-7.91-9.08-7.27,6.59-11.26-6.69-2.93,11.56-4,6.61,1.41,8.61L876,487.25l7.56,8.7-11.4,7.73,5.93,7.79-6.4,7.76,6,7.77-4.83,7.77,3.54,7.77-2.05,7.77,1.88,7.77,2.22,7.77,6.66,7.76-14.8,7.78,4.43,9.09L876,600l10,4.63.32,12.23,11.81-1.23,7.46,4.56,8.7-.64,8.22,10.05,8.28-13.51,8.25,7.1,8.25-11.8,8.25,15.74,8.26,2.4,8.25-5.34,8.26.37,8.23-9.19,9.2,7.47,7.65-12.12,7.5,1.32,9.87,1.4,7.48-4.94,4.09-7.94L1045.1,594,1043,583.57l1.5-7.42.55-7.43-.48-7.41-1.61-7.4.14-7.39Z" transform="translate(-844.7 -426.04)" fill="none" stroke="#fff" stroke-miterlimit="10" stroke-width="8"/><path d="M1039.58,537.68c0,15.24.1,30.48,0,45.72-.17,18.61-12.56,33.58-30.87,36.68-6.22,1-12.7.68-19.06.69q-38.72.09-77.42,0c-18.93,0-33.83-12.42-37.25-30.86a48.24,48.24,0,0,1-.58-8.67c0-29.36-.08-58.71,0-88.07.08-21.22,16.16-37.46,37.35-37.56q45.12-.21,90.24,0c18.83.07,33.55,12.39,37,30.84a61.24,61.24,0,0,1,.62,10.85c.06,13.46,0,26.93,0,40.4Zm-82.75,52.14a51.66,51.66,0,1,0-51.51-51.92A51.78,51.78,0,0,0,956.83,589.82Zm67.26-105.73a12.94,12.94,0,0,0-25.87-.27,12.94,12.94,0,1,0,25.87.27Z" transform="translate(-844.7 -426.04)" fill="#ccc" stroke="#999" stroke-miterlimit="10" stroke-width="11"/><path d="M956.83,589.82a51.66,51.66,0,1,1,51.79-51.65A51.79,51.79,0,0,1,956.83,589.82ZM926,538a31,31,0,1,0,31.09-30.79A31,31,0,0,0,926,538Z" transform="translate(-844.7 -426.04)" fill="#999"/><path d="M1024.09,484.09A12.94,12.94,0,1,1,1011.31,471,13,13,0,0,1,1024.09,484.09Z" transform="translate(-844.7 -426.04)" fill="#fff" stroke="#999" stroke-miterlimit="10" stroke-width="0.97"/><path d="M926,538a31,31,0,1,1,30.73,31.15A31,31,0,0,1,926,538Z" transform="translate(-844.7 -426.04)" fill="#fff"/></svg>