<svg id="a4a4592b-f068-4cc1-be59-29fe2c7f8ea5" data-name="Capa 1" xmlns="http://www.w3.org/2000/svg" viewBox="0 0 1848.66 32.56"><polygon points="1848.66 30.14 1840.31 18.7 1836.31 27.8 1832.32 32.05 1828.32 29.96 1824.33 18.43 1820.33 28.65 1816.34 32.36 1812.34 18.27 1808.35 31.66 1804.35 27.15 1800.36 32.46 1796.36 19.21 1792.37 32.56 1788.38 20.97 1784.38 25.85 1780.39 26.05 1776.4 27.01 1772.4 31.21 1768.41 29.74 1764.42 30.82 1760.42 29.06 1756.43 23.99 1752.44 18.22 1748.45 19.27 1744.46 19.89 1740.46 19.92 1736.47 24.79 1732.48 30.91 1728.49 29.53 1724.5 22.4 1720.51 28.78 1716.52 21.42 1712.53 18.26 1708.53 20.72 1704.54 26.66 1700.55 22.66 1696.56 21.32 1692.57 22.54 1688.58 20.5 1684.59 28.84 1680.59 28.03 1676.6 18.71 1672.61 30.57 1668.62 30.44 1664.63 29.69 1660.64 26.06 1656.64 25.93 1652.65 21.55 1648.66 30.58 1644.67 23.15 1640.67 27.17 1636.68 19.77 1632.69 30.17 1628.69 27.38 1624.7 25.07 1620.71 27.46 1616.71 20.94 1612.72 25.46 1608.73 28.32 1604.73 32.17 1600.74 24.36 1596.74 20.5 1592.75 30.88 1588.75 19.19 1584.76 18.47 1580.76 25.25 1576.76 21.19 1572.77 20.52 1568.77 29.5 1564.78 29.54 1560.78 29.58 1556.79 26.1 1552.8 20.46 1548.8 21.38 1544.81 27.16 1540.82 31.76 1536.82 25.59 1532.83 30.95 1528.84 25.76 1524.84 20.1 1520.85 31.15 1516.86 27 1512.87 30.15 1508.87 31.2 1504.88 22.17 1500.89 31.9 1496.9 30.51 1492.9 31.29 1488.91 19.07 1484.92 20.18 1480.93 24.52 1476.93 30.08 1472.94 23.84 1468.95 25.56 1464.96 21.91 1460.96 22.82 1456.97 23.2 1452.98 21.41 1448.99 20.6 1444.99 31.17 1441 27.16 1437.01 29.02 1433.01 25.09 1429.02 24.87 1425.02 25.81 1421.03 18.51 1417.04 22.7 1413.04 27.69 1409.05 19.26 1405.05 27.55 1401.05 32.3 1397.06 27.88 1393.06 18.15 1389.07 18.41 1385.07 23.66 1381.07 26.1 1377.08 22.56 1373.08 30.96 1369.09 27.8 1365.1 32.02 1361.1 24.02 1357.11 19.83 1353.11 30.65 1349.12 19.3 1345.13 23.52 1341.13 21.46 1337.14 29.26 1333.15 32.29 1329.15 22.09 1325.16 24.62 1321.17 19.26 1317.17 27.79 1313.18 20.98 1309.19 28.42 1305.19 28.1 1301.2 27.54 1297.21 31.98 1293.21 28.87 1289.22 21.78 1285.23 32.41 1281.23 32.22 1277.24 21.12 1273.25 19.86 1269.25 23.99 1265.26 25.54 1261.26 23.14 1257.27 26.18 1253.27 19.22 1249.28 27.24 1245.28 31.29 1241.28 21.71 1237.29 18.51 1233.29 31.27 1229.3 31.44 1225.3 23.95 1221.3 18.82 1217.31 26.76 1213.31 20.1 1209.32 18.31 1205.33 20.49 1201.33 19.95 1197.34 26.86 1193.34 30.38 1189.35 22.59 1185.35 25.49 1181.36 19.08 1177.37 27.09 1173.37 24.11 1169.38 27.36 1165.39 18.33 1161.39 18.43 1157.4 25.63 1153.4 20.26 1149.41 30.23 1145.42 18.39 1141.42 19.21 1137.43 28.95 1133.43 28.81 1129.44 30.94 1125.44 20.25 1121.45 25.2 1117.45 23.56 1113.45 28.51 1109.46 26 1105.46 22.09 1101.46 23.89 1097.47 29.93 1093.47 27.9 1089.48 30.02 1085.48 32.02 1081.49 24.72 1077.49 21.4 1073.5 22.02 1069.5 26.07 1065.51 27.2 1061.51 22.74 1057.52 18.88 1053.52 20.38 1049.53 21.99 1045.54 21.58 1041.54 30.19 1037.55 32.3 1033.55 25.53 1029.56 26.13 1025.56 20.53 1021.57 27.95 1017.57 25.18 1013.58 26.62 1009.58 19.17 1005.59 28.99 1001.59 20.6 997.59 19.13 993.6 27.98 989.6 26.44 985.6 31.83 981.61 18.52 977.61 22.29 973.62 30.87 969.62 19.42 965.62 26 961.63 22.91 957.63 22.25 953.64 22.14 949.64 27.21 945.65 19.32 941.66 26.19 937.66 31.21 933.67 30.36 929.67 31.28 925.68 20.9 921.68 24.24 917.68 29.23 913.69 29.74 909.69 19.22 905.7 30.67 901.7 18.2 897.7 19.15 893.71 30.1 889.71 19.62 885.71 32.2 881.72 31.54 877.72 23.24 873.73 26.07 869.73 30.16 865.74 25.49 861.74 27.84 857.74 26.8 853.75 21.23 849.75 28.75 845.76 18.5 841.76 26.2 837.77 31.68 833.77 32.2 829.77 27.98 825.78 25.1 821.78 32.38 817.78 18.04 813.79 22.39 809.79 23.92 805.79 27.8 801.8 27.12 797.8 22.56 793.81 27.35 789.81 29.27 785.82 30.49 781.82 21.72 777.82 25.58 773.83 25.23 769.83 24.79 765.84 21.7 761.84 21.99 757.85 24.22 753.85 28.36 749.85 31.8 745.85 23.56 741.86 18.45 737.86 30.17 733.86 28.98 729.87 20.01 725.87 32.17 721.88 24.1 717.88 32.4 713.89 29.35 709.9 29.01 705.91 18.98 701.91 26.18 697.92 30.22 693.93 19 689.94 24.8 685.95 30.56 681.96 20.37 677.97 21.77 673.98 22.73 669.99 25.9 666 21.63 662 20.86 658.01 22.64 654.02 29.6 650.02 20.84 646.03 21.41 642.03 24.47 638.04 30.52 634.04 19.94 630.04 22.66 626.05 31.22 622.05 22.06 618.05 22.85 614.06 32.3 610.06 18.16 606.07 29.71 602.08 29.57 598.08 22.25 594.09 20.82 590.1 21.25 586.1 26.82 582.11 26.43 578.12 25.69 574.13 21.88 570.13 30.9 566.14 30.23 562.14 32 558.15 28.42 554.15 25.05 550.16 28.64 546.16 27.57 542.16 30.06 538.16 23.54 534.17 20.19 530.17 26.26 526.17 23.91 522.18 31.15 518.18 19.99 514.19 27.79 510.19 24.11 506.2 27.32 502.2 20.38 498.21 18.01 494.22 26.21 490.22 23.13 486.23 26.73 482.23 32.23 478.24 28.48 474.24 26.24 470.24 23.51 466.24 31.89 462.24 27.9 458.25 20.68 454.25 27.31 450.25 29.04 446.25 18.7 442.26 32.02 438.26 23.35 434.27 32.5 430.27 29.1 426.28 31.88 422.28 30.29 418.29 29.5 414.29 18.13 410.29 31.67 406.29 31.05 402.29 32.5 398.29 21.12 394.3 31.25 390.3 29.18 386.3 22.69 382.31 27.49 378.31 25.34 374.31 27.26 370.32 25.95 366.32 23.58 362.32 27.75 358.32 25.23 354.32 20.02 350.32 22.41 346.32 21.69 342.33 26.19 338.33 26.59 334.33 27.69 330.34 31.84 326.34 29.98 322.34 28.24 318.34 18.92 314.34 20.54 310.34 31.41 306.34 19.61 302.35 22.26 298.35 24.21 294.35 18.28 290.35 24.19 286.35 30.62 282.35 26.67 278.35 30.11 274.35 18.22 270.36 28.92 266.36 29.4 262.36 22.72 258.36 19.68 254.36 20.17 250.36 21.43 246.36 26.05 242.36 19.16 238.36 28.9 234.36 29.46 230.36 31.5 226.36 25.22 222.36 21.88 218.36 24.37 214.36 22.8 210.36 18.81 206.36 31.31 202.36 26.52 198.36 27.7 194.36 30.34 190.36 23.41 186.37 24.32 182.37 30.98 178.38 31.21 174.38 18.26 170.38 18.91 166.38 23.2 162.38 29.81 158.38 18.42 154.39 30.06 150.39 25.74 146.39 19.6 142.39 31.6 138.39 23.32 134.39 28.12 130.4 22.34 126.39 24.39 122.39 19.78 118.39 31.21 114.39 21.05 110.39 18.75 106.39 25.18 102.39 29.51 98.39 25.81 94.39 21.24 90.39 24.8 86.38 22.87 82.38 22.88 78.38 26.02 74.38 19.21 70.37 23.4 66.37 20.79 62.37 31.66 58.37 23.91 54.37 30.31 50.37 32.12 46.36 18.74 42.36 22.33 38.36 26.5 34.35 28.24 30.35 19.31 26.34 30.78 22.34 28.61 18.33 29.14 14.33 19.42 10.31 29.54 7.38 24.11 4.23 21.71 0 18.11 10.24 14.52 1.5 10.91 5.78 6.73 10.3 12.81 14.29 1.98 18.29 5.03 22.28 10.34 26.27 4.47 30.27 7.62 34.27 9.1 38.26 8.43 42.26 12.84 46.25 4.09 50.24 2.98 54.24 10.38 58.23 5.52 62.23 6.59 66.22 7.36 70.21 0.88 74.21 1.33 78.2 2.42 82.19 13.36 86.19 8.72 90.18 7.08 94.17 3.38 98.16 10.33 102.16 7.51 106.15 14.61 110.14 7.96 114.13 5.76 118.12 8.02 122.11 0.7 126.11 8.65 130.1 5.53 134.09 3.43 138.08 12.02 142.07 11.02 146.06 3.62 150.05 9.69 154.04 13.14 158.04 8.87 162.03 8.47 166.02 9.34 170.01 6.12 174 14.22 177.99 8.09 181.99 11.55 185.98 11.44 189.97 13.15 193.96 3.94 197.95 7.4 201.94 7.25 205.94 4.91 209.93 1 213.92 3.64 217.91 4.63 221.91 10.02 225.9 10.58 229.9 2.29 233.89 3.06 237.88 13.87 241.88 12.1 245.87 6.29 249.87 3.9 253.86 10.51 257.86 3.82 261.85 6.89 265.85 2.3 269.85 10.54 273.84 0.68 277.84 3.45 281.83 3.1 285.82 1.26 289.82 6.13 293.81 11.46 297.81 10.66 301.8 2.22 305.8 7.39 309.79 6.49 313.78 8.66 317.77 13.39 321.77 6.3 325.76 9.75 329.75 12.09 333.75 13.72 337.74 2.76 341.73 13.24 345.72 1.73 349.71 13.06 353.71 1.9 357.7 8.62 361.69 14.48 365.68 6.53 369.68 5.93 373.67 9.34 377.66 8.59 381.65 10.79 385.65 3.13 389.64 6.36 393.63 12.57 397.62 1.81 401.62 3.05 405.61 11.81 409.6 0.22 413.6 7.15 417.59 12.79 421.58 13.31 425.58 0.6 429.57 10.57 433.57 3.47 437.56 7.89 441.56 3.19 445.55 10.24 449.55 11.69 453.55 11.86 457.54 5.04 461.54 6.01 465.53 13.31 469.53 9.66 473.52 10.27 477.52 7.05 481.51 8.53 485.51 2.76 489.5 5.3 493.5 11.67 497.49 14.45 501.48 3.9 505.48 14.11 509.47 6.66 513.46 6.92 517.46 5.54 521.45 6.97 525.44 11.35 529.44 7.93 533.43 3.02 537.42 2.35 541.42 7.98 545.41 7.42 549.4 12.98 553.39 2.91 557.39 4.13 561.38 3.99 565.38 5.97 569.37 2.42 573.36 9.84 577.36 0.37 581.35 2.5 585.35 13.41 589.34 13.59 593.34 2.97 597.33 1.39 601.33 14.09 605.32 4.45 609.32 8.32 613.32 4.6 617.31 14.24 621.31 6.79 625.3 11.06 629.3 13.04 633.29 6.48 637.29 13.23 641.28 1.64 645.28 7.68 649.27 2.49 653.27 2.74 657.26 2.86 661.26 11.05 665.25 8.75 669.24 3.11 673.24 10.84 677.23 8.07 681.22 9.19 685.22 2.42 689.21 6.95 693.21 12.53 697.2 0.41 701.19 6.83 705.19 9.12 709.18 14.08 713.18 14.45 717.17 5.31 721.17 5.92 725.16 3.79 729.16 13.1 733.15 6.22 737.15 6.21 741.15 4.17 745.14 0.49 749.14 9.34 753.14 3.66 757.13 7.9 761.13 2.52 765.12 4.71 769.12 0.85 773.11 0.86 777.11 10.14 781.1 8.95 785.1 9.86 789.09 3.26 793.09 5.31 797.08 9.82 801.07 12.14 805.07 10.44 809.06 5.07 813.06 6.12 817.05 0.68 821.05 2.14 825.04 7.32 829.04 13.8 833.03 13.57 837.03 5.05 841.02 8.83 845.02 4.73 849.01 2.59 853.01 9.69 857.01 8.62 861 1.86 865 4.86 869 5.76 872.99 5.5 876.99 3.22 880.98 5.17 884.98 10.61 888.97 5.72 892.97 2.63 896.96 1.13 900.96 2.09 904.95 5.54 908.95 0 912.94 11.87 916.94 12.69 920.93 8.73 924.93 4.51 928.92 12.83 932.92 2.08 936.91 14.29 940.91 11.78 944.91 8.02 948.9 0.39 952.9 5.26 956.9 2.43 960.9 1.81 964.89 6.91 968.89 5.94 972.88 1.85 976.88 7.86 980.87 4.14 984.87 3.33 988.86 13.47 992.86 4.63 996.86 13.17 1000.85 5.93 1004.85 12.34 1008.84 4.16 1012.84 6.09 1016.83 6.22 1020.83 2.34 1024.83 11.45 1028.82 13.25 1032.82 2.46 1036.82 0.58 1040.81 11.61 1044.81 5.76 1048.81 7.67 1052.8 10.89 1056.8 12.11 1060.79 8.63 1064.79 10.55 1068.78 11.83 1072.78 12.71 1076.78 10.35 1080.77 7.14 1084.77 6.42 1088.76 3.7 1092.76 6.58 1096.76 9.22 1100.75 11.95 1104.75 12.28 1108.75 8.46 1112.74 1.27 1116.74 7.57 1120.74 3.57 1124.73 0.35 1128.73 1.88 1132.72 12.33 1136.71 9 1140.71 0.86 1144.7 10.29 1148.69 2.4 1152.68 9.06 1156.67 6.33 1160.66 8.7 1164.65 1.84 1168.64 2.13 1172.63 14.61 1176.63 6.9 1180.62 11.79 1184.61 6.89 1188.6 11.17 1192.59 5.65 1196.59 9.23 1200.58 3.57 1204.57 12.58 1208.57 12.54 1212.57 3.9 1216.56 2.72 1220.56 5.25 1224.56 1.41 1228.56 2.04 1232.55 11.41 1236.55 6.78 1240.54 7.91 1244.54 12.7 1248.53 12.14 1252.52 14.31 1256.52 2.18 1260.51 4.11 1264.5 3.65 1268.49 8.32 1272.49 10.83 1276.48 4.58 1280.47 13.05 1284.47 11.68 1288.46 11.37 1292.45 5.5 1296.45 10.96 1300.44 4.75 1304.44 12.53 1308.44 7.94 1312.44 6.49 1316.44 5 1320.43 5.43 1324.43 2.85 1328.43 3.87 1332.42 9.22 1336.42 7.71 1340.41 5.6 1344.4 9.45 1348.4 3.62 1352.39 3.41 1356.39 8.55 1360.38 5.92 1364.38 4.81 1368.37 0.63 1372.37 1.79 1376.37 9.11 1380.36 13.38 1384.36 9.69 1388.36 13.87 1392.36 6.56 1396.36 4.67 1400.35 2.13 1404.35 13.87 1408.34 10.8 1412.34 0.37 1416.33 6.32 1420.33 9.14 1424.33 11.87 1428.32 7.38 1432.32 2.67 1436.32 3.32 1440.32 3.22 1444.32 14.4 1448.31 9.77 1452.31 2.1 1456.31 12.53 1460.31 9.31 1464.3 9.69 1468.3 10.77 1472.29 2.76 1476.29 1.94 1480.29 0.72 1484.29 4.93 1488.29 1.49 1492.29 0.44 1496.28 2.35 1500.28 9.84 1504.28 0.35 1508.28 14.24 1512.27 6.57 1516.27 4.83 1520.27 11.84 1524.27 2.39 1528.27 9.29 1532.27 9.09 1536.27 2.08 1540.26 1.85 1544.26 12.83 1548.26 6.21 1552.26 13.07 1556.26 1.8 1560.25 0.9 1564.25 5.09 1568.25 1.8 1572.25 4.35 1576.25 12.55 1580.25 12.25 1584.25 4.1 1588.25 14.1 1592.25 7.5 1596.25 7.16 1600.25 3.33 1604.24 0.03 1608.24 2.29 1612.24 4.62 1616.24 8.89 1620.24 13.17 1624.24 7.92 1628.24 1.5 1632.24 4.12 1636.24 3.71 1640.24 13.14 1644.24 9.64 1648.24 3.92 1652.24 6.16 1656.24 14.65 1660.24 1.65 1664.24 13.79 1668.23 0.97 1672.23 0.09 1676.22 0.74 1680.22 13.14 1684.22 3.6 1688.22 2.78 1692.22 8.94 1696.21 4.65 1700.21 12.9 1704.21 1.69 1708.21 5.04 1712.21 2.34 1716.21 2.29 1720.21 6.23 1724.21 0.47 1728.21 0.16 1732.21 11.91 1736.21 11.09 1740.21 2.22 1744.21 14.49 1748.21 10.57 1752.22 13.61 1756.22 3.49 1760.22 7.01 1764.22 12.25 1768.22 14.35 1772.23 12.65 1776.23 1.72 1780.23 12.85 1784.23 1.94 1788.24 6.21 1792.23 11.7 1796.24 11.55 1800.24 4.85 1804.24 7.3 1808.24 1.01 1812.25 5.85 1816.25 5.25 1820.26 13.79 1824.26 11.91 1828.27 4.11 1832.27 3.26 1836.28 6.9 1840.29 6.61 1846.78 4.55 1839.26 10.9 1837.31 14.5 1842.29 18.1 1844.54 21.62 1848.66 30.14" fill="#fff"/></svg>