<svg id="ab634ee8-b6f6-4728-9dee-2d7b4bdd6a05" data-name="Capa 1" xmlns="http://www.w3.org/2000/svg" viewBox="0 0 907.72 188.59"><polygon points="888.9 165.41 886.49 172.39 879.31 153.08 872.13 168.31 864.95 153.62 857.77 174.9 850.6 160.12 843.41 185.53 836.24 167.17 829.06 171.81 821.88 177.26 814.7 187.44 807.52 171.95 800.34 179.93 793.16 166.24 785.98 181.54 778.8 177.07 771.62 153.31 764.45 187.1 757.27 181.67 750.09 154.93 742.91 164.19 735.73 185.85 728.55 160.91 721.37 173.26 714.2 176.24 707.02 181.06 699.85 177.46 692.67 155.83 685.5 155.53 678.33 171.5 671.15 166.71 663.97 179.41 656.79 161.42 649.61 155.96 642.43 171.28 635.25 165.05 628.08 181.81 620.9 182.83 613.73 186.9 606.55 186.73 599.38 160.61 592.2 154.81 585.02 185.62 577.84 185.2 570.66 157.22 563.48 182.55 556.3 160 549.13 169.99 541.95 174.89 534.77 161.19 527.59 154.14 520.41 152.97 513.23 158.28 506.05 169.58 498.87 160.21 491.7 160.49 484.52 152.63 477.34 155.87 470.16 161.61 462.98 163.21 455.8 178.79 448.62 158.96 441.44 166.55 434.26 165.67 427.08 167 419.9 160.12 412.72 162.65 405.54 154.24 398.36 169.31 391.18 183.59 384 186.74 376.82 180.81 369.64 177.38 362.46 160.9 355.27 160.31 348.09 175.7 340.91 186.22 333.73 177.79 326.55 175.16 319.37 187.47 312.19 180.65 305.01 162.97 297.82 178.9 290.64 152.75 283.46 159.78 276.28 163.03 269.1 165.53 261.91 173.92 254.73 156.52 247.55 157.84 240.37 170.97 233.19 162.65 226 157.01 218.82 175.22 211.65 162.62 204.47 177.4 197.28 157.52 190.1 184.69 182.93 174.11 175.74 172.69 168.56 158.46 161.38 178.92 154.2 178.54 147.01 173.13 139.83 157.96 132.65 167.85 125.47 156.62 118.28 185.39 111.09 154.71 103.91 178.63 96.72 168.23 89.54 160.44 82.35 152.67 75.17 161.74 67.98 183.06 60.8 160.32 53.62 177.18 46.43 176.71 39.24 179.68 32.05 165.57 24.86 154.94 23.4 164.43 24.2 162.89 19.64 155.66 29.72 148.42 34.47 141.19 29.8 133.95 26.4 126.72 24.02 119.48 3.6 112.24 19.43 105 6.76 97.77 7.57 90.53 14.46 83.29 13.38 76.05 3.66 68.82 17.17 61.58 34.33 54.34 2.08 47.1 22.5 39.86 17.23 32.62 23.16 25.38 18.36 18.82 24.84 31.59 32.02 17.77 39.2 20.94 46.38 23.32 53.56 27.3 60.74 29.5 67.92 14.21 75.1 34.23 82.28 34.04 89.45 10.94 96.63 4.22 103.81 19.56 110.99 15.34 118.17 33.63 125.35 33.81 132.53 13.87 139.71 21.97 146.89 14.38 154.07 34.56 161.25 8.95 168.43 34.14 175.6 17.99 182.78 29 189.96 18.17 197.14 27.37 204.31 17.33 211.49 17.14 218.66 33.54 225.83 2.44 233.01 11.96 240.18 14.83 247.36 31.91 254.54 17.64 261.72 22.46 268.9 28.27 276.08 29.31 283.25 34.12 290.43 20.51 297.61 11.75 304.78 24.61 311.96 32.87 319.13 12.9 326.31 13.46 333.5 6.66 340.68 3.88 347.85 24.06 355.03 30.66 362.21 6.22 369.38 20.9 376.56 20 383.74 24.47 390.92 16.41 398.1 2.09 405.28 9.01 412.46 1.07 419.64 8.4 426.81 0.92 433.99 11.46 441.18 13.77 448.36 6.14 455.54 31.86 462.71 28.95 469.89 27.76 477.07 26.32 484.25 29.88 491.43 20.48 498.61 27.73 505.79 22.66 512.97 34.65 520.15 16.13 527.34 29.78 534.51 26.18 541.7 6.95 548.88 25.11 556.06 27.39 563.24 24.65 570.42 34.14 577.6 9.13 584.78 23.44 591.97 18.47 599.14 16.64 606.33 33.52 613.51 2.83 620.69 6.22 627.87 12.88 635.05 25.71 642.24 32.87 649.42 21.69 656.6 19.3 663.78 24.8 670.97 30.44 678.15 11.02 685.33 12.36 692.51 1.28 699.69 13.84 706.87 21.69 714.05 10.37 721.23 25.39 728.41 28.11 735.59 1.81 742.77 0.93 749.96 3.47 757.14 0.86 764.32 31.74 771.5 17.44 778.69 6.07 785.87 14.02 793.05 5.96 800.24 35.16 807.42 21.7 814.61 22.17 821.79 8.1 828.98 5.44 836.16 19.78 843.35 28.25 850.53 11.27 857.72 13.89 864.9 32.76 872.09 27.93 879.28 6.5 886.47 5.15 892.56 19.23 879.39 25.37 879.17 32.6 905.75 39.84 884.83 47.07 905.15 54.31 893.02 61.54 902.23 68.78 888.46 76.02 879.08 83.25 877.65 90.49 880.87 97.73 881.91 104.97 902.07 112.2 896.32 119.44 888.16 126.68 884.7 133.92 905.85 141.16 889.69 148.4 884.89 155.64 896.79 164.41 888.9 165.41" fill="#fff"/><polygon points="888.9 165.41 886.49 172.39 879.31 153.08 872.13 168.31 864.95 153.62 857.77 174.9 850.6 160.12 843.41 185.53 836.24 167.17 829.06 171.81 821.88 177.26 814.7 187.44 807.52 171.95 800.34 179.93 793.16 166.24 785.98 181.54 778.8 177.07 771.62 153.31 764.45 187.1 757.27 181.67 750.09 154.93 742.91 164.19 735.73 185.85 728.55 160.91 721.37 173.26 714.2 176.24 707.02 181.06 699.85 177.46 692.67 155.83 685.5 155.53 678.33 171.5 671.15 166.71 663.97 179.41 656.79 161.42 649.61 155.96 642.43 171.28 635.25 165.05 628.08 181.81 620.9 182.83 613.73 186.9 606.55 186.73 599.38 160.61 592.2 154.81 585.02 185.62 577.84 185.2 570.66 157.22 563.48 182.55 556.3 160 549.13 169.99 541.95 174.89 534.77 161.19 527.59 154.14 520.41 152.97 513.23 158.28 506.05 169.58 498.87 160.21 491.7 160.49 484.52 152.63 477.34 155.87 470.16 161.61 462.98 163.21 455.8 178.79 448.62 158.96 441.44 166.55 434.26 165.67 427.08 167 419.9 160.12 412.72 162.65 405.54 154.24 398.36 169.31 391.18 183.59 384 186.74 376.82 180.81 369.64 177.38 362.46 160.9 355.27 160.31 348.09 175.7 340.91 186.22 333.73 177.79 326.55 175.16 319.37 187.47 312.19 180.65 305.01 162.97 297.82 178.9 290.64 152.75 283.46 159.78 276.28 163.03 269.1 165.53 261.91 173.92 254.73 156.52 247.55 157.84 240.37 170.97 233.19 162.65 226 157.01 218.82 175.22 211.65 162.62 204.47 177.4 197.28 157.52 190.1 184.69 182.93 174.11 175.74 172.69 168.56 158.46 161.38 178.92 154.2 178.54 147.01 173.13 139.83 157.96 132.65 167.85 125.47 156.62 118.28 185.39 111.09 154.71 103.91 178.63 96.72 168.23 89.54 160.44 82.35 152.67 75.17 161.74 67.98 183.06 60.8 160.32 53.62 177.18 46.43 176.71 39.24 179.68 32.05 165.57 24.86 154.94 23.4 164.43 24.2 162.89 19.64 155.66 29.72 148.42 34.47 141.19 29.8 133.95 26.4 126.72 24.02 119.48 3.6 112.24 19.43 105 6.76 97.77 7.57 90.53 14.46 83.29 13.38 76.05 3.66 68.82 17.17 61.58 34.33 54.34 2.08 47.1 22.5 39.86 17.23 32.62 23.16 25.38 18.36 18.82 24.84 31.59 32.02 17.77 39.2 20.94 46.38 23.32 53.56 27.3 60.74 29.5 67.92 14.21 75.1 34.23 82.28 34.04 89.45 10.94 96.63 4.22 103.81 19.56 110.99 15.34 118.17 33.63 125.35 33.81 132.53 13.87 139.71 21.97 146.89 14.38 154.07 34.56 161.25 8.95 168.43 34.14 175.6 17.99 182.78 29 189.96 18.17 197.14 27.37 204.31 17.33 211.49 17.14 218.66 33.54 225.83 2.44 233.01 11.96 240.18 14.83 247.36 31.91 254.54 17.64 261.72 22.46 268.9 28.27 276.08 29.31 283.25 34.12 290.43 20.51 297.61 11.75 304.78 24.61 311.96 32.87 319.13 12.9 326.31 13.46 333.5 6.66 340.68 3.88 347.85 24.06 355.03 30.66 362.21 6.22 369.38 20.9 376.56 20 383.74 24.47 390.92 16.41 398.1 2.09 405.28 9.01 412.46 1.07 419.64 8.4 426.81 0.92 433.99 11.46 441.18 13.77 448.36 6.14 455.54 31.86 462.71 28.95 469.89 27.76 477.07 26.32 484.25 29.88 491.43 20.48 498.61 27.73 505.79 22.66 512.97 34.65 520.15 16.13 527.34 29.78 534.51 26.18 541.7 6.95 548.88 25.11 556.06 27.39 563.24 24.65 570.42 34.14 577.6 9.13 584.78 23.44 591.97 18.47 599.14 16.64 606.33 33.52 613.51 2.83 620.69 6.22 627.87 12.88 635.05 25.71 642.24 32.87 649.42 21.69 656.6 19.3 663.78 24.8 670.97 30.44 678.15 11.02 685.33 12.36 692.51 1.28 699.69 13.84 706.87 21.69 714.05 10.37 721.23 25.39 728.41 28.11 735.59 1.81 742.77 0.93 749.96 3.47 757.14 0.86 764.32 31.74 771.5 17.44 778.69 6.07 785.87 14.02 793.05 5.96 800.24 35.16 807.42 21.7 814.61 22.17 821.79 8.1 828.98 5.44 836.16 19.78 843.35 28.25 850.53 11.27 857.72 13.89 864.9 32.76 872.09 27.93 879.28 6.5 886.47 5.15 892.56 19.23 879.39 25.37 879.17 32.6 905.75 39.84 884.83 47.07 905.15 54.31 893.02 61.54 902.23 68.78 888.46 76.02 879.08 83.25 877.65 90.49 880.87 97.73 881.91 104.97 902.07 112.2 896.32 119.44 888.16 126.68 884.7 133.92 905.85 141.16 889.69 148.4 884.89 155.64 896.79 164.41 888.9 165.41" fill="none" stroke="#fff" stroke-miterlimit="10" stroke-width="1.16"/></svg>