<svg id="aa3db5d1-5526-473c-9ef7-67bc8609496c" data-name="Capa 1" xmlns="http://www.w3.org/2000/svg" viewBox="0 0 96.79 97.74"><path d="M505.93,571l.3.24c.39-.25.79-.48,1.17-.76,6.51-4.72,13-9.43,19.5-14.22a2.16,2.16,0,0,1,3.07,0c6.42,4.75,12.9,9.42,19.37,14.11.42.31.89.57,1.63,1-.18-.71-.23-1-.32-1.27-2.54-7.82-5-15.65-7.66-23.44a2.08,2.08,0,0,1,.92-2.8c6.45-4.61,12.85-9.3,19.25-14,.48-.35.92-.76,1.38-1.13a5,5,0,0,0-2.11-.35c-7.87,0-15.74,0-23.62,0a2,2,0,0,1-2.25-1.65c-1.93-6.15-3.95-12.28-5.94-18.4-.65-2-1.32-4-2.13-6.41-.37.87-.55,1.22-.67,1.59-2.5,7.64-5.06,15.27-7.45,22.95-.49,1.59-1.25,1.94-2.77,1.93-7.81-.07-15.62,0-23.44,0-.6,0-1.2.06-2.16.11.65.56.95.84,1.28,1.08,6.45,4.71,12.89,9.44,19.39,14.08,1.25.89,1.7,1.63,1.1,3.19-1,2.69-1.84,5.49-2.73,8.25Q508.48,563,505.93,571Z" transform="translate(-479.65 -492.43)" fill="#fff" stroke="#fff" stroke-miterlimit="10"/><path d="M505.93,571q2.55-7.9,5.11-15.82c.89-2.76,1.68-5.56,2.73-8.25.6-1.56.15-2.3-1.1-3.19-6.5-4.64-12.94-9.37-19.39-14.08-.33-.24-.63-.52-1.28-1.08,1,0,1.56-.11,2.16-.11,7.82,0,15.63,0,23.44,0,1.52,0,2.28-.34,2.77-1.93,2.39-7.68,5-15.31,7.45-22.95.12-.37.3-.72.67-1.59.81,2.45,1.48,4.42,2.13,6.41,2,6.12,4,12.25,5.94,18.4a2,2,0,0,0,2.25,1.65c7.88-.06,15.75,0,23.62,0a5,5,0,0,1,2.11.35c-.46.37-.9.78-1.38,1.13-6.4,4.66-12.8,9.35-19.25,14a2.08,2.08,0,0,0-.92,2.8c2.61,7.79,5.12,15.62,7.66,23.44.09.27.14.56.32,1.27-.74-.46-1.21-.72-1.63-1-6.47-4.69-13-9.36-19.37-14.11a2.16,2.16,0,0,0-3.07,0c-6.46,4.79-13,9.5-19.5,14.22-.38.28-.78.51-1.17.76Z" transform="translate(-479.65 -492.43)" fill="#fff" stroke="#fff" stroke-miterlimit="10"/><g opacity="0.99"><polyline points="48.13 4.6 48.84 5.19 49.57 4.7 50.33 3.91 51.08 3.62 51.75 4.49 52.5 4.21 53.08 5.56 53.82 5.42 54.6 4.97 55.37 4.74 56.01 5.28 56.81 4.94 57.63 4.58 58.28 5.01 59 5.16 59.76 5.13 60.04 6.86 61.13 5.66 61.48 7.01 62.24 6.98 63.03 6.89 63.72 7.12 64.4 7.36 65.02 7.75 65.81 7.74 66.5 7.99 66.92 8.81 67.79 8.66 68.09 9.67 69.15 9.19 69.52 10.03 69.83 10.94 71.33 9.79 71.5 10.93 71.71 11.95 72.39 12.2 72.92 12.69 73.41 13.23 74.18 13.37 75.15 13.27 75.39 14.15 76.11 14.38 76.44 15.11 77.4 15.09 77.84 15.68 78.31 16.24 78.39 17.21 79.28 17.3 79.85 17.75 80.54 18.08 81.21 18.44 81.94 18.76 82.06 19.63 82.81 19.94 83.5 20.32 83.32 21.4 84.22 21.62 84.04 22.67 84.5 23.22 85.51 23.39 84.78 24.77 85.9 24.88 86.4 25.42 87.05 25.87 87.83 26.25 87.24 27.43 87.11 28.32 88.25 28.53 89.2 28.86 88.8 29.87 88.91 30.62 89.06 31.34 89.79 31.81 90.13 32.45 89.98 33.29 90.27 33.95 90.79 34.53 90.19 35.49 91.36 35.87 92.21 36.37 90.79 37.53 91.7 38.02 92.35 38.61 91.66 39.52 92.09 40.16 93.11 40.69 92.19 41.6 93.44 42.12 91.91 43.09 92.87 43.68 93.67 44.32 93.64 45.06 92.75 45.86 92.85 46.58 93.81 47.25 92.95 48.01 92.97 48.73 93.54 49.45 92.64 50.17 93.72 50.92 92.34 51.59 93.81 52.39 92.74 53.04 92.97 53.78 93.13 54.53 92.28 55.15 93.63 56.07 92.72 56.67 91.97 57.27 91.99 58 91.41 58.61 91.72 59.41 91.73 60.15 90.96 60.69 91.44 61.56 92.17 62.53 90.75 62.86 90.95 63.68 90.32 64.22 89.59 64.72 89.44 65.42 89.48 66.2 88.99 66.77 89.34 67.71 89.62 68.63 88.22 68.77 87.84 69.38 88.79 70.68 87.62 70.88 87.28 71.51 87.8 72.65 87.37 73.25 86.77 73.75 86 74.12 85.31 74.52 84.61 74.92 84.68 75.84 84.06 76.28 83.58 76.82 83.99 78.07 83.38 78.51 82.27 78.53 82.01 79.26 81.94 80.17 81.22 80.5 79.85 80.18 80.61 81.95 80.05 82.43 79.4 82.81 77.89 82.23 77.47 82.83 77.77 84.28 76.85 84.32 76.78 85.39 75.59 85.06 75.61 86.29 74.8 86.42 74.21 86.85 72.85 86.15 72.78 87.34 72.04 87.52 71.07 87.3 70.74 88.15 70.58 89.32 69.37 88.64 69.39 90.21 68.55 90.17 67.87 90.45 67.01 90.32 66.63 91.24 65.37 90.15 64.84 90.74 64.34 91.42 63.77 91.94 62.8 91.38 62.24 91.95 61.49 91.96 60.94 92.61 60.47 93.62 59.74 93.72 58.83 93.08 58.32 94.08 57.27 92.67 56.9 94.45 55.96 93.36 55.37 94.2 54.65 94.27 53.85 93.75 53.26 94.96 52.53 95 51.82 95.28 51.03 94.6 50.33 95.01 49.58 94.38 48.86 94.53 48.13 93.72 47.4 95.07 46.69 94.45 45.96 94.45 45.23 94.66 44.48 94.81 43.77 94.66 43 94.95 42.34 94.35 41.63 94.2 41.03 93.31 40.16 94.14 39.44 94.03 38.83 93.42 38.29 92.56 37.57 92.5 36.9 92.26 35.88 93.27 35.42 92.26 34.48 92.87 33.78 92.64 33.02 92.61 32.56 91.75 31.77 91.79 30.89 92.02 30.55 90.94 30.19 89.96 29.45 89.88 28.58 90.02 27.59 90.38 26.98 89.96 26.3 89.69 25.87 88.96 25.27 88.54 25 87.58 24.3 87.35 23.55 87.19 22.84 86.96 22.43 86.27 22.15 85.44 21.62 84.96 20.84 84.81 20.51 84.08 19.19 84.55 18.39 84.37 18.13 83.56 17.66 82.99 17.22 82.39 16.84 81.75 16.76 80.81 15.9 80.66 15.89 79.68 15.41 79.16 14.68 78.85 14.17 78.35 12.8 78.56 13.15 77.34 12.63 76.84 11.4 76.86 11.36 75.98 10.66 75.58 11.3 74.27 9.68 74.48 10.37 73.18 9.66 72.77 9.65 71.94 8.99 71.49 7.94 71.24 8.83 69.95 8.11 69.52 6.87 69.32 7.78 68.09 7.36 67.5 7.25 66.77 6.57 66.28 5.74 65.83 6.18 64.89 5.65 64.32 5.03 63.77 4.73 63.1 4.57 62.38 4.87 61.54 4.84 60.81 4.71 60.1 3.95 59.54 4.73 58.63 3.02 58.24 3.13 57.48 4.09 56.58 2.79 56.04 2.83 55.3 4.05 54.43 3.35 53.78 2.33 53.14 2.58 52.38 2.96 51.63 2.34 50.93 2.62 50.19 3.9 49.45 3.28 48.73 3.27 48.01 3.5 47.3 3.23 46.57 2.84 45.81 3.67 45.16 3.79 44.45 2.66 43.59 3.11 42.91 4.35 42.37 4.31 41.64 3.09 40.67 4.45 40.21 4.92 39.58 5.22 38.93 5.29 38.21 4.18 37.16 4.74 36.57 5.3 35.98 5.81 35.39 5.72 34.61 6.11 33.98 5.27 32.89 6.92 32.76 7.23 32.12 7.29 31.36 6.53 30.23 6.78 29.53 8.27 29.45 8.74 28.89 7.99 27.67 9.55 27.72 9.91 27.11 9.58 26.07 9.46 25.14 9.88 24.54 10.36 23.98 11.7 24.03 11.88 23.28 11.98 22.46 12.06 21.61 12.34 20.9 13.51 20.91 13.66 20.09 14.82 20.15 14.71 19.09 14.86 18.24 15.75 18.08 16.2 17.5 17.29 17.59 16.71 15.94 17.34 15.53 18.1 15.29 18.56 14.7 18.9 13.97 20.43 14.71 21.09 14.39 21.3 13.49 21.83 12.99 22.62 12.87 22.66 11.65 23.13 11.03 24.02 11.07 24.93 11.18 25.14 10.11 25.86 9.9 26.77 10.05 27.64 10.17 27.82 8.95 28.67 9.03 29.25 8.58 29.6 7.59 30.51 7.87 31.34 7.96 31.84 7.28 32.7 7.51 33.24 6.9 33.82 6.34 34.75 6.89 35.32 6.3 36.07 6.32 36.71 5.89 37.29 5.23 38.17 5.82 38.91 5.86 39.49 5.12 40.09 4.33 40.8 4.13 41.78 5.75 42.47 5.59 43.16 5.37 43.71 3.72 44.58 5.3 45.22 4.16 45.93 3.73 46.68 4.26 47.41 4.92 48.13 4.72" fill="none" stroke="#fff" stroke-miterlimit="10" stroke-width="3"/></g><line x1="86.32" y1="22.17" x2="13.77" y2="74.49" fill="#fff" stroke="#fff" stroke-width="7"/></svg>