<svg id="a15dc337-459a-443c-ac47-245da9b693a3" data-name="Capa 1" xmlns="http://www.w3.org/2000/svg" viewBox="0 0 361.69 320.27"><path d="M927.94,593.21c.22-3.51.46-5.6.46-7.7q0-62.24,0-124.48c0-14.8,10.3-25.23,24.5-25.17,12.39.06,23,10.42,23,22.83q.1,63.48,0,127v7.66c2.71-2.26,4.28-3.38,5.62-4.72,11.1-11,22-22.21,33.25-33.12,13.21-12.86,31.7-9.46,39.61,7.09,3.91,8.18,1.14,19.73-6.86,27.79-12.08,12.15-24.25,24.21-36.37,36.32q-19.05,19.06-38.1,38.12c-5.34,5.32-10.8,10.17-19.13,10.49-8.12.31-14.39-2.6-20-8.25-18.17-18.36-36.5-36.55-54.74-54.83-8.36-8.37-16.95-16.53-24.89-25.28-6.9-7.6-8.12-16.66-3.34-25.92,4.6-8.93,12.33-13.47,22.3-13.25,6.51.15,12.08,3.14,16.74,7.85,11.12,11.24,22.36,22.37,33.55,33.54C924.69,590.19,925.78,591.17,927.94,593.21Z" transform="translate(-694.54 -355.05)" fill="#ccc"/><path d="M854.35,355.05q68,0,136,0c11.25,0,20.46,7.09,23.16,17.62a23.56,23.56,0,0,1-12.17,27,28.44,28.44,0,0,1-12,2.8q-135.25.23-270.49.09c-11.38,0-22-8.43-23.75-18.4-2.2-12.8,3.65-23.73,15.39-28,2.87-1,6.22-1,9.35-1Q787.11,355,854.35,355.05Z" transform="translate(-694.54 -355.05)" fill="#ccc"/><path d="M771.13,530.56c-19.1,0-38.21-.18-57.31.07-9.33.13-19.38-10.93-19.28-24.21.1-12.62,9.77-23.78,19.24-23.74,38.2.2,76.41.07,114.62.09,11.17,0,20,10.54,20,23.85s-8.84,23.91-19.93,23.93Q799.79,530.6,771.13,530.56Z" transform="translate(-694.54 -355.05)" fill="#ccc"/><path d="M751.39,658.26c-13.26,0-26.53,0-39.79,0-9.63,0-16.42-9.81-16.9-23s7.45-24.43,16.7-24.48q40-.21,79.93,0c8.51.05,15.55,9.07,16.89,20.94,1.17,10.4-4.4,22.42-12.13,25.78a13.25,13.25,0,0,1-5.27.7C777.68,658.29,764.53,658.26,751.39,658.26Z" transform="translate(-694.54 -355.05)" fill="#ccc"/></svg>