<svg id="bda2071f-90b8-469d-936f-58cfc8324169" data-name="Capa 1" xmlns="http://www.w3.org/2000/svg" viewBox="0 0 1278.03 198.61"><path d="M247,153.1q-4.47,0-6.31-1.85t-1.7-5.86V56.17q0-4,1.85-5.86c1.23-1.33,3.29-2,6.16-2h37.76q21.57,0,31.74,9.09t10.17,27.12q0,17.88-10.17,27-10,8.94-31.74,8.94H270.13v25q0,4-1.85,5.86c-1.24,1.23-3.34,1.85-6.32,1.85Zm35.29-55q6.31,0,9.71-3.39t3.54-10.17q0-6.93-3.54-10.32-3.39-3.39-9.71-3.39H270.13V98.08Zm80.77,57.33q-14.47,0-23.27-9.25-8.62-9.39-8.63-26.35,0-12.94,5.86-22.65a39.71,39.71,0,0,1,16.8-15,56.13,56.13,0,0,1,25.11-5.39,73.48,73.48,0,0,1,20.65,2.62,60.54,60.54,0,0,1,16.64,7.24v61.64c0,2-.35,3.23-1.08,3.85s-2.15.93-4.31.93H395.12a6,6,0,0,1-2.62-.47,4.64,4.64,0,0,1-1.54-1.85l-2-4.62a26,26,0,0,1-10.79,6.94,43.24,43.24,0,0,1-15.1,2.31Zm11.56-21q6,0,9.4-2.93t3.39-8.32v-24a17.36,17.36,0,0,0-7.4-1.38,16.47,16.47,0,0,0-13.1,5.7q-4.77,5.7-4.77,16,0,15,12.48,14.95Zm63.05,18.65q-4.47,0-6.32-1.85t-1.85-5.86V83.91c0-1.85.31-3.09.93-3.7s2.15-1.08,4.31-1.08h15.87a5.06,5.06,0,0,1,2.78.62,2.06,2.06,0,0,1,1.23,1.85l.77,4.62a29.64,29.64,0,0,1,11.25-6.78,44.93,44.93,0,0,1,15.72-2.62q12.48,0,20.18,7.09,7.71,6.93,7.71,20.65v40.83q0,4-1.85,5.86-1.7,1.84-6.17,1.85H487.3q-4.47,0-6.47-1.85c-1.24-1.24-1.85-3.19-1.85-5.86V106.56q0-4.62-2-6.63c-1.33-1.33-3.44-2-6.31-2a10.74,10.74,0,0,0-7.4,2.46,8.87,8.87,0,0,0-2.62,6.79v38.21q0,4-1.85,5.86-1.69,1.84-6.16,1.85Zm127,2.31q-21.57,0-33.28-10t-11.71-29.12a39.23,39.23,0,0,1,5.39-20.65,36,36,0,0,1,15.57-13.87Q551,76.82,565,76.82a68.37,68.37,0,0,1,17.88,2A39.49,39.49,0,0,1,596,85a3.19,3.19,0,0,1,1.69,2.77A6.8,6.8,0,0,1,596.47,91l-6.32,10.94c-.72,1.43-1.59,2.15-2.62,2.15a6.77,6.77,0,0,1-2.93-1.23A36.32,36.32,0,0,0,576.74,99a27.59,27.59,0,0,0-8.93-1.23q-7.71,0-12.48,4.93t-4.63,13.56q0,8.78,4.78,13.56,4.77,4.62,13.1,4.62a27.14,27.14,0,0,0,8.94-1.39,44.66,44.66,0,0,0,8.16-3.85,7.7,7.7,0,0,1,3.08-1.23c.93,0,1.75.72,2.47,2.16L598.16,142a5.88,5.88,0,0,1,.77,2.47c0,.92-.61,1.79-1.84,2.62a49.05,49.05,0,0,1-14.18,6.16,66.81,66.81,0,0,1-18.18,2.16Zm73.28,0q-14.47,0-23.26-9.25t-8.63-26.35q0-12.94,5.85-22.65a39.71,39.71,0,0,1,16.8-15,56.17,56.17,0,0,1,25.12-5.39,73.4,73.4,0,0,1,20.64,2.62,60.61,60.61,0,0,1,16.65,7.24v61.64c0,2-.36,3.23-1.08,3.85s-2.16.93-4.32.93H670.06a5.93,5.93,0,0,1-2.62-.47,4.56,4.56,0,0,1-1.54-1.85l-2-4.62a26,26,0,0,1-10.78,6.94A43.3,43.3,0,0,1,638,155.41Zm11.56-21q6,0,9.4-2.93t3.39-8.32v-24a17.36,17.36,0,0,0-7.4-1.38,16.44,16.44,0,0,0-13.09,5.7q-4.79,5.7-4.78,16,0,15,12.48,14.95ZM788,147.24A4.1,4.1,0,0,1,789,150a3.17,3.17,0,0,1-.92,2.32,3.76,3.76,0,0,1-2.47.77H761.77a12.9,12.9,0,0,1-3.24-.31,7.06,7.06,0,0,1-2-1.7l-21-28.5v22.8q0,4-1.85,5.86t-6.32,1.85H712.46q-4.47,0-6.32-1.85-1.7-1.86-1.7-5.86V56.17q0-4,1.85-5.85c1.24-1.34,3.29-2,6.17-2H727.4q4.47,0,6.32,2,1.85,1.84,1.85,5.85v51.62l20.34-26.5a5.2,5.2,0,0,1,2-1.7,8.62,8.62,0,0,1,3.24-.46H785a2.84,2.84,0,0,1,2.31.93,2.66,2.66,0,0,1,.92,2.15A4.13,4.13,0,0,1,787.19,85l-26.35,30.2L788,147.24Zm50,8.17a58.65,58.65,0,0,1-23.12-4.32A35.89,35.89,0,0,1,799,138.15q-5.85-8.62-5.85-21.11,0-19.58,11.09-29.9t31.9-10.32Q856.49,76.82,867,87q10.63,10,10.63,27.89,0,7.71-6.78,7.71H822.43a11.78,11.78,0,0,0,4.94,10.17q5.08,3.54,15.25,3.54a42.6,42.6,0,0,0,10.48-1.08,43.64,43.64,0,0,0,8.63-3.54,8.21,8.21,0,0,1,2.46-.77c.93,0,1.7.61,2.32,1.85l5.23,9.86a5.89,5.89,0,0,1,.78,2.31c0,.92-.62,1.8-1.85,2.62a43.88,43.88,0,0,1-14.33,6A82.22,82.22,0,0,1,838,155.41Zm11.86-48.08q0-5.85-3.39-9.09T836.3,95q-6.78,0-10.32,3.39-3.54,3.24-3.55,8.94Zm80.56,48.08a110.93,110.93,0,0,1-24.5-2.62q-11.56-2.78-18.65-7.71-2.62-1.7-2.62-3.54a4.75,4.75,0,0,1,.93-2.62l7.55-12c.82-1.23,1.64-1.85,2.46-1.85a6.45,6.45,0,0,1,2.62,1.08,56.89,56.89,0,0,0,12.95,5.24,53.72,53.72,0,0,0,14.33,2q7.23,0,10.63-2.16c2.36-1.43,3.54-3.75,3.54-6.93a8.28,8.28,0,0,0-3.85-7.24q-3.7-2.62-14-6.63-15.57-5.85-24.35-13.1-8.62-7.4-8.63-20Q888.81,62,899.75,54t29.13-8a87.27,87.27,0,0,1,21.57,2.31,42.4,42.4,0,0,1,15.41,6.78c1.74,1.34,2.62,2.57,2.62,3.7a4.62,4.62,0,0,1-.93,2.47l-7.55,12c-.92,1.23-1.74,1.84-2.46,1.84A6.45,6.45,0,0,1,954.92,74q-8.94-5.85-21.27-5.85-6.63,0-10.17,2.16c-2.36,1.43-3.54,3.8-3.54,7.08A8.2,8.2,0,0,0,921.79,83a17.36,17.36,0,0,0,4.93,3.85q3.24,1.55,9.86,4l2.93,1.08a104.55,104.55,0,0,1,17.87,8.63,27.48,27.48,0,0,1,10,10q3.39,5.85,3.39,14.79,0,13.71-10.33,21.88-10.17,8.16-30,8.17Zm73.11-2.31a6.64,6.64,0,0,1-3.54-.78,4.91,4.91,0,0,1-1.85-3.08L978.26,82.67a4.67,4.67,0,0,1-.31-1.38c0-1.44,1-2.16,3.08-2.16h20.34a4.57,4.57,0,0,1,2.93.77,3.16,3.16,0,0,1,1.23,2.16l8.32,35,10.48-28.2a6.51,6.51,0,0,1,1.54-2.47,4.89,4.89,0,0,1,3.09-.77h9.7a4.19,4.19,0,0,1,2.93.77,5.45,5.45,0,0,1,1.7,2.47l10.32,28.2,8.48-35a4.16,4.16,0,0,1,1.23-2.16,3.9,3.9,0,0,1,2.77-.77h20.5c2.05,0,3.08.72,3.08,2.16a4.67,4.67,0,0,1-.31,1.38l-20,66.57a5,5,0,0,1-1.85,3.09,5.94,5.94,0,0,1-3.39.77H1049a5.61,5.61,0,0,1-3.24-.77,7.29,7.29,0,0,1-1.85-3.09l-10.17-27.89-10.17,27.89a5.68,5.68,0,0,1-1.85,3.09,5.58,5.58,0,0,1-3.23.77Zm125.2,2.31q-14.49,0-23.27-9.25-8.62-9.39-8.63-26.35,0-12.94,5.86-22.65a39.63,39.63,0,0,1,16.79-15,56.2,56.2,0,0,1,25.12-5.39,73.48,73.48,0,0,1,20.65,2.62,60.54,60.54,0,0,1,16.64,7.24v61.64c0,2-.36,3.23-1.08,3.85s-2.15.93-4.31.93h-15.72a6,6,0,0,1-2.62-.47,4.56,4.56,0,0,1-1.54-1.85l-2-4.62a26.07,26.07,0,0,1-10.79,6.94,43.24,43.24,0,0,1-15.1,2.31Zm11.56-21q6,0,9.4-2.93t3.39-8.32v-24a17.39,17.39,0,0,0-7.4-1.38,16.46,16.46,0,0,0-13.1,5.7q-4.77,5.7-4.78,16,0,15,12.49,14.95Zm62.89,49.77c-3,0-5.08-.61-6.32-1.85s-1.69-3.18-1.69-5.85V88.22a60.72,60.72,0,0,1,17.41-8.16,73.67,73.67,0,0,1,21.88-3.24q46.55,0,46.54,39.45,0,17.87-9.86,28.5t-27.89,10.64a39,39,0,0,1-9.87-1.24,24.11,24.11,0,0,1-7.7-3.39v25.74q0,4-1.85,5.85c-1.23,1.24-3.34,1.85-6.32,1.85Zm33.44-49.62q6.63,0,9.86-4.93,3.39-5.08,3.39-13.56,0-10-4-14t-12-4.16a20.47,20.47,0,0,0-8.32,1.39v24.5q0,5.24,2.92,8t8.17,2.77Z" transform="translate(-2.97)"/><path d="M97.56,198.61c-29.2,0-52.71-7-69.14-19.61C11.79,166.26,3,148.2,3,127.75c0-19.7,8.8-33.91,18.76-43.51A82.5,82.5,0,0,1,44.14,69.12c-1.35-4.16-3-9.61-4.56-15.24-2-7.53-4-16.36-4-22.84,0-7.66,1.67-15.36,6.17-21.34C46.51,3.38,53.67,0,62.29,0A23.81,23.81,0,0,1,79.22,6.81c4.28,4.12,7.13,9.59,9.1,15.3,3.46,10,4.8,22.62,5.18,35.18h8.26c.38-12.56,1.72-25.16,5.18-35.18,2-5.71,4.81-11.18,9.09-15.3A23.85,23.85,0,0,1,133,0c8.62,0,15.78,3.38,20.54,9.7,4.51,6,6.18,13.68,6.18,21.34,0,6.48-2,15.31-4,22.84-1.52,5.63-3.21,11.08-4.56,15.24a82.5,82.5,0,0,1,22.41,15.12c10,9.6,18.76,23.81,18.76,43.51,0,20.45-8.82,38.51-25.45,51.25-16.43,12.58-39.94,19.59-69.14,19.61Z" transform="translate(-2.97)" fill="#633001" fill-rule="evenodd"/><path d="M62.29,7.29C49.67,7.29,43.85,16.8,43.85,30c0,10.46,6.76,31.41,9.53,39.57a3.67,3.67,0,0,1-2.15,4.55c-10.11,4-40,18.79-40,52.59,0,35.6,30.35,62.45,86.31,62.49h.14c56,0,86.31-26.89,86.31-62.49,0-33.8-29.87-48.56-40-52.59a3.68,3.68,0,0,1-2.14-4.55c2.77-8.16,9.53-29.11,9.53-39.57,0-13.16-5.82-22.67-18.44-22.67-18.18,0-22.71,26-23,53.92a3.38,3.38,0,0,1-3.36,3.37H88.68a3.38,3.38,0,0,1-3.36-3.37C85,33.3,80.47,7.29,62.29,7.29Z" transform="translate(-2.97)" fill="#d1884f"/><path d="M97.7,177.76c-41.12,0-86.38-22.24-86.45-51v.13c0,35.63,30.4,62.49,86.45,62.49s86.44-26.86,86.44-62.49v-.13C184.07,155.52,138.81,177.76,97.7,177.76Z" transform="translate(-2.97)" fill="#fedc90"/><path d="M74.85,117.9c0,9.71-4.55,14.78-10.15,14.78s-10.16-5.07-10.16-14.78,4.55-14.78,10.16-14.78S74.85,108.18,74.85,117.9Zm66,0c0,9.71-4.55,14.78-10.15,14.78s-10.16-5.07-10.16-14.78,4.55-14.78,10.16-14.78S140.85,108.18,140.85,117.9Z" transform="translate(-2.97)" fill="#633001"/></svg>