<svg id="a846798a-1aea-4063-9fee-918aea601c95" data-name="Capa 1" xmlns="http://www.w3.org/2000/svg" viewBox="0 0 107.71 106.44"><g opacity="0.99"><polyline points="53.3 6.37 54.02 6.92 54.75 6.79 55.43 7.79 56.2 6.85 56.85 7.88 57.65 6.98 58.31 7.61 59.02 7.7 59.7 8.06 60.47 7.72 61.34 6.92 61.93 7.74 62.49 8.63 63.36 7.99 63.91 8.8 64.8 8.23 65.45 8.6 65.98 9.33 67.03 8.39 67.75 8.54 67.92 10.28 69.04 9.3 69.26 10.74 70.16 10.41 70.8 10.75 71.74 10.4 72.28 10.99 73.07 11.02 73.62 11.55 74.29 11.83 74.98 12.08 75.45 12.73 76.14 12.98 76.51 13.78 77.48 13.59 77.42 15 78.4 14.82 79.52 14.48 80.12 14.9 80.1 16.15 81.03 16.13 80.91 17.44 81.57 17.76 82.02 18.33 83.67 17.53 83.16 19.18 84.68 18.61 84.34 20.01 85.53 19.84 85.36 21.01 85.64 21.73 86.14 22.23 86.52 22.85 88.15 22.39 88.55 23.01 88.02 24.37 89.07 24.46 89.96 24.7 89.64 25.84 90.8 25.89 91.01 26.64 91.21 27.38 91.02 28.36 91.31 29.01 92.18 29.33 91.9 30.31 93.1 30.47 92.92 31.38 94.33 31.48 94.4 32.26 94.55 32.99 94.54 33.79 95.32 34.25 94.3 35.45 94.78 36.02 95.62 36.48 95.31 37.35 95.95 37.89 95.55 38.77 96.36 39.27 96.23 40.05 97.27 40.51 96.8 41.38 97.7 41.91 98.03 42.59 96.96 43.54 98.34 44.02 97.08 44.97 97.14 45.67 98.65 46.2 98.05 47 98.26 47.7 97.97 48.45 97.47 49.21 98.94 49.85 97.62 50.62 97.86 51.33 97.66 52.05 98.57 52.77 99.12 53.52 98.9 54.24 97.49 54.89 98.79 55.71 98.16 56.38 98.16 57.11 97.47 57.75 98.29 58.59 98.34 59.34 97.38 59.91 98.38 60.83 97.06 61.31 97.03 62.04 96.21 62.58 96.62 63.42 96.88 64.24 96.55 64.89 97.02 65.8 95.55 66.08 96.28 67.09 95.45 67.57 95.33 68.29 95.3 69.06 94.69 69.6 94.42 70.26 93.44 70.6 94.53 71.92 93.25 72.09 93.33 72.94 92.2 73.16 92.92 74.38 92.85 75.18 92.2 75.64 91.9 76.32 90.37 76.19 90.32 77.02 90.69 78.15 90.56 78.95 89.42 79.02 89.67 80.13 88.1 79.81 88.42 81 88.09 81.69 86.86 81.58 86.26 82 86.04 82.77 86.26 83.98 84.86 83.63 84.43 84.21 83.9 84.69 83.01 84.78 83.6 86.53 83.03 86.99 81.94 86.82 80.97 86.76 80.37 87.15 80.16 88.05 80.04 89.12 78.98 88.88 78.12 88.89 77.8 89.71 77.1 89.95 76.41 90.18 75.67 90.34 75.67 91.79 74.57 91.29 74.21 92.15 73.1 91.55 72.98 92.94 72.15 92.87 71.82 93.89 70.91 93.63 70.02 93.36 69.45 93.87 68.98 94.67 68.23 94.72 67.65 95.27 67.02 95.7 66.07 95.06 65.27 94.88 64.69 95.5 64.17 96.38 63.25 95.64 62.77 96.82 61.87 96.04 61.35 97.2 60.44 96.2 59.84 97.08 59.1 96.98 58.37 97.03 57.63 96.94 56.97 97.67 56.19 96.97 55.47 97.18 54.77 97.98 54.01 96.55 53.3 97.04 52.58 96.76 51.88 96.3 51.1 97.74 50.44 96.43 49.71 96.65 49 96.56 48.27 96.62 47.49 97.07 46.73 97.21 46.07 96.74 45.36 96.54 44.63 96.51 43.78 97.03 43.26 96 42.56 95.82 41.97 95.23 41.02 95.97 40.64 94.67 39.61 95.58 39.31 94.14 38.2 95.19 37.93 93.8 37.34 93.35 36.35 93.89 35.53 93.96 34.96 93.45 34.07 93.64 33.97 92.17 33.12 92.26 32.55 91.81 31.72 91.83 31.28 91.12 30.39 91.22 30.01 90.44 29.2 90.37 29.06 89.27 28.36 89.02 27.18 89.46 26.5 89.17 26.17 88.37 25.92 87.51 25.42 86.99 24.47 87.01 24.4 85.98 23.48 85.95 23.36 84.99 22 85.41 21.73 84.63 21.66 83.67 21.2 83.12 19.83 83.42 20.08 82.21 19.6 81.67 18.62 81.56 19 80.29 17.56 80.54 17.82 79.41 16.97 79.15 16.71 78.44 15.72 78.25 15.43 77.56 15.06 76.93 15.68 75.68 14.8 75.38 14.03 74.99 14.72 73.77 13.09 73.85 13.84 72.63 12.3 72.61 12.81 71.54 11.76 71.24 12.07 70.29 11.1 69.92 10.73 69.28 12.04 67.98 10.58 67.77 10.88 66.89 10.7 66.19 10.59 65.47 9.76 64.97 10.59 63.99 9 63.67 9.7 62.74 9.83 61.97 8.49 61.53 9.74 60.54 8.91 59.96 8.64 59.27 9.24 58.45 9.39 57.72 7.73 57.19 8.14 56.41 8.06 55.69 7.95 54.96 9.09 54.18 7.47 53.52 8.21 52.77 7.33 52.05 8.78 51.33 7.88 50.59 8.63 49.9 8.81 49.19 8.33 48.43 7.73 47.65 9.29 47.08 8.9 46.32 7.94 45.45 9.45 44.95 8.55 44.07 9.83 43.58 9.57 42.8 9.07 41.95 9.49 41.3 9.3 40.5 10.45 40.07 10.24 39.26 9.7 38.34 10.79 37.93 11.53 37.43 11.77 36.76 10.95 35.68 10.87 34.86 12.21 34.63 12.38 33.92 12.98 33.41 12.57 32.43 12.25 31.45 13.73 31.39 13.29 30.34 13.66 29.71 15.04 29.67 14.18 28.32 15.24 28.13 15.77 27.61 15.98 26.89 15.98 26 17.39 26.12 16.92 24.89 17.82 24.66 18.55 24.32 18.35 23.24 19.42 23.19 19.33 22.16 20.33 22.09 20.32 21.11 21.5 21.25 21.82 20.56 21.97 19.68 22 18.66 22.93 18.6 24.05 18.78 23.75 17.33 24.23 16.76 25.04 16.6 25.77 16.36 26.32 15.88 26.9 15.45 27.1 14.48 27.69 14.04 29 14.71 29.07 13.47 30.12 13.81 30.19 12.51 31.05 12.54 31.8 12.39 32.12 11.45 32.93 11.42 33.93 11.82 34.16 10.63 34.83 10.32 35.83 10.81 36.49 10.54 37.02 9.92 37.54 9.24 38.41 9.51 39.23 9.68 39.51 8.18 40.37 8.48 41.26 8.98 41.71 7.88 42.43 7.74 43.09 7.35 44.04 8.27 44.62 7.52 45.4 7.74 46.13 7.73 46.78 7.25 47.48 7 48.28 7.61 49.01 7.68 49.7 7.39 50.37 6.46 51.12 6.87 51.86 7.39 52.56 6.25 53.3 6.51" fill="none" stroke="#fff" stroke-miterlimit="10" stroke-width="8"/></g><path d="M982.43,435v47.48c2,2.86-.5,4.11-3.62,4.11h-2.6c-3.12,0-5.65-1.25-5.65-2.79V436.3c0-1.53,2.53-2.78,5.65-2.78h2.6C981.93,433.52,984.46,434.77,982.43,435Z" transform="translate(-936.98 -407.23)" fill="#fff" stroke="#fff" stroke-width="0.93"/><path d="M979.13,486.15l40-23.8a4.71,4.71,0,0,0,1.64-6.32l-1-1.84a4.42,4.42,0,0,0-6.13-1.69l-40.06,23.82a4.67,4.67,0,0,0-1.61,6.35c.35.61.7,1.21,1,1.83A4.42,4.42,0,0,0,979.13,486.15Z" transform="translate(-936.98 -407.23)" fill="#fff" stroke="#fff" stroke-width="1.07"/><path d="M1018.88,460.82l.1-.05a5.22,5.22,0,0,0-.32-9.6l-38.07-16.83a6.08,6.08,0,0,0-7.81,2.53l-1.16,2.24a5.23,5.23,0,0,0,2.75,7.21l36.39,16.09a6.27,6.27,0,0,0,5.4-.21C1017.05,461.73,1018,461.27,1018.88,460.82Z" transform="translate(-936.98 -407.23)" fill="#fff" stroke="#fff" stroke-width="1.32"/></svg>