<svg id="Capa_1" data-name="Capa 1" xmlns="http://www.w3.org/2000/svg" viewBox="0 0 361.5 94.26"><defs><style>.cls-1{fill:none;stroke-linecap:round;stroke-linejoin:round;stroke-width:3.25px;}.cls-1,.cls-2{stroke:#fff;}.cls-2{fill:#fff;stroke-miterlimit:10;stroke-width:1.16px;}</style></defs><path class="cls-1" d="M554.27,738.82s-1-.55-1-.66l6.23.27c.15-.22-17.24-10.62-16.78-11.31l16.55,7.26c.76-1.13-10.16-6.86-10.16-6.86.16-.23,22.44,12.51,23,11.62l-21.33-14.39c.89-1.32,23.86,15.83,25.56,13.31,1.41-2.09-24.84-16.75-24.84-16.75l29.62,16.06s-29.44-18.66-28.89-19.48c0,0,27.53,17.89,29,15.67.77-1.13-27.29-18.4-27.29-18.4.73-1.08,35.72,22.88,37,21,0,0-47.81-25.88-44.86-30.26,1.14-1.69,47,27.8,47,27.8S543.08,704.14,545,701.25c.71-1.06,48.34,36.28,51.86,31.06,0,0-43.74-26.11-42.17-28.45,1.74-2.58,44,32.62,47.22,27.93,0,0-50.66-25.8-46.78-31.56,0,0,63.06,40,63.71,39.07l-71.74-48.39c2-3,64.47,45.69,67.31,41.48l-66.13-44.61c5-7.45,77.75,48.54,77.75,48.54,4.18-6.19-77-43.64-73.13-49.33.68-1,72.05,50.38,74.7,46.45,4.48-6.64-78-41-72.64-49,3.21-4.76,86.12,54.18,86.12,54.18s-101.45-60.18-97.63-65.85c3.57-5.3,103.13,65.64,103.13,65.64,2-2.92-103.67-69.93-103.67-69.93l103.67,66C648.33,732,542.53,672.87,546.5,667c5.8-8.59,97.67,72.44,102.52,65.25.33-.48-100.64-67.88-100.64-67.88s111.88,85.6,118.4,75.93c4.69-6.95-115-77.59-115-77.59,5.39-8,112.5,72,112.5,72,8.56-12.69-124.65-70.81-118.5-79.93,4.06-6,123.85,86.37,127,81.73,0,0-127.58-75.05-122.48-82.62,0,0,126.16,89.89,130.2,83.9,0,0-122.08-78.47-120.28-81.13,0,0,117.66,93.18,125.88,81L568.48,658.3c8.42-12.48,121.25,77.86,121.25,77.86s-117.88-77.39-116.9-78.85c0,0,118.9,82.78,121.92,78.31,4.11-6.1-119.48-80.59-119.48-80.59,1.22-1.8,130.32,89.08,132.67,85.59,6.77-10-131.39-88.63-131.39-88.63,5.06-7.5,122.77,86.39,126.24,81.25,0,0-111.38-69.62-108.82-73.41l124.39,80C726.83,727.26,596,657.31,596,657.31c5.22-7.73,118.13,75.77,118.13,75.77,3-4.45-113.44-76.52-113.44-76.52s122.57,95.8,130.47,84.08C732,739.38,606.6,661.08,608.67,658c0,0,114.29,87.89,121.11,77.77l-114.14-77s115,74.63,115.44,74c0,0-115.57-71.79-112.71-76L737.71,733.3c6.36-9.43-113.64-70.93-111-74.86,0,0,117.71,94.58,126.56,81.46C757,734.36,634.12,661.15,634.87,660c7.42-11,104.64,82.93,112.19,71.74,0,0-116-70.09-112.26-75.71,1.21-1.78,125.14,80.48,125.14,80.48,6.39-9.48-127.42-80.73-125-84.31l126.35,81.3S633.75,659,639.05,651.09c0,0,125.13,91.23,130.12,83.83,0,0-121-74.23-117.57-79.3,0,0,122.6,91.73,128.6,82.83L658,656c1.22-1.82,119.08,78.19,119.91,77,.34-.5-113-76.22-113-76.22l117.74,75.5-108-72.88c.67-1,120.7,77.5,120.7,77.5,5.29-7.84-122.41-71.38-117.22-79.06.91-1.36,125,80.37,125,80.37.4-.59-116-78.23-116-78.23l122.18,78.49c6.42-9.52-128.6-86.75-128.6-86.75s122.92,85.94,126.14,81.17c0,0-120.8-68.39-114.73-77.38,0,0,123.53,81.8,124.64,80.16,3.6-5.34-119.47-80.59-119.47-80.59s122.75,86.26,126.17,81.2c.09-.14-125.89-69.5-118.74-80.1,4.39-6.5,124.69,80.19,124.69,80.19s-124.6-79.71-122.59-82.68C712.4,645.24,828.59,732,828.59,732L719.66,658.48s117.82,84.2,121.83,78.25c0,0-120.76-78.22-119.26-80.44,8.4-12.47,120.59,77.42,120.59,77.42C850.31,722.6,732,659,732,659c6.71-9.93,118.79,76.22,118.79,76.22,6.81-10.11-113.23-76.37-113.23-76.37s121.27,90.56,127.15,81.84c1.21-1.79-136.61-76.5-129.36-87.25,7.47-11.07,123.08,79.11,123.08,79.11,1.47-2.18-119.07-72.45-115.42-77.86,7.8-11.56,126.11,91.65,131,84.43L748.13,654.19c7.22-10.7,115.31,92.52,124,79.68,0,0-114.26-69.41-110.71-74.67C766.83,651.13,877,748.53,884.05,738c0,0-123.45-76.65-120.38-81.2C770,647.4,882,745.24,887.83,736.65l-118.7-80.06,126.19,81.2c8.1-12-118.6-80-118.6-80,1.1-1.63,111.35,78.05,114.54,73.33,0,0-110.71-70.76-108.9-73.45l117.28,75.18s-122.83-75.71-119.52-80.62c0,0,101.75,81.68,109.61,70,0,0-103.64-61.61-99.8-67.32,3.64-5.38,99.56,63.24,99.56,63.24s-95.85-62.48-94.84-64c3.13-4.64,94,59.45,94,59.45,4.11-6.08-86.11-51.59-83.1-56.06,1.89-2.79,84.13,52.83,84.13,52.83l-76.08-51.32c3.68-5.47,83.38,52.34,83.38,52.34,2.54-3.76-81-54.65-81-54.65,5.65-8.37,78.57,49.08,78.57,49.08,1.44-2.13-74.11-45-71.77-48.42,2.55-3.78,70.16,44.78,70.8,43.83C897.11,696,819,660.57,823.43,654l73,45.29-60.45-40.77s62.18,40.28,63.23,38.72c2.47-3.65-64.82-43.72-64.82-43.72.11-.17,58.4,44.93,62.78,38.43,0,0-59.73-37.35-58.37-39.37,2.48-3.68,58.72,38.41,60,36.54L851,657c2.17-3.21,45.83,32.35,48.31,28.68l-41.5-28c1.72-2.54,37.5,21.38,37.5,21.38,1-1.51-39.44-24.68-38.54-26,1.86-2.77,36.88,26.88,39.63,22.81,1.41-2.1-37.73-22.22-36.23-24.44,2.14-3.17,33.94,19,33.94,19s-22.35-14.65-22.15-15c.64-.94,14.32,7.05,14.93,6.15.26-.38-13.93-9.4-13.93-9.4s18.33,9.12,18.65,8.65c.42-.62-13-7.92-12.62-8.51.6-.89,15.12,6.59,15.26,6.38s-3.82-2.58-3.82-2.58" transform="translate(-540.26 -649)"/><path class="cls-1" d="M549.47,734.8c.06-.09-.94-.57-.91-.61.25-.38-4.27-6.81-4.27-6.81l-.34-.23,11.61,3.92c0-.05-10.33-7-10.33-7,.34-.5,9.81,2.71,9.81,2.71s-5.77-3.8-5.73-3.87c.19-.27,4.38-.46,4.61-.8.07-.1-8-5.44-8-5.44l4.9-.62s-.69-.38-.65-.44-5-6.8-4.77-7.12c0-.08-1.39-.81-1.33-.9l4.53-.86s-2.18-1.47-2.18-1.47a33.91,33.91,0,0,1,3.09-1.85l-.92-.62s.83-3.17.92-3.29-.94-.61-.93-.63l.15-3.82s-6.8-4.58-6.8-4.58c.36-.53,7.3,1.58,7.57,1.18,0-.06-1-.56-.92-.63s7,1.06,7.1.88l-13.12-8.85,6.94.78s-1-.6-.93-.63a41.45,41.45,0,0,1-.72-4.41l-2.57-1.74c.26-.39,6.27,1.16,6.67.58,0,0-10-6.72-10-6.72.14-.21,10.26,4.31,10.87,3.41,0,0-6.12-4.07-6.09-4.11a25.93,25.93,0,0,0,.24-3.75,15.66,15.66,0,0,1-1.44-1s7.16,1.29,7.34,1l-2.55-1.72c.22-.32-2.76-5.79-2.76-5.79s-1.41-.91-1.39-.94a30.45,30.45,0,0,1,3.28-1.69c0-.07-.94-.63-.94-.63s3.29-1.47,3.39-1.62c0,0-3.33-2.09-3.26-2.2s6.76,1,6.92.75l-2.71-1.83c.8-1.19,13.36,5.11,13.36,5.11a10.07,10.07,0,0,0-1.4-.94c.08-.11,7.16,1.37,7.38,1.06L567.6,653c.21-.32,6.48,1.38,6.91.75,0,0-.68-.27-.59-.4s9.25,2.38,9.27,2.34-.23-.15-.23-.15c.29-.43,6.44.42,6.44.42s-1.39-.94-1.39-.94c.22-.33,7.17,1,7.21.94l-1.39-.94c.12-.18,6.81,1.49,7.18.94l-1.39-.94c.41-.61,10.57,3.26,10.59,3.24S599.44,651,599.44,651c.2-.3,17.73,8.23,17.81,8.11s-8.67-5.74-8.62-5.82,11.76,5.77,12.57,4.56a9.91,9.91,0,0,0-1.58-1.06l3.71-1.42s-2.38-1.51-2.34-1.57c.48-.71,12.56,4.54,12.56,4.54s-5.4-3.63-5.4-3.64,7.67,1.26,7.67,1.26-1.47-.82-1.39-.93,12,4.51,12.16,4.29l-4-2.72s5.07,0,5.29-.33c.07-.1-6.27-4.23-6.27-4.23s5.57.46,5.86,0h0c.33-.5,8.57,3,9.1,2.22,0,0-2-1.16-1.95-1.31s9.82,3.63,10.26,3c.08-.13-1.4-.94-1.4-.94.42-.62,13.23,5,13.23,5s-2.15-1.23-2-1.38,1.67-2.48,1.81-2.69l-1.39-.94c.58-.87,10.14,4.09,10.68,3.29,0-.06-9.9-6.48-9.81-6.62.72-1.08,11.38,5.37,12.12,4.27a14.72,14.72,0,0,1-1.39-.94c.55-.82,12.61,4.58,12.61,4.58s-10-6.76-10-6.76,10.29,3.28,10.4,3.11-1.4-.92-1.39-.94,12.26,5.67,12.87,4.77c.09-.14-2.61-1.63-2.55-1.72s2.52-1.87,2.67-2.11c0,0-1.39-.94-1.39-.94s7.19.94,7.19.94-1.47-.82-1.39-.94,9.09,2.21,9.09,2.21l-5.61-3.79c.79-1.17,15.72,7.61,16.14,7a16.31,16.31,0,0,0-2.3-1.56c0-.07,4-1.2,4-1.2a11.22,11.22,0,0,1-1.41-.95l-1.6-5s-.07.07,0,0c.85-1.27,18,8.25,18,8.25s-7.73-5.12-7.69-5.19,5-.09,5.21-.4c.05-.08-.13-.09-.13-.09s3.69-.92,3.93-1.27c.1-.15-3.44-2.25-3.41-2.3.62-.91,13.24,5.76,13.58,5.25L762.1,655l8.68,2-2.5-1.69,11.93,4.14c.08-.12-4.92-3.32-4.92-3.32.6-.9,11.51,4.53,11.83,4.06.1-.16-4.87-3.29-4.87-3.29.24-.35,9.92,2.77,9.92,2.77s-3.79-2.41-3.72-2.51c.45-.66,10.8,3.37,10.8,3.37l-14.55-9.82c.46-.68,15.7,6.68,15.7,6.68s-1-.64-1-.67,4.5-.43,4.71-.73l-1.4-.94c.32-.48,9.16,3.39,9.69,2.61a20.88,20.88,0,0,0-2.49-1.68s10.12,3.1,10.2,3l-8.7-5.87s7.62,1.68,7.83,1.37c0,0-3.74-2.51-3.73-2.52.25-.36,6.74,1.41,7.1.87l-.74-.5c.66-1,17.34,7.78,17.34,7.78s-9.71-6.5-9.69-6.54,6.54,1.15,6.84.7c0-.07-.76-.42-.72-.49.16-.24,14.27,5.71,14.27,5.71s-12-8.11-12-8.11L850.55,656c0-.05-1.4-.93-1.39-.94l7.18.94s-1.4-.93-1.39-.94,7.19.94,7.2.94-1.45-.87-1.4-.94c.23-.35,7.21.93,7.21.93s-1.46-.84-1.39-.94,7,1.25,7.19.94c0,0-1.4-.94-1.4-.94s7.19.94,7.19.94-1.41-.92-1.4-.94l7.19.94L884,655" transform="translate(-540.26 -649)"/><path class="cls-1" d="M553.8,739.29s-1-.55-1-.66l6.23.27s-10.9-7.16-10.82-7.29l13.39,5.12c.08-.11-1.31-.88-1.31-.88s11.11,4.17,11.39,3.76L568,737.08c.25-.38,7.5,2.16,8,1.45.07-.11-1.45-1-1.45-1l4.58-.83s-1.33-.85-1.31-.88,6.78,1.36,7.11.88c0,0-1.32-.88-1.32-.88.12-.18,6.78,1.11,7,.8,0,0-4.16-2.61-4.07-2.74s6.24.28,6.24.28a11.54,11.54,0,0,1-1.54-1c.14-.2,10.45,4.59,11.13,3.58a11.73,11.73,0,0,1-1.32-.89c.23-.33,6.72,1.51,7.13.89,0,0-1.4-.76-1.32-.89s11.51,4.09,11.62,3.93l-7.72-5.2c.24-.35,8.7,2.66,9,2.16l-1.32-.89c.39-.58,7.12.89,7.12.89s-1.39-.79-1.32-.89,6.93,1.21,7.15.89c.07-.1-1.42-.76-1.33-.89.35-.52,10.63,3.26,10.63,3.26s-10.41-6.9-10.36-7c.51-.75,15.86,6.78,15.86,6.78s-10.6-7.15-10.6-7.15l10.6,3.23s-1.27-.74-1.22-.82c.48-.71,9.23,3.17,9.63,2.58l-1.34-.9s12.45,5.87,13.1,4.91c.06-.08-4.54-3.06-4.54-3.06.13-.19,2-2.56,2-2.56s-2.27-1.38-2.2-1.48c.3-.45,10.45,3.62,10.68,3.28,0,0-4.18-2.7-4.13-2.79s11.52,4.56,11.85,4.07c0,0-2-1.27-1.93-1.3s5.25.28,5.55-.17l-1.34-.9c.42-.63,7.16.9,7.16.9s-1.35-.89-1.34-.9,6.08.46,6.21.26a8.59,8.59,0,0,0-1.13-.76c.12-.17,14.09,6.1,14.32,5.76.08-.11-13-8.8-13-8.8.44-.66,12.07,4.89,12.37,4.44a15,15,0,0,1-1.34-.91l12.43,4.48a46.42,46.42,0,0,0-4-2.69,33.07,33.07,0,0,1,4.51-.88,15.18,15.18,0,0,0-1.35-.91s12.9,6.4,13.65,5.29c0,0-4.18-2.77-4.16-2.8a28.35,28.35,0,0,0,3.48-1.58l-1.35-.91s7.11.95,7.14.91a15.34,15.34,0,0,1-1.36-.91l7.17.91c.07-.1-1.39-.87-1.36-.91s11.76,5.71,12.54,4.55c0-.06-.07,0-.07,0,.21-.3.29-3.29.5-3.6a12.39,12.39,0,0,1-1.36-.91c.06-.1,7.59,1.19,7.59,1.19s-6.69-4.45-6.66-4.49l8,1.48s-4-2.53-3.9-2.62,13.29,6.06,13.76,5.35a12.48,12.48,0,0,1-1.36-.92s10,3.74,10.41,3.11l-3.88-2.62c0-.08,6.39.49,6.43.43l-1.37-.92,7.16.92-1.36-.92s7.16.92,7.16.92-1.43-.83-1.37-.92,7.19.92,7.19.92l-1.37-.92,10.42,3.11c.07-.11-10.27-6.93-10.27-6.93s12.54,5.18,12.83,4.74c0,0-1.44-.82-1.37-.92s6.21.37,6.26.31a7.77,7.77,0,0,0-1.13-.77s7.65,1.64,7.83,1.37c0,0-.49-.15-.4-.27.18-.28,6.34.37,6.34.37s-4.27-2.83-4.25-2.87c.41-.6,9.93,2.78,9.93,2.78l-1.38-.93s7.67,1.73,7.89,1.4c0,0-.95-.6-.93-.63.35-.52,6,.16,6,.16s-1.38-.93-1.38-.93c.34-.51,7.18.93,7.18.93s-1.39-.93-1.39-.93,13.12,6.17,13.7,5.32c0,0-11.11-7.31-11-7.43.55-.82,10.32,3,10.32,3s-1.43-.87-1.39-.93c.6-.89,11,4.31,11.38,3.75L866,734.47c.46-.69,8.62,3.09,9.18,2.26a12.94,12.94,0,0,1-1.39-.93c.38-.57,9.3,3.41,9.8,2.68,0,0-2.09-1.33-2.06-1.38.25-.38,5.61.36,5.84,0l-.38-.25,7.93,1.43c.09-.14-.33-.22-.33-.22s-1.19-4.49-1.08-4.65c0,0-1-.61-.94-.64l7.58,1.2s-12.45-8.34-12.43-8.38,5.43.5,5.78,0a6.6,6.6,0,0,1-.93-.63c.1-.15.93-3.29.93-3.29s-1-.62-.94-.63.94-3.3.94-3.3-1-.58-.94-.63.93-3.29.93-3.29l-.93-.63c.19-.27,4.88-.61,4.88-.61s-2.95-2-2.95-2c.29-.43-1-4.6-1-4.6s-1-.58-.93-.63,1.43-2.9,1.46-2.94-3.72-2.37-3.66-2.46l3.12-1.81-.92-.63s7,1,7.1.87-10-6.75-10-6.75,7.47,2.17,8,1.45c0,0-9.39-6.27-9.36-6.31.4-.6,10.76,3.79,11,3.48l-4.52-3c.2-.29,4.87-.13,5.1-.47L895.71,684a34.18,34.18,0,0,0,.08-3.86s-7-4.65-6.94-4.68c.34-.5,7.54,2.21,8,1.49,0-.08-10.49-7-10.44-7,.46-.68,8.15,1.58,8.15,1.58s-2.16-1.44-2.15-1.45c.13-.2.88-3,1-3.24,0,0-.92-.62-.92-.62s-.51-4.13-.45-4.23-4.3-2.82-4.26-2.88c.25-.37,6.84.83,6.9.74s-1.27-.85-1.27-.85" transform="translate(-540.26 -649)"/><rect class="cls-2" x="10.24" y="12.5" width="338" height="71"/></svg>