<svg id="aac633d3-ca5d-4629-aa28-594d6b94ba4a" data-name="Capa 1" xmlns="http://www.w3.org/2000/svg" viewBox="0 0 105.89 104.96"><g opacity="0.99"><polyline points="53.73 7.33 54.45 6.8 55.15 8.08 55.88 7.61 56.57 7.97 57.33 7.45 58.07 7.33 58.76 7.67 59.59 6.79 60.33 6.87 61.06 6.96 61.6 8.13 62.36 7.97 62.91 8.89 63.9 7.72 64.36 8.91 65.38 7.87 65.99 8.42 66.45 9.44 67.3 9.1 68.01 9.27 68.65 9.63 69.04 10.67 70.14 9.81 70.8 10.12 71.14 11.18 72.15 10.68 72.97 10.63 73.13 12 73.58 12.69 74.92 11.67 75.52 12.11 75.85 13 76.08 14.05 76.73 14.35 78.04 13.6 78.22 14.66 78.63 15.34 79.18 15.8 80.5 15.2 80.84 15.96 81.81 15.89 81.38 17.61 81.96 18.03 83.05 17.84 83.12 18.86 83.63 19.36 84.38 19.6 84.62 20.38 86.13 19.88 86.33 20.71 85.97 22.04 87.4 21.7 87.23 22.82 87.67 23.39 88.06 23.99 89.55 23.72 89.77 24.47 89.18 25.82 89.94 26.14 91.33 26.05 90.62 27.41 90.83 28.13 92.21 28.1 92.48 28.79 92.72 29.48 92.8 30.27 93.16 30.89 93.28 31.64 93.26 32.45 94.79 32.5 94 33.67 94.54 34.21 95.6 34.53 94.69 35.69 94.94 36.35 96.85 36.4 96.86 37.18 96.34 38.12 97.32 38.57 96.22 39.66 96.9 40.2 97.19 40.87 97.43 41.55 97.81 42.2 97.99 42.91 97.28 43.78 97.5 44.47 98.3 45.06 98.81 45.72 98.7 46.47 98.2 47.26 98.07 47.99 98.11 48.7 97.93 49.43 99.44 50.07 98.83 50.82 99.66 51.53 98.83 52.27 98.32 52.99 99.57 53.74 99.17 54.46 99.41 55.21 97.96 55.83 98.42 56.59 98.63 57.34 98.18 58.01 98.8 58.82 98.23 59.47 98.34 60.23 98.26 60.95 97.42 61.52 97.84 62.35 97.35 62.98 97.22 63.68 96.84 64.33 97.42 65.25 96.17 65.62 96.92 66.62 95.56 66.92 96.61 68.06 96.18 68.68 96.25 69.5 95.19 69.85 95.41 70.73 95.44 71.55 93.56 71.47 94.57 72.77 93 72.77 92.82 73.48 93.25 74.55 91.85 74.57 92.1 75.55 92.15 76.43 92.17 77.31 91.35 77.64 91.25 78.46 90.97 79.16 89.44 78.94 89.27 79.71 89.13 80.52 88.75 81.15 88.71 82.07 88.23 82.63 87.23 82.71 86.45 82.98 85.47 83.02 85.42 83.98 85.15 84.74 84.08 84.65 84.62 86.3 82.99 85.56 82.53 86.12 81.96 86.55 82.04 87.79 81.13 87.8 81.13 89 80.51 89.39 79.93 89.85 79.21 90.1 78.08 89.71 78.16 91.17 76.9 90.51 76.48 91.21 75.55 91.04 75.41 92.27 74.38 91.87 73.77 92.25 73.36 93.04 72.57 93.08 71.67 92.82 71.14 93.38 70.61 93.97 70.04 94.52 69.18 94.28 68.39 94.18 67.77 94.58 67.34 95.57 66.75 96.16 65.9 95.82 65.32 96.48 64.28 95.32 63.83 96.5 62.92 95.71 62.52 97.4 61.63 96.58 60.8 96.03 60.08 95.99 59.51 97.08 58.84 97.66 58.08 97.32 57.38 97.68 56.6 96.91 55.88 96.86 55.17 97.06 54.46 98.1 53.73 97.39 53.01 97.02 52.3 96.66 51.57 97.04 50.82 97.54 50.12 97.09 49.33 97.78 48.59 97.77 47.9 97.42 47.21 97.09 46.52 96.8 45.79 96.77 45.03 96.89 44.34 96.62 43.83 95.59 43.1 95.57 42.43 95.3 41.71 95.23 40.92 95.39 39.97 96.01 39.78 94.25 38.98 94.37 38.01 94.96 37.43 94.43 36.93 93.73 36.31 93.37 35.16 94.19 34.78 93.27 34.14 92.92 33.14 93.3 33.16 91.66 32.1 92.12 31.75 91.27 31.06 91.03 30.17 91.1 29.29 91.14 29.3 89.77 28.46 89.73 27.61 89.69 27.68 88.35 26.28 89.03 26.3 87.79 25.81 87.26 25.62 86.36 24.55 86.53 23.68 86.43 23.62 85.41 22.4 85.65 22.02 84.99 22.11 83.88 20.74 84.2 20.21 83.69 20.89 82.08 20.51 81.46 19.25 81.61 18.85 81 18.61 80.26 18.57 79.39 17.5 79.3 16.87 78.86 16.9 77.95 15.6 77.96 16.1 76.76 15.73 76.14 15.77 75.28 14.89 74.97 13.69 74.82 13.33 74.17 12.98 73.53 13.66 72.36 12.85 71.95 13.17 71 13.14 70.24 12.76 69.63 12.09 69.13 10.96 68.79 12.16 67.57 11.34 67.1 11.15 66.41 10.89 65.73 10.52 65.1 10.28 64.41 9.75 63.81 9.82 63.04 10.33 62.18 9.75 61.58 10.12 60.77 8.82 60.28 8.73 59.55 8.29 58.88 9.63 57.96 8.75 57.34 8.69 56.62 9.06 55.87 9.2 55.14 9.37 54.41 9.4 53.7 8.73 53 7.78 52.27 9.38 51.56 9.21 50.84 8.8 50.11 8.72 49.38 8.61 48.65 9.74 48.02 8.5 47.17 9.32 46.54 9.06 45.78 9.71 45.15 9.99 44.47 9.28 43.61 8.93 42.79 9.1 42.08 9.67 41.46 10.8 41.01 9.82 39.99 10.65 39.48 11.49 38.99 11.57 38.27 11.47 37.48 10.6 36.39 11.22 35.84 12.4 35.53 12.42 34.77 11.83 33.72 13.55 33.7 13.54 32.91 13.99 32.34 14.36 31.72 13.32 30.35 14.35 30.09 14.36 29.25 14.86 28.7 15.62 28.32 15.35 27.28 15.79 26.69 17.48 26.98 17.36 26.02 17.5 25.22 17.5 24.31 17.98 23.75 18.98 23.63 19.02 22.72 19.53 22.18 20.89 22.43 21.48 22.02 21.35 20.9 21.93 20.46 22.88 20.41 22.82 19.3 23.04 18.47 23.95 18.39 24.82 18.31 25.5 18 25.99 17.48 25.71 15.94 27 16.45 27.78 16.31 28.13 15.57 28.04 14.14 28.93 14.16 30.13 14.71 30.36 13.71 31.18 13.7 31.73 13.2 32.61 13.32 32.69 11.94 33.87 12.66 34.42 12.17 34.5 10.64 35.47 11.02 35.95 10.3 36.48 9.69 37.18 9.44 38.45 10.76 38.71 9.36 39.79 10.3 40.22 9.3 41.1 9.73 41.74 9.38 42.2 8.35 42.92 8.23 43.56 7.76 44.21 7.28 45.13 8.15 45.93 8.54 46.56 8.02 47.37 8.56 47.87 6.9 48.66 7.32 49.34 6.81 50.12 7.38 50.89 8.16 51.56 7.41 52.28 7.23 53 7.04 53.73 7.73" fill="#ed1c24"/><polyline points="53.73 7.33 54.45 6.8 55.15 8.08 55.88 7.61 56.57 7.97 57.33 7.45 58.07 7.33 58.76 7.67 59.59 6.79 60.33 6.87 61.06 6.96 61.6 8.13 62.36 7.97 62.91 8.89 63.9 7.72 64.36 8.91 65.38 7.87 65.99 8.42 66.45 9.44 67.3 9.1 68.01 9.27 68.65 9.63 69.04 10.67 70.14 9.81 70.8 10.12 71.14 11.18 72.15 10.68 72.97 10.63 73.13 12 73.58 12.69 74.92 11.67 75.52 12.11 75.85 13 76.08 14.05 76.73 14.35 78.04 13.6 78.22 14.66 78.63 15.34 79.18 15.8 80.5 15.2 80.84 15.96 81.81 15.89 81.38 17.61 81.96 18.03 83.05 17.84 83.12 18.86 83.63 19.36 84.38 19.6 84.62 20.38 86.13 19.88 86.33 20.71 85.97 22.04 87.4 21.7 87.23 22.82 87.67 23.39 88.06 23.99 89.55 23.72 89.77 24.47 89.18 25.82 89.94 26.14 91.33 26.05 90.62 27.41 90.83 28.13 92.21 28.1 92.48 28.79 92.72 29.48 92.8 30.27 93.16 30.89 93.28 31.64 93.26 32.45 94.79 32.5 94 33.67 94.54 34.21 95.6 34.53 94.69 35.69 94.94 36.35 96.85 36.4 96.86 37.18 96.34 38.12 97.32 38.57 96.22 39.66 96.9 40.2 97.19 40.87 97.43 41.55 97.81 42.2 97.99 42.91 97.28 43.78 97.5 44.47 98.3 45.06 98.81 45.72 98.7 46.47 98.2 47.26 98.07 47.99 98.11 48.7 97.93 49.43 99.44 50.07 98.83 50.82 99.66 51.53 98.83 52.27 98.32 52.99 99.57 53.74 99.17 54.46 99.41 55.21 97.96 55.83 98.42 56.59 98.63 57.34 98.18 58.01 98.8 58.82 98.23 59.47 98.34 60.23 98.26 60.95 97.42 61.52 97.84 62.35 97.35 62.98 97.22 63.68 96.84 64.33 97.42 65.25 96.17 65.62 96.92 66.62 95.56 66.92 96.61 68.06 96.18 68.68 96.25 69.5 95.19 69.85 95.41 70.73 95.44 71.55 93.56 71.47 94.57 72.77 93 72.77 92.82 73.48 93.25 74.55 91.85 74.57 92.1 75.55 92.15 76.43 92.17 77.31 91.35 77.64 91.25 78.46 90.97 79.16 89.44 78.94 89.27 79.71 89.13 80.52 88.75 81.15 88.71 82.07 88.23 82.63 87.23 82.71 86.45 82.98 85.47 83.02 85.42 83.98 85.15 84.74 84.08 84.65 84.62 86.3 82.99 85.56 82.53 86.12 81.96 86.55 82.04 87.79 81.13 87.8 81.13 89 80.51 89.39 79.93 89.85 79.21 90.1 78.08 89.71 78.16 91.17 76.9 90.51 76.48 91.21 75.55 91.04 75.41 92.27 74.38 91.87 73.77 92.25 73.36 93.04 72.57 93.08 71.67 92.82 71.14 93.38 70.61 93.97 70.04 94.52 69.18 94.28 68.39 94.18 67.77 94.58 67.34 95.57 66.75 96.16 65.9 95.82 65.32 96.48 64.28 95.32 63.83 96.5 62.92 95.71 62.52 97.4 61.63 96.58 60.8 96.03 60.08 95.99 59.51 97.08 58.84 97.66 58.08 97.32 57.38 97.68 56.6 96.91 55.88 96.86 55.17 97.06 54.46 98.1 53.73 97.39 53.01 97.02 52.3 96.66 51.57 97.04 50.82 97.54 50.12 97.09 49.33 97.78 48.59 97.77 47.9 97.42 47.21 97.09 46.52 96.8 45.79 96.77 45.03 96.89 44.34 96.62 43.83 95.59 43.1 95.57 42.43 95.3 41.71 95.23 40.92 95.39 39.97 96.01 39.78 94.25 38.98 94.37 38.01 94.96 37.43 94.43 36.93 93.73 36.31 93.37 35.16 94.19 34.78 93.27 34.14 92.92 33.14 93.3 33.16 91.66 32.1 92.12 31.75 91.27 31.06 91.03 30.17 91.1 29.29 91.14 29.3 89.77 28.46 89.73 27.61 89.69 27.68 88.35 26.28 89.03 26.3 87.79 25.81 87.26 25.62 86.36 24.55 86.53 23.68 86.43 23.62 85.41 22.4 85.65 22.02 84.99 22.11 83.88 20.74 84.2 20.21 83.69 20.89 82.08 20.51 81.46 19.25 81.61 18.85 81 18.61 80.26 18.57 79.39 17.5 79.3 16.87 78.86 16.9 77.95 15.6 77.96 16.1 76.76 15.73 76.14 15.77 75.28 14.89 74.97 13.69 74.82 13.33 74.17 12.98 73.53 13.66 72.36 12.85 71.95 13.17 71 13.14 70.24 12.76 69.63 12.09 69.13 10.96 68.79 12.16 67.57 11.34 67.1 11.15 66.41 10.89 65.73 10.52 65.1 10.28 64.41 9.75 63.81 9.82 63.04 10.33 62.18 9.75 61.58 10.12 60.77 8.82 60.28 8.73 59.55 8.29 58.88 9.63 57.96 8.75 57.34 8.69 56.62 9.06 55.87 9.2 55.14 9.37 54.41 9.4 53.7 8.73 53 7.78 52.27 9.38 51.56 9.21 50.84 8.8 50.11 8.72 49.38 8.61 48.65 9.74 48.02 8.5 47.17 9.32 46.54 9.06 45.78 9.71 45.15 9.99 44.47 9.28 43.61 8.93 42.79 9.1 42.08 9.67 41.46 10.8 41.01 9.82 39.99 10.65 39.48 11.49 38.99 11.57 38.27 11.47 37.48 10.6 36.39 11.22 35.84 12.4 35.53 12.42 34.77 11.83 33.72 13.55 33.7 13.54 32.91 13.99 32.34 14.36 31.72 13.32 30.35 14.35 30.09 14.36 29.25 14.86 28.7 15.62 28.32 15.35 27.28 15.79 26.69 17.48 26.98 17.36 26.02 17.5 25.22 17.5 24.31 17.98 23.75 18.98 23.63 19.02 22.72 19.53 22.18 20.89 22.43 21.48 22.02 21.35 20.9 21.93 20.46 22.88 20.41 22.82 19.3 23.04 18.47 23.95 18.39 24.82 18.31 25.5 18 25.99 17.48 25.71 15.94 27 16.45 27.78 16.31 28.13 15.57 28.04 14.14 28.93 14.16 30.13 14.71 30.36 13.71 31.18 13.7 31.73 13.2 32.61 13.32 32.69 11.94 33.87 12.66 34.42 12.17 34.5 10.64 35.47 11.02 35.95 10.3 36.48 9.69 37.18 9.44 38.45 10.76 38.71 9.36 39.79 10.3 40.22 9.3 41.1 9.73 41.74 9.38 42.2 8.35 42.92 8.23 43.56 7.76 44.21 7.28 45.13 8.15 45.93 8.54 46.56 8.02 47.37 8.56 47.87 6.9 48.66 7.32 49.34 6.81 50.12 7.38 50.89 8.16 51.56 7.41 52.28 7.23 53 7.04 53.73 7.73" fill="none" stroke="#fff" stroke-miterlimit="10" stroke-width="8"/></g></svg>