<svg id="a1427c14-c7c8-4d18-ad6c-65863da3c741" data-name="Capa 1" xmlns="http://www.w3.org/2000/svg" viewBox="0 0 233.99 448.14"><path d="M832.71,850.68c-5.21,0-9,0-12.8,0-6.42,0-7.74,1.27-7.79,7.49q-.09,9.75,0,19.49c.06,5.9,1.49,7.27,7.47,7.28q40.74,0,81.48,0c24.48,0,49-.28,73.44-.28,21,0,41.94.24,62.91.33,6.21,0,7.58-1.4,7.62-7.68,0-6.5,0-13,0-19.5-.06-5.71-1.46-7.09-7.1-7.17-4.1-.05-8.21,0-12.22,0-.72-6.91-2.52-13.18-1.82-19.17,3.85-32.56-.7-63.45-16.83-92.28-11.27-20.14-26.76-36.83-43.37-52.6-6.75-6.42-13.29-13.08-19.8-19.75-3.34-3.42-3.28-7.19-.06-10.68,4-4.28,8.06-8.41,12.12-12.59,11.59-12,24-23.25,34.64-36,26.44-31.47,37.62-68,33.92-109.1-.76-8.42-.11-17-.11-26.2,5.48,0,9.76-.08,14,0,4.67.11,6.67-2.19,6.63-6.72-.06-6.33,0-12.66,0-19,0-7.57-1.13-8.71-8.64-8.71h-88q-64.75,0-129.51,0c-7.5,0-8.44,5.36-4.5,17.72-4,11.21-2.92,16.85,4.15,16.75,4.29-.07,8.58,0,12.93,0,.68,7,2.43,13.39,1.72,19.52-4,34.94,1.76,67.65,20.34,97.83,11.48,18.64,26.77,34,42.41,49,5.88,5.65,11.59,11.49,17.26,17.36,3.47,3.61,3.31,7.43-.1,11.07s-6.64,7-10,10.47c-12,12.28-24.7,23.91-35.82,36.92-24.82,29.06-36.62,63-35.22,101.38C832.47,827.18,832.49,838.48,832.71,850.68Z" transform="translate(-811.57 -437.41)" fill="none" stroke="#000" stroke-miterlimit="10"/><path d="M832.71,850.68c-.22-12.2-.24-23.5-.65-34.78-1.4-38.38,10.4-72.32,35.22-101.38,11.12-13,23.84-24.64,35.82-36.92q5.05-5.19,10-10.47c3.41-3.64,3.57-7.46.1-11.07-5.67-5.87-11.38-11.71-17.26-17.36-15.64-15-30.93-30.35-42.41-49-18.58-30.18-24.38-62.89-20.34-97.83.71-6.13-1-12.55-1.72-19.52-4.35,0-8.64-.05-12.93,0-7.07.1-8.13-5.54-4.15-16.75-3.94-12.36-3-17.73,4.5-17.72q64.76.09,129.51,0h88c7.51,0,8.62,1.14,8.64,8.71,0,6.33,0,12.66,0,19,0,4.53-2,6.83-6.63,6.72-4.28-.1-8.56,0-14,0,0,9.24-.65,17.78.11,26.2,3.7,41.1-7.48,77.63-33.92,109.1-10.68,12.72-23.05,24-34.64,36-4.06,4.18-8.17,8.31-12.12,12.59-3.22,3.49-3.28,7.26.06,10.68,6.51,6.67,13,13.33,19.8,19.75,16.61,15.77,32.1,32.46,43.37,52.6,16.13,28.83,20.68,59.72,16.83,92.28-.7,6,1.1,12.26,1.82,19.17,4,0,8.12,0,12.22,0,5.64.08,7,1.46,7.1,7.17.07,6.5.06,13,0,19.5,0,6.28-1.41,7.7-7.62,7.68-21-.09-41.94-.33-62.91-.33-24.48,0-49,.24-73.44.28q-40.74.06-81.48,0c-6,0-7.41-1.38-7.47-7.28q-.09-9.74,0-19.49c0-6.22,1.37-7.45,7.79-7.49C823.71,850.66,827.5,850.68,832.71,850.68Zm95.55-19.83q40.26,0,80.5,0c2.94,0,5-.1,5.39-3.94,3.67-34-3.68-65.2-22.72-93.64-11.4-17-26.12-31-40.79-45.14a128.13,128.13,0,0,1-13.88-15.66c-5.22-7-5.29-14.7-.08-21.83a130.34,130.34,0,0,1,11.67-13.63c9.28-9.56,19.21-18.51,28.15-28.37,28.67-31.61,42.18-68.51,37.76-111.44-.37-3.62-1.41-5.09-5.42-5.08q-80.25.21-160.5,0c-3.91,0-5.06,1.28-5.45,5-3.93,37.62,5.58,71.55,29.16,100.94,10.79,13.45,23.73,25.17,35.59,37.77a165.59,165.59,0,0,1,12.74,14.68c5.37,7.26,5.15,15-.19,22.25A120.63,120.63,0,0,1,909.84,685c-11.2,11.63-23.23,22.55-33.72,34.78-25.25,29.44-36.71,63.78-33.52,102.61.84,10.26-.21,8.44,9.16,8.48C877.26,830.94,902.76,830.86,928.26,830.85Z" transform="translate(-811.57 -437.41)" fill="#fff"/><path d="M930.26,819.86c-25.5,0-51,.08-76.5,0-9.37,0-8.32,1.78-9.16-8.48-3.19-38.83,8.27-73.17,33.52-102.61,10.49-12.23,22.52-23.15,33.72-34.78a120.63,120.63,0,0,0,10.35-12.14c5.34-7.25,5.56-15,.19-22.25a165.59,165.59,0,0,0-12.74-14.68c-11.86-12.6-24.8-24.32-35.59-37.77-23.58-29.39-33.09-63.32-29.16-100.94.39-3.73,1.54-5.09,5.45-5,8.15.17,40.68.19,160.5,0,4,0,5,1.46,5.42,5.08,4.42,42.93-9.09,79.83-37.76,111.44-8.94,9.86-18.87,18.81-28.15,28.37a130.34,130.34,0,0,0-11.67,13.63c-5.21,7.13-5.14,14.82.08,21.83a128.13,128.13,0,0,0,13.88,15.66c14.67,14.09,29.39,28.1,40.79,45.14,19,28.44,26.39,59.68,22.72,93.64-.42,3.84-2.45,3.94-5.39,3.94Q970.51,819.79,930.26,819.86Zm-71.67-264.6c-.11.92-.27,1.29-.17,1.55.58,1.38,1.18,2.75,1.85,4.09,10.05,20.12,24.51,36.8,40.65,52.18,6.75,6.44,13.48,12.92,19.82,19.76,4.57,4.93,8.18,10.7,8.14,17.79q-.25,46.76-.85,93.49c0,1.51-1.5,3.49-2.87,4.41-5.24,3.54-11.06,6.28-16,10.14-20.1,15.68-39.94,31.71-60,47.5-3.54,2.79-2.07,6.15-1.22,9.08.32,1.1,3.44,2,5.29,2q77.26.12,154.54-.07c1.91,0,5.12-1,5.48-2.17.93-3.1,1.87-6.41-1.9-9.33-14.86-11.56-29.24-23.75-44.16-35.23-9.88-7.6-20.26-14.58-30.71-21.4-2.43-1.59-3.52-2.81-3.54-5.68-.17-27.16.35-54.37-1-81.47-.8-15.82,5-27.37,16.15-37.29,1.37-1.22,2.7-2.49,4-3.75,14-13.33,28-26.71,38.78-43,1.24-1.87,2.4-3.8,4-6.26a19,19,0,0,0-3.16-.51c-16.82.83-32.7-3.9-48.47-8.65-22.74-6.86-45.79-10.31-69.54-8.59C868.6,554.23,863.53,554.8,858.59,555.26Z" transform="translate(-811.57 -437.41)" fill="none"/><path d="M856.59,555.26c4.94-.46,10-1,15.09-1.39,23.75-1.72,46.8,1.73,69.54,8.59,15.77,4.75,31.65,9.48,48.47,8.65a19,19,0,0,1,3.16.51c-1.55,2.46-2.71,4.39-4,6.26-10.8,16.24-24.76,29.62-38.78,43-1.33,1.26-2.66,2.53-4,3.75-11.17,9.92-17,21.47-16.15,37.29,1.37,27.1.85,54.31,1,81.47,0,2.87,1.11,4.09,3.54,5.68,10.45,6.82,20.83,13.8,30.71,21.4,14.92,11.48,29.3,23.67,44.16,35.23,3.77,2.92,2.83,6.23,1.9,9.33-.36,1.19-3.57,2.17-5.48,2.17q-77.26.21-154.54.07c-1.85,0-5-.87-5.29-2-.85-2.93-2.32-6.29,1.22-9.08,20-15.79,39.86-31.82,60-47.5,5-3.86,10.78-6.6,16-10.14,1.37-.92,2.85-2.9,2.87-4.41q.63-46.74.85-93.49c0-7.09-3.57-12.86-8.14-17.79-6.34-6.84-13.07-13.32-19.82-19.76-16.14-15.38-30.6-32.06-40.65-52.18-.67-1.34-1.27-2.71-1.85-4.09C856.32,556.55,856.48,556.18,856.59,555.26Z" transform="translate(-811.57 -437.41)" fill="#fff"/></svg>