<svg id="Capa_1" data-name="Capa 1" xmlns="http://www.w3.org/2000/svg" viewBox="0 0 152.96 147.41"><defs><style>.cls-1{fill:#fff;}.cls-2{fill:none;stroke:#fff;stroke-miterlimit:10;stroke-width:6px;}</style></defs><polygon class="cls-1" points="131.7 127.57 132.88 130.15 130.22 125.75 127.55 133.14 124.89 134.41 122.23 125.78 119.56 133.49 116.9 126.15 114.23 131.01 111.57 130.93 108.91 136.66 106.24 136.84 103.58 132.41 100.91 127.64 98.25 132.09 95.58 137.11 92.92 137 90.25 130.8 87.58 131.33 84.92 127.72 82.25 131.64 79.59 127.2 76.92 126.82 74.25 125.94 71.59 133.73 68.92 128.5 66.25 128.08 63.59 135.61 60.93 131.27 58.26 131.55 55.6 133.62 52.93 128.92 50.27 132.65 47.6 129.05 44.93 130.77 42.27 137.02 39.6 127.43 36.93 135.72 34.26 136.3 31.59 135.46 28.93 133.18 26.26 127.46 23.59 136.85 20.92 128.16 18.25 129.38 15.57 128.73 16.62 127.64 16.17 128.8 16.95 126.17 7.32 123.54 9.6 120.9 12.19 118.27 16.22 115.63 12.56 113 13.77 110.37 13.71 107.73 13.65 105.09 17.39 102.46 17.09 99.83 16.43 97.19 16.53 94.56 10.7 91.92 11.08 89.28 16.39 86.65 16.13 84.01 16.94 81.38 12.3 78.74 10.37 76.11 14.5 73.47 12.36 70.83 13.94 68.19 14.5 65.56 11.19 62.93 10.9 60.29 9.85 57.66 16.09 55.02 13.87 52.39 11.14 49.75 17.01 47.11 13.39 44.48 8.16 41.84 17.22 39.2 16.33 36.56 9.45 33.92 11.9 31.29 8.93 28.65 7.66 26.01 16.3 23.37 14.27 20.73 12.58 18.08 12.97 15.51 15.56 12.06 18.22 13.39 20.88 15.52 23.54 17.91 26.21 14.44 28.87 11.13 31.54 20.12 34.2 13.12 36.87 15.76 39.53 18.18 42.19 15.58 44.86 14.95 47.52 17.96 50.19 15.02 52.85 17.45 55.52 19.11 58.19 10.59 60.85 20.2 63.52 14.7 66.18 11.78 68.85 18.84 71.51 13.87 74.18 9.51 76.85 15.97 79.51 16.62 82.18 16.48 84.84 15.61 87.51 16 90.17 18.82 92.84 12.3 95.5 19.31 98.17 11.19 100.83 10.29 103.5 14.99 106.17 11.64 108.84 14.24 111.5 13.29 114.17 14.12 116.84 10.12 119.51 12.43 122.17 12.39 124.85 13.86 127.52 19.03 130.19 13.93 132.87 14.04 137.15 13.8 132.7 18.07 137.78 20.7 129.89 23.33 135.02 25.97 135.15 28.61 141.05 31.24 135.63 33.87 131.83 36.51 130.33 39.14 137.04 41.78 140.05 44.41 133.7 47.05 130.84 49.68 140.14 52.31 137.4 54.95 129.92 57.59 135.67 60.22 133.99 62.86 140.93 65.5 132.53 68.13 137.31 70.77 136.07 73.4 131.69 76.04 141.07 78.68 130.1 81.31 130.95 83.94 140.77 86.58 140.88 89.21 134.03 91.85 129.94 94.48 138.5 97.12 138.47 99.76 131.74 102.39 130.79 105.03 134.58 107.67 132.98 110.31 141.18 112.95 137.18 115.58 138.07 118.22 137.79 120.86 137.88 123.5 134.2 126.14 135.63 129.04 131.7 127.57"/><polygon class="cls-2" points="131.7 127.57 132.88 130.15 130.22 125.75 127.55 133.14 124.89 134.41 122.23 125.78 119.56 133.49 116.9 126.15 114.23 131.01 111.57 130.93 108.91 136.66 106.24 136.84 103.58 132.41 100.91 127.64 98.25 132.09 95.58 137.11 92.92 137 90.25 130.8 87.58 131.33 84.92 127.72 82.25 131.64 79.59 127.2 76.92 126.82 74.25 125.94 71.59 133.73 68.92 128.5 66.25 128.08 63.59 135.61 60.93 131.27 58.26 131.55 55.6 133.62 52.93 128.92 50.27 132.65 47.6 129.05 44.93 130.77 42.27 137.02 39.6 127.43 36.93 135.72 34.26 136.3 31.59 135.46 28.93 133.18 26.26 127.46 23.59 136.85 20.92 128.16 18.25 129.38 15.57 128.73 16.62 127.64 16.17 128.8 16.95 126.17 7.32 123.54 9.6 120.9 12.19 118.27 16.22 115.63 12.56 113 13.77 110.37 13.71 107.73 13.65 105.09 17.39 102.46 17.09 99.83 16.43 97.19 16.53 94.56 10.7 91.92 11.08 89.28 16.39 86.65 16.13 84.01 16.94 81.38 12.3 78.74 10.37 76.11 14.5 73.47 12.36 70.83 13.94 68.19 14.5 65.56 11.19 62.93 10.9 60.29 9.85 57.66 16.09 55.02 13.87 52.39 11.14 49.75 17.01 47.11 13.39 44.48 8.16 41.84 17.22 39.2 16.33 36.56 9.45 33.92 11.9 31.29 8.93 28.65 7.66 26.01 16.3 23.37 14.27 20.73 12.58 18.08 12.97 15.51 15.56 12.06 18.22 13.39 20.88 15.52 23.54 17.91 26.21 14.44 28.87 11.13 31.54 20.12 34.2 13.12 36.87 15.76 39.53 18.18 42.19 15.58 44.86 14.95 47.52 17.96 50.19 15.02 52.85 17.45 55.52 19.11 58.19 10.59 60.85 20.2 63.52 14.7 66.18 11.78 68.85 18.84 71.51 13.87 74.18 9.51 76.85 15.97 79.51 16.62 82.18 16.48 84.84 15.61 87.51 16 90.17 18.82 92.84 12.3 95.5 19.31 98.17 11.19 100.83 10.29 103.5 14.99 106.17 11.64 108.84 14.24 111.5 13.29 114.17 14.12 116.84 10.12 119.51 12.43 122.17 12.39 124.85 13.86 127.52 19.03 130.19 13.93 132.87 14.04 137.15 13.8 132.7 18.07 137.78 20.7 129.89 23.33 135.02 25.97 135.15 28.61 141.05 31.24 135.63 33.87 131.83 36.51 130.33 39.14 137.04 41.78 140.05 44.41 133.7 47.05 130.84 49.68 140.14 52.31 137.4 54.95 129.92 57.59 135.67 60.22 133.99 62.86 140.93 65.5 132.53 68.13 137.31 70.77 136.07 73.4 131.69 76.04 141.07 78.68 130.1 81.31 130.95 83.94 140.77 86.58 140.88 89.21 134.03 91.85 129.94 94.48 138.5 97.12 138.47 99.76 131.74 102.39 130.79 105.03 134.58 107.67 132.98 110.31 141.18 112.95 137.18 115.58 138.07 118.22 137.79 120.86 137.88 123.5 134.2 126.14 135.63 129.04 131.7 127.57"/></svg>