<svg id="abe63a10-69d9-47db-9cb4-4b35a9528eb2" data-name="Capa 1" xmlns="http://www.w3.org/2000/svg" viewBox="0 0 107.26 109.41"><g opacity="0.99"><polyline points="53.28 10.8 53.99 11.39 54.71 10.9 55.47 10.11 56.22 9.82 56.89 10.69 57.64 10.41 58.23 11.76 58.96 11.62 59.74 11.17 60.51 10.94 61.15 11.48 61.95 11.15 62.77 10.78 63.43 11.21 64.14 11.36 64.91 11.33 65.19 13.06 66.28 11.87 66.62 13.21 67.39 13.18 68.18 13.1 68.86 13.32 69.55 13.56 70.17 13.96 70.96 13.94 71.64 14.19 72.06 15.01 72.93 14.86 73.24 15.87 74.29 15.39 74.67 16.23 74.98 17.14 76.47 15.99 76.64 17.13 76.85 18.15 77.53 18.41 78.07 18.89 78.56 19.43 79.33 19.57 80.29 19.48 80.53 20.35 81.26 20.58 81.59 21.32 82.55 21.29 82.99 21.88 83.45 22.44 83.53 23.41 84.43 23.5 84.99 23.95 85.68 24.28 86.36 24.64 87.09 24.96 87.2 25.83 87.96 26.14 88.64 26.52 88.47 27.6 89.36 27.82 89.18 28.87 89.64 29.42 90.66 29.59 89.92 30.97 91.04 31.08 91.54 31.62 92.19 32.07 92.98 32.45 92.38 33.64 92.26 34.52 93.4 34.73 94.34 35.06 93.95 36.07 94.05 36.82 94.21 37.54 94.93 38.01 95.27 38.66 95.13 39.49 95.42 40.15 95.94 40.73 95.33 41.69 96.5 42.07 97.35 42.57 95.94 43.73 96.85 44.23 97.49 44.81 96.8 45.72 97.23 46.36 98.25 46.89 97.33 47.8 98.59 48.33 97.05 49.29 98.02 49.88 98.81 50.52 98.79 51.26 97.9 52.07 97.99 52.78 98.96 53.45 98.09 54.21 98.12 54.93 98.68 55.66 97.78 56.37 98.87 57.12 97.49 57.79 98.95 58.59 97.89 59.24 98.11 59.98 98.28 60.73 97.42 61.35 98.77 62.27 97.86 62.87 97.12 63.47 97.14 64.2 96.56 64.81 96.87 65.61 96.87 66.35 96.1 66.89 96.58 67.76 97.31 68.73 95.89 69.06 96.1 69.88 95.47 70.43 94.74 70.92 94.59 71.62 94.63 72.4 94.14 72.97 94.49 73.91 94.77 74.83 93.37 74.97 92.99 75.58 93.94 76.88 92.76 77.08 92.42 77.71 92.94 78.86 92.51 79.45 91.92 79.95 91.15 80.32 90.45 80.72 89.76 81.12 89.83 82.05 89.2 82.48 88.72 83.02 89.14 84.27 88.52 84.71 87.41 84.73 87.16 85.46 87.08 86.38 86.36 86.7 84.99 86.38 85.76 88.15 85.2 88.63 84.55 89.01 83.03 88.43 82.61 89.03 82.91 90.48 82 90.52 81.92 91.59 80.73 91.26 80.76 92.49 79.94 92.62 79.35 93.05 78 92.35 77.93 93.54 77.19 93.72 76.21 93.5 75.89 94.36 75.72 95.52 74.52 94.84 74.53 96.41 73.69 96.38 73.02 96.66 72.15 96.53 71.77 97.44 70.51 96.35 69.99 96.94 69.49 97.62 68.91 98.14 67.95 97.58 67.39 98.16 66.64 98.17 66.09 98.82 65.62 99.82 64.89 99.92 63.98 99.29 63.47 100.29 62.42 98.87 62.04 100.65 61.1 99.56 60.52 100.41 59.79 100.48 58.99 99.95 58.41 101.16 57.67 101.2 56.96 101.48 56.18 100.8 55.47 101.22 54.72 100.58 54 100.73 53.28 99.92 52.54 101.27 51.83 100.65 51.11 100.65 50.37 100.86 49.63 101.01 48.91 100.86 48.15 101.15 47.48 100.55 46.77 100.4 46.18 99.51 45.31 100.34 44.59 100.24 43.97 99.62 43.43 98.76 42.72 98.7 42.04 98.47 41.03 99.47 40.56 98.47 39.62 99.07 38.93 98.84 38.17 98.81 37.7 97.95 36.91 97.99 36.03 98.22 35.69 97.14 35.33 96.17 34.59 96.08 33.73 96.22 32.74 96.58 32.13 96.17 31.44 95.89 31.01 95.16 30.42 94.74 30.15 93.78 29.45 93.55 28.7 93.39 27.98 93.16 27.58 92.47 27.29 91.64 26.76 91.16 25.99 91.01 25.65 90.28 24.34 90.75 23.53 90.58 23.27 89.76 22.8 89.2 22.37 88.59 21.98 87.95 21.9 87.01 21.04 86.86 21.04 85.88 20.56 85.36 19.83 85.06 19.31 84.56 17.95 84.76 18.3 83.54 17.77 83.04 16.55 83.06 16.5 82.18 15.8 81.78 16.45 80.47 14.82 80.68 15.51 79.38 14.81 78.97 14.8 78.14 14.13 77.69 13.09 77.44 13.97 76.16 13.25 75.72 12.01 75.52 12.92 74.3 12.51 73.7 12.39 72.97 11.71 72.48 10.89 72.03 11.32 71.09 10.79 70.52 10.17 69.97 9.87 69.3 9.71 68.59 10.02 67.75 9.98 67.01 9.85 66.31 9.1 65.74 9.88 64.84 8.17 64.44 8.27 63.68 9.23 62.78 7.94 62.25 7.98 61.5 9.19 60.63 8.49 59.98 7.48 59.34 7.72 58.58 8.1 57.83 7.49 57.13 7.77 56.39 9.04 55.66 8.42 54.94 8.41 54.22 8.64 53.51 8.37 52.77 7.98 52.01 8.81 51.36 8.94 50.65 7.81 49.79 8.25 49.11 9.49 48.57 9.45 47.84 8.23 46.88 9.59 46.41 10.07 45.78 10.37 45.13 10.44 44.41 9.32 43.37 9.89 42.77 10.44 42.18 10.95 41.59 10.87 40.81 11.25 40.18 10.42 39.09 12.07 38.97 12.38 38.32 12.43 37.57 11.68 36.43 11.92 35.73 13.41 35.65 13.89 35.1 13.13 33.88 14.7 33.92 15.06 33.31 14.72 32.27 14.6 31.34 15.03 30.75 15.5 30.18 16.84 30.23 17.02 29.48 17.12 28.66 17.2 27.81 17.49 27.1 18.66 27.12 18.8 26.3 19.96 26.35 19.85 25.29 20.01 24.44 20.89 24.28 21.34 23.71 22.43 23.8 21.86 22.14 22.48 21.73 23.24 21.49 23.7 20.91 24.05 20.17 25.58 20.91 26.23 20.59 26.45 19.7 26.97 19.19 27.77 19.07 27.81 17.86 28.27 17.23 29.17 17.27 30.08 17.38 30.29 16.31 31 16.1 31.91 16.25 32.79 16.38 32.97 15.15 33.81 15.23 34.4 14.79 34.75 13.79 35.66 14.07 36.48 14.16 36.98 13.48 37.84 13.71 38.39 13.11 38.96 12.54 39.9 13.09 40.47 12.5 41.22 12.52 41.85 12.1 42.43 11.43 43.31 12.02 44.05 12.06 44.64 11.32 45.23 10.53 45.94 10.33 46.92 11.95 47.61 11.79 48.3 11.57 48.86 9.92 49.72 11.51 50.36 10.36 51.07 9.93 51.82 10.46 52.56 11.13 53.28 10.93" fill="none" stroke="#fff" stroke-miterlimit="10" stroke-width="8"/></g><path d="M985.38,448.11c0,10-5.26,15-11.39,15-5.91,0-11-4.74-11.1-14.3S968.08,434,974.35,434C981,434,985.38,439.06,985.38,448.11Zm-17.38.44c-.14,6.06,2.12,10.66,6.13,10.66,4.24,0,6.14-4.53,6.14-10.81,0-5.76-1.68-10.58-6.14-10.58C970.12,437.82,968,442.56,968,448.55ZM973.55,483,1001.44,434h4.08L977.64,483Zm42.7-15.25c0,10-5.25,15-11.31,15s-11-4.74-11.1-14.23,5.19-14.9,11.47-14.9C1012,453.58,1016.25,458.69,1016.25,467.75Zm-17.37.43c-.07,6.06,2.26,10.66,6.21,10.66,4.23,0,6.13-4.52,6.13-10.8,0-5.77-1.68-10.59-6.13-10.59C1001.07,457.45,998.88,462.2,998.88,468.18Z" transform="translate(-935.69 -402.78)" fill="#fff" stroke="#fff" stroke-width="2"/></svg>