<svg id="a9451d36-5a23-40d6-a0b2-8faa289bfb2e" data-name="Capa 1" xmlns="http://www.w3.org/2000/svg" viewBox="0 0 229.39 210.34"><path d="M954.37,598.39l-2.59,4,3.92.56,1.51,3.82,2.71,2.19,9.91-7.53,3,1.82-2,8.54,6.51-3-2.23,8.9,6-2.29,5.64-1.79.93,4.6,1.26,4.17,7.38-4.2-.11,6,2.64,2.23,1.66,6.44,5.82-3-1.62-9.29,11,4.1-1.19-4.38-9.06-5.43.13-3.6,6.17-2.31,7.95-1.93-8.22-5.4-1-3.85,1.35-3.34-1.91-4,1.46-3.32,8-1.93-2.54-4.17,6.25-2.29-8.49-5.45,16.91,0-5.51-4.81,2-3.21-5.68-4.85,6.17-2.31-4.54-4.6,2-3.21,11.59-1.15-1-3.85-13.31-6.48-.37-3.71,13.39-.77-1.3-3.91.23-3.58L1024.77,521l1.74-3.26,18,.21-9.13-5.58-2.17-4.09L1035,505l-2-4.06,4.75-2.62,6.3-2.29-8.07-5.34,9.92-1.53-.36-3.71-.46-3.72-11-4.4,15.36-4.41-3.9-4.65L1043,461.4l-7.36,12.32-5-10.06-.65,8-7.17-8.71-.1,9.39-6.25-6.36-3.05,1.82v9.64l-2.92,2.18-2.23,3.93L999.5,470.7l2.58,16.34-7.86-10.58-2,4.63-4.34-1.44-3.72.16-4.16-1,.7,11.62L974,482.78l-.53,8.44-2.13,4.26-7.55-9.74-.36,8.85-5.6-4.69-2.75,2.68-4-.68v9.81l-4.35-1.45-3.82-.1-.19,9.29-3.29,1.28-2.59,3.09-6.18-6.19-4.9-2.89-1.81,5.09-2.11,4.34-3.26,1.35-5.63-4.76-.11,9.5L910,522.73l-6.66-7.47-2.25,4-5.83-5.31L897,528.27l-8.87-13.12,1.51,13.66L887.48,533l-6-5.79-4.05-.69,0,9.88L874.65,539l-4.28-1.29-3,2.06-5.55-4.56-1.23,5.12-10.43-8.12,10.32,11-9.65,3,7-2.9,1.21,1.78,2.53,3.84,1,8.51,5-3.91L873,548.4l4-.75,3.73.05-.51,13.44,3.73.08,3.48.84,5.42-5.37,2.56,3.8,6.16-7.93-1.06,10.3-4.23,3.57,16.31-1.61-15.13,8.75,1.3,3.34,5.22,2,2.84,2.82,7.16,1.38-11.79,7.69,3,2.75,8.66.87,7.7,1.2-2.75,4.68-1.94,4.41,3.11,2.73-9.25,6.82,11.19.06,2.43-.32.39-3.84,2.5,6.45,5.65,3.88-5.36-11,6,1.23-.58-5.3,5.22.46,1.57-3.16,8.6,3.86,4.12-.63-9.55-14.26,3.71-1Z" transform="translate(-844.3 -434.33)" fill="#b3b3b3"/><path d="M954.37,598.39l-2.59,4,3.92.56,1.51,3.82,2.71,2.19,9.91-7.53,3,1.82-2,8.54,6.51-3-2.23,8.9,6-2.29,5.64-1.79.93,4.6,1.26,4.17,7.38-4.2-.11,6,2.64,2.23,1.66,6.44,5.82-3-1.62-9.29,11,4.1-1.19-4.38-9.06-5.43.13-3.6,6.17-2.31,7.95-1.93-8.22-5.4-1-3.85,1.35-3.34-1.91-4,1.46-3.32,8-1.93-2.54-4.17,6.25-2.29-8.49-5.45,16.91,0-5.51-4.81,2-3.21-5.68-4.85,6.17-2.31-4.54-4.6,2-3.21,11.59-1.15-1-3.85-13.31-6.48-.37-3.71,13.39-.77-1.3-3.91.23-3.58L1024.77,521l1.74-3.26,18,.21-9.13-5.58-2.17-4.09L1035,505l-2-4.06,4.75-2.62,6.3-2.29-8.07-5.34,9.92-1.53-.36-3.71-.46-3.72-11-4.4,15.36-4.41-3.9-4.65L1043,461.4l-7.36,12.32-5-10.06-.65,8-7.17-8.71-.1,9.39-6.25-6.36-3.05,1.82v9.64l-2.92,2.18-2.23,3.93L999.5,470.7l2.58,16.34-7.86-10.58-2,4.63-4.34-1.44-3.72.16-4.16-1,.7,11.62L974,482.78l-.53,8.44-2.13,4.26-7.55-9.74-.36,8.85-5.6-4.69-2.75,2.68-4-.68v9.81l-4.35-1.45-3.82-.1-.19,9.29-3.29,1.28-2.59,3.09-6.18-6.19-4.9-2.89-1.81,5.09-2.11,4.34-3.26,1.35-5.63-4.76-.11,9.5L910,522.73l-6.66-7.47-2.25,4-5.83-5.31L897,528.27l-8.87-13.12,1.51,13.66L887.48,533l-6-5.79-4.05-.69,0,9.88L874.65,539l-4.28-1.29-3,2.06-5.55-4.56-1.23,5.12-10.43-8.12,10.32,11-9.65,3,7-2.9,1.21,1.78,2.53,3.84,1,8.51,5-3.91L873,548.4l4-.75,3.73.05-.51,13.44,3.73.08,3.48.84,5.42-5.37,2.56,3.8,6.16-7.93-1.06,10.3-4.23,3.57,16.31-1.61-15.13,8.75,1.3,3.34,5.22,2,2.84,2.82,7.16,1.38-11.79,7.69,3,2.75,8.66.87,7.7,1.2-2.75,4.68-1.94,4.41,3.11,2.73-9.25,6.82,11.19.06,2.43-.32.39-3.84,2.5,6.45,5.65,3.88-5.36-11,6,1.23-.58-5.3,5.22.46,1.57-3.16,8.6,3.86,4.12-.63-9.55-14.26,3.71-1Z" transform="translate(-844.3 -434.33)" fill="none" stroke="#fff" stroke-miterlimit="10" stroke-width="16.09"/><path d="M954.07,593.41c-7.18,7.21-14.24,14.27-21.28,21.37a10.89,10.89,0,0,1-8.2,3.64A4.35,4.35,0,0,1,920,615c-5.58-17-11.31-33.86-16.88-50.82a5.29,5.29,0,0,0-3.93-3.94c-13.66-4.18-27.25-8.55-40.86-12.87a16.14,16.14,0,0,1-2.05-.74c-4.18-2-4.86-5.7-1.32-8.66a23.5,23.5,0,0,1,6.49-3.72q65.81-25.53,131.66-50.92,19.64-7.59,39.23-15.27c4.94-1.93,9.68.57,10.55,6a20.2,20.2,0,0,1-.2,7.23q-14.37,67.75-28.94,135.46a30.16,30.16,0,0,1-1.93,6.25c-1.88,4.15-5.19,5.68-9.6,4.36a20.3,20.3,0,0,1-6.08-2.91C982.16,614.2,968.27,603.89,954.07,593.41Zm-29.52,13.3.44,0c.11-.71.27-1.42.33-2.14.87-9.46,1.77-18.92,2.52-28.39a5.65,5.65,0,0,1,2-4.14q38.88-35.31,77.7-70.69a15.15,15.15,0,0,0,2.21-2.25c1.07-1.47.45-2.9-1.36-2.78a9.36,9.36,0,0,0-4.28,1.41q-39.5,24.79-78.92,49.7-8.43,5.31-16.87,10.66C913.79,574.44,919.17,590.57,924.55,606.71Z" transform="translate(-844.3 -434.33)" fill="#999"/><polygon points="88.78 144.5 86.35 174.24 105.36 156.2 88.78 144.5" fill="#b3b3b3"/><path d="M924.55,606.71c-5.38-16.14-10.76-32.27-16.2-48.6q8.46-5.36,16.87-10.66,39.43-24.87,78.92-49.7a9.36,9.36,0,0,1,4.28-1.41c1.81-.12,2.43,1.31,1.36,2.78a15.15,15.15,0,0,1-2.21,2.25q-38.84,35.37-77.7,70.69a5.65,5.65,0,0,0-2,4.14c-.75,9.47-1.65,18.93-2.52,28.39-.06.72-.22,1.43-.33,2.14Z" transform="translate(-844.3 -434.33)" fill="#ccc"/></svg>