<svg xmlns="http://www.w3.org/2000/svg" viewBox="0 0 294.3 544.65"><g style="isolation:isolate"><g id="ada73651-3e1d-481a-9cca-9f4e5b952a6a" data-name="Capa 1"><g opacity="0.7" style="mix-blend-mode:multiply"><polygon points="70.41 13.54 66.09 11.51 62.04 14.79 57.39 17.46 53.47 20.56 59.17 31.48 47.09 25.62 49.11 32.13 48.53 37.84 40.45 36.72 37.66 40.54 40.46 50.4 34.26 50.83 27.58 51.65 23.85 55.37 21.05 59.78 15.96 62.56 18.41 70.33 14.04 73.53 17.77 81.94 14.04 82.58 6.37 90.18 9.82 91.84 14.62 95.06 11.21 97.65 15.14 98.63 13.26 101.64 2.38 106.46 8.91 111.28 1.92 116.09 10.76 120.91 1.35 125.72 3.25 130.54 1.84 135.35 10.55 140.17 12.71 144.98 13.54 149.8 4.55 154.62 12.39 159.43 8.4 164.25 12.71 169.07 3.18 173.88 2.14 178.7 8.28 183.51 15.64 188.33 12 193.15 13.77 197.96 14.89 202.78 1.64 207.6 1.99 212.41 8.84 217.23 14.23 222.05 14.99 226.86 4.41 231.68 3.71 236.5 11.13 241.32 6.47 246.13 6.86 250.95 11.2 255.77 12.68 260.58 0.6 265.4 2.47 270.22 5.2 275.04 7.78 279.85 8.73 284.67 6.81 289.49 13.7 294.31 14.52 299.13 3.51 303.94 7.13 308.76 9.88 313.58 5.74 318.4 8.58 323.21 7.05 328.04 7.93 332.85 6.56 337.67 1.02 342.49 4.6 347.31 1.57 352.12 15.5 356.93 13.27 361.75 3.27 366.56 9.05 371.38 11.47 376.2 5.16 381.02 5.01 385.83 5.64 390.65 15.11 395.47 3.78 400.29 5.47 405.1 7.06 409.92 7.15 414.74 2.57 419.56 3.89 424.38 5.66 429.2 5.22 434.01 6.4 438.84 0.41 443.65 7.22 448.48 6.5 453.3 15.21 458.12 8.95 462.94 12.45 467.76 2.71 472.58 0 477.4 11.04 482.22 1.15 487.04 12.43 491.86 12.57 496.68 5.45 501.5 0.63 506.33 4.57 511.15 7.39 515.97 15.45 520.79 11.24 525.62 6.51 530.45 7.93 535.07 12.55 540.12 17.37 529.72 22.19 541.63 27.02 536.45 31.84 532.8 36.66 540.74 41.48 539.95 46.31 536.4 51.13 538.74 55.95 535.6 60.78 534.5 65.6 532.85 70.42 530.55 75.25 534.02 80.07 533.01 84.9 532.66 89.72 533.82 94.54 532.91 99.36 538.65 104.18 530.64 109 542.45 113.82 538.75 118.65 535.27 123.47 541.29 128.29 540 133.11 527.61 137.93 529.98 142.76 533.99 147.58 527.86 152.4 528.31 157.23 533.95 162.05 542.65 166.88 531.66 171.7 541.01 176.53 528.18 181.35 531.29 186.18 534.31 191 534.4 195.82 532.82 200.65 540 205.48 528.96 210.3 534.79 215.13 541.74 219.96 534.4 224.78 529.13 229.61 527.43 234.43 535.8 239.26 530.48 244.08 539.43 248.91 531.94 253.74 542.64 258.57 528.87 263.39 530.03 268.22 540.44 273.05 528.59 277.89 529.53 278.38 530.9 285.18 530.48 281.56 525.69 288.38 520.89 275.34 516.1 277.15 511.3 284.94 506.51 285.41 501.71 281.89 496.91 277.48 492.11 284.65 487.31 283.67 482.51 281.59 477.72 289.68 472.92 275.36 468.12 278.17 463.33 281.9 458.53 282.14 453.74 275.3 448.94 277.78 444.14 278.72 439.34 288.16 434.54 285.86 429.74 278.27 424.94 290.21 420.15 280.16 415.35 277.82 410.55 278.57 405.75 279.54 400.96 282.82 396.16 275.15 391.36 278.3 386.56 286.67 381.76 279.13 376.96 282.21 372.16 281.84 367.37 289.58 362.57 279.16 357.77 283.88 352.97 278.71 348.17 289.56 343.37 279.76 338.57 286.1 333.77 288.89 328.97 283.22 324.18 279.09 319.38 277.71 314.58 284.53 309.78 283.3 304.98 280.04 300.18 287.34 295.38 282.44 290.58 288.76 285.78 288.1 280.98 289.24 276.18 276.37 271.38 286.63 266.58 285.29 261.78 290.3 256.98 287.66 252.18 281.47 247.38 280.72 242.58 288.8 237.78 282.34 232.97 276.37 228.17 276.71 223.37 278.66 218.57 280.85 213.77 280.54 208.97 282.95 204.17 274.98 199.37 281.77 194.57 283.36 189.77 280.84 184.98 281.12 180.18 278.18 175.38 285.63 170.58 286.29 165.78 283.95 160.98 288.99 156.19 280.54 151.38 286.59 146.58 276.81 141.78 287.87 136.98 274.88 132.18 278.6 127.38 285.93 122.58 284.75 117.78 274.96 112.98 279.08 108.17 288.81 103.37 284.15 98.57 280.04 93.77 280.91 88.96 285.66 84.16 280.24 79.36 286.94 74.55 279.43 69.75 285.55 64.94 282.19 60.15 285.44 55.34 279.33 50.54 278.25 45.74 276.21 40.93 279.67 36.13 279.62 31.32 286.19 26.52 276.39 21.71 283.39 16.9 289.58 12.09 282.41 7.59 277.97 14.49 273.22 12.99 268.46 11.71 263.71 0.21 258.96 10.29 254.21 9.96 249.46 5.14 244.71 14.11 239.96 4.24 235.21 0.83 230.46 14.99 225.71 8.33 220.96 0.33 216.21 6.58 211.46 1.84 206.7 0.68 201.95 9.55 197.2 6.1 192.44 3.71 187.69 4.68 182.94 13.84 178.19 0.43 173.43 9.63 168.68 0.57 163.92 13.21 159.17 7.49 154.41 1.66 149.66 4.38 144.91 3.91 140.15 7.57 135.39 1.48 130.64 5.83 125.88 12.95 121.13 10.41 116.37 13.31 111.62 13.2 106.87 5.33 102.11 10.66 97.35 0 92.59 7.63 87.84 10.91 83.08 2.52 78.32 5.87 77.29 12 70.41 13.54" fill="#a5a2a2"/></g><polygon points="74.41 15.54 70.09 13.51 66.04 16.79 61.39 19.46 57.47 22.56 63.17 33.48 51.09 27.62 53.11 34.13 52.53 39.84 44.45 38.72 41.66 42.54 44.46 52.4 38.26 52.83 31.58 53.65 27.85 57.37 25.05 61.78 19.96 64.56 22.41 72.33 18.04 75.53 21.77 83.94 18.04 84.58 10.37 92.18 13.82 93.84 18.62 97.06 15.21 99.65 19.14 100.63 17.26 103.64 6.38 108.46 12.91 113.28 5.92 118.09 14.76 122.91 5.35 127.72 7.25 132.54 5.84 137.35 14.55 142.17 16.7 146.98 17.55 151.8 8.55 156.62 16.39 161.43 12.4 166.25 16.71 171.07 7.18 175.88 6.14 180.7 12.28 185.51 19.64 190.33 16 195.15 17.77 199.96 18.89 204.78 5.64 209.6 5.99 214.41 12.84 219.23 18.23 224.05 18.99 228.86 8.41 233.68 7.71 238.5 15.13 243.32 10.47 248.13 10.86 252.95 15.2 257.77 16.68 262.58 4.6 267.4 6.47 272.22 9.2 277.04 11.78 281.85 12.73 286.67 10.81 291.49 17.7 296.31 18.52 301.13 7.51 305.94 11.13 310.76 13.88 315.58 9.74 320.4 12.58 325.21 11.05 330.04 11.93 334.85 10.56 339.67 5.03 344.49 8.6 349.31 5.57 354.12 19.5 358.93 17.27 363.75 7.27 368.56 13.05 373.38 15.47 378.2 9.16 383.02 9.01 387.83 9.64 392.65 19.11 397.47 7.78 402.29 9.47 407.1 11.06 411.92 11.15 416.74 6.57 421.56 7.89 426.38 9.66 431.2 9.22 436.01 10.4 440.84 4.41 445.65 11.22 450.48 10.51 455.3 19.2 460.12 12.95 464.94 16.45 469.76 6.71 474.58 4 479.4 15.04 484.22 5.15 489.04 16.43 493.86 16.57 498.68 9.45 503.5 4.63 508.33 8.57 513.15 11.39 517.97 19.45 522.79 15.24 527.62 10.51 532.45 11.93 537.07 16.55 542.12 21.37 531.72 26.19 543.63 31.02 538.45 35.84 534.8 40.66 542.74 45.48 541.95 50.31 538.4 55.13 540.74 59.95 537.6 64.78 536.5 69.6 534.85 74.42 532.55 79.25 536.02 84.07 535.01 88.9 534.66 93.72 535.82 98.54 534.91 103.36 540.65 108.18 532.64 113 544.45 117.82 540.75 122.65 537.27 127.47 543.29 132.29 542 137.11 529.61 141.93 531.98 146.76 535.99 151.58 529.86 156.4 530.31 161.23 535.95 166.05 544.65 170.88 533.66 175.7 543.01 180.53 530.18 185.35 533.29 190.18 536.31 195 536.4 199.82 534.82 204.65 542 209.48 530.96 214.3 536.79 219.13 543.74 223.96 536.4 228.78 531.13 233.61 529.43 238.43 537.8 243.26 532.48 248.08 541.43 252.91 533.94 257.74 544.64 262.57 530.87 267.39 532.03 272.22 542.44 277.05 530.59 281.89 531.53 282.38 532.9 289.18 532.48 285.56 527.69 292.38 522.89 279.34 518.1 281.15 513.3 288.94 508.51 289.41 503.71 285.89 498.91 281.48 494.11 288.65 489.31 287.67 484.51 285.59 479.72 293.68 474.92 279.36 470.12 282.17 465.33 285.9 460.53 286.14 455.74 279.3 450.94 281.78 446.14 282.72 441.34 292.16 436.54 289.86 431.74 282.27 426.94 294.21 422.15 284.16 417.35 281.82 412.55 282.57 407.75 283.54 402.96 286.82 398.16 279.15 393.36 282.3 388.56 290.67 383.76 283.13 378.96 286.21 374.16 285.84 369.37 293.58 364.57 283.16 359.77 287.88 354.97 282.71 350.17 293.56 345.37 283.76 340.57 290.1 335.77 292.89 330.97 287.22 326.18 283.09 321.38 281.71 316.58 288.53 311.78 287.3 306.98 284.04 302.18 291.34 297.38 286.44 292.58 292.76 287.78 292.1 282.98 293.24 278.18 280.37 273.38 290.63 268.58 289.29 263.78 294.3 258.98 291.66 254.18 285.47 249.38 284.72 244.58 292.8 239.78 286.34 234.97 280.37 230.17 280.71 225.37 282.66 220.57 284.85 215.77 284.54 210.97 286.95 206.17 278.98 201.37 285.77 196.57 287.36 191.77 284.84 186.98 285.12 182.18 282.18 177.38 289.63 172.58 290.29 167.78 287.95 162.98 292.99 158.19 284.54 153.38 290.59 148.58 280.81 143.78 291.87 138.98 278.88 134.18 282.6 129.38 289.93 124.58 288.75 119.78 278.96 114.98 283.08 110.17 292.81 105.37 288.15 100.57 284.04 95.77 284.91 90.96 289.66 86.16 284.24 81.36 290.94 76.55 283.43 71.75 289.55 66.94 286.19 62.15 289.44 57.34 283.33 52.54 282.25 47.74 280.21 42.93 283.67 38.13 283.62 33.32 290.19 28.52 280.39 23.71 287.39 18.9 293.58 14.09 286.41 9.59 281.97 16.49 277.22 14.99 272.46 13.71 267.71 2.21 262.96 12.29 258.21 11.96 253.46 7.14 248.71 16.11 243.96 6.24 239.21 2.83 234.46 16.99 229.71 10.33 224.96 2.33 220.21 8.58 215.46 3.84 210.7 2.68 205.95 11.55 201.2 8.1 196.44 5.71 191.69 6.68 186.94 15.84 182.19 2.43 177.43 11.63 172.68 2.57 167.92 15.21 163.17 9.49 158.41 3.66 153.66 6.38 148.91 5.91 144.15 9.57 139.39 3.48 134.64 7.83 129.88 14.95 125.13 12.41 120.37 15.31 115.62 15.2 110.87 7.33 106.11 12.66 101.35 2 96.59 9.63 91.84 12.91 87.08 4.52 82.32 7.87 81.29 14 74.41 15.54" fill="#fff"/></g></g></svg>