<svg id="aabe9d34-f036-4a5d-8e57-e8d57a176416" data-name="Capa 1" xmlns="http://www.w3.org/2000/svg" viewBox="0 0 266.92 228.14"><polygon points="33.38 181.26 38.65 178.21 40.98 182.75 43.59 184.34 46.22 182.7 48.7 180.21 51.49 182.96 53.65 178.83 56.29 179.53 60.08 185.93 61.6 180.03 64.83 182.16 67.35 181.2 69.25 178.44 71.38 176.68 73.07 174.04 77.96 178.73 76.95 170.56 81.86 174.49 85.51 175.51 86.67 172.2 87.02 167.91 90.13 167.88 89.69 166.48 89.35 164.52 86.07 168.1 84.23 163.8 81.8 162.93 80.86 158.13 76.25 162.81 73.86 161.58 70.34 162.12 69.58 158.38 69.37 154.56 65.89 154.58 65.83 151.16 60.05 152.44 64.18 146.34 58.23 147.02 57.21 144.51 59.29 140.63 57.66 140.24 58.95 135.25 61.22 135.3 63.45 144.85 66.01 141.56 68.53 140.9 71.36 142.07 73.49 138.39 69.06 142.81 67.11 139.6 66.88 133.1 61.49 138.23 60.59 134.13 61.98 127.54 54.7 132.86 51.59 131.98 56.41 123.59 47.74 127.55 53.86 119.74 48.75 120.17 51.57 115.84 47.09 115.31 44.41 113.57 48.81 109.67 47.54 107.59 48.35 105.12 39.6 103.36 41.26 98.31 42.76 106.58 47.62 101.75 51.06 99.02 51.42 106.48 54.05 106.78 57.41 100.5 55.73 103.94 57.92 102.64 55.56 101.46 54.67 98.78 50.45 99.06 48.97 96.81 49.15 93.53 43.31 93.75 45.29 89.69 45.26 86.86 42.54 84.96 49.2 80.71 46.82 78.79 43.7 76.68 43.82 74.12 44.21 71.6 48.17 69.53 40.17 65.74 48.98 65.12 49.92 63.06 50.45 60.85 48.35 57.28 48.4 56.3 49.37 56.75 48.55 61.04 55.19 58.37 59 58.16 55 65.91 58.48 66.04 57.92 70.64 59.45 73 64.78 70.68 66.01 73.35 70.96 70.99 73.64 71.53 74.14 75.3 77.7 74.4 79.44 76.34 81.48 77.83 82.06 82.14 85.64 80.74 89.17 79.12 89.2 85.23 93.54 81.38 92.62 90.85 95.08 91.97 100.49 83.86 101.58 88.91 103.65 91.13 106.15 91.88 109.96 86.67 111.71 90.65 113.18 97.14 116.81 91.08 119.59 89.51 121.75 92.9 124.65 89.28 125.34 91.97 128.69 92.18 126.25 89.94 123.43 87.42 127.45 84.63 124.94 81.84 121.66 78.53 131.78 77.81 130.15 74.88 132.34 73.07 132.27 70.41 130.57 66.63 134.16 65.77 134.13 62.61 135.94 60.7 138.38 59.44 138.11 55.23 144.5 59.09 145.21 55.96 145.33 51.16 149.81 54.32 149.26 46.25 153.37 49.7 156.05 49.79 158.92 51.76 160.94 47.42 163.63 51.22 166.01 51.26 168.72 48.94 171.85 45.38 174.28 46.64 174.75 53.62 178.43 50.35 182.56 47.49 181.56 54.8 183.13 56.59 189.98 51.36 187.09 58.92 194.73 54.44 192.96 56.12 195.93 57.98 199.24 60.43 202.35 61.64 205.07 61.37 205.45 55 205.69 49.22 211.27 55.7 212.26 51.92 214.76 51.28 218.66 47.5 210.5 50.89 211.53 53.92 216.6 59.69 208.57 57.7 208.73 60.95 206.58 62.32 206.24 65.54 200.72 63.42 202.09 68.58 201.07 70.84 202.68 65.29 207.36 75.48 209.26 70.94 210.67 65.78 215.05 70.73 215.25 62.98 220.84 70.04 224.3 62.17 222.29 67.42 215.17 65.53 219.71 72.38 216.96 73.67 218.23 78.56 214.99 79.41 213.92 82.39 208.62 80.67 203.93 79.12 207.54 88.24 206.22 86.82 203.76 89.52 198.91 92.03 197.37 94.47 203.8 97.42 203.54 100.04 205.78 102.97 198.3 104.61 198.37 107.18 196.19 109.34 202.6 113.3 198.26 114.98 196.79 117.25 196.72 119.89 194.68 121.94 199.83 126.38 198.48 128.74 195.14 130.29 189.62 130.81 191.26 134.28 195.33 139.05 192.69 140.73 191.49 143.11 185.94 143.04 189.06 147.85 180.98 145.93 185.53 151.9 187.37 156.39 182.56 156.28 175.68 154.34 181.6 162.29 172.32 158.01 173.2 162.1 169.84 162.47 175.06 171.07 167.28 167.01 163.94 167.12 162.03 168.72 165.19 176.35 158.95 172.79 157.89 175.54 158.74 181.11 156.19 182.1 155.77 186.37 150.29 182.6 148.33 184.36 148.52 190.24 142.29 183.9 140.4 185.79 137.05 184.45 137.25 191.48 134.63 192 133.48 196.68 129.13 192.04 126.46 192.11 123.5 190.94 122.94 199.5 119.7 197.6 116.06 193.11 113.98 196.14 111.99 200.52 108.65 196.06 106.54 200.74 103.81 200.79 100.93 198.13 98.09 193.37 95.73 203.97 92.98 200.32 90.42 196.57 87.65 199.35 85.14 197.26 82.71 195.39 80.36 193.47 77.04 198.09 73.81 200.81 71.45 198.69 69.61 194.75 66.71 195.45 65.45 190.29 62.37 191.56 58.27 195.44 57.41 190 55.72 187.21 51.73 190.02 47.93 191.96 47.26 187.08 42.15 191.27 44.78 180.58 39.35 185 37.34 183.14 33.38 181.26" fill="#b3b3b3"/><polygon points="33.38 181.26 38.65 178.21 40.98 182.75 43.59 184.34 46.22 182.7 48.7 180.21 51.49 182.96 53.65 178.83 56.29 179.53 60.08 185.93 61.6 180.03 64.83 182.16 67.35 181.2 69.25 178.44 71.38 176.68 73.07 174.04 77.96 178.73 76.95 170.56 81.86 174.49 85.51 175.51 86.67 172.2 87.02 167.91 90.13 167.88 89.69 166.48 89.35 164.52 86.07 168.1 84.23 163.8 81.8 162.93 80.86 158.13 76.25 162.81 73.86 161.58 70.34 162.12 69.58 158.38 69.37 154.56 65.89 154.58 65.83 151.16 60.05 152.44 64.18 146.34 58.23 147.02 57.21 144.51 59.29 140.63 57.66 140.24 58.95 135.25 61.22 135.3 63.45 144.85 66.01 141.56 68.53 140.9 71.36 142.07 73.49 138.39 69.06 142.81 67.11 139.6 66.88 133.1 61.49 138.23 60.59 134.13 61.98 127.54 54.7 132.86 51.59 131.98 56.41 123.59 47.74 127.55 53.86 119.74 48.75 120.17 51.57 115.84 47.09 115.31 44.41 113.57 48.81 109.67 47.54 107.59 48.35 105.12 39.6 103.36 41.26 98.31 42.76 106.58 47.62 101.75 51.06 99.02 51.42 106.48 54.05 106.78 57.41 100.5 55.73 103.94 57.92 102.64 55.56 101.46 54.67 98.78 50.45 99.06 48.97 96.81 49.15 93.53 43.31 93.75 45.29 89.69 45.26 86.86 42.54 84.96 49.2 80.71 46.82 78.79 43.7 76.68 43.82 74.12 44.21 71.6 48.17 69.53 40.17 65.74 48.98 65.12 49.92 63.06 50.45 60.85 48.35 57.28 48.4 56.3 49.37 56.75 48.55 61.04 55.19 58.37 59 58.16 55 65.91 58.48 66.04 57.92 70.64 59.45 73 64.78 70.68 66.01 73.35 70.96 70.99 73.64 71.53 74.14 75.3 77.7 74.4 79.44 76.34 81.48 77.83 82.06 82.14 85.64 80.74 89.17 79.12 89.2 85.23 93.54 81.38 92.62 90.85 95.08 91.97 100.49 83.86 101.58 88.91 103.65 91.13 106.15 91.88 109.96 86.67 111.71 90.65 113.18 97.14 116.81 91.08 119.59 89.51 121.75 92.9 124.65 89.28 125.34 91.97 128.69 92.18 126.25 89.94 123.43 87.42 127.45 84.63 124.94 81.84 121.66 78.53 131.78 77.81 130.15 74.88 132.34 73.07 132.27 70.41 130.57 66.63 134.16 65.77 134.13 62.61 135.94 60.7 138.38 59.44 138.11 55.23 144.5 59.09 145.21 55.96 145.33 51.16 149.81 54.32 149.26 46.25 153.37 49.7 156.05 49.79 158.92 51.76 160.94 47.42 163.63 51.22 166.01 51.26 168.72 48.94 171.85 45.38 174.28 46.64 174.75 53.62 178.43 50.35 182.56 47.49 181.56 54.8 183.13 56.59 189.98 51.36 187.09 58.92 194.73 54.44 192.96 56.12 195.93 57.98 199.24 60.43 202.35 61.64 205.07 61.37 205.45 55 205.69 49.22 211.27 55.7 212.26 51.92 214.76 51.28 218.66 47.5 210.5 50.89 211.53 53.92 216.6 59.69 208.57 57.7 208.73 60.95 206.58 62.32 206.24 65.54 200.72 63.42 202.09 68.58 201.07 70.84 202.68 65.29 207.36 75.48 209.26 70.94 210.67 65.78 215.05 70.73 215.25 62.98 220.84 70.04 224.3 62.17 222.29 67.42 215.17 65.53 219.71 72.38 216.96 73.67 218.23 78.56 214.99 79.41 213.92 82.39 208.62 80.67 203.93 79.12 207.54 88.24 206.22 86.82 203.76 89.52 198.91 92.03 197.37 94.47 203.8 97.42 203.54 100.04 205.78 102.97 198.3 104.61 198.37 107.18 196.19 109.34 202.6 113.3 198.26 114.98 196.79 117.25 196.72 119.89 194.68 121.94 199.83 126.38 198.48 128.74 195.14 130.29 189.62 130.81 191.26 134.28 195.33 139.05 192.69 140.73 191.49 143.11 185.94 143.04 189.06 147.85 180.98 145.93 185.53 151.9 187.37 156.39 182.56 156.28 175.68 154.34 181.6 162.29 172.32 158.01 173.2 162.1 169.84 162.47 175.06 171.07 167.28 167.01 163.94 167.12 162.03 168.72 165.19 176.35 158.95 172.79 157.89 175.54 158.74 181.11 156.19 182.1 155.77 186.37 150.29 182.6 148.33 184.36 148.52 190.24 142.29 183.9 140.4 185.79 137.05 184.45 137.25 191.48 134.63 192 133.48 196.68 129.13 192.04 126.46 192.11 123.5 190.94 122.94 199.5 119.7 197.6 116.06 193.11 113.98 196.14 111.99 200.52 108.65 196.06 106.54 200.74 103.81 200.79 100.93 198.13 98.09 193.37 95.73 203.97 92.98 200.32 90.42 196.57 87.65 199.35 85.14 197.26 82.71 195.39 80.36 193.47 77.04 198.09 73.81 200.81 71.45 198.69 69.61 194.75 66.71 195.45 65.45 190.29 62.37 191.56 58.27 195.44 57.41 190 55.72 187.21 51.73 190.02 47.93 191.96 47.26 187.08 42.15 191.27 44.78 180.58 39.35 185 37.34 183.14 33.38 181.26" fill="none" stroke="#fff" stroke-miterlimit="10" stroke-width="20.75"/><path d="M861.38,600c.82.56,1.27.91,1.76,1.2,27.27,16.22,56.38,20,86.87,11.89,51-13.55,79.57-62.5,78.39-107.7a3.17,3.17,0,0,1,1.47-3,74.06,74.06,0,0,0,16.7-17.37c.23-.34.39-.73.78-1.48a76.77,76.77,0,0,1-21,5.91c2.93-2.86,6.21-5.73,9.08-9a31.17,31.17,0,0,0,6.36-11.81c-.81.4-1.25.6-1.67.83a81.75,81.75,0,0,1-21,7.89,2.38,2.38,0,0,1-2.53-.75,37.71,37.71,0,0,0-22.15-10.75c-25.66-3.26-47.2,19.77-42.21,45.14a13.52,13.52,0,0,1,.13,1.52c-31.91-2.18-57.93-15.52-78.63-39.77a37.58,37.58,0,0,0-4.19,27.53c2.1,9.61,7.45,17.19,15.3,23.14a9.75,9.75,0,0,1-2.41,0,40.37,40.37,0,0,1-14.13-4.47,37.73,37.73,0,0,0,8.38,24.29c5.56,7,12.81,11.36,22,13.61a41.57,41.57,0,0,1-17,.74c6.47,16.35,18.18,25.1,35.72,26.62C900.62,596.88,882.2,601.91,861.38,600Z" transform="translate(-825.54 -425.43)" fill="#999"/><circle cx="160.23" cy="61.32" r="6.92" fill="#e6e6e6"/></svg>