<svg id="a67764cf-3530-479d-9aef-51cdd81311fd" data-name="Capa 1" xmlns="http://www.w3.org/2000/svg" viewBox="0 0 140.14 123.47"><path d="M944.79,480.14c-.69.42-1.14.67-1.56.95l-17.32,11.63a88.84,88.84,0,0,1-49.53,15.11h-1.65a16.37,16.37,0,0,0-16.38,16.37q0,30.07,0,60.16c0,10.42,6.14,16.53,16.6,16.53H976.9c4.07,0,8.14.06,12.21,0a7.2,7.2,0,0,0,7-7.2c0-19.71.08-39.42,0-59.13a12.57,12.57,0,0,0-9.72-12.3,3.13,3.13,0,0,1-2.47-2.4c-2.52-7.34-5.1-14.67-7.68-22-.28-.8-.66-1.57-1-2.43-4.85,1.69-9.49,3.22-14.05,5-1.73.65-2.66.45-3.72-1.2C953.38,492.82,949.11,486.6,944.79,480.14Z" transform="translate(-857.19 -478.59)" fill="#fff" stroke="#000" stroke-miterlimit="10" stroke-width="2.3"/><path d="M944.79,480.14c4.32,6.46,8.59,12.68,12.67,19,1.06,1.65,2,1.85,3.72,1.2,4.56-1.73,9.2-3.26,14.05-5,.36.86.74,1.63,1,2.43,2.58,7.33,5.16,14.66,7.68,22a3.13,3.13,0,0,0,2.47,2.4,12.57,12.57,0,0,1,9.72,12.3c.09,19.71.06,39.42,0,59.13a7.2,7.2,0,0,1-7,7.2c-4.07.09-8.14,0-12.21,0H875c-11.67,0-18-7.62-16.35-20.34,2.22-17.44,2.59-35.08,0-52.48-1.8-12.29,4.79-20.24,16.09-20.24,8.59,0,17.18-.05,25.76,0a9.38,9.38,0,0,0,5.36-1.61c12.43-8.44,24.91-16.79,37.38-25.17C943.65,480.81,944.1,480.56,944.79,480.14ZM901,509.43l-.16-.56H874.94c-10.9,0-17,7.48-15.22,19.46a172.8,172.8,0,0,1,.08,50.52c-2,13.51,3.65,21,15.48,21h99.28c4.74,0,9.47,0,14.21,0a6.29,6.29,0,0,0,6.22-6.25c0-4.59,0-9.18,0-13.77a16.69,16.69,0,0,0-.19-1.81h-2.57c-10.21,0-20.42,0-30.63,0a14.09,14.09,0,0,1-14-13.86c0-2.37,0-4.74,0-7.11.09-8.34,5.84-14,14.21-14q15.33,0,30.65,0h2.41c0-3.27,0-6.28,0-9.26a9.85,9.85,0,0,0-.33-2.22c-1.57-5.34-6-8.57-11.92-8.58q-32.64,0-65.29,0-18.76,0-37.54,0a16,16,0,0,1-2.26-.32l.05-.58a3.46,3.46,0,0,1,1.19-.22c3.14.56,5.51-1,7.92-2.64C891.41,515.8,896.23,512.65,901,509.43Zm93.91,34.88a3.25,3.25,0,0,0-.65-.24c-11.06,0-22.12-.19-33.17,0a12.82,12.82,0,0,0-12.39,12.29c-.05,2.37,0,4.75,0,7.13,0,8.1,5.23,13.26,13.38,13.27q15.2,0,30.41,0h2.43Zm-37.18-42.83c-4.49-6.7-8.86-13.24-13.3-19.88l-59,39.66c3.42.47,6.66.35,9.89.5a23.34,23.34,0,0,0,9.09-1.55c10.86-3.89,21.76-7.64,32.64-11.45C943.86,506.37,950.69,504,957.74,501.48Zm25.64,20c-2.91-8.31-5.77-16.46-8.68-24.78l-70,24.51.07.37h74.18c-2.27-6.49-4.48-12.8-6.75-19.27l-23.95,8.34-.16-.49,24.44-8.54c2.07,5.9,4,11.55,6,17.19C979.6,522,979.6,522,983.38,521.51Z" transform="translate(-857.19 -478.59)" stroke="#000" stroke-miterlimit="10" stroke-width="2.3"/><path d="M901,509.43c-4.78,3.22-9.6,6.37-14.31,9.68-2.41,1.69-4.78,3.2-7.92,2.64a3.46,3.46,0,0,0-1.19.22l-.05.58a16,16,0,0,0,2.26.32q18.76,0,37.54,0,32.64,0,65.29,0c5.94,0,10.35,3.24,11.92,8.58a9.85,9.85,0,0,1,.33,2.22c0,3,0,6,0,9.26h-2.41q-15.33,0-30.65,0c-8.37,0-14.12,5.69-14.21,14,0,2.37,0,4.74,0,7.11a14.09,14.09,0,0,0,14,13.86c10.21.06,20.42,0,30.63,0h2.57a16.69,16.69,0,0,1,.19,1.81c0,4.59,0,9.18,0,13.77a6.29,6.29,0,0,1-6.22,6.25c-4.74.05-9.47,0-14.21,0H875.28c-11.83,0-17.45-7.47-15.48-21a172.8,172.8,0,0,0-.08-50.52c-1.78-12,4.32-19.46,15.22-19.46h25.91Z" transform="translate(-857.19 -478.59)" fill="#fff" stroke="#000" stroke-miterlimit="10" stroke-width="2.3"/><path d="M994.92,544.31v32.51h-2.43q-15.21,0-30.41,0c-8.15,0-13.35-5.17-13.38-13.27,0-2.38,0-4.76,0-7.13a12.82,12.82,0,0,1,12.39-12.29c11-.24,22.11-.06,33.17,0A3.25,3.25,0,0,1,994.92,544.31Zm-32,25.19a9.22,9.22,0,1,0-7.33-7.27A9.24,9.24,0,0,0,962.87,569.5Zm27.62-20-.27,0v21.71h.27Z" transform="translate(-857.19 -478.59)" fill="#fff" stroke="#000" stroke-miterlimit="10" stroke-width="2.3"/><path d="M957.74,501.48c-7,2.48-13.88,4.89-20.71,7.28-10.88,3.81-21.78,7.56-32.64,11.45a23.34,23.34,0,0,1-9.09,1.55c-3.23-.15-6.47,0-9.89-.5l59-39.66C948.88,488.24,953.25,494.78,957.74,501.48Zm-37,1.1.35.39,22.24-14.82,1.52,1.85.33-.24-1.65-2.42Z" transform="translate(-857.19 -478.59)" fill="#fff" stroke="#000" stroke-miterlimit="10" stroke-width="2.3"/><path d="M983.38,521.51c-3.78.47-3.78.47-4.88-2.67-2-5.64-3.94-11.29-6-17.19l-24.44,8.54.16.49,23.95-8.34c2.27,6.47,4.48,12.78,6.75,19.27H904.73l-.07-.37,70-24.51C977.61,505.05,980.47,513.2,983.38,521.51Z" transform="translate(-857.19 -478.59)" fill="#fff" stroke="#000" stroke-miterlimit="10" stroke-width="2.3"/><path d="M873.87,588.19c-.9-1.76-2.55-3.51-2.58-5.3-.23-11.83-.12-23.65-.11-35.52a5.06,5.06,0,0,1,.44-1v2.87c0,9.4.06,18.8,0,28.2,0,3.79-.05,7.5,2.24,10.78Z" transform="translate(-857.19 -478.59)" stroke="#000" stroke-miterlimit="10" stroke-width="2.3"/><path d="M874.18,589.29c4.08,3.23,14.59,1.7,15.56,1.82-3.71,0-7.46.3-11.12-.13" transform="translate(-857.19 -478.59)" stroke="#000" stroke-miterlimit="10" stroke-width="2.3"/><path d="M964.69,569.66a9.22,9.22,0,1,1,9.15-9.2A9.21,9.21,0,0,1,964.69,569.66Zm1.58-17.18a8.16,8.16,0,1,0,6.3,6.41A8.16,8.16,0,0,0,966.27,552.48Z" transform="translate(-857.19 -478.59)" stroke="#000" stroke-miterlimit="10" stroke-width="2.3"/><path d="M990.49,549.49v21.74h-.27V549.52Z" transform="translate(-857.19 -478.59)" stroke="#000" stroke-miterlimit="10" stroke-width="2.3"/><path d="M920.76,502.58l22.79-15.24,1.65,2.42-.33.24-1.52-1.85L921.11,503Z" transform="translate(-857.19 -478.59)" stroke="#000" stroke-miterlimit="10" stroke-width="2.3"/><path d="M966.27,552.48a8.15,8.15,0,1,1-9.81,8A8.14,8.14,0,0,1,966.27,552.48Z" transform="translate(-857.19 -478.59)" fill="#fff" stroke="#000" stroke-miterlimit="10" stroke-width="2.3"/></svg>