<svg id="e3f983b0-c2c5-4a99-bbc7-fe46cf18c056" data-name="Capa 1" xmlns="http://www.w3.org/2000/svg" viewBox="0 0 185.56 149.07"><path d="M1010.68,385.35c-.69.42-1.13.67-1.55.95-12.47,8.38-25,16.73-37.39,25.17a8.83,8.83,0,0,1-5.35,1.61c-8.59-.09-17.18,0-25.77,0-10,0-16.37,6.29-16.38,16.34q0,30.09,0,60.19c0,10.42,6.15,16.52,16.6,16.53h101.95c4.07,0,8.15.06,12.22,0s7-2.86,7-7q.08-29.66,0-59.3a12.57,12.57,0,0,0-9.71-12.3,3.15,3.15,0,0,1-2.48-2.4c-2.52-7.35-5.1-14.67-7.67-22-.29-.8-.66-1.57-1-2.44-4.85,1.7-9.48,3.23-14,4.95-1.74.66-2.67.46-3.73-1.19C1019.27,398,1015,391.8,1010.68,385.35Z" transform="translate(-897.85 -383.8)" fill="none" stroke="#fff" stroke-miterlimit="10" stroke-width="2.3"/><path d="M1010.68,385.35c4.32,6.45,8.59,12.68,12.67,19,1.06,1.65,2,1.85,3.73,1.19,4.56-1.72,9.19-3.25,14-4.95.37.87.74,1.64,1,2.44,2.57,7.33,5.15,14.65,7.67,22a3.15,3.15,0,0,0,2.48,2.4,12.57,12.57,0,0,1,9.71,12.3q.13,29.64,0,59.3c0,4.17-2.85,6.94-7,7s-8.15,0-12.22,0H940.84c-10.45,0-16.59-6.11-16.6-16.53q0-30.09,0-60.19c0-10.05,6.33-16.34,16.38-16.34,8.59,0,17.18-.05,25.77,0a8.83,8.83,0,0,0,5.35-1.61c12.43-8.44,24.92-16.79,37.39-25.17C1009.55,386,1010,385.77,1010.68,385.35ZM966.9,414.64l-.15-.56H940.84c-9.64,0-15.52,5.84-15.53,15.47q0,29.76,0,59.52c0,10.34,5.59,16,15.86,16h99.28c4.74,0,9.48,0,14.22,0,3.89,0,6.18-2.35,6.22-6.25,0-4.59,0-9.18,0-13.77,0-.56-.12-1.12-.19-1.81h-2.57c-10.22,0-20.44,0-30.65,0-8.05,0-13.83-5.82-14-13.86,0-2.37,0-4.74,0-7.11.1-8.34,5.85-14,14.21-14q15.33,0,30.65,0h2.41c0-3.57,0-6.82,0-10.06a5.53,5.53,0,0,0-.29-1.3c-1.54-5.41-6-8.69-12-8.7q-32.65,0-65.3,0-18.76,0-37.53,0a16.1,16.1,0,0,1-2.27-.32l.06-.58a3.46,3.46,0,0,1,1.19-.22c3.13.56,5.5-.95,7.92-2.64C957.31,421,962.13,417.86,966.9,414.64Zm93.91,34.88a3,3,0,0,0-.65-.24c-11.32,0-22.64-.2-34,.07-6.59.16-11.48,5.7-11.61,12.3-.05,2.37,0,4.73,0,7.1,0,8.1,5.23,13.26,13.38,13.27q15.21,0,30.41,0h2.43Zm-37.18-42.83c-4.48-6.7-8.85-13.24-13.3-19.88l-59,39.66c3.42.47,6.66.35,9.89.5a23.29,23.29,0,0,0,9.08-1.55c10.86-3.89,21.76-7.64,32.65-11.45C1009.76,411.58,1016.58,409.17,1023.63,406.69Zm25.64,20-8.67-24.78-70,24.5.13.38h74.11l-6.74-19.27-23.95,8.33-.17-.48,24.45-8.54c2.06,5.9,4,11.55,6,17.19C1045.49,427.19,1045.5,427.19,1049.27,426.72Z" transform="translate(-897.85 -383.8)" fill="none" stroke="#fff" stroke-miterlimit="10" stroke-width="2.3"/><path d="M966.9,414.64c-4.77,3.22-9.59,6.37-14.3,9.68-2.42,1.69-4.79,3.2-7.92,2.64a3.46,3.46,0,0,0-1.19.22l-.06.58a16.1,16.1,0,0,0,2.27.32q18.76,0,37.53,0,32.65,0,65.3,0c6,0,10.41,3.29,12,8.7a5.53,5.53,0,0,1,.29,1.3c0,3.24,0,6.49,0,10.06h-2.41q-15.31,0-30.65,0c-8.36,0-14.11,5.69-14.21,14,0,2.37,0,4.74,0,7.11.14,8,5.92,13.82,14,13.86,10.21.06,20.43,0,30.65,0h2.57c.07.69.18,1.25.19,1.81,0,4.59,0,9.18,0,13.77,0,3.9-2.33,6.21-6.22,6.25-4.74.05-9.48,0-14.22,0H941.17c-10.27,0-15.86-5.63-15.86-16q0-29.76,0-59.52c0-9.63,5.89-15.47,15.53-15.47h25.91Z" transform="translate(-897.85 -383.8)" fill="none" stroke="#fff" stroke-miterlimit="10" stroke-width="2.3"/><path d="M1060.81,449.52V482h-2.43q-15.21,0-30.41,0c-8.15,0-13.34-5.17-13.38-13.27,0-2.37,0-4.73,0-7.1.13-6.6,5-12.14,11.61-12.3,11.31-.27,22.63-.08,34-.07A3,3,0,0,1,1060.81,449.52Zm-30.23,25.35a9.22,9.22,0,1,0-9.32-9.23A9.22,9.22,0,0,0,1030.58,474.87Zm25.8-20.18-.27,0v21.71h.27Z" transform="translate(-897.85 -383.8)" fill="none" stroke="#fff" stroke-miterlimit="10" stroke-width="2.3"/><path d="M986.65,407.79l.35.39,22.24-14.82,1.52,1.85.34-.24-1.65-2.42Zm37-1.1c-7,2.48-13.87,4.89-20.7,7.28-10.89,3.81-21.79,7.56-32.65,11.45A23.29,23.29,0,0,1,961.2,427c-3.23-.15-6.47,0-9.89-.5l59-39.66C1014.78,393.45,1019.15,400,1023.63,406.69Z" transform="translate(-897.85 -383.8)" fill="none" stroke="#fff" stroke-miterlimit="10" stroke-width="2.3"/><path d="M939.77,493.4c-.91-1.76-2.55-3.51-2.59-5.3-.23-11.83-.12-23.65-.11-35.52,0-.13.11-.26.45-1v2.87c0,9.4.05,18.8,0,28.2,0,3.79,0,7.5,2.24,10.78Z" transform="translate(-897.85 -383.8)" fill="none" stroke="#fff" stroke-miterlimit="10" stroke-width="2.3"/><path d="M940.07,494.5c4.09,3.23,14.6,1.7,15.56,1.82-3.71,0-7.46.3-11.12-.13" transform="translate(-897.85 -383.8)" fill="none" stroke="#fff" stroke-miterlimit="10" stroke-width="2.3"/><path d="M1049.27,426.72c-3.77.47-3.78.47-4.87-2.67-2-5.64-4-11.29-6-17.19l-24.45,8.54.17.48,23.95-8.33,6.74,19.27H970.69l-.13-.38,70-24.5Z" transform="translate(-897.85 -383.8)" fill="none" stroke="#fff" stroke-miterlimit="10" stroke-width="2.3"/><path d="M1030.58,474.87a9.22,9.22,0,1,1,9.15-9.2A9.2,9.2,0,0,1,1030.58,474.87Zm-.08-17.35a8.15,8.15,0,1,0,8.11,8.2A8.16,8.16,0,0,0,1030.5,457.52Z" transform="translate(-897.85 -383.8)" fill="none" stroke="#fff" stroke-miterlimit="10" stroke-width="2.3"/><path d="M1056.38,454.69v21.75h-.27V454.73Z" transform="translate(-897.85 -383.8)" fill="none" stroke="#fff" stroke-miterlimit="10" stroke-width="2.3"/><path d="M986.65,407.79l22.8-15.24,1.65,2.42-.34.24-1.52-1.85L987,408.18Z" transform="translate(-897.85 -383.8)" fill="none" stroke="#fff" stroke-miterlimit="10" stroke-width="2.3"/><path d="M1030.5,457.52a8.15,8.15,0,1,1-.13,16.3,8.15,8.15,0,0,1,.13-16.3Z" transform="translate(-897.85 -383.8)" fill="none" stroke="#fff" stroke-miterlimit="10" stroke-width="2.3"/><path d="M1059.73,418.76l-1.31,3.75,7.06,5.75,2.39-1.55,1.85,8.25,3,8.35-5.64,8.07,7.79,8.52-13.37,7.85,10.7,8.49,1.69,8.13-.87,8-10.29,9.17-1-.4-.25,12.48-6.76-11.4-6.67-.16-7.94.66-7.94,12.07-7.94-12.21-7.94.52L1008.3,508l-7.94.47-7.94-3.94-7.94,5.8-7.94-9.51-7.94,12.86-7.94,1.93L952.72,507l-7.94-3-7.94,1.48-8.55,6.26-5.24-7.44-1.79-7.22-3.71-6.5,1.12-7.94-7.63-7,7.07-8.61-4.37-7.39,7-8.31-12.47-7.14,12.17-8-3.4-7.65-4.63-8,7-6.26,5.4-4,6.65-.59,5.55-9.53,6.22,6,8.18-3.7,5.44,7.44,7.81-.2,9.66,1.24" transform="translate(-897.85 -383.8)" fill="none" stroke="#fff" stroke-miterlimit="10" stroke-width="10.9"/></svg>