<svg id="becdfed5-7c8f-461d-a95a-09ee2f3e4a93" data-name="Capa 1" xmlns="http://www.w3.org/2000/svg" viewBox="0 0 250.02 187.87"><path d="M958.15,472.47l-.09-3.86-5.78-6.16-3.81,7.3-4-2.4-3.73,11.36-4-1-4.26-13-3.63,15.56-4.19-9.41-4.2-9.33-3.55,17.88-4.25-11-4-.85-4-2.08L901,478.64l-4.14-5.8-4-6.68-4-1.91-2.58,11.4-2.44,5.69-4.54-3.65-6-3.78-2.32,4.56-1.08,4.6-4.05,1.78-2.63,3.3,6.49,6.31-11.23,1.34,3.06,4.86-1.86,4-11,3.11,13.11,5.59-8.29,3.69-3.38,4.21,4,4.5L848.39,530,862,534.37l-2,4-8.5,4.17,10.14,3.87-12.06,4.36,3.62,4-4.3,4.24,2.91,4,5.31,3.83,1.5,4L853,575.63l1.79,4.28,3.85,3.76,5.38,3.19.93,3.78L863,595.92l7.25,0,1.13,3.56,4.67-1-2.16,13.81,7.57-10.43,2.58,9.76,4.05-3,3.35,4.83,3.6,2.58,4.21-6,3.29,9.46,4.25-10.59,4.33-6.44,4.09.5,4.09.6,3.78,10,4.42-9.87,3.69,13.84,4.24-4.24,4.28-7.7,3.85,13.64,4.24-8.24,4.1,2,4.13,2,4-8.25,4.17,8.21,4.19,5.82,3.74-16.66,4-1.44,4.17,4.61,4-2.54,4.22,5.16,3.77-8.84,4.6,15.23,3.9-5,3.87-5,4-1,4.35,6.8,4.1.65,4.34,5.86,3.85-4.94,3.92-3.42,4.4.49,3-5.16,5.35,2.29L1040,597.73l5.1,1.08,4.93-.95-.45-4.66L1052,590l9.48-1.67-14-7.2,11-2-1.46-4.28-8.92-4.75,9.36-3.26-7.23-4.28,16.74-3.51-11-4.28-.81-4,2.26-4,3.74-4-4.9-4-1.6-4,1-4-6.69-3.74,3.93-4.16,7.3-4.33-1.07-4-2-3.93-4.13-4,9.68-5.54L1064,496l-3.61-4.17-16.39,1,13.66-9.27-5-2.45,4.42-8-8.23-3.75-6.06,1.52-4.28.58-5.09,7.13L1031,463.88l-6.22,15.87L1021.61,467l-4.39-1.17-4.51,1-4.26-4.93-4.48,9.25-4.38,7.89-3.91-10.24-4-7.4-4.37,10-4-8.68-4.19.67-4.4,14.61-4.18.3-4.09-5-4.07-6.06Z" transform="translate(-833.99 -445.56)" fill="#999"/><path d="M958.15,472.47l-.09-3.86-5.78-6.16-3.81,7.3-4-2.4-3.73,11.36-4-1-4.26-13-3.63,15.56-4.19-9.41-4.2-9.33-3.55,17.88-4.25-11-4-.85-4-2.08L901,478.64l-4.14-5.8-4-6.68-4-1.91-2.58,11.4-2.44,5.69-4.54-3.65-6-3.78-2.32,4.56-1.08,4.6-4.05,1.78-2.63,3.3,6.49,6.31-11.23,1.34,3.06,4.86-1.86,4-11,3.11,13.11,5.59-8.29,3.69-3.38,4.21,4,4.5L848.39,530,862,534.37l-2,4-8.5,4.17,10.14,3.87-12.06,4.36,3.62,4-4.3,4.24,2.91,4,5.31,3.83,1.5,4L853,575.63l1.79,4.28,3.85,3.76,5.38,3.19.93,3.78L863,595.92l7.25,0,1.13,3.56,4.67-1-2.16,13.81,7.57-10.43,2.58,9.76,4.05-3,3.35,4.83,3.6,2.58,4.21-6,3.29,9.46,4.25-10.59,4.33-6.44,4.09.5,4.09.6,3.78,10,4.42-9.87,3.69,13.84,4.24-4.24,4.28-7.7,3.85,13.64,4.24-8.24,4.1,2,4.13,2,4-8.25,4.17,8.21,4.19,5.82,3.74-16.66,4-1.44,4.17,4.61,4-2.54,4.22,5.16,3.77-8.84,4.6,15.23,3.9-5,3.87-5,4-1,4.35,6.8,4.1.65,4.34,5.86,3.85-4.94,3.92-3.42,4.4.49,3-5.16,5.35,2.29L1040,597.73l5.1,1.08,4.93-.95-.45-4.66L1052,590l9.48-1.67-14-7.2,11-2-1.46-4.28-8.92-4.75,9.36-3.26-7.23-4.28,16.74-3.51-11-4.28-.81-4,2.26-4,3.74-4-4.9-4-1.6-4,1-4-6.69-3.74,3.93-4.16,7.3-4.33-1.07-4-2-3.93-4.13-4,9.68-5.54L1064,496l-3.61-4.17-16.39,1,13.66-9.27-5-2.45,4.42-8-8.23-3.75-6.06,1.52-4.28.58-5.09,7.13L1031,463.88l-6.22,15.87L1021.61,467l-4.39-1.17-4.51,1-4.26-4.93-4.48,9.25-4.38,7.89-3.91-10.24-4-7.4-4.37,10-4-8.68-4.19.67-4.4,14.61-4.18.3-4.09-5-4.07-6.06Z" transform="translate(-833.99 -445.56)" fill="none" stroke="#fff" stroke-miterlimit="10" stroke-width="9.76"/><path d="M946.32,473.34c16,.3,32,.42,47.94,1a215.21,215.21,0,0,1,25,2.12c8.88,1.36,14.84,6.86,18,15.34a65.18,65.18,0,0,1,3.72,20.42c.55,12.81,1.27,25.64,1,38.44s-.26,25.68-4.09,38.1c-3.56,11.55-12,17.24-23.45,17.76-22.07,1-44.15,1.92-66.24,2.18-17,.2-34.1-.56-51.14-1.1-7.17-.23-14.34-.85-21.49-1.54-12.39-1.19-19.9-8.17-22.56-20.17a97.79,97.79,0,0,1-2.3-16c-.61-11.63-1-23.29-1-34.93a194.79,194.79,0,0,1,2.88-36.63c2.33-12.46,9.2-19.95,21-22.19a88.07,88.07,0,0,1,14-1.28c17.77-.52,35.56-.87,53.34-1.28,1.8,0,3.61,0,5.41,0Zm-21.05,94.32,51.27-27.56-51.27-26.62Z" transform="translate(-833.99 -445.56)" fill="#999"/><path d="M925.27,568.2V514l51.27,26.62Z" transform="translate(-833.99 -445.56)" fill="#fff"/><path d="M925.27,568.2V514l51.27,26.62Z" transform="translate(-833.99 -445.56)" fill="none" stroke="#fff" stroke-miterlimit="10" stroke-width="5.42"/></svg>